solid OpenSCAD_Model
  facet normal -0.707107 0.707107 0
    outer loop
      vertex 22.55 -55 -2.20934e-15
      vertex 25.05 -52.5 15
      vertex 25.05 -52.5 -1.65423e-15
    endloop
  endfacet
  facet normal -0.707107 0.707107 0
    outer loop
      vertex 25.05 -52.5 15
      vertex 22.55 -55 -2.20934e-15
      vertex 22.55 -55 15
    endloop
  endfacet
  facet normal -0.707107 -0.707107 0
    outer loop
      vertex 25.05 -62.5 -1.65423e-15
      vertex 22.55 -60 15
      vertex 22.55 -60 -2.20934e-15
    endloop
  endfacet
  facet normal -0.707107 -0.707107 0
    outer loop
      vertex 22.55 -60 15
      vertex 25.05 -62.5 -1.65423e-15
      vertex 25.05 -62.5 15
    endloop
  endfacet
  facet normal 0 -1 0
    outer loop
      vertex 25.05 -62.5 15
      vertex 38.75 -62.5 1.38778e-15
      vertex 38.75 -62.5 15
    endloop
  endfacet
  facet normal -0 -1 0
    outer loop
      vertex 38.75 -62.5 1.38778e-15
      vertex 25.05 -62.5 15
      vertex 25.05 -62.5 -1.65423e-15
    endloop
  endfacet
  facet normal 0 1 -0
    outer loop
      vertex 32.5 -52.5 0
      vertex 25.05 -52.5 15
      vertex 32.5 -52.5 15
    endloop
  endfacet
  facet normal 0 1 0
    outer loop
      vertex 25.05 -52.5 15
      vertex 32.5 -52.5 0
      vertex 25.05 -52.5 -1.65423e-15
    endloop
  endfacet
  facet normal -0 0 1
    outer loop
      vertex -7.07692 59.95 15
      vertex 5.06797 56.7337 15
      vertex 3.45035 62.7708 15
    endloop
  endfacet
  facet normal 0 0 1
    outer loop
      vertex -17.5 56.2 15
      vertex -6.25 -15.8968 15
      vertex -6.25 53.7011 15
    endloop
  endfacet
  facet normal 0 0 1
    outer loop
      vertex -17.5 -35 15
      vertex -6.25 -15.8968 15
      vertex -17.5 56.2 15
    endloop
  endfacet
  facet normal -0 0 1
    outer loop
      vertex -13.75 59.95 15
      vertex -6.25 53.7011 15
      vertex -7.07692 59.95 15
    endloop
  endfacet
  facet normal 0 0 1
    outer loop
      vertex 5.06797 56.7337 15
      vertex -7.07692 59.95 15
      vertex -6.25 53.7011 15
    endloop
  endfacet
  facet normal 0 0 1
    outer loop
      vertex 34.7169 -35 15
      vertex 11.0549 -35 15
      vertex 32.5 -45 15
    endloop
  endfacet
  facet normal 0 0 1
    outer loop
      vertex -6.25 -15.8968 15
      vertex 11.0549 -35 15
      vertex 34.7169 -35 15
    endloop
  endfacet
  facet normal 0 0 1
    outer loop
      vertex 11.0549 -35 15
      vertex -6.25 -15.8968 15
      vertex -6.25 -26.9306 15
    endloop
  endfacet
  facet normal 0 0 1
    outer loop
      vertex 32.5 -45 15
      vertex 42.5 -38.75 15
      vertex 38.75 -35 15
    endloop
  endfacet
  facet normal 0 0 1
    outer loop
      vertex 42.5 -38.75 15
      vertex 32.5 -45 15
      vertex 42.5 -58.75 15
    endloop
  endfacet
  facet normal 0 0 1
    outer loop
      vertex 32.5 -45 15
      vertex 38.75 -35 15
      vertex 34.7169 -35 15
    endloop
  endfacet
  facet normal -0 0 1
    outer loop
      vertex 32.5 -52.5 15
      vertex 42.5 -58.75 15
      vertex 32.5 -45 15
    endloop
  endfacet
  facet normal 0 0 1
    outer loop
      vertex 42.5 -58.75 15
      vertex 32.5 -52.5 15
      vertex 38.75 -62.5 15
    endloop
  endfacet
  facet normal 0 0 1
    outer loop
      vertex 25.05 -62.5 15
      vertex 32.5 -52.5 15
      vertex 25.05 -52.5 15
    endloop
  endfacet
  facet normal 0 0 1
    outer loop
      vertex 32.5 -52.5 15
      vertex 25.05 -62.5 15
      vertex 38.75 -62.5 15
    endloop
  endfacet
  facet normal -0 0 1
    outer loop
      vertex 22.55 -55 15
      vertex 25.05 -62.5 15
      vertex 25.05 -52.5 15
    endloop
  endfacet
  facet normal 0 0 1
    outer loop
      vertex 25.05 -62.5 15
      vertex 22.55 -55 15
      vertex 22.55 -60 15
    endloop
  endfacet
  facet normal -0 0 1
    outer loop
      vertex -6.25 -35 15
      vertex 32.5 -45 15
      vertex 11.0549 -35 15
    endloop
  endfacet
  facet normal 0 0 1
    outer loop
      vertex -6.25 53.7011 15
      vertex -13.75 59.95 15
      vertex -17.5 56.2 15
    endloop
  endfacet
  facet normal 0 0 1
    outer loop
      vertex -6.25 -15.8968 15
      vertex -17.5 -35 15
      vertex -6.25 -26.9306 15
    endloop
  endfacet
  facet normal 0 0 1
    outer loop
      vertex -6.25 -26.9306 15
      vertex -17.5 -35 15
      vertex -6.25 -35 15
    endloop
  endfacet
  facet normal 0 0 1
    outer loop
      vertex -32.55 -45 15
      vertex -6.25 -35 15
      vertex -17.5 -35 15
    endloop
  endfacet
  facet normal 0 0 1
    outer loop
      vertex -32.55 -45 15
      vertex -17.5 -35 15
      vertex -28.8 -35 15
    endloop
  endfacet
  facet normal 0 0 1
    outer loop
      vertex -32.55 -45 15
      vertex -28.8 -35 15
      vertex -32.55 -38.75 15
    endloop
  endfacet
  facet normal 0 0 1
    outer loop
      vertex -6.25 -35 15
      vertex -32.55 -45 15
      vertex 32.5 -45 15
    endloop
  endfacet
  facet normal -1 0 0
    outer loop
      vertex 22.55 -60 -2.20934e-15
      vertex 22.55 -55 15
      vertex 22.55 -55 -2.20934e-15
    endloop
  endfacet
  facet normal -1 -0 0
    outer loop
      vertex 22.55 -55 15
      vertex 22.55 -60 -2.20934e-15
      vertex 22.55 -60 15
    endloop
  endfacet
  facet normal 2.22045e-16 0 -1
    outer loop
      vertex 32.5 -45 0
      vertex -6.25 -35 -8.60423e-15
      vertex 11.0549 -35 -4.76176e-15
    endloop
  endfacet
  facet normal 2.22045e-16 0 -1
    outer loop
      vertex -17.5 -35 -1.11022e-14
      vertex -6.25 -26.9306 -8.60423e-15
      vertex -6.25 -35 -8.60423e-15
    endloop
  endfacet
  facet normal 2.22045e-16 0 -1
    outer loop
      vertex -6.25 -26.9306 -8.60423e-15
      vertex -17.5 -35 -1.11022e-14
      vertex -6.25 -15.8968 -8.60423e-15
    endloop
  endfacet
  facet normal 2.22045e-16 0 -1
    outer loop
      vertex -17.5 56.2 -1.11022e-14
      vertex -6.25 -15.8968 -8.60423e-15
      vertex -17.5 -35 -1.11022e-14
    endloop
  endfacet
  facet normal 2.22045e-16 0 -1
    outer loop
      vertex -13.75 59.95 -1.02696e-14
      vertex -6.25 53.7011 -8.60423e-15
      vertex -17.5 56.2 -1.11022e-14
    endloop
  endfacet
  facet normal 2.22045e-16 0 -1
    outer loop
      vertex -6.25 -15.8968 -8.60423e-15
      vertex -17.5 56.2 -1.11022e-14
      vertex -6.25 53.7011 -8.60423e-15
    endloop
  endfacet
  facet normal 2.22045e-16 5.04574e-23 -1
    outer loop
      vertex -32.55 -45 -1.4444e-14
      vertex -6.25 -35 -8.60423e-15
      vertex 32.5 -45 0
    endloop
  endfacet
  facet normal 2.22045e-16 8.47033e-23 -1
    outer loop
      vertex -6.25 -35 -8.60423e-15
      vertex -32.55 -45 -1.4444e-14
      vertex -17.5 -35 -1.11022e-14
    endloop
  endfacet
  facet normal 2.22045e-16 8.47033e-23 -1
    outer loop
      vertex -17.5 -35 -1.11022e-14
      vertex -32.55 -45 -1.4444e-14
      vertex -28.8 -35 -1.36113e-14
    endloop
  endfacet
  facet normal 2.22045e-16 0 -1
    outer loop
      vertex -28.8 -35 -1.36113e-14
      vertex -32.55 -45 -1.4444e-14
      vertex -32.55 -38.75 -1.4444e-14
    endloop
  endfacet
  facet normal 2.22045e-16 0 -1
    outer loop
      vertex 32.5 -52.5 0
      vertex 42.5 -58.75 2.22045e-15
      vertex 38.75 -62.5 1.38778e-15
    endloop
  endfacet
  facet normal 2.22045e-16 0 -1
    outer loop
      vertex 42.5 -58.75 2.22045e-15
      vertex 32.5 -52.5 0
      vertex 42.5 -38.75 2.22045e-15
    endloop
  endfacet
  facet normal 2.22045e-16 0 -1
    outer loop
      vertex 42.5 -38.75 2.22045e-15
      vertex 32.5 -45 0
      vertex 38.75 -35 1.38778e-15
    endloop
  endfacet
  facet normal 2.22045e-16 0 -1
    outer loop
      vertex 42.5 -38.75 2.22045e-15
      vertex 32.5 -52.5 0
      vertex 32.5 -45 0
    endloop
  endfacet
  facet normal 2.22045e-16 -9.6605e-24 -1
    outer loop
      vertex 25.05 -62.5 -1.65423e-15
      vertex 32.5 -52.5 0
      vertex 38.75 -62.5 1.38778e-15
    endloop
  endfacet
  facet normal 2.22045e-16 0 -1
    outer loop
      vertex 25.05 -62.5 -1.65423e-15
      vertex 25.05 -52.5 -1.65423e-15
      vertex 32.5 -52.5 0
    endloop
  endfacet
  facet normal 2.22045e-16 0 -1
    outer loop
      vertex 22.55 -60 -2.20934e-15
      vertex 25.05 -52.5 -1.65423e-15
      vertex 25.05 -62.5 -1.65423e-15
    endloop
  endfacet
  facet normal 2.22045e-16 0 -1
    outer loop
      vertex 25.05 -52.5 -1.65423e-15
      vertex 22.55 -60 -2.20934e-15
      vertex 22.55 -55 -2.20934e-15
    endloop
  endfacet
  facet normal 2.22045e-16 -8.20401e-24 -1
    outer loop
      vertex 38.75 -35 1.38778e-15
      vertex 32.5 -45 0
      vertex 34.7169 -35 4.92261e-16
    endloop
  endfacet
  facet normal 2.22045e-16 -4.79795e-24 -1
    outer loop
      vertex 11.0549 -35 -4.76176e-15
      vertex 34.7169 -35 4.92261e-16
      vertex 32.5 -45 0
    endloop
  endfacet
  facet normal 2.22045e-16 0 -1
    outer loop
      vertex -6.25 -15.8968 -8.60423e-15
      vertex 11.0549 -35 -4.76176e-15
      vertex -6.25 -26.9306 -8.60423e-15
    endloop
  endfacet
  facet normal 2.22045e-16 -2.02671e-24 -1
    outer loop
      vertex 11.0549 -35 -4.76176e-15
      vertex -6.25 -15.8968 -8.60423e-15
      vertex 34.7169 -35 4.92261e-16
    endloop
  endfacet
  facet normal 2.22045e-16 2.3911e-24 -1
    outer loop
      vertex -7.07692 59.95 -8.78784e-15
      vertex 5.06797 56.7337 -6.09113e-15
      vertex -6.25 53.7011 -8.60423e-15
    endloop
  endfacet
  facet normal 2.22045e-16 -5.16047e-23 -1
    outer loop
      vertex 5.06797 56.7337 -6.09113e-15
      vertex -7.07692 59.95 -8.78784e-15
      vertex 3.45035 62.7708 -6.45032e-15
    endloop
  endfacet
  facet normal 2.22045e-16 0 -1
    outer loop
      vertex -6.25 53.7011 -8.60423e-15
      vertex -13.75 59.95 -1.02696e-14
      vertex -7.07692 59.95 -8.78784e-15
    endloop
  endfacet
  facet normal 0.707107 0.707107 0
    outer loop
      vertex 42.5 -38.75 15
      vertex 38.75 -35 1.38778e-15
      vertex 38.75 -35 15
    endloop
  endfacet
  facet normal 0.707107 0.707107 0
    outer loop
      vertex 38.75 -35 1.38778e-15
      vertex 42.5 -38.75 15
      vertex 42.5 -38.75 2.22045e-15
    endloop
  endfacet
  facet normal 0.707107 -0.707107 0
    outer loop
      vertex 38.75 -62.5 15
      vertex 42.5 -58.75 2.22045e-15
      vertex 42.5 -58.75 15
    endloop
  endfacet
  facet normal 0.707107 -0.707107 0
    outer loop
      vertex 42.5 -58.75 2.22045e-15
      vertex 38.75 -62.5 15
      vertex 38.75 -62.5 1.38778e-15
    endloop
  endfacet
  facet normal 1 -0 0
    outer loop
      vertex 42.5 -58.75 15
      vertex 42.5 -38.75 2.22045e-15
      vertex 42.5 -38.75 15
    endloop
  endfacet
  facet normal 1 0 0
    outer loop
      vertex 42.5 -38.75 2.22045e-15
      vertex 42.5 -58.75 15
      vertex 42.5 -58.75 2.22045e-15
    endloop
  endfacet
  facet normal 0 1 -0
    outer loop
      vertex 38.75 -35 1.38778e-15
      vertex 34.7169 -35 15
      vertex 38.75 -35 15
    endloop
  endfacet
  facet normal 0 1 0
    outer loop
      vertex 34.7169 -35 15
      vertex 38.75 -35 1.38778e-15
      vertex 34.7169 -35 4.92261e-16
    endloop
  endfacet
  facet normal -1 0 0
    outer loop
      vertex 32.5 -52.5 0
      vertex 32.5 -45 15
      vertex 32.5 -45 0
    endloop
  endfacet
  facet normal -1 -0 0
    outer loop
      vertex 32.5 -45 15
      vertex 32.5 -52.5 0
      vertex 32.5 -52.5 15
    endloop
  endfacet
  facet normal 0 -1 0
    outer loop
      vertex -32.55 -45 15
      vertex 32.5 -45 0
      vertex 32.5 -45 15
    endloop
  endfacet
  facet normal -0 -1 0
    outer loop
      vertex 32.5 -45 0
      vertex -32.55 -45 15
      vertex -32.55 -45 -1.4444e-14
    endloop
  endfacet
  facet normal 0 1 -0
    outer loop
      vertex -17.5 -35 -1.11022e-14
      vertex -28.8 -35 15
      vertex -17.5 -35 15
    endloop
  endfacet
  facet normal 0 1 0
    outer loop
      vertex -28.8 -35 15
      vertex -17.5 -35 -1.11022e-14
      vertex -28.8 -35 -1.36113e-14
    endloop
  endfacet
  facet normal 0 1 0
    outer loop
      vertex 11.0549 -35 15
      vertex -2.5 -35 11.25
      vertex -6.25 -35 15
    endloop
  endfacet
  facet normal 0 1 0
    outer loop
      vertex 11.0549 -35 15
      vertex -2.5 -35 3.75
      vertex -2.5 -35 11.25
    endloop
  endfacet
  facet normal 0 1 -0
    outer loop
      vertex 11.0549 -35 -4.76176e-15
      vertex -2.5 -35 3.75
      vertex 11.0549 -35 15
    endloop
  endfacet
  facet normal 0 1 0
    outer loop
      vertex -2.5 -35 3.75
      vertex 11.0549 -35 -4.76176e-15
      vertex -6.25 -35 -8.60423e-15
    endloop
  endfacet
  facet normal -1 0 0
    outer loop
      vertex -32.55 -45 -1.4444e-14
      vertex -32.55 -38.75 15
      vertex -32.55 -38.75 -1.4444e-14
    endloop
  endfacet
  facet normal -1 -0 0
    outer loop
      vertex -32.55 -38.75 15
      vertex -32.55 -45 -1.4444e-14
      vertex -32.55 -45 15
    endloop
  endfacet
  facet normal -0.707107 0.707107 0
    outer loop
      vertex -32.55 -38.75 -1.4444e-14
      vertex -28.8 -35 15
      vertex -28.8 -35 -1.36113e-14
    endloop
  endfacet
  facet normal -0.707107 0.707107 0
    outer loop
      vertex -28.8 -35 15
      vertex -32.55 -38.75 -1.4444e-14
      vertex -32.55 -38.75 15
    endloop
  endfacet
  facet normal 0.707107 -0 0.707107
    outer loop
      vertex -6.25 -15.8968 15
      vertex -2.5 50.8236 11.25
      vertex -6.25 53.7011 15
    endloop
  endfacet
  facet normal 0.707107 0 0.707107
    outer loop
      vertex -2.5 50.8236 11.25
      vertex -6.25 -15.8968 15
      vertex -2.5 -17.6455 11.25
    endloop
  endfacet
  facet normal 0.707107 -0 0.707107
    outer loop
      vertex -6.25 -35 15
      vertex -2.5 -28.6792 11.25
      vertex -6.25 -26.9306 15
    endloop
  endfacet
  facet normal 0.707107 0 0.707107
    outer loop
      vertex -2.5 -28.6792 11.25
      vertex -6.25 -35 15
      vertex -2.5 -35 11.25
    endloop
  endfacet
  facet normal 0.707107 0 -0.707107
    outer loop
      vertex -2.5 50.8236 3.75
      vertex -6.25 -15.8968 -8.60423e-15
      vertex -6.25 53.7011 -8.60423e-15
    endloop
  endfacet
  facet normal 0.707107 0 -0.707107
    outer loop
      vertex -6.25 -15.8968 -8.60423e-15
      vertex -2.5 50.8236 3.75
      vertex -2.5 -17.6455 3.75
    endloop
  endfacet
  facet normal 0.707107 0 -0.707107
    outer loop
      vertex -6.25 -35 -8.60423e-15
      vertex -2.5 -28.6792 3.75
      vertex -2.5 -35 3.75
    endloop
  endfacet
  facet normal 0.707107 0 -0.707107
    outer loop
      vertex -2.5 -28.6792 3.75
      vertex -6.25 -35 -8.60423e-15
      vertex -6.25 -26.9306 -8.60423e-15
    endloop
  endfacet
  facet normal -0.707107 0.707107 0
    outer loop
      vertex -17.5 56.2 -1.11022e-14
      vertex -13.75 59.95 15
      vertex -13.75 59.95 -1.02696e-14
    endloop
  endfacet
  facet normal -0.707107 0.707107 0
    outer loop
      vertex -13.75 59.95 15
      vertex -17.5 56.2 -1.11022e-14
      vertex -17.5 56.2 15
    endloop
  endfacet
  facet normal 1 -0 0
    outer loop
      vertex -2.5 -17.6455 11.25
      vertex -2.5 50.8236 3.75
      vertex -2.5 50.8236 11.25
    endloop
  endfacet
  facet normal 1 0 0
    outer loop
      vertex -2.5 50.8236 3.75
      vertex -2.5 -17.6455 11.25
      vertex -2.5 -17.6455 3.75
    endloop
  endfacet
  facet normal 1 -0 0
    outer loop
      vertex -2.5 -35 11.25
      vertex -2.5 -28.6792 3.75
      vertex -2.5 -28.6792 11.25
    endloop
  endfacet
  facet normal 1 0 0
    outer loop
      vertex -2.5 -28.6792 3.75
      vertex -2.5 -35 11.25
      vertex -2.5 -35 3.75
    endloop
  endfacet
  facet normal 0 1 -0
    outer loop
      vertex -7.07692 59.95 -8.78784e-15
      vertex -13.75 59.95 15
      vertex -7.07692 59.95 15
    endloop
  endfacet
  facet normal 0 1 0
    outer loop
      vertex -13.75 59.95 15
      vertex -7.07692 59.95 -8.78784e-15
      vertex -13.75 59.95 -1.02696e-14
    endloop
  endfacet
  facet normal -1 0 0
    outer loop
      vertex -17.5 -35 -1.11022e-14
      vertex -17.5 56.2 15
      vertex -17.5 56.2 -1.11022e-14
    endloop
  endfacet
  facet normal -1 -0 0
    outer loop
      vertex -17.5 56.2 15
      vertex -17.5 -35 -1.11022e-14
      vertex -17.5 -35 15
    endloop
  endfacet
  facet normal 0.866025 -0.5 0
    outer loop
      vertex 2.41632 52.1409 11.25
      vertex 5.06797 56.7337 -6.09113e-15
      vertex 5.06797 56.7337 15
    endloop
  endfacet
  facet normal 0.866025 -0.5 0
    outer loop
      vertex 5.06797 56.7337 -6.09113e-15
      vertex 2.41632 52.1409 11.25
      vertex 2.41632 52.1409 3.75
    endloop
  endfacet
  facet normal 0.183013 -0.683013 0.707107
    outer loop
      vertex -6.25 53.7011 15
      vertex 2.41632 52.1409 11.25
      vertex 5.06797 56.7337 15
    endloop
  endfacet
  facet normal 0.183013 -0.683013 0.707107
    outer loop
      vertex 2.41632 52.1409 11.25
      vertex -6.25 53.7011 15
      vertex -2.5 50.8236 11.25
    endloop
  endfacet
  facet normal 0.183013 -0.683013 -0.707107
    outer loop
      vertex -6.25 53.7011 -8.60423e-15
      vertex 2.41632 52.1409 3.75
      vertex -2.5 50.8236 3.75
    endloop
  endfacet
  facet normal 0.183013 -0.683013 -0.707107
    outer loop
      vertex 2.41632 52.1409 3.75
      vertex -6.25 53.7011 -8.60423e-15
      vertex 5.06797 56.7337 -6.09113e-15
    endloop
  endfacet
  facet normal 0.258819 -0.965926 0
    outer loop
      vertex -2.5 50.8236 3.75
      vertex 2.41632 52.1409 11.25
      vertex -2.5 50.8236 11.25
    endloop
  endfacet
  facet normal 0.258819 -0.965926 0
    outer loop
      vertex 2.41632 52.1409 11.25
      vertex -2.5 50.8236 3.75
      vertex 2.41632 52.1409 3.75
    endloop
  endfacet
  facet normal 0.965926 0.258819 0
    outer loop
      vertex 5.06797 56.7337 15
      vertex 3.45035 62.7708 -6.45032e-15
      vertex 3.45035 62.7708 15
    endloop
  endfacet
  facet normal 0.965926 0.258819 0
    outer loop
      vertex 3.45035 62.7708 -6.45032e-15
      vertex 5.06797 56.7337 15
      vertex 5.06797 56.7337 -6.09113e-15
    endloop
  endfacet
  facet normal -0.258819 0.965926 0
    outer loop
      vertex 3.45035 62.7708 -6.45032e-15
      vertex -7.07692 59.95 15
      vertex 3.45035 62.7708 15
    endloop
  endfacet
  facet normal -0.258819 0.965926 0
    outer loop
      vertex -7.07692 59.95 15
      vertex 3.45035 62.7708 -6.45032e-15
      vertex -7.07692 59.95 -8.78784e-15
    endloop
  endfacet
  facet normal 0.422618 0.906308 2.92808e-07
    outer loop
      vertex 34.7169 -35 15
      vertex -2.5 -17.6455 11.25
      vertex -6.25 -15.8968 15
    endloop
  endfacet
  facet normal 0.422618 0.906308 0
    outer loop
      vertex 34.7169 -35 15
      vertex -2.5 -17.6455 3.75
      vertex -2.5 -17.6455 11.25
    endloop
  endfacet
  facet normal 0.422618 0.906308 -0
    outer loop
      vertex 34.7169 -35 4.92261e-16
      vertex -2.5 -17.6455 3.75
      vertex 34.7169 -35 15
    endloop
  endfacet
  facet normal 0.422618 0.906308 -2.92808e-07
    outer loop
      vertex -2.5 -17.6455 3.75
      vertex 34.7169 -35 4.92261e-16
      vertex -6.25 -15.8968 -8.60423e-15
    endloop
  endfacet
  facet normal -0.422618 -0.906308 -1.00703e-07
    outer loop
      vertex -2.5 -28.6792 11.25
      vertex 11.0549 -35 15
      vertex -6.25 -26.9306 15
    endloop
  endfacet
  facet normal -0.422618 -0.906308 0
    outer loop
      vertex -2.5 -28.6792 3.75
      vertex 11.0549 -35 15
      vertex -2.5 -28.6792 11.25
    endloop
  endfacet
  facet normal -0.422618 -0.906308 0
    outer loop
      vertex -2.5 -28.6792 3.75
      vertex 11.0549 -35 -4.76176e-15
      vertex 11.0549 -35 15
    endloop
  endfacet
  facet normal -0.422618 -0.906308 1.00703e-07
    outer loop
      vertex 11.0549 -35 -4.76176e-15
      vertex -2.5 -28.6792 3.75
      vertex -6.25 -26.9306 -8.60423e-15
    endloop
  endfacet
endsolid OpenSCAD_Model
