solid Model
  facet normal 0 0 -1
    outer loop
      vertex -22 -22 0
      vertex -20 -20 0
      vertex 22 -22 0
    endloop
  endfacet
  facet normal 0 0 -1
    outer loop
      vertex 22 -22 0
      vertex -20 -20 0
      vertex 20 -20 0
    endloop
  endfacet
  facet normal 0 0 -1
    outer loop
      vertex -22 -22 0
      vertex -20 20 0
      vertex -20 -20 0
    endloop
  endfacet
  facet normal 0 0 -1
    outer loop
      vertex 22 -22 0
      vertex 20 -20 0
      vertex 22 22 0
    endloop
  endfacet
  facet normal 0 0 -1
    outer loop
      vertex -22 -22 0
      vertex -22 22 0
      vertex -20 20 0
    endloop
  endfacet
  facet normal 0 0 -1
    outer loop
      vertex 20 -20 0
      vertex 20 20 0
      vertex 22 22 0
    endloop
  endfacet
  facet normal 0 0 -1
    outer loop
      vertex -20 20 0
      vertex 22 22 0
      vertex 20 20 0
    endloop
  endfacet
  facet normal 0 0 -1
    outer loop
      vertex -20 20 0
      vertex -22 22 0
      vertex 22 22 0
    endloop
  endfacet
  facet normal 0 -1 0
    outer loop
      vertex -22 -22 0
      vertex 22 -22 0
      vertex -0.372 -22 0.015
    endloop
  endfacet
  facet normal 0 1 0
    outer loop
      vertex -22 22 0
      vertex -0.372 22 0.015
      vertex 22 22 0
    endloop
  endfacet
  facet normal 0 1 0
    outer loop
      vertex -20 -20 0
      vertex -8.284 -20 9.99
      vertex 20 -20 0
    endloop
  endfacet
  facet normal 1 0 0
    outer loop
      vertex -20 -20 0
      vertex -20 20 0
      vertex -20 -8.284 9.99
    endloop
  endfacet
  facet normal -1 0 0
    outer loop
      vertex 20 -20 0
      vertex 20 -8.284 9.99
      vertex 20 20 0
    endloop
  endfacet
  facet normal 0 -1 0
    outer loop
      vertex -20 20 0
      vertex 20 20 0
      vertex 8.284 20 9.99
    endloop
  endfacet
  facet normal -1 0 0
    outer loop
      vertex -22 -22 0
      vertex -22 22 11.99
      vertex -22 22 0
    endloop
  endfacet
  facet normal 1 0 0
    outer loop
      vertex 22 -22 0
      vertex 22 22 0
      vertex 22 -22 12
    endloop
  endfacet
  facet normal 0 -1 0
    outer loop
      vertex 22 -22 0
      vertex 1.105 -22 0.138
      vertex -0.372 -22 0.015
    endloop
  endfacet
  facet normal 0 1 0
    outer loop
      vertex 22 22 0
      vertex -0.372 22 0.015
      vertex 1.105 22 0.138
    endloop
  endfacet
  facet normal 0 -1 0
    outer loop
      vertex -22 -22 0
      vertex -0.372 -22 0.015
      vertex -1.808 -22 0.379
    endloop
  endfacet
  facet normal 0 1 0
    outer loop
      vertex -22 22 0
      vertex -1.808 22 0.379
      vertex -0.372 22 0.015
    endloop
  endfacet
  facet normal 0 -1 0
    outer loop
      vertex 22 -22 0
      vertex 2.461 -22 0.733
      vertex 1.105 -22 0.138
    endloop
  endfacet
  facet normal 0 1 0
    outer loop
      vertex 22 22 0
      vertex 1.105 22 0.138
      vertex 2.461 22 0.733
    endloop
  endfacet
  facet normal 0 -1 0
    outer loop
      vertex -22 -22 0
      vertex -1.808 -22 0.379
      vertex -3.048 -22 1.189
    endloop
  endfacet
  facet normal 0 1 0
    outer loop
      vertex -22 22 0
      vertex -3.048 22 1.189
      vertex -1.808 22 0.379
    endloop
  endfacet
  facet normal 0 -1 0
    outer loop
      vertex 22 -22 0
      vertex 3.551 -22 1.736
      vertex 2.461 -22 0.733
    endloop
  endfacet
  facet normal 0 1 0
    outer loop
      vertex 22 22 0
      vertex 2.461 22 0.733
      vertex 3.551 22 1.736
    endloop
  endfacet
  facet normal 0 -1 0
    outer loop
      vertex -22 -22 0
      vertex -3.048 -22 1.189
      vertex -3.958 -22 2.358
    endloop
  endfacet
  facet normal 0 1 0
    outer loop
      vertex -22 22 0
      vertex -3.958 22 2.358
      vertex -3.048 22 1.189
    endloop
  endfacet
  facet normal 0 -1 0
    outer loop
      vertex 22 -22 0
      vertex 4.256 -22 3.039
      vertex 3.551 -22 1.736
    endloop
  endfacet
  facet normal 0 1 0
    outer loop
      vertex 22 22 0
      vertex 3.551 22 1.736
      vertex 4.256 22 3.039
    endloop
  endfacet
  facet normal 0 -1 0
    outer loop
      vertex -22 -22 0
      vertex -3.958 -22 2.358
      vertex -4.439 -22 3.759
    endloop
  endfacet
  facet normal 0 1 0
    outer loop
      vertex -22 22 0
      vertex -4.439 22 3.759
      vertex -3.958 22 2.358
    endloop
  endfacet
  facet normal 0 -1 0
    outer loop
      vertex 22 -22 0
      vertex 4.5 -22 4.5
      vertex 4.256 -22 3.039
    endloop
  endfacet
  facet normal 0 1 0
    outer loop
      vertex 22 22 0
      vertex 4.256 22 3.039
      vertex 4.5 22 4.5
    endloop
  endfacet
  facet normal 0 -1 0
    outer loop
      vertex -22 -22 0
      vertex -4.439 -22 3.759
      vertex -4.439 -22 5.241
    endloop
  endfacet
  facet normal 0 1 0
    outer loop
      vertex -22 22 0
      vertex -4.439 22 5.241
      vertex -4.439 22 3.759
    endloop
  endfacet
  facet normal 0 1 0
    outer loop
      vertex 22 22 0
      vertex 4.5 22 4.5
      vertex 22 22 11.99
    endloop
  endfacet
  facet normal 0 -1 0
    outer loop
      vertex 22 -22 0
      vertex 22 -22 12
      vertex 4.5 -22 4.5
    endloop
  endfacet
  facet normal 0 1 0
    outer loop
      vertex -22 22 0
      vertex -22 22 11.99
      vertex -4.439 22 5.241
    endloop
  endfacet
  facet normal 0 -1 0
    outer loop
      vertex -22 -22 0
      vertex -4.439 -22 5.241
      vertex -22 -22 12
    endloop
  endfacet
  facet normal 0 1 0
    outer loop
      vertex -20 -20 0
      vertex -20 -20 9.99
      vertex -8.284 -20 9.99
    endloop
  endfacet
  facet normal 0 1 0
    outer loop
      vertex 20 -20 0
      vertex -8.284 -20 9.99
      vertex 8.284 -20 9.99
    endloop
  endfacet
  facet normal 0 1 0
    outer loop
      vertex 20 -20 0
      vertex 8.284 -20 9.99
      vertex 20 -20 9.99
    endloop
  endfacet
  facet normal 1 0 0
    outer loop
      vertex -20 -20 0
      vertex -20 -8.284 9.99
      vertex -20 -20 9.99
    endloop
  endfacet
  facet normal -1 0 0
    outer loop
      vertex 20 -20 0
      vertex 20 -20 9.99
      vertex 20 -8.284 9.99
    endloop
  endfacet
  facet normal 1 0 0
    outer loop
      vertex -20 20 0
      vertex -20 8.284 9.99
      vertex -20 -8.284 9.99
    endloop
  endfacet
  facet normal -1 0 0
    outer loop
      vertex 20 20 0
      vertex 20 -8.284 9.99
      vertex 20 8.284 9.99
    endloop
  endfacet
  facet normal 1 0 0
    outer loop
      vertex -20 20 0
      vertex -20 20 9.99
      vertex -20 8.284 9.99
    endloop
  endfacet
  facet normal -1 0 0
    outer loop
      vertex 20 20 0
      vertex 20 8.284 9.99
      vertex 20 20 9.99
    endloop
  endfacet
  facet normal 0 -1 0
    outer loop
      vertex -20 20 0
      vertex -8.284 20 9.99
      vertex -20 20 9.99
    endloop
  endfacet
  facet normal 0 -1 0
    outer loop
      vertex -20 20 0
      vertex 8.284 20 9.99
      vertex -8.284 20 9.99
    endloop
  endfacet
  facet normal 0 -1 0
    outer loop
      vertex 20 20 0
      vertex 20 20 9.99
      vertex 8.284 20 9.99
    endloop
  endfacet
  facet normal -1 0 0
    outer loop
      vertex -22 -22 0
      vertex -22 -22 12
      vertex -22 22 11.99
    endloop
  endfacet
  facet normal 1 0 0
    outer loop
      vertex 22 22 0
      vertex 22 22 11.99
      vertex 22 -22 12
    endloop
  endfacet
  facet normal 0.059 -0.702 -0.71
    outer loop
      vertex -0.372 -22 0.015
      vertex 1.105 -22 0.138
      vertex -0.206 -24 2.009
    endloop
  endfacet
  facet normal 0.059 0.702 -0.71
    outer loop
      vertex -0.372 22 0.015
      vertex -0.206 24 2.009
      vertex 1.105 22 0.138
    endloop
  endfacet
  facet normal -0.175 -0.702 -0.69
    outer loop
      vertex -0.372 -22 0.015
      vertex -0.206 -24 2.009
      vertex -1.808 -22 0.379
    endloop
  endfacet
  facet normal -0.175 0.702 -0.69
    outer loop
      vertex -0.372 22 0.015
      vertex -1.808 22 0.379
      vertex -0.206 24 2.009
    endloop
  endfacet
  facet normal 0.286 -0.702 -0.652
    outer loop
      vertex 1.105 -22 0.138
      vertex 2.461 -22 0.733
      vertex 0.614 -24 2.076
    endloop
  endfacet
  facet normal 0.286 0.702 -0.652
    outer loop
      vertex 1.105 22 0.138
      vertex 0.614 24 2.076
      vertex 2.461 22 0.733
    endloop
  endfacet
  facet normal 0.059 -0.702 -0.71
    outer loop
      vertex 1.105 -22 0.138
      vertex 0.614 -24 2.076
      vertex -0.206 -24 2.009
    endloop
  endfacet
  facet normal 0.059 0.702 -0.71
    outer loop
      vertex 1.105 22 0.138
      vertex -0.206 24 2.009
      vertex 0.614 24 2.076
    endloop
  endfacet
  facet normal -0.389 -0.702 -0.596
    outer loop
      vertex -1.808 -22 0.379
      vertex -1.693 -24 2.661
      vertex -3.048 -22 1.189
    endloop
  endfacet
  facet normal -0.389 0.702 -0.596
    outer loop
      vertex -1.808 22 0.379
      vertex -3.048 22 1.189
      vertex -1.693 24 2.661
    endloop
  endfacet
  facet normal -0.175 -0.702 -0.69
    outer loop
      vertex -1.808 -22 0.379
      vertex -0.206 -24 2.009
      vertex -1.004 -24 2.211
    endloop
  endfacet
  facet normal -0.175 0.702 -0.69
    outer loop
      vertex -1.808 22 0.379
      vertex -1.004 24 2.211
      vertex -0.206 24 2.009
    endloop
  endfacet
  facet normal -0.389 -0.702 -0.596
    outer loop
      vertex -1.808 -22 0.379
      vertex -1.004 -24 2.211
      vertex -1.693 -24 2.661
    endloop
  endfacet
  facet normal -0.389 0.702 -0.596
    outer loop
      vertex -1.808 22 0.379
      vertex -1.693 24 2.661
      vertex -1.004 24 2.211
    endloop
  endfacet
  facet normal 0.482 -0.702 -0.524
    outer loop
      vertex 2.461 -22 0.733
      vertex 3.551 -22 1.736
      vertex 1.973 -24 2.965
    endloop
  endfacet
  facet normal 0.482 0.702 -0.524
    outer loop
      vertex 2.461 22 0.733
      vertex 1.973 24 2.965
      vertex 3.551 22 1.736
    endloop
  endfacet
  facet normal 0.286 -0.702 -0.652
    outer loop
      vertex 2.461 -22 0.733
      vertex 1.367 -24 2.407
      vertex 0.614 -24 2.076
    endloop
  endfacet
  facet normal 0.286 0.702 -0.652
    outer loop
      vertex 2.461 22 0.733
      vertex 0.614 24 2.076
      vertex 1.367 24 2.407
    endloop
  endfacet
  facet normal 0.482 -0.702 -0.524
    outer loop
      vertex 2.461 -22 0.733
      vertex 1.973 -24 2.965
      vertex 1.367 -24 2.407
    endloop
  endfacet
  facet normal 0.482 0.702 -0.524
    outer loop
      vertex 2.461 22 0.733
      vertex 1.367 24 2.407
      vertex 1.973 24 2.965
    endloop
  endfacet
  facet normal -0.562 -0.702 -0.437
    outer loop
      vertex -3.048 -22 1.189
      vertex -1.693 -24 2.661
      vertex -3.958 -22 2.358
    endloop
  endfacet
  facet normal -0.562 0.702 -0.437
    outer loop
      vertex -3.048 22 1.189
      vertex -3.958 22 2.358
      vertex -1.693 24 2.661
    endloop
  endfacet
  facet normal 0.626 -0.702 -0.339
    outer loop
      vertex 3.551 -22 1.736
      vertex 2.365 -24 3.688
      vertex 1.973 -24 2.965
    endloop
  endfacet
  facet normal 0.626 0.702 -0.339
    outer loop
      vertex 3.551 22 1.736
      vertex 1.973 24 2.965
      vertex 2.365 24 3.688
    endloop
  endfacet
  facet normal 0.626 -0.702 -0.339
    outer loop
      vertex 3.551 -22 1.736
      vertex 4.256 -22 3.039
      vertex 2.365 -24 3.688
    endloop
  endfacet
  facet normal 0.626 0.702 -0.339
    outer loop
      vertex 3.551 22 1.736
      vertex 2.365 24 3.688
      vertex 4.256 22 3.039
    endloop
  endfacet
  facet normal 0 -1 0
    outer loop
      vertex -0.206 -24 2.009
      vertex 0.614 -24 2.076
      vertex -1.004 -24 2.211
    endloop
  endfacet
  facet normal 0 1 0
    outer loop
      vertex -0.206 24 2.009
      vertex -1.004 24 2.211
      vertex 0.614 24 2.076
    endloop
  endfacet
  facet normal 0 -1 0
    outer loop
      vertex 0.614 -24 2.076
      vertex 1.367 -24 2.407
      vertex -1.004 -24 2.211
    endloop
  endfacet
  facet normal 0 1 0
    outer loop
      vertex 0.614 24 2.076
      vertex -1.004 24 2.211
      vertex 1.367 24 2.407
    endloop
  endfacet
  facet normal 0 -1 0
    outer loop
      vertex -1.004 -24 2.211
      vertex 1.367 -24 2.407
      vertex -1.693 -24 2.661
    endloop
  endfacet
  facet normal 0 1 0
    outer loop
      vertex -1.004 24 2.211
      vertex -1.693 24 2.661
      vertex 1.367 24 2.407
    endloop
  endfacet
  facet normal -0.562 -0.702 -0.437
    outer loop
      vertex -3.958 -22 2.358
      vertex -1.693 -24 2.661
      vertex -2.199 -24 3.31
    endloop
  endfacet
  facet normal -0.562 0.702 -0.437
    outer loop
      vertex -3.958 22 2.358
      vertex -2.199 24 3.31
      vertex -1.693 24 2.661
    endloop
  endfacet
  facet normal -0.673 -0.702 -0.231
    outer loop
      vertex -3.958 -22 2.358
      vertex -2.199 -24 3.31
      vertex -4.439 -22 3.759
    endloop
  endfacet
  facet normal -0.673 0.702 -0.231
    outer loop
      vertex -3.958 22 2.358
      vertex -4.439 22 3.759
      vertex -2.199 24 3.31
    endloop
  endfacet
  facet normal 0 -1 0
    outer loop
      vertex 1.367 -24 2.407
      vertex 1.973 -24 2.965
      vertex -1.693 -24 2.661
    endloop
  endfacet
  facet normal 0 1 0
    outer loop
      vertex 1.367 24 2.407
      vertex -1.693 24 2.661
      vertex 1.973 24 2.965
    endloop
  endfacet
  facet normal 0 -1 0
    outer loop
      vertex -1.693 -24 2.661
      vertex 1.973 -24 2.965
      vertex -2.199 -24 3.31
    endloop
  endfacet
  facet normal 0 1 0
    outer loop
      vertex -1.693 24 2.661
      vertex -2.199 24 3.31
      vertex 1.973 24 2.965
    endloop
  endfacet
  facet normal 0 -1 0
    outer loop
      vertex 1.973 -24 2.965
      vertex 2.365 -24 3.688
      vertex -2.199 -24 3.31
    endloop
  endfacet
  facet normal 0 1 0
    outer loop
      vertex 1.973 24 2.965
      vertex -2.199 24 3.31
      vertex 2.365 24 3.688
    endloop
  endfacet
  facet normal 0.702 -0.702 -0.117
    outer loop
      vertex 4.256 -22 3.039
      vertex 4.5 -22 4.5
      vertex 2.365 -24 3.688
    endloop
  endfacet
  facet normal 0.702 0.702 -0.117
    outer loop
      vertex 4.256 22 3.039
      vertex 2.365 24 3.688
      vertex 4.5 22 4.5
    endloop
  endfacet
  facet normal 0 -1 0
    outer loop
      vertex -2.199 -24 3.31
      vertex 2.365 -24 3.688
      vertex -2.466 -24 4.088
    endloop
  endfacet
  facet normal 0 1 0
    outer loop
      vertex -2.199 24 3.31
      vertex -2.466 24 4.088
      vertex 2.365 24 3.688
    endloop
  endfacet
  facet normal -0.673 -0.702 -0.231
    outer loop
      vertex -2.199 -24 3.31
      vertex -2.466 -24 4.088
      vertex -4.439 -22 3.759
    endloop
  endfacet
  facet normal -0.673 0.702 -0.231
    outer loop
      vertex -2.199 24 3.31
      vertex -4.439 22 3.759
      vertex -2.466 24 4.088
    endloop
  endfacet
  facet normal 0 -1 0
    outer loop
      vertex 2.365 -24 3.688
      vertex 2.5 -24 4.5
      vertex -2.466 -24 4.088
    endloop
  endfacet
  facet normal 0 1 0
    outer loop
      vertex 2.365 24 3.688
      vertex -2.466 24 4.088
      vertex 2.5 24 4.5
    endloop
  endfacet
  facet normal 0.702 -0.702 -0.117
    outer loop
      vertex 2.365 -24 3.688
      vertex 4.5 -22 4.5
      vertex 2.5 -24 4.5
    endloop
  endfacet
  facet normal 0.702 0.702 -0.117
    outer loop
      vertex 2.365 24 3.688
      vertex 2.5 24 4.5
      vertex 4.5 22 4.5
    endloop
  endfacet
  facet normal -0.712 0.702 0
    outer loop
      vertex -4.439 22 3.759
      vertex -2.466 24 4.912
      vertex -2.466 24 4.088
    endloop
  endfacet
  facet normal -0.712 -0.702 0
    outer loop
      vertex -4.439 -22 3.759
      vertex -2.466 -24 4.088
      vertex -4.439 -22 5.241
    endloop
  endfacet
  facet normal -0.712 0.702 0
    outer loop
      vertex -4.439 22 3.759
      vertex -4.439 22 5.241
      vertex -2.466 24 4.912
    endloop
  endfacet
  facet normal 0 -1 0
    outer loop
      vertex -2.466 -24 4.088
      vertex 2.5 -24 4.5
      vertex -2.466 -24 4.912
    endloop
  endfacet
  facet normal 0 1 0
    outer loop
      vertex -2.466 24 4.088
      vertex -2.466 24 4.912
      vertex 2.5 24 4.5
    endloop
  endfacet
  facet normal -0.712 -0.702 0
    outer loop
      vertex -2.466 -24 4.088
      vertex -2.466 -24 4.912
      vertex -4.439 -22 5.241
    endloop
  endfacet
  facet normal 0.702 -0.702 0.117
    outer loop
      vertex 2.5 -24 4.5
      vertex 4.5 -22 4.5
      vertex 2.365 -24 5.312
    endloop
  endfacet
  facet normal 0.702 0.702 0.117
    outer loop
      vertex 4.5 22 4.5
      vertex 2.5 24 4.5
      vertex 2.365 24 5.312
    endloop
  endfacet
  facet normal 0 -1 0
    outer loop
      vertex 2.5 -24 4.5
      vertex 2.365 -24 5.312
      vertex -2.466 -24 4.912
    endloop
  endfacet
  facet normal 0 1 0
    outer loop
      vertex 2.5 24 4.5
      vertex -2.466 24 4.912
      vertex 2.365 24 5.312
    endloop
  endfacet
  facet normal 0.702 -0.702 0.117
    outer loop
      vertex 4.5 -22 4.5
      vertex 4.256 -22 5.961
      vertex 2.365 -24 5.312
    endloop
  endfacet
  facet normal 0.702 0.702 0.117
    outer loop
      vertex 4.5 22 4.5
      vertex 2.365 24 5.312
      vertex 4.256 22 5.961
    endloop
  endfacet
  facet normal 0 1 0
    outer loop
      vertex 4.5 22 4.5
      vertex 4.256 22 5.961
      vertex 22 22 11.99
    endloop
  endfacet
  facet normal 0 -1 0
    outer loop
      vertex 4.5 -22 4.5
      vertex 22 -22 12
      vertex 4.256 -22 5.961
    endloop
  endfacet
  facet normal -0.673 -0.702 0.231
    outer loop
      vertex -2.466 -24 4.912
      vertex -2.199 -24 5.69
      vertex -4.439 -22 5.241
    endloop
  endfacet
  facet normal -0.673 0.702 0.231
    outer loop
      vertex -2.466 24 4.912
      vertex -4.439 22 5.241
      vertex -2.199 24 5.69
    endloop
  endfacet
  facet normal 0 -1 0
    outer loop
      vertex -2.466 -24 4.912
      vertex 2.365 -24 5.312
      vertex -2.199 -24 5.69
    endloop
  endfacet
  facet normal 0 1 0
    outer loop
      vertex -2.466 24 4.912
      vertex -2.199 24 5.69
      vertex 2.365 24 5.312
    endloop
  endfacet
  facet normal -0.673 -0.702 0.231
    outer loop
      vertex -4.439 -22 5.241
      vertex -2.199 -24 5.69
      vertex -3.958 -22 6.642
    endloop
  endfacet
  facet normal -0.673 0.702 0.231
    outer loop
      vertex -4.439 22 5.241
      vertex -3.958 22 6.642
      vertex -2.199 24 5.69
    endloop
  endfacet
  facet normal 0 1 0
    outer loop
      vertex -4.439 22 5.241
      vertex -22 22 11.99
      vertex -3.958 22 6.642
    endloop
  endfacet
  facet normal 0 -1 0
    outer loop
      vertex -4.439 -22 5.241
      vertex -3.958 -22 6.642
      vertex -22 -22 12
    endloop
  endfacet
  facet normal 0 -1 0
    outer loop
      vertex 2.365 -24 5.312
      vertex 1.973 -24 6.035
      vertex -2.199 -24 5.69
    endloop
  endfacet
  facet normal 0 1 0
    outer loop
      vertex 2.365 24 5.312
      vertex -2.199 24 5.69
      vertex 1.973 24 6.035
    endloop
  endfacet
  facet normal 0.626 -0.702 0.339
    outer loop
      vertex 2.365 -24 5.312
      vertex 4.256 -22 5.961
      vertex 3.551 -22 7.264
    endloop
  endfacet
  facet normal 0.626 0.702 0.339
    outer loop
      vertex 2.365 24 5.312
      vertex 3.551 22 7.264
      vertex 4.256 22 5.961
    endloop
  endfacet
  facet normal 0.626 -0.702 0.339
    outer loop
      vertex 2.365 -24 5.312
      vertex 3.551 -22 7.264
      vertex 1.973 -24 6.035
    endloop
  endfacet
  facet normal 0.626 0.702 0.339
    outer loop
      vertex 2.365 24 5.312
      vertex 1.973 24 6.035
      vertex 3.551 22 7.264
    endloop
  endfacet
  facet normal 0 -1 0
    outer loop
      vertex -2.199 -24 5.69
      vertex 1.973 -24 6.035
      vertex -1.693 -24 6.339
    endloop
  endfacet
  facet normal 0 1 0
    outer loop
      vertex -2.199 24 5.69
      vertex -1.693 24 6.339
      vertex 1.973 24 6.035
    endloop
  endfacet
  facet normal -0.562 -0.702 0.437
    outer loop
      vertex -2.199 -24 5.69
      vertex -1.693 -24 6.339
      vertex -3.958 -22 6.642
    endloop
  endfacet
  facet normal -0.562 0.702 0.437
    outer loop
      vertex -2.199 24 5.69
      vertex -3.958 22 6.642
      vertex -1.693 24 6.339
    endloop
  endfacet
  facet normal 0 1 0
    outer loop
      vertex 4.256 22 5.961
      vertex 3.551 22 7.264
      vertex 22 22 11.99
    endloop
  endfacet
  facet normal 0 -1 0
    outer loop
      vertex 4.256 -22 5.961
      vertex 22 -22 12
      vertex 3.551 -22 7.264
    endloop
  endfacet
  facet normal 0 -1 0
    outer loop
      vertex 1.973 -24 6.035
      vertex 1.367 -24 6.593
      vertex -1.693 -24 6.339
    endloop
  endfacet
  facet normal 0 1 0
    outer loop
      vertex 1.973 24 6.035
      vertex -1.693 24 6.339
      vertex 1.367 24 6.593
    endloop
  endfacet
  facet normal 0.482 -0.702 0.524
    outer loop
      vertex 1.973 -24 6.035
      vertex 2.461 -22 8.267
      vertex 1.367 -24 6.593
    endloop
  endfacet
  facet normal 0.482 0.702 0.524
    outer loop
      vertex 1.973 24 6.035
      vertex 1.367 24 6.593
      vertex 2.461 22 8.267
    endloop
  endfacet
  facet normal 0.482 -0.702 0.524
    outer loop
      vertex 1.973 -24 6.035
      vertex 3.551 -22 7.264
      vertex 2.461 -22 8.267
    endloop
  endfacet
  facet normal 0.482 0.702 0.524
    outer loop
      vertex 1.973 24 6.035
      vertex 2.461 22 8.267
      vertex 3.551 22 7.264
    endloop
  endfacet
  facet normal 0 -1 0
    outer loop
      vertex -1.693 -24 6.339
      vertex 1.367 -24 6.593
      vertex -1.004 -24 6.789
    endloop
  endfacet
  facet normal 0 1 0
    outer loop
      vertex -1.693 24 6.339
      vertex -1.004 24 6.789
      vertex 1.367 24 6.593
    endloop
  endfacet
  facet normal -0.562 -0.702 0.437
    outer loop
      vertex -1.693 -24 6.339
      vertex -3.048 -22 7.811
      vertex -3.958 -22 6.642
    endloop
  endfacet
  facet normal -0.562 0.702 0.437
    outer loop
      vertex -1.693 24 6.339
      vertex -3.958 22 6.642
      vertex -3.048 22 7.811
    endloop
  endfacet
  facet normal -0.389 -0.702 0.596
    outer loop
      vertex -1.693 -24 6.339
      vertex -1.004 -24 6.789
      vertex -1.808 -22 8.621
    endloop
  endfacet
  facet normal -0.389 0.702 0.596
    outer loop
      vertex -1.693 24 6.339
      vertex -1.808 22 8.621
      vertex -1.004 24 6.789
    endloop
  endfacet
  facet normal -0.389 -0.702 0.596
    outer loop
      vertex -1.693 -24 6.339
      vertex -1.808 -22 8.621
      vertex -3.048 -22 7.811
    endloop
  endfacet
  facet normal -0.389 0.702 0.596
    outer loop
      vertex -1.693 24 6.339
      vertex -3.048 22 7.811
      vertex -1.808 22 8.621
    endloop
  endfacet
  facet normal 0 -1 0
    outer loop
      vertex 1.367 -24 6.593
      vertex 0.614 -24 6.923
      vertex -1.004 -24 6.789
    endloop
  endfacet
  facet normal 0 1 0
    outer loop
      vertex 1.367 24 6.593
      vertex -1.004 24 6.789
      vertex 0.614 24 6.923
    endloop
  endfacet
  facet normal 0.286 -0.702 0.652
    outer loop
      vertex 1.367 -24 6.593
      vertex 2.461 -22 8.267
      vertex 0.614 -24 6.923
    endloop
  endfacet
  facet normal 0.286 0.702 0.652
    outer loop
      vertex 1.367 24 6.593
      vertex 0.614 24 6.923
      vertex 2.461 22 8.267
    endloop
  endfacet
  facet normal 0 1 0
    outer loop
      vertex -3.958 22 6.642
      vertex -22 22 11.99
      vertex -3.048 22 7.811
    endloop
  endfacet
  facet normal 0 -1 0
    outer loop
      vertex -3.958 -22 6.642
      vertex -3.048 -22 7.811
      vertex -22 -22 12
    endloop
  endfacet
  facet normal 0 -1 0
    outer loop
      vertex -1.004 -24 6.789
      vertex 0.614 -24 6.923
      vertex -0.206 -24 6.992
    endloop
  endfacet
  facet normal 0 1 0
    outer loop
      vertex -1.004 24 6.789
      vertex -0.206 24 6.992
      vertex 0.614 24 6.923
    endloop
  endfacet
  facet normal -0.175 -0.702 0.69
    outer loop
      vertex -1.004 -24 6.789
      vertex -0.206 -24 6.992
      vertex -1.808 -22 8.621
    endloop
  endfacet
  facet normal -0.175 0.702 0.69
    outer loop
      vertex -1.004 24 6.789
      vertex -1.808 22 8.621
      vertex -0.206 24 6.992
    endloop
  endfacet
  facet normal 0.059 -0.702 0.71
    outer loop
      vertex 0.614 -24 6.923
      vertex 1.105 -22 8.862
      vertex -0.206 -24 6.992
    endloop
  endfacet
  facet normal 0.059 0.702 0.71
    outer loop
      vertex 0.614 24 6.923
      vertex -0.206 24 6.992
      vertex 1.105 22 8.862
    endloop
  endfacet
  facet normal 0.286 -0.702 0.652
    outer loop
      vertex 0.614 -24 6.923
      vertex 2.461 -22 8.267
      vertex 1.105 -22 8.862
    endloop
  endfacet
  facet normal 0.286 0.702 0.652
    outer loop
      vertex 0.614 24 6.923
      vertex 1.105 22 8.862
      vertex 2.461 22 8.267
    endloop
  endfacet
  facet normal -0.175 -0.702 0.69
    outer loop
      vertex -0.206 -24 6.992
      vertex -0.372 -22 8.985
      vertex -1.808 -22 8.621
    endloop
  endfacet
  facet normal -0.175 0.702 0.69
    outer loop
      vertex -0.206 24 6.992
      vertex -1.808 22 8.621
      vertex -0.372 22 8.985
    endloop
  endfacet
  facet normal 0.059 -0.702 0.71
    outer loop
      vertex -0.206 -24 6.992
      vertex 1.105 -22 8.862
      vertex -0.372 -22 8.985
    endloop
  endfacet
  facet normal 0.059 0.702 0.71
    outer loop
      vertex -0.206 24 6.992
      vertex -0.372 22 8.985
      vertex 1.105 22 8.862
    endloop
  endfacet
  facet normal 0 1 0
    outer loop
      vertex 3.551 22 7.264
      vertex 2.461 22 8.267
      vertex 22 22 11.99
    endloop
  endfacet
  facet normal 0 -1 0
    outer loop
      vertex 3.551 -22 7.264
      vertex 22 -22 12
      vertex 2.461 -22 8.267
    endloop
  endfacet
  facet normal 0 1 0
    outer loop
      vertex -3.048 22 7.811
      vertex -22 22 11.99
      vertex -1.808 22 8.621
    endloop
  endfacet
  facet normal 0 -1 0
    outer loop
      vertex -3.048 -22 7.811
      vertex -1.808 -22 8.621
      vertex -22 -22 12
    endloop
  endfacet
  facet normal 0 1 0
    outer loop
      vertex 2.461 22 8.267
      vertex 1.105 22 8.862
      vertex 22 22 11.99
    endloop
  endfacet
  facet normal 0 -1 0
    outer loop
      vertex 2.461 -22 8.267
      vertex 22 -22 12
      vertex 1.105 -22 8.862
    endloop
  endfacet
  facet normal 0 1 0
    outer loop
      vertex -1.808 22 8.621
      vertex -22 22 11.99
      vertex -0.372 22 8.985
    endloop
  endfacet
  facet normal 0 -1 0
    outer loop
      vertex -1.808 -22 8.621
      vertex -0.372 -22 8.985
      vertex -22 -22 12
    endloop
  endfacet
  facet normal 0 1 0
    outer loop
      vertex 1.105 22 8.862
      vertex -0.372 22 8.985
      vertex 22 22 11.99
    endloop
  endfacet
  facet normal 0 -1 0
    outer loop
      vertex 1.105 -22 8.862
      vertex 22 -22 12
      vertex -0.372 -22 8.985
    endloop
  endfacet
  facet normal 0 1 0
    outer loop
      vertex -0.372 22 8.985
      vertex -22 22 11.99
      vertex 22 22 11.99
    endloop
  endfacet
  facet normal 0 -1 0
    outer loop
      vertex -0.372 -22 8.985
      vertex 22 -22 12
      vertex -22 -22 12
    endloop
  endfacet
  facet normal 0 0 -1
    outer loop
      vertex -20 -20 9.99
      vertex -20 -8.284 9.99
      vertex -8.284 -20 9.99
    endloop
  endfacet
  facet normal 0 0 -1
    outer loop
      vertex 8.284 -20 9.99
      vertex 20 -8.284 9.99
      vertex 20 -20 9.99
    endloop
  endfacet
  facet normal 0 0 -1
    outer loop
      vertex -20 8.284 9.99
      vertex -20 20 9.99
      vertex -8.284 20 9.99
    endloop
  endfacet
  facet normal 0 0 -1
    outer loop
      vertex 20 8.284 9.99
      vertex 8.284 20 9.99
      vertex 20 20 9.99
    endloop
  endfacet
  facet normal 0 1 0
    outer loop
      vertex -8.284 -20 9.99
      vertex -8.284 -20 11.99
      vertex 8.284 -20 9.99
    endloop
  endfacet
  facet normal -0.707 0.707 0
    outer loop
      vertex 8.284 -20 9.99
      vertex 8.288 -19.996 11.99
      vertex 20 -8.284 9.99
    endloop
  endfacet
  facet normal 1 0 0
    outer loop
      vertex -20 -8.284 9.99
      vertex -20 8.284 9.99
      vertex -20 -8.284 11.99
    endloop
  endfacet
  facet normal -1 0 0
    outer loop
      vertex 20 -8.284 9.99
      vertex 20 8.284 11.99
      vertex 20 8.284 9.99
    endloop
  endfacet
  facet normal 0 -1 0
    outer loop
      vertex -8.284 20 9.99
      vertex 8.284 20 9.99
      vertex 8.284 20 11.99
    endloop
  endfacet
  facet normal 0.707 0.707 0
    outer loop
      vertex -8.284 -20 9.99
      vertex -20 -8.284 9.99
      vertex -8.296 -19.988 12
    endloop
  endfacet
  facet normal 0.707 -0.707 0
    outer loop
      vertex -20 8.284 9.99
      vertex -8.284 20 9.99
      vertex -19.991 8.294 12
    endloop
  endfacet
  facet normal -0.707 -0.707 0
    outer loop
      vertex 20 8.284 9.99
      vertex 19.991 8.294 12
      vertex 8.284 20 9.99
    endloop
  endfacet
  facet normal 0 1 0
    outer loop
      vertex 8.284 -20 9.99
      vertex -8.284 -20 11.99
      vertex 8.284 -20 11.99
    endloop
  endfacet
  facet normal 0.707 0.707 0
    outer loop
      vertex -8.284 -20 9.99
      vertex -8.288 -19.996 11.99
      vertex -8.284 -20 11.99
    endloop
  endfacet
  facet normal -0.707 0.707 0
    outer loop
      vertex 8.284 -20 9.99
      vertex 8.284 -20 11.99
      vertex 8.288 -19.996 11.99
    endloop
  endfacet
  facet normal -0.707 0.707 0
    outer loop
      vertex 20 -8.284 9.99
      vertex 8.288 -19.996 11.99
      vertex 19.995 -8.289 11.99
    endloop
  endfacet
  facet normal 0.707 0.707 0
    outer loop
      vertex -20 -8.284 9.99
      vertex -20 -8.284 11.99
      vertex -19.995 -8.289 11.99
    endloop
  endfacet
  facet normal -0.707 0.707 0
    outer loop
      vertex 20 -8.284 9.99
      vertex 19.995 -8.289 11.99
      vertex 20 -8.284 11.99
    endloop
  endfacet
  facet normal -1 0 0
    outer loop
      vertex 20 -8.284 9.99
      vertex 20 -8.284 11.99
      vertex 20 8.284 11.99
    endloop
  endfacet
  facet normal 1 0 0
    outer loop
      vertex -20 8.284 9.99
      vertex -20 8.284 11.99
      vertex -20 -8.284 11.99
    endloop
  endfacet
  facet normal 0.707 -0.707 0
    outer loop
      vertex -20 8.284 9.99
      vertex -19.995 8.289 11.99
      vertex -20 8.284 11.99
    endloop
  endfacet
  facet normal -0.707 -0.707 0
    outer loop
      vertex 20 8.284 9.99
      vertex 20 8.284 11.99
      vertex 19.995 8.289 11.99
    endloop
  endfacet
  facet normal 0.707 -0.707 0
    outer loop
      vertex -8.284 20 9.99
      vertex -8.284 20 11.99
      vertex -8.288 19.996 11.99
    endloop
  endfacet
  facet normal -0.707 -0.707 0
    outer loop
      vertex 8.284 20 9.99
      vertex 8.288 19.996 11.99
      vertex 8.284 20 11.99
    endloop
  endfacet
  facet normal 0 -1 0
    outer loop
      vertex -8.284 20 9.99
      vertex 8.284 20 11.99
      vertex -8.284 20 11.99
    endloop
  endfacet
  facet normal 0.707 0.707 0
    outer loop
      vertex -8.284 -20 9.99
      vertex -8.296 -19.988 12
      vertex -8.288 -19.996 11.99
    endloop
  endfacet
  facet normal 0.707 0.707 0
    outer loop
      vertex -20 -8.284 9.99
      vertex -19.995 -8.289 11.99
      vertex -19.991 -8.294 12
    endloop
  endfacet
  facet normal 0.707 -0.707 0
    outer loop
      vertex -20 8.284 9.99
      vertex -19.991 8.294 12
      vertex -19.995 8.289 11.99
    endloop
  endfacet
  facet normal -0.707 -0.707 0
    outer loop
      vertex 20 8.284 9.99
      vertex 19.995 8.289 11.99
      vertex 19.991 8.294 12
    endloop
  endfacet
  facet normal 0.707 -0.707 0
    outer loop
      vertex -8.284 20 9.99
      vertex -8.288 19.996 11.99
      vertex -19.991 8.294 12
    endloop
  endfacet
  facet normal -0.707 -0.707 0
    outer loop
      vertex 8.284 20 9.99
      vertex 19.991 8.294 12
      vertex 8.288 19.996 11.99
    endloop
  endfacet
  facet normal 0.707 0.707 0
    outer loop
      vertex -20 -8.284 9.99
      vertex -19.991 -8.294 12
      vertex -8.296 -19.988 12
    endloop
  endfacet
  facet normal 0 0 -1
    outer loop
      vertex -8.284 -20 11.99
      vertex 8.288 -19.996 11.99
      vertex 8.284 -20 11.99
    endloop
  endfacet
  facet normal 0 0 -1
    outer loop
      vertex -8.284 -20 11.99
      vertex -8.288 -19.996 11.99
      vertex 8.288 -19.996 11.99
    endloop
  endfacet
  facet normal 0 0 -1
    outer loop
      vertex 19.995 -8.289 11.99
      vertex 20 8.284 11.99
      vertex 20 -8.284 11.99
    endloop
  endfacet
  facet normal 0 0 -1
    outer loop
      vertex -19.995 -8.289 11.99
      vertex -20 -8.284 11.99
      vertex -19.995 8.289 11.99
    endloop
  endfacet
  facet normal 0 0 -1
    outer loop
      vertex 19.995 -8.289 11.99
      vertex 19.995 8.289 11.99
      vertex 20 8.284 11.99
    endloop
  endfacet
  facet normal 0 0 -1
    outer loop
      vertex -20 -8.284 11.99
      vertex -20 8.284 11.99
      vertex -19.995 8.289 11.99
    endloop
  endfacet
  facet normal 0 0 -1
    outer loop
      vertex -8.288 19.996 11.99
      vertex -8.284 20 11.99
      vertex 8.288 19.996 11.99
    endloop
  endfacet
  facet normal 0 0 -1
    outer loop
      vertex 8.288 19.996 11.99
      vertex -8.284 20 11.99
      vertex 8.284 20 11.99
    endloop
  endfacet
  facet normal 0 0.781 -0.625
    outer loop
      vertex -8.288 -19.996 11.99
      vertex -8.296 -19.988 12
      vertex 8.288 -19.996 11.99
    endloop
  endfacet
  facet normal -0.707 0.707 0
    outer loop
      vertex 8.288 -19.996 11.99
      vertex 8.296 -19.988 12
      vertex 19.995 -8.289 11.99
    endloop
  endfacet
  facet normal 0.906 0 -0.423
    outer loop
      vertex -19.995 -8.289 11.99
      vertex -19.995 8.289 11.99
      vertex -19.991 -8.294 12
    endloop
  endfacet
  facet normal -0.906 0 -0.423
    outer loop
      vertex 19.995 -8.289 11.99
      vertex 19.991 -8.294 12
      vertex 19.995 8.289 11.99
    endloop
  endfacet
  facet normal 0 -1 0
    outer loop
      vertex -8.288 19.996 11.99
      vertex 8.288 19.996 11.99
      vertex 8.288 19.996 12
    endloop
  endfacet
  facet normal 0 1 0
    outer loop
      vertex -22 22 11.99
      vertex -8 22 41.99
      vertex 22 22 11.99
    endloop
  endfacet
  facet normal -1 0 0
    outer loop
      vertex -22 22 11.99
      vertex -22 -22 12
      vertex -22 22 12
    endloop
  endfacet
  facet normal 1 0 0
    outer loop
      vertex 22 22 11.99
      vertex 22 22 12
      vertex 22 -22 12
    endloop
  endfacet
  facet normal 0 0.781 -0.625
    outer loop
      vertex 8.288 -19.996 11.99
      vertex -8.296 -19.988 12
      vertex 8.296 -19.988 12
    endloop
  endfacet
  facet normal -0.707 0.707 0
    outer loop
      vertex 19.995 -8.289 11.99
      vertex 8.296 -19.988 12
      vertex 19.991 -8.294 12
    endloop
  endfacet
  facet normal 0.906 0 -0.423
    outer loop
      vertex -19.995 8.289 11.99
      vertex -19.991 8.294 12
      vertex -19.991 -8.294 12
    endloop
  endfacet
  facet normal -0.906 0 -0.423
    outer loop
      vertex 19.995 8.289 11.99
      vertex 19.991 -8.294 12
      vertex 19.991 8.294 12
    endloop
  endfacet
  facet normal 0.707 -0.707 0
    outer loop
      vertex -8.288 19.996 11.99
      vertex -8.288 19.996 12
      vertex -19.991 8.294 12
    endloop
  endfacet
  facet normal -0.707 -0.707 0
    outer loop
      vertex 8.288 19.996 11.99
      vertex 19.991 8.294 12
      vertex 8.288 19.996 12
    endloop
  endfacet
  facet normal 0 -1 0
    outer loop
      vertex -8.288 19.996 11.99
      vertex 8.288 19.996 12
      vertex -8.288 19.996 12
    endloop
  endfacet
  facet normal 0 1 0
    outer loop
      vertex -22 22 11.99
      vertex -22 22 12
      vertex -21.995 22 12
    endloop
  endfacet
  facet normal 0 1 0
    outer loop
      vertex 22 22 11.99
      vertex 21.995 22 12
      vertex 22 22 12
    endloop
  endfacet
  facet normal 0 -1 0
    outer loop
      vertex -22 22 11.99
      vertex -21.995 22 12
      vertex -8 22 41.99
    endloop
  endfacet
  facet normal 0 -1 0
    outer loop
      vertex 22 22 11.99
      vertex 8 22 41.99
      vertex 21.995 22 12
    endloop
  endfacet
  facet normal 0 1 0
    outer loop
      vertex 22 22 11.99
      vertex -8 22 41.99
      vertex 8 22 41.99
    endloop
  endfacet
  facet normal 0 0 1
    outer loop
      vertex -22 -22 12
      vertex 22 -22 12
      vertex -21.995 -21.992 12
    endloop
  endfacet
  facet normal 0 0 1
    outer loop
      vertex 22 -22 12
      vertex 21.995 -21.992 12
      vertex -21.995 -21.992 12
    endloop
  endfacet
  facet normal 0 0 1
    outer loop
      vertex -22 -22 12
      vertex -21.995 -21.992 12
      vertex -22 22 12
    endloop
  endfacet
  facet normal 0 0 1
    outer loop
      vertex 22 -22 12
      vertex 22 22 12
      vertex 21.995 -21.992 12
    endloop
  endfacet
  facet normal 0 0 1
    outer loop
      vertex -21.995 -21.992 12
      vertex -21.995 22 12
      vertex -22 22 12
    endloop
  endfacet
  facet normal 0 0 1
    outer loop
      vertex 21.995 -21.992 12
      vertex 22 22 12
      vertex 21.995 22 12
    endloop
  endfacet
  facet normal 0 0 1
    outer loop
      vertex -19.991 -19.988 12
      vertex -8.296 -19.988 12
      vertex -19.991 -8.294 12
    endloop
  endfacet
  facet normal 0 0 1
    outer loop
      vertex 8.296 -19.988 12
      vertex 19.991 -19.988 12
      vertex 19.991 -8.294 12
    endloop
  endfacet
  facet normal 0 0 1
    outer loop
      vertex -19.991 8.294 12
      vertex -8.288 19.996 12
      vertex -19.991 19.996 12
    endloop
  endfacet
  facet normal 0 0 1
    outer loop
      vertex 19.991 8.294 12
      vertex 19.991 19.996 12
      vertex 8.288 19.996 12
    endloop
  endfacet
  facet normal 0 -0.781 0.625
    outer loop
      vertex -21.995 -21.992 12
      vertex 21.995 -21.992 12
      vertex 8 2 41.99
    endloop
  endfacet
  facet normal -0.906 0 0.423
    outer loop
      vertex -21.995 -21.992 12
      vertex -8 2 41.99
      vertex -21.995 22 12
    endloop
  endfacet
  facet normal 0.906 0 0.423
    outer loop
      vertex 21.995 -21.992 12
      vertex 21.995 22 12
      vertex 8 2 41.99
    endloop
  endfacet
  facet normal 0 0.781 -0.625
    outer loop
      vertex -19.991 -19.988 12
      vertex -6.005 3.996 41.99
      vertex -8.296 -19.988 12
    endloop
  endfacet
  facet normal 0 0.781 -0.625
    outer loop
      vertex -8.296 -19.988 12
      vertex -6.005 3.996 41.99
      vertex 8.296 -19.988 12
    endloop
  endfacet
  facet normal 0 0.781 -0.625
    outer loop
      vertex 8.296 -19.988 12
      vertex 6.005 3.996 41.99
      vertex 19.991 -19.988 12
    endloop
  endfacet
  facet normal 0.906 0 -0.423
    outer loop
      vertex -19.991 -19.988 12
      vertex -19.991 -8.294 12
      vertex -6.005 3.996 41.99
    endloop
  endfacet
  facet normal -0.906 0 -0.423
    outer loop
      vertex 19.991 -19.988 12
      vertex 6.005 3.996 41.99
      vertex 19.991 -8.294 12
    endloop
  endfacet
  facet normal 0.906 0 -0.423
    outer loop
      vertex -19.991 -8.294 12
      vertex -19.991 8.294 12
      vertex -6.005 3.996 41.99
    endloop
  endfacet
  facet normal -0.906 0 -0.423
    outer loop
      vertex 19.991 -8.294 12
      vertex 6.005 3.996 41.99
      vertex 19.991 8.294 12
    endloop
  endfacet
  facet normal 0.906 0 -0.423
    outer loop
      vertex -19.991 8.294 12
      vertex -19.991 19.996 12
      vertex -6.005 20.004 41.99
    endloop
  endfacet
  facet normal -0.906 0 -0.423
    outer loop
      vertex 19.991 8.294 12
      vertex 6.005 20.004 41.99
      vertex 19.991 19.996 12
    endloop
  endfacet
  facet normal 0 -1 0
    outer loop
      vertex -19.991 19.996 12
      vertex -8.288 19.996 12
      vertex -6.005 20.004 41.99
    endloop
  endfacet
  facet normal 0 -1 0
    outer loop
      vertex -8.288 19.996 12
      vertex 8.288 19.996 12
      vertex 6.005 20.004 41.99
    endloop
  endfacet
  facet normal 0 -1 0
    outer loop
      vertex 8.288 19.996 12
      vertex 19.991 19.996 12
      vertex 6.005 20.004 41.99
    endloop
  endfacet
  facet normal 0 -0.781 0.625
    outer loop
      vertex -21.995 -21.992 12
      vertex 8 2 41.99
      vertex -8 2 41.99
    endloop
  endfacet
  facet normal 0 0.781 -0.625
    outer loop
      vertex 8.296 -19.988 12
      vertex -6.005 3.996 41.99
      vertex 6.005 3.996 41.99
    endloop
  endfacet
  facet normal -0.906 0 0.423
    outer loop
      vertex -21.995 22 12
      vertex -8 2 41.99
      vertex -8 22 41.99
    endloop
  endfacet
  facet normal 0.906 0 0.423
    outer loop
      vertex 21.995 22 12
      vertex 8 22 41.99
      vertex 8 2 41.99
    endloop
  endfacet
  facet normal 0.906 0 -0.423
    outer loop
      vertex -19.991 8.294 12
      vertex -6.005 20.004 41.99
      vertex -6.005 3.996 41.99
    endloop
  endfacet
  facet normal -0.906 0 -0.423
    outer loop
      vertex 19.991 8.294 12
      vertex 6.005 3.996 41.99
      vertex 6.005 20.004 41.99
    endloop
  endfacet
  facet normal 0 -1 0
    outer loop
      vertex -8.288 19.996 12
      vertex 6.005 20.004 41.99
      vertex -6.005 20.004 41.99
    endloop
  endfacet
  facet normal 0 0 1
    outer loop
      vertex -8 2 41.99
      vertex 8 2 41.99
      vertex -6.005 3.996 41.99
    endloop
  endfacet
  facet normal 0 0 1
    outer loop
      vertex 8 2 41.99
      vertex 6.005 3.996 41.99
      vertex -6.005 3.996 41.99
    endloop
  endfacet
  facet normal 0 0 1
    outer loop
      vertex 8 2 41.99
      vertex 6.005 20.004 41.99
      vertex 6.005 3.996 41.99
    endloop
  endfacet
  facet normal 0 0 1
    outer loop
      vertex -8 2 41.99
      vertex -6.005 3.996 41.99
      vertex -8 22 41.99
    endloop
  endfacet
  facet normal 0 0 1
    outer loop
      vertex 8 2 41.99
      vertex 8 22 41.99
      vertex 6.005 20.004 41.99
    endloop
  endfacet
  facet normal 0 0 1
    outer loop
      vertex -6.005 3.996 41.99
      vertex -6.005 20.004 41.99
      vertex -8 22 41.99
    endloop
  endfacet
  facet normal 0 0 1
    outer loop
      vertex -6.005 20.004 41.99
      vertex 6.005 20.004 41.99
      vertex 8 22 41.99
    endloop
  endfacet
  facet normal 0 0 1
    outer loop
      vertex -6.005 20.004 41.99
      vertex 8 22 41.99
      vertex -8 22 41.99
    endloop
  endfacet
endsolid Model
