solid Model
  facet normal 0 0 -1
    outer loop
      vertex 0.37 -12.495 0
      vertex -1.11 -12.451 0
      vertex -0.606 -3.437 0
    endloop
  endfacet
  facet normal 0 0 -1
    outer loop
      vertex 0.37 -12.495 0
      vertex 0.606 -3.437 0
      vertex 1.846 -12.363 0
    endloop
  endfacet
  facet normal 0 0 -1
    outer loop
      vertex 0.37 -12.495 0
      vertex -0.606 -3.437 0
      vertex 0.606 -3.437 0
    endloop
  endfacet
  facet normal 0 0 -1
    outer loop
      vertex -1.11 -12.451 0
      vertex -2.575 -12.232 0
      vertex -0.606 -3.437 0
    endloop
  endfacet
  facet normal 0 0 -1
    outer loop
      vertex 1.846 -12.363 0
      vertex 0.606 -3.437 0
      vertex 3.295 -12.058 0
    endloop
  endfacet
  facet normal 0 0 -1
    outer loop
      vertex -2.575 -12.232 0
      vertex -4.003 -11.842 0
      vertex -0.606 -3.437 0
    endloop
  endfacet
  facet normal 0 0 -1
    outer loop
      vertex 3.295 -12.058 0
      vertex 1.737 -3.025 0
      vertex 4.698 -11.584 0
    endloop
  endfacet
  facet normal 0 0 -1
    outer loop
      vertex 3.295 -12.058 0
      vertex 0.606 -3.437 0
      vertex 1.737 -3.025 0
    endloop
  endfacet
  facet normal 0 0 -1
    outer loop
      vertex -4.003 -11.842 0
      vertex -5.376 -11.285 0
      vertex -1.737 -3.025 0
    endloop
  endfacet
  facet normal 0 0 -1
    outer loop
      vertex -4.003 -11.842 0
      vertex -1.737 -3.025 0
      vertex -0.606 -3.437 0
    endloop
  endfacet
  facet normal 0 0 -1
    outer loop
      vertex 4.698 -11.584 0
      vertex 4 -2.86 0
      vertex 6.035 -10.947 0
    endloop
  endfacet
  facet normal 0 0 -1
    outer loop
      vertex 4.698 -11.584 0
      vertex 1.737 -3.025 0
      vertex 4 -2.86 0
    endloop
  endfacet
  facet normal 0 0 -1
    outer loop
      vertex -5.376 -11.285 0
      vertex -6.673 -10.57 0
      vertex -1.745 -3.022 0
    endloop
  endfacet
  facet normal 0 0 -1
    outer loop
      vertex -5.376 -11.285 0
      vertex -1.745 -3.022 0
      vertex -1.737 -3.025 0
    endloop
  endfacet
  facet normal 0 0 -1
    outer loop
      vertex 6.035 -10.947 0
      vertex 4 -2.86 0
      vertex 7.287 -10.156 0
    endloop
  endfacet
  facet normal 0 0 -1
    outer loop
      vertex -6.673 -10.57 0
      vertex -7.876 -9.707 0
      vertex -1.752 -3.017 0
    endloop
  endfacet
  facet normal 0 0 -1
    outer loop
      vertex -6.673 -10.57 0
      vertex -1.752 -3.017 0
      vertex -1.745 -3.022 0
    endloop
  endfacet
  facet normal 0 0 -1
    outer loop
      vertex 7.287 -10.156 0
      vertex 6.64 -2.86 0
      vertex 8.437 -9.223 0
    endloop
  endfacet
  facet normal 0 0 -1
    outer loop
      vertex 7.287 -10.156 0
      vertex 4 -2.86 0
      vertex 6.64 -2.86 0
    endloop
  endfacet
  facet normal 0 0 -1
    outer loop
      vertex -7.876 -9.707 0
      vertex -8.969 -8.707 0
      vertex -2.674 -2.243 0
    endloop
  endfacet
  facet normal 0 0 -1
    outer loop
      vertex -7.876 -9.707 0
      vertex -2.674 -2.243 0
      vertex -1.752 -3.017 0
    endloop
  endfacet
  facet normal 0 0 -1
    outer loop
      vertex 8.437 -9.223 0
      vertex 6.64 -2.86 0
      vertex 9.469 -8.16 0
    endloop
  endfacet
  facet normal 0 0 -1
    outer loop
      vertex -8.969 -8.707 0
      vertex -9.936 -7.585 0
      vertex -2.674 -2.243 0
    endloop
  endfacet
  facet normal 0 0 -1
    outer loop
      vertex 9.469 -8.16 0
      vertex 6.64 -2.86 0
      vertex 10.368 -6.983 0
    endloop
  endfacet
  facet normal 0 0 -1
    outer loop
      vertex -9.936 -7.585 0
      vertex -10.763 -6.357 0
      vertex -2.674 -2.243 0
    endloop
  endfacet
  facet normal 0 0 -1
    outer loop
      vertex 10.368 -6.983 0
      vertex 6.64 -2.86 0
      vertex 11.121 -5.708 0
    endloop
  endfacet
  facet normal 0 0 -1
    outer loop
      vertex -10.763 -6.357 0
      vertex -11.439 -5.039 0
      vertex -3.275 -1.201 0
    endloop
  endfacet
  facet normal 0 0 -1
    outer loop
      vertex -10.763 -6.357 0
      vertex -3.275 -1.201 0
      vertex -2.674 -2.243 0
    endloop
  endfacet
  facet normal 0 0 -1
    outer loop
      vertex 11.121 -5.708 0
      vertex 6.64 -2.86 0
      vertex 11.718 -4.353 0
    endloop
  endfacet
  facet normal 0 0 -1
    outer loop
      vertex -11.439 -5.039 0
      vertex -11.955 -3.651 0
      vertex -3.28 -1.194 0
    endloop
  endfacet
  facet normal 0 0 -1
    outer loop
      vertex -11.439 -5.039 0
      vertex -3.28 -1.194 0
      vertex -3.275 -1.201 0
    endloop
  endfacet
  facet normal 0 0 -1
    outer loop
      vertex 11.718 -4.353 0
      vertex 6.64 -2.86 0
      vertex 12.15 -2.936 0
    endloop
  endfacet
  facet normal 0 0 -1
    outer loop
      vertex -11.955 -3.651 0
      vertex -12.303 -2.211 0
      vertex -3.281 -1.185 0
    endloop
  endfacet
  facet normal 0 0 -1
    outer loop
      vertex -11.955 -3.651 0
      vertex -3.281 -1.185 0
      vertex -3.28 -1.194 0
    endloop
  endfacet
  facet normal 0 0 -1
    outer loop
      vertex 1.737 -3.025 0
      vertex 1.745 -3.022 0
      vertex 4 -2.86 0
    endloop
  endfacet
  facet normal 0 0 -1
    outer loop
      vertex 1.745 -3.022 0
      vertex 1.752 -3.017 0
      vertex 4 -2.86 0
    endloop
  endfacet
  facet normal 0 0 -1
    outer loop
      vertex 1.752 -3.017 0
      vertex 2 -2.808 0
      vertex 4 -2.86 0
    endloop
  endfacet
  facet normal 0 0 -1
    outer loop
      vertex 12.15 -2.936 0
      vertex 6.64 -2.86 0
      vertex 12.412 -1.478 0
    endloop
  endfacet
  facet normal 0 0 -1
    outer loop
      vertex 4 -2.86 0
      vertex 2 -2.808 0
      vertex 4 2.86 0
    endloop
  endfacet
  facet normal 0 0 -1
    outer loop
      vertex 6.64 -2.86 0
      vertex 12.5 0 0
      vertex 12.412 -1.478 0
    endloop
  endfacet
  facet normal 0 0 -1
    outer loop
      vertex 6.64 -2.86 0
      vertex 6.64 2.86 0
      vertex 12.5 0 0
    endloop
  endfacet
  facet normal 0 0 -1
    outer loop
      vertex 2 -2.808 0
      vertex 2 2.808 0
      vertex 4 2.86 0
    endloop
  endfacet
  facet normal 0 0 -1
    outer loop
      vertex -12.303 -2.211 0
      vertex -3.49 0 0
      vertex -3.281 -1.185 0
    endloop
  endfacet
  facet normal 0 0 -1
    outer loop
      vertex -12.303 -2.211 0
      vertex -12.478 -0.741 0
      vertex -3.49 0 0
    endloop
  endfacet
  facet normal 0 0 -1
    outer loop
      vertex -12.478 -0.741 0
      vertex -12.478 0.741 0
      vertex -3.49 0 0
    endloop
  endfacet
  facet normal 0 0 -1
    outer loop
      vertex -3.49 0 0
      vertex -12.478 0.741 0
      vertex -12.303 2.211 0
    endloop
  endfacet
  facet normal 0 0 -1
    outer loop
      vertex -3.49 0 0
      vertex -12.303 2.211 0
      vertex -3.281 1.185 0
    endloop
  endfacet
  facet normal 0 0 -1
    outer loop
      vertex 12.5 0 0
      vertex 6.64 2.86 0
      vertex 12.412 1.478 0
    endloop
  endfacet
  facet normal 0 0 -1
    outer loop
      vertex -3.281 1.185 0
      vertex -11.955 3.651 0
      vertex -3.28 1.194 0
    endloop
  endfacet
  facet normal 0 0 -1
    outer loop
      vertex -3.281 1.185 0
      vertex -12.303 2.211 0
      vertex -11.955 3.651 0
    endloop
  endfacet
  facet normal 0 0 -1
    outer loop
      vertex -3.28 1.194 0
      vertex -11.439 5.039 0
      vertex -3.275 1.201 0
    endloop
  endfacet
  facet normal 0 0 -1
    outer loop
      vertex -3.28 1.194 0
      vertex -11.955 3.651 0
      vertex -11.439 5.039 0
    endloop
  endfacet
  facet normal 0 0 -1
    outer loop
      vertex -3.275 1.201 0
      vertex -10.763 6.357 0
      vertex -2.674 2.243 0
    endloop
  endfacet
  facet normal 0 0 -1
    outer loop
      vertex -3.275 1.201 0
      vertex -11.439 5.039 0
      vertex -10.763 6.357 0
    endloop
  endfacet
  facet normal 0 0 -1
    outer loop
      vertex 12.412 1.478 0
      vertex 6.64 2.86 0
      vertex 12.15 2.936 0
    endloop
  endfacet
  facet normal 0 0 -1
    outer loop
      vertex -2.674 2.243 0
      vertex -7.876 9.707 0
      vertex -1.752 3.017 0
    endloop
  endfacet
  facet normal 0 0 -1
    outer loop
      vertex -2.674 2.243 0
      vertex -10.763 6.357 0
      vertex -9.936 7.585 0
    endloop
  endfacet
  facet normal 0 0 -1
    outer loop
      vertex -2.674 2.243 0
      vertex -9.936 7.585 0
      vertex -8.969 8.707 0
    endloop
  endfacet
  facet normal 0 0 -1
    outer loop
      vertex -2.674 2.243 0
      vertex -8.969 8.707 0
      vertex -7.876 9.707 0
    endloop
  endfacet
  facet normal 0 0 -1
    outer loop
      vertex 2 2.808 0
      vertex 1.752 3.017 0
      vertex 4 2.86 0
    endloop
  endfacet
  facet normal 0 0 -1
    outer loop
      vertex 4 2.86 0
      vertex 7.287 10.156 0
      vertex 6.64 2.86 0
    endloop
  endfacet
  facet normal 0 0 -1
    outer loop
      vertex 6.64 2.86 0
      vertex 11.718 4.353 0
      vertex 12.15 2.936 0
    endloop
  endfacet
  facet normal 0 0 -1
    outer loop
      vertex 4 2.86 0
      vertex 1.752 3.017 0
      vertex 1.745 3.022 0
    endloop
  endfacet
  facet normal 0 0 -1
    outer loop
      vertex 4 2.86 0
      vertex 1.745 3.022 0
      vertex 1.737 3.025 0
    endloop
  endfacet
  facet normal 0 0 -1
    outer loop
      vertex 4 2.86 0
      vertex 1.737 3.025 0
      vertex 4.698 11.584 0
    endloop
  endfacet
  facet normal 0 0 -1
    outer loop
      vertex 6.64 2.86 0
      vertex 11.121 5.708 0
      vertex 11.718 4.353 0
    endloop
  endfacet
  facet normal 0 0 -1
    outer loop
      vertex 6.64 2.86 0
      vertex 10.368 6.983 0
      vertex 11.121 5.708 0
    endloop
  endfacet
  facet normal 0 0 -1
    outer loop
      vertex 6.64 2.86 0
      vertex 9.469 8.16 0
      vertex 10.368 6.983 0
    endloop
  endfacet
  facet normal 0 0 -1
    outer loop
      vertex 6.64 2.86 0
      vertex 8.437 9.223 0
      vertex 9.469 8.16 0
    endloop
  endfacet
  facet normal 0 0 -1
    outer loop
      vertex 6.64 2.86 0
      vertex 7.287 10.156 0
      vertex 8.437 9.223 0
    endloop
  endfacet
  facet normal 0 0 -1
    outer loop
      vertex 4 2.86 0
      vertex 6.035 10.947 0
      vertex 7.287 10.156 0
    endloop
  endfacet
  facet normal 0 0 -1
    outer loop
      vertex 4 2.86 0
      vertex 4.698 11.584 0
      vertex 6.035 10.947 0
    endloop
  endfacet
  facet normal 0 0 -1
    outer loop
      vertex -1.752 3.017 0
      vertex -6.673 10.57 0
      vertex -1.745 3.022 0
    endloop
  endfacet
  facet normal 0 0 -1
    outer loop
      vertex -1.752 3.017 0
      vertex -7.876 9.707 0
      vertex -6.673 10.57 0
    endloop
  endfacet
  facet normal 0 0 -1
    outer loop
      vertex -1.745 3.022 0
      vertex -5.376 11.285 0
      vertex -1.737 3.025 0
    endloop
  endfacet
  facet normal 0 0 -1
    outer loop
      vertex -1.745 3.022 0
      vertex -6.673 10.57 0
      vertex -5.376 11.285 0
    endloop
  endfacet
  facet normal 0 0 -1
    outer loop
      vertex 1.737 3.025 0
      vertex 0.606 3.437 0
      vertex 4.698 11.584 0
    endloop
  endfacet
  facet normal 0 0 -1
    outer loop
      vertex -1.737 3.025 0
      vertex -4.003 11.842 0
      vertex -0.606 3.437 0
    endloop
  endfacet
  facet normal 0 0 -1
    outer loop
      vertex -1.737 3.025 0
      vertex -5.376 11.285 0
      vertex -4.003 11.842 0
    endloop
  endfacet
  facet normal 0 0 -1
    outer loop
      vertex -0.606 3.437 0
      vertex 0.37 12.495 0
      vertex 0.606 3.437 0
    endloop
  endfacet
  facet normal 0 0 -1
    outer loop
      vertex 0.606 3.437 0
      vertex 3.295 12.058 0
      vertex 4.698 11.584 0
    endloop
  endfacet
  facet normal 0 0 -1
    outer loop
      vertex -0.606 3.437 0
      vertex -4.003 11.842 0
      vertex -2.575 12.232 0
    endloop
  endfacet
  facet normal 0 0 -1
    outer loop
      vertex 0.606 3.437 0
      vertex 1.846 12.363 0
      vertex 3.295 12.058 0
    endloop
  endfacet
  facet normal 0 0 -1
    outer loop
      vertex -0.606 3.437 0
      vertex -2.575 12.232 0
      vertex -1.11 12.451 0
    endloop
  endfacet
  facet normal 0 0 -1
    outer loop
      vertex 0.606 3.437 0
      vertex 0.37 12.495 0
      vertex 1.846 12.363 0
    endloop
  endfacet
  facet normal 0 0 -1
    outer loop
      vertex -0.606 3.437 0
      vertex -1.11 12.451 0
      vertex 0.37 12.495 0
    endloop
  endfacet
  facet normal -0.577 0.687 -0.442
    outer loop
      vertex 1.752 -3.017 0
      vertex 2 -1.678 1.758
      vertex 2 -2.808 0
    endloop
  endfacet
  facet normal -1 0 0
    outer loop
      vertex 2 -2.808 0
      vertex 2 -1.678 1.758
      vertex 2 2.808 0
    endloop
  endfacet
  facet normal -0.577 -0.687 -0.442
    outer loop
      vertex 2 2.808 0
      vertex 2 1.678 1.758
      vertex 1.752 3.017 0
    endloop
  endfacet
  facet normal 0 0.897 -0.442
    outer loop
      vertex -0.606 -3.437 0
      vertex -0.434 -2.462 1.98
      vertex 0.606 -3.437 0
    endloop
  endfacet
  facet normal 0.307 0.843 -0.442
    outer loop
      vertex -0.606 -3.437 0
      vertex -1.737 -3.025 0
      vertex -0.434 -2.462 1.98
    endloop
  endfacet
  facet normal -0.307 0.843 -0.442
    outer loop
      vertex 0.606 -3.437 0
      vertex 0.434 -2.462 1.98
      vertex 1.737 -3.025 0
    endloop
  endfacet
  facet normal 0.307 0.843 -0.442
    outer loop
      vertex -1.737 -3.025 0
      vertex -1.745 -3.022 0
      vertex -1.25 -2.165 1.98
    endloop
  endfacet
  facet normal -0.307 0.843 -0.442
    outer loop
      vertex 1.737 -3.025 0
      vertex 1.25 -2.165 1.98
      vertex 1.745 -3.022 0
    endloop
  endfacet
  facet normal 0.577 0.687 -0.442
    outer loop
      vertex -1.745 -3.022 0
      vertex -1.752 -3.017 0
      vertex -1.915 -1.607 1.98
    endloop
  endfacet
  facet normal -0.577 0.687 -0.442
    outer loop
      vertex 1.745 -3.022 0
      vertex 1.915 -1.607 1.98
      vertex 1.752 -3.017 0
    endloop
  endfacet
  facet normal 0.577 0.687 -0.442
    outer loop
      vertex -1.752 -3.017 0
      vertex -2.674 -2.243 0
      vertex -1.915 -1.607 1.98
    endloop
  endfacet
  facet normal 0.777 0.449 -0.442
    outer loop
      vertex -2.674 -2.243 0
      vertex -3.275 -1.201 0
      vertex -1.915 -1.607 1.98
    endloop
  endfacet
  facet normal 0.777 0.449 -0.442
    outer loop
      vertex -3.275 -1.201 0
      vertex -3.28 -1.194 0
      vertex -2.349 -0.855 1.98
    endloop
  endfacet
  facet normal 0.884 0.156 -0.442
    outer loop
      vertex -3.28 -1.194 0
      vertex -3.281 -1.185 0
      vertex -2.349 -0.855 1.98
    endloop
  endfacet
  facet normal 0.884 0.156 -0.442
    outer loop
      vertex -3.281 -1.185 0
      vertex -3.49 0 0
      vertex -2.5 0 1.98
    endloop
  endfacet
  facet normal 0.884 -0.156 -0.442
    outer loop
      vertex -3.49 0 0
      vertex -3.281 1.185 0
      vertex -2.5 0 1.98
    endloop
  endfacet
  facet normal 0.884 -0.156 -0.442
    outer loop
      vertex -3.281 1.185 0
      vertex -3.28 1.194 0
      vertex -2.349 0.855 1.98
    endloop
  endfacet
  facet normal 0.777 -0.449 -0.442
    outer loop
      vertex -3.28 1.194 0
      vertex -3.275 1.201 0
      vertex -2.349 0.855 1.98
    endloop
  endfacet
  facet normal 0.777 -0.449 -0.442
    outer loop
      vertex -3.275 1.201 0
      vertex -2.674 2.243 0
      vertex -1.915 1.607 1.98
    endloop
  endfacet
  facet normal 0.577 -0.687 -0.442
    outer loop
      vertex -2.674 2.243 0
      vertex -1.752 3.017 0
      vertex -1.915 1.607 1.98
    endloop
  endfacet
  facet normal 0.577 -0.687 -0.442
    outer loop
      vertex -1.752 3.017 0
      vertex -1.745 3.022 0
      vertex -1.915 1.607 1.98
    endloop
  endfacet
  facet normal -0.577 -0.687 -0.442
    outer loop
      vertex 1.752 3.017 0
      vertex 1.915 1.607 1.98
      vertex 1.745 3.022 0
    endloop
  endfacet
  facet normal 0.307 -0.843 -0.442
    outer loop
      vertex -1.745 3.022 0
      vertex -1.737 3.025 0
      vertex -1.25 2.165 1.98
    endloop
  endfacet
  facet normal -0.307 -0.843 -0.442
    outer loop
      vertex 1.745 3.022 0
      vertex 1.25 2.165 1.98
      vertex 1.737 3.025 0
    endloop
  endfacet
  facet normal 0.307 -0.843 -0.442
    outer loop
      vertex -1.737 3.025 0
      vertex -0.606 3.437 0
      vertex -0.434 2.462 1.98
    endloop
  endfacet
  facet normal -0.307 -0.843 -0.442
    outer loop
      vertex 1.737 3.025 0
      vertex 0.434 2.462 1.98
      vertex 0.606 3.437 0
    endloop
  endfacet
  facet normal 0 -0.897 -0.442
    outer loop
      vertex -0.606 3.437 0
      vertex 0.606 3.437 0
      vertex 0.434 2.462 1.98
    endloop
  endfacet
  facet normal 0.998 -0.059 0
    outer loop
      vertex 12.412 -1.478 0
      vertex 12.5 0 0
      vertex 12.437 -1.06 2.087
    endloop
  endfacet
  facet normal 0.998 0.059 0
    outer loop
      vertex 12.5 0 0
      vertex 12.412 1.478 0
      vertex 12.437 1.06 2.087
    endloop
  endfacet
  facet normal 0.984 -0.177 0
    outer loop
      vertex 12.15 -2.936 0
      vertex 12.412 -1.478 0
      vertex 12.412 -1.478 2.328
    endloop
  endfacet
  facet normal 0.984 0.177 0
    outer loop
      vertex 12.412 1.478 0
      vertex 12.15 2.936 0
      vertex 12.412 1.478 2.328
    endloop
  endfacet
  facet normal 1 0 0
    outer loop
      vertex 4 -2.86 0
      vertex 4 2.86 0
      vertex 4 0 3.4
    endloop
  endfacet
  facet normal -1 0 0
    outer loop
      vertex 6.64 -2.86 0
      vertex 6.64 0 3.4
      vertex 6.64 2.86 0
    endloop
  endfacet
  facet normal 0.956 -0.292 0
    outer loop
      vertex 11.718 -4.353 0
      vertex 12.15 -2.936 0
      vertex 12.15 -2.936 4.141
    endloop
  endfacet
  facet normal 0.956 0.292 0
    outer loop
      vertex 12.15 2.936 0
      vertex 11.718 4.353 0
      vertex 12.15 2.936 4.141
    endloop
  endfacet
  facet normal 0 1 0
    outer loop
      vertex 4 -2.86 0
      vertex 4 -2.86 6.651
      vertex 6.64 -2.86 0
    endloop
  endfacet
  facet normal 0 -1 0
    outer loop
      vertex 4 2.86 0
      vertex 6.64 2.86 0
      vertex 6.64 2.86 6.651
    endloop
  endfacet
  facet normal -0.03 -1 0
    outer loop
      vertex 0.37 -12.495 0
      vertex 0.37 -12.495 20
      vertex -1.11 -12.451 0
    endloop
  endfacet
  facet normal 0.089 -0.996 0
    outer loop
      vertex 0.37 -12.495 0
      vertex 1.846 -12.363 0
      vertex 1.846 -12.363 20
    endloop
  endfacet
  facet normal -0.148 -0.989 0
    outer loop
      vertex -1.11 -12.451 0
      vertex -1.11 -12.451 20
      vertex -2.575 -12.232 0
    endloop
  endfacet
  facet normal 0.206 -0.979 0
    outer loop
      vertex 1.846 -12.363 0
      vertex 3.295 -12.058 0
      vertex 3.295 -12.058 20
    endloop
  endfacet
  facet normal -0.264 -0.965 0
    outer loop
      vertex -2.575 -12.232 0
      vertex -2.575 -12.232 20
      vertex -4.003 -11.842 0
    endloop
  endfacet
  facet normal 0.32 -0.947 0
    outer loop
      vertex 3.295 -12.058 0
      vertex 4.698 -11.584 0
      vertex 4.698 -11.584 20
    endloop
  endfacet
  facet normal -0.376 -0.927 0
    outer loop
      vertex -4.003 -11.842 0
      vertex -4.003 -11.842 20
      vertex -5.376 -11.285 0
    endloop
  endfacet
  facet normal 0.43 -0.903 0
    outer loop
      vertex 4.698 -11.584 0
      vertex 6.035 -10.947 0
      vertex 6.035 -10.947 20
    endloop
  endfacet
  facet normal -0.483 -0.876 0
    outer loop
      vertex -5.376 -11.285 0
      vertex -5.376 -11.285 20
      vertex -6.673 -10.57 0
    endloop
  endfacet
  facet normal 0.534 -0.846 0
    outer loop
      vertex 6.035 -10.947 0
      vertex 7.287 -10.156 0
      vertex 7.287 -10.156 20
    endloop
  endfacet
  facet normal -0.583 -0.812 0
    outer loop
      vertex -6.673 -10.57 0
      vertex -6.673 -10.57 20
      vertex -7.876 -9.707 0
    endloop
  endfacet
  facet normal 0.63 -0.777 0
    outer loop
      vertex 7.287 -10.156 0
      vertex 8.437 -9.223 0
      vertex 8.437 -9.223 20
    endloop
  endfacet
  facet normal -0.675 -0.738 0
    outer loop
      vertex -7.876 -9.707 0
      vertex -7.876 -9.707 20
      vertex -8.969 -8.707 0
    endloop
  endfacet
  facet normal 0.718 -0.697 0
    outer loop
      vertex 8.437 -9.223 0
      vertex 9.469 -8.16 0
      vertex 8.437 -9.223 20
    endloop
  endfacet
  facet normal -0.758 -0.653 0
    outer loop
      vertex -8.969 -8.707 0
      vertex -9.936 -7.585 20
      vertex -9.936 -7.585 0
    endloop
  endfacet
  facet normal 0.795 -0.607 0
    outer loop
      vertex 9.469 -8.16 0
      vertex 10.368 -6.983 0
      vertex 9.469 -8.16 20
    endloop
  endfacet
  facet normal -0.829 -0.559 0
    outer loop
      vertex -9.936 -7.585 0
      vertex -10.763 -6.357 20
      vertex -10.763 -6.357 0
    endloop
  endfacet
  facet normal 0.861 -0.509 0
    outer loop
      vertex 10.368 -6.983 0
      vertex 11.121 -5.708 0
      vertex 10.368 -6.983 20
    endloop
  endfacet
  facet normal -0.89 -0.457 0
    outer loop
      vertex -10.763 -6.357 0
      vertex -11.439 -5.039 20
      vertex -11.439 -5.039 0
    endloop
  endfacet
  facet normal 0.915 -0.403 0
    outer loop
      vertex 11.121 -5.708 0
      vertex 11.718 -4.353 0
      vertex 11.121 -5.708 20
    endloop
  endfacet
  facet normal -0.937 -0.348 0
    outer loop
      vertex -11.439 -5.039 0
      vertex -11.955 -3.651 20
      vertex -11.955 -3.651 0
    endloop
  endfacet
  facet normal -0.972 -0.235 0
    outer loop
      vertex -11.955 -3.651 0
      vertex -12.303 -2.211 20
      vertex -12.303 -2.211 0
    endloop
  endfacet
  facet normal -0.993 -0.118 0
    outer loop
      vertex -12.303 -2.211 0
      vertex -12.478 -0.741 20
      vertex -12.478 -0.741 0
    endloop
  endfacet
  facet normal -1 0 0
    outer loop
      vertex -12.478 -0.741 0
      vertex -12.478 0.741 20
      vertex -12.478 0.741 0
    endloop
  endfacet
  facet normal -0.993 0.118 0
    outer loop
      vertex -12.478 0.741 0
      vertex -12.303 2.211 20
      vertex -12.303 2.211 0
    endloop
  endfacet
  facet normal -0.972 0.235 0
    outer loop
      vertex -12.303 2.211 0
      vertex -11.955 3.651 20
      vertex -11.955 3.651 0
    endloop
  endfacet
  facet normal -0.937 0.348 0
    outer loop
      vertex -11.955 3.651 0
      vertex -11.439 5.039 20
      vertex -11.439 5.039 0
    endloop
  endfacet
  facet normal 0.915 0.403 0
    outer loop
      vertex 11.718 4.353 0
      vertex 11.121 5.708 0
      vertex 11.718 4.353 20
    endloop
  endfacet
  facet normal -0.89 0.457 0
    outer loop
      vertex -11.439 5.039 0
      vertex -10.763 6.357 20
      vertex -10.763 6.357 0
    endloop
  endfacet
  facet normal 0.861 0.509 0
    outer loop
      vertex 11.121 5.708 0
      vertex 10.368 6.983 0
      vertex 11.121 5.708 20
    endloop
  endfacet
  facet normal -0.829 0.559 0
    outer loop
      vertex -10.763 6.357 0
      vertex -9.936 7.585 20
      vertex -9.936 7.585 0
    endloop
  endfacet
  facet normal 0.795 0.607 0
    outer loop
      vertex 10.368 6.983 0
      vertex 9.469 8.16 0
      vertex 10.368 6.983 20
    endloop
  endfacet
  facet normal -0.758 0.653 0
    outer loop
      vertex -9.936 7.585 0
      vertex -8.969 8.707 20
      vertex -8.969 8.707 0
    endloop
  endfacet
  facet normal 0.718 0.697 0
    outer loop
      vertex 9.469 8.16 0
      vertex 8.437 9.223 0
      vertex 9.469 8.16 20
    endloop
  endfacet
  facet normal -0.675 0.738 0
    outer loop
      vertex -8.969 8.707 0
      vertex -8.969 8.707 20
      vertex -7.876 9.707 0
    endloop
  endfacet
  facet normal 0.63 0.777 0
    outer loop
      vertex 8.437 9.223 0
      vertex 7.287 10.156 0
      vertex 7.287 10.156 20
    endloop
  endfacet
  facet normal -0.583 0.812 0
    outer loop
      vertex -7.876 9.707 0
      vertex -7.876 9.707 20
      vertex -6.673 10.57 0
    endloop
  endfacet
  facet normal 0.534 0.846 0
    outer loop
      vertex 7.287 10.156 0
      vertex 6.035 10.947 0
      vertex 6.035 10.947 20
    endloop
  endfacet
  facet normal -0.483 0.876 0
    outer loop
      vertex -6.673 10.57 0
      vertex -6.673 10.57 20
      vertex -5.376 11.285 0
    endloop
  endfacet
  facet normal 0.43 0.903 0
    outer loop
      vertex 6.035 10.947 0
      vertex 4.698 11.584 0
      vertex 4.698 11.584 20
    endloop
  endfacet
  facet normal -0.376 0.927 0
    outer loop
      vertex -5.376 11.285 0
      vertex -5.376 11.285 20
      vertex -4.003 11.842 0
    endloop
  endfacet
  facet normal 0.32 0.947 0
    outer loop
      vertex 4.698 11.584 0
      vertex 3.295 12.058 0
      vertex 3.295 12.058 20
    endloop
  endfacet
  facet normal -0.264 0.965 0
    outer loop
      vertex -4.003 11.842 0
      vertex -4.003 11.842 20
      vertex -2.575 12.232 0
    endloop
  endfacet
  facet normal 0.206 0.979 0
    outer loop
      vertex 3.295 12.058 0
      vertex 1.846 12.363 0
      vertex 1.846 12.363 20
    endloop
  endfacet
  facet normal -0.148 0.989 0
    outer loop
      vertex -2.575 12.232 0
      vertex -2.575 12.232 20
      vertex -1.11 12.451 0
    endloop
  endfacet
  facet normal 0.089 0.996 0
    outer loop
      vertex 1.846 12.363 0
      vertex 0.37 12.495 0
      vertex 0.37 12.495 20
    endloop
  endfacet
  facet normal -0.03 1 0
    outer loop
      vertex -1.11 12.451 0
      vertex -1.11 12.451 20
      vertex 0.37 12.495 0
    endloop
  endfacet
  facet normal -1 0 0
    outer loop
      vertex 2 2.808 0
      vertex 2 -1.678 1.758
      vertex 2 1.678 1.758
    endloop
  endfacet
  facet normal -0.577 0.687 -0.442
    outer loop
      vertex 1.752 -3.017 0
      vertex 1.915 -1.607 1.98
      vertex 2 -1.678 1.758
    endloop
  endfacet
  facet normal -0.577 -0.687 -0.442
    outer loop
      vertex 1.752 3.017 0
      vertex 2 1.678 1.758
      vertex 1.915 1.607 1.98
    endloop
  endfacet
  facet normal 0.998 -0.059 0
    outer loop
      vertex 12.5 0 0
      vertex 12.5 0 1.9
      vertex 12.437 -1.06 2.087
    endloop
  endfacet
  facet normal 0.998 0.059 0
    outer loop
      vertex 12.5 0 0
      vertex 12.437 1.06 2.087
      vertex 12.5 0 1.9
    endloop
  endfacet
  facet normal 0 0.897 -0.442
    outer loop
      vertex 0.606 -3.437 0
      vertex -0.434 -2.462 1.98
      vertex 0.434 -2.462 1.98
    endloop
  endfacet
  facet normal 0.307 0.843 -0.442
    outer loop
      vertex -1.737 -3.025 0
      vertex -1.25 -2.165 1.98
      vertex -0.434 -2.462 1.98
    endloop
  endfacet
  facet normal -0.307 0.843 -0.442
    outer loop
      vertex 1.737 -3.025 0
      vertex 0.434 -2.462 1.98
      vertex 1.25 -2.165 1.98
    endloop
  endfacet
  facet normal 0.577 0.687 -0.442
    outer loop
      vertex -1.745 -3.022 0
      vertex -1.915 -1.607 1.98
      vertex -1.25 -2.165 1.98
    endloop
  endfacet
  facet normal -0.577 0.687 -0.442
    outer loop
      vertex 1.745 -3.022 0
      vertex 1.25 -2.165 1.98
      vertex 1.915 -1.607 1.98
    endloop
  endfacet
  facet normal 0.777 0.449 -0.442
    outer loop
      vertex -3.275 -1.201 0
      vertex -2.349 -0.855 1.98
      vertex -1.915 -1.607 1.98
    endloop
  endfacet
  facet normal 0.884 0.156 -0.442
    outer loop
      vertex -3.281 -1.185 0
      vertex -2.5 0 1.98
      vertex -2.349 -0.855 1.98
    endloop
  endfacet
  facet normal 0.884 -0.156 -0.442
    outer loop
      vertex -3.281 1.185 0
      vertex -2.349 0.855 1.98
      vertex -2.5 0 1.98
    endloop
  endfacet
  facet normal 0.777 -0.449 -0.442
    outer loop
      vertex -3.275 1.201 0
      vertex -1.915 1.607 1.98
      vertex -2.349 0.855 1.98
    endloop
  endfacet
  facet normal 0.577 -0.687 -0.442
    outer loop
      vertex -1.745 3.022 0
      vertex -1.25 2.165 1.98
      vertex -1.915 1.607 1.98
    endloop
  endfacet
  facet normal -0.577 -0.687 -0.442
    outer loop
      vertex 1.745 3.022 0
      vertex 1.915 1.607 1.98
      vertex 1.25 2.165 1.98
    endloop
  endfacet
  facet normal 0.307 -0.843 -0.442
    outer loop
      vertex -1.737 3.025 0
      vertex -0.434 2.462 1.98
      vertex -1.25 2.165 1.98
    endloop
  endfacet
  facet normal -0.307 -0.843 -0.442
    outer loop
      vertex 1.737 3.025 0
      vertex 1.25 2.165 1.98
      vertex 0.434 2.462 1.98
    endloop
  endfacet
  facet normal 0 -0.897 -0.442
    outer loop
      vertex -0.606 3.437 0
      vertex 0.434 2.462 1.98
      vertex -0.434 2.462 1.98
    endloop
  endfacet
  facet normal 0.998 -0.059 0
    outer loop
      vertex 12.412 -1.478 0
      vertex 12.437 -1.06 2.087
      vertex 12.412 -1.478 2.328
    endloop
  endfacet
  facet normal 0.998 0.059 0
    outer loop
      vertex 12.412 1.478 0
      vertex 12.412 1.478 2.328
      vertex 12.437 1.06 2.087
    endloop
  endfacet
  facet normal 0.984 -0.177 0
    outer loop
      vertex 12.15 -2.936 0
      vertex 12.412 -1.478 2.328
      vertex 12.32 -1.993 2.625
    endloop
  endfacet
  facet normal 0.984 0.177 0
    outer loop
      vertex 12.15 2.936 0
      vertex 12.32 1.993 2.625
      vertex 12.412 1.478 2.328
    endloop
  endfacet
  facet normal 0.984 -0.177 0
    outer loop
      vertex 12.15 -2.936 0
      vertex 12.32 -1.993 2.625
      vertex 12.195 -2.685 3.45
    endloop
  endfacet
  facet normal 0.984 0.177 0
    outer loop
      vertex 12.15 2.936 0
      vertex 12.195 2.685 3.45
      vertex 12.32 1.993 2.625
    endloop
  endfacet
  facet normal 1 0 0
    outer loop
      vertex 4 -2.86 0
      vertex 4 0 3.4
      vertex 4 -0.547 3.497
    endloop
  endfacet
  facet normal -1 0 0
    outer loop
      vertex 6.64 -2.86 0
      vertex 6.64 -0.547 3.497
      vertex 6.64 0 3.4
    endloop
  endfacet
  facet normal 1 0 0
    outer loop
      vertex 4 2.86 0
      vertex 4 0.547 3.497
      vertex 4 0 3.4
    endloop
  endfacet
  facet normal -1 0 0
    outer loop
      vertex 6.64 2.86 0
      vertex 6.64 0 3.4
      vertex 6.64 0.547 3.497
    endloop
  endfacet
  facet normal 0.984 -0.177 0
    outer loop
      vertex 12.15 -2.936 0
      vertex 12.195 -2.685 3.45
      vertex 12.15 -2.936 4.141
    endloop
  endfacet
  facet normal 0.984 0.177 0
    outer loop
      vertex 12.15 2.936 0
      vertex 12.15 2.936 4.141
      vertex 12.195 2.685 3.45
    endloop
  endfacet
  facet normal 1 0 0
    outer loop
      vertex 4 -2.86 0
      vertex 4 -0.547 3.497
      vertex 4 -1.028 3.774
    endloop
  endfacet
  facet normal -1 0 0
    outer loop
      vertex 6.64 -2.86 0
      vertex 6.64 -1.028 3.774
      vertex 6.64 -0.547 3.497
    endloop
  endfacet
  facet normal 1 0 0
    outer loop
      vertex 4 2.86 0
      vertex 4 1.028 3.774
      vertex 4 0.547 3.497
    endloop
  endfacet
  facet normal -1 0 0
    outer loop
      vertex 6.64 2.86 0
      vertex 6.64 0.547 3.497
      vertex 6.64 1.028 3.774
    endloop
  endfacet
  facet normal 1 0 0
    outer loop
      vertex 4 -2.86 0
      vertex 4 -1.028 3.774
      vertex 4 -1.386 4.2
    endloop
  endfacet
  facet normal -1 0 0
    outer loop
      vertex 6.64 -2.86 0
      vertex 6.64 -1.386 4.2
      vertex 6.64 -1.028 3.774
    endloop
  endfacet
  facet normal 1 0 0
    outer loop
      vertex 4 2.86 0
      vertex 4 1.386 4.2
      vertex 4 1.028 3.774
    endloop
  endfacet
  facet normal -1 0 0
    outer loop
      vertex 6.64 2.86 0
      vertex 6.64 1.028 3.774
      vertex 6.64 1.386 4.2
    endloop
  endfacet
  facet normal 0.956 -0.292 0
    outer loop
      vertex 11.718 -4.353 0
      vertex 12.15 -2.936 4.141
      vertex 12.115 -3.053 4.462
    endloop
  endfacet
  facet normal 0.956 0.292 0
    outer loop
      vertex 11.718 4.353 0
      vertex 12.115 3.053 4.462
      vertex 12.15 2.936 4.141
    endloop
  endfacet
  facet normal 1 0 0
    outer loop
      vertex 4 -2.86 0
      vertex 4 -1.386 4.2
      vertex 4 -1.576 4.722
    endloop
  endfacet
  facet normal -1 0 0
    outer loop
      vertex 6.64 -2.86 0
      vertex 6.64 -1.576 4.722
      vertex 6.64 -1.386 4.2
    endloop
  endfacet
  facet normal 1 0 0
    outer loop
      vertex 4 2.86 0
      vertex 4 1.576 4.722
      vertex 4 1.386 4.2
    endloop
  endfacet
  facet normal -1 0 0
    outer loop
      vertex 6.64 2.86 0
      vertex 6.64 1.386 4.2
      vertex 6.64 1.576 4.722
    endloop
  endfacet
  facet normal 0.956 -0.292 0
    outer loop
      vertex 11.718 -4.353 0
      vertex 12.115 -3.053 4.462
      vertex 12.115 -3.053 5.538
    endloop
  endfacet
  facet normal 0.956 0.292 0
    outer loop
      vertex 11.718 4.353 0
      vertex 12.115 3.053 5.538
      vertex 12.115 3.053 4.462
    endloop
  endfacet
  facet normal 1 0 0
    outer loop
      vertex 4 -2.86 0
      vertex 4 -1.576 4.722
      vertex 4 -2.86 6.651
    endloop
  endfacet
  facet normal -1 0 0
    outer loop
      vertex 6.64 -2.86 0
      vertex 6.64 -2.86 6.651
      vertex 6.64 -1.576 4.722
    endloop
  endfacet
  facet normal 1 0 0
    outer loop
      vertex 4 2.86 0
      vertex 4 2.86 6.651
      vertex 4 1.576 4.722
    endloop
  endfacet
  facet normal -1 0 0
    outer loop
      vertex 6.64 2.86 0
      vertex 6.64 1.576 4.722
      vertex 6.64 2.86 6.651
    endloop
  endfacet
  facet normal 0.956 -0.292 0
    outer loop
      vertex 11.718 -4.353 0
      vertex 12.115 -3.053 5.538
      vertex 11.718 -4.353 20
    endloop
  endfacet
  facet normal 0.956 0.292 0
    outer loop
      vertex 11.718 4.353 0
      vertex 11.718 4.353 20
      vertex 12.115 3.053 5.538
    endloop
  endfacet
  facet normal 0 1 0
    outer loop
      vertex 6.64 -2.86 0
      vertex 4 -2.86 6.651
      vertex 6.64 -2.86 6.651
    endloop
  endfacet
  facet normal 0 -1 0
    outer loop
      vertex 4 2.86 0
      vertex 6.64 2.86 6.651
      vertex 4 2.86 6.651
    endloop
  endfacet
  facet normal 0.089 -0.996 0
    outer loop
      vertex 0.37 -12.495 0
      vertex 1.846 -12.363 20
      vertex 0.37 -12.495 20
    endloop
  endfacet
  facet normal -0.03 -1 0
    outer loop
      vertex -1.11 -12.451 0
      vertex 0.37 -12.495 20
      vertex -1.11 -12.451 20
    endloop
  endfacet
  facet normal -0.148 -0.989 0
    outer loop
      vertex -2.575 -12.232 0
      vertex -1.11 -12.451 20
      vertex -2.575 -12.232 20
    endloop
  endfacet
  facet normal 0.206 -0.979 0
    outer loop
      vertex 1.846 -12.363 0
      vertex 3.295 -12.058 20
      vertex 1.846 -12.363 20
    endloop
  endfacet
  facet normal -0.264 -0.965 0
    outer loop
      vertex -4.003 -11.842 0
      vertex -2.575 -12.232 20
      vertex -4.003 -11.842 20
    endloop
  endfacet
  facet normal 0.32 -0.947 0
    outer loop
      vertex 3.295 -12.058 0
      vertex 4.698 -11.584 20
      vertex 3.295 -12.058 20
    endloop
  endfacet
  facet normal -0.376 -0.927 0
    outer loop
      vertex -5.376 -11.285 0
      vertex -4.003 -11.842 20
      vertex -5.376 -11.285 20
    endloop
  endfacet
  facet normal 0.43 -0.903 0
    outer loop
      vertex 4.698 -11.584 0
      vertex 6.035 -10.947 20
      vertex 4.698 -11.584 20
    endloop
  endfacet
  facet normal -0.483 -0.876 0
    outer loop
      vertex -6.673 -10.57 0
      vertex -5.376 -11.285 20
      vertex -6.673 -10.57 20
    endloop
  endfacet
  facet normal 0.534 -0.846 0
    outer loop
      vertex 6.035 -10.947 0
      vertex 7.287 -10.156 20
      vertex 6.035 -10.947 20
    endloop
  endfacet
  facet normal -0.583 -0.812 0
    outer loop
      vertex -7.876 -9.707 0
      vertex -6.673 -10.57 20
      vertex -7.876 -9.707 20
    endloop
  endfacet
  facet normal 0.63 -0.777 0
    outer loop
      vertex 7.287 -10.156 0
      vertex 8.437 -9.223 20
      vertex 7.287 -10.156 20
    endloop
  endfacet
  facet normal -0.675 -0.738 0
    outer loop
      vertex -8.969 -8.707 0
      vertex -7.876 -9.707 20
      vertex -8.969 -8.707 20
    endloop
  endfacet
  facet normal 0.718 -0.697 0
    outer loop
      vertex 9.469 -8.16 0
      vertex 9.469 -8.16 20
      vertex 8.437 -9.223 20
    endloop
  endfacet
  facet normal -0.758 -0.653 0
    outer loop
      vertex -8.969 -8.707 0
      vertex -8.969 -8.707 20
      vertex -9.936 -7.585 20
    endloop
  endfacet
  facet normal 0.795 -0.607 0
    outer loop
      vertex 10.368 -6.983 0
      vertex 10.368 -6.983 20
      vertex 9.469 -8.16 20
    endloop
  endfacet
  facet normal -0.829 -0.559 0
    outer loop
      vertex -9.936 -7.585 0
      vertex -9.936 -7.585 20
      vertex -10.763 -6.357 20
    endloop
  endfacet
  facet normal 0.861 -0.509 0
    outer loop
      vertex 11.121 -5.708 0
      vertex 11.121 -5.708 20
      vertex 10.368 -6.983 20
    endloop
  endfacet
  facet normal -0.89 -0.457 0
    outer loop
      vertex -10.763 -6.357 0
      vertex -10.763 -6.357 20
      vertex -11.439 -5.039 20
    endloop
  endfacet
  facet normal 0.915 -0.403 0
    outer loop
      vertex 11.718 -4.353 0
      vertex 11.718 -4.353 20
      vertex 11.121 -5.708 20
    endloop
  endfacet
  facet normal -0.937 -0.348 0
    outer loop
      vertex -11.439 -5.039 0
      vertex -11.439 -5.039 20
      vertex -11.955 -3.651 20
    endloop
  endfacet
  facet normal -0.972 -0.235 0
    outer loop
      vertex -11.955 -3.651 0
      vertex -11.955 -3.651 20
      vertex -12.303 -2.211 20
    endloop
  endfacet
  facet normal -0.993 -0.118 0
    outer loop
      vertex -12.303 -2.211 0
      vertex -12.303 -2.211 20
      vertex -12.478 -0.741 20
    endloop
  endfacet
  facet normal -1 0 0
    outer loop
      vertex -12.478 -0.741 0
      vertex -12.478 -0.741 20
      vertex -12.478 0.741 20
    endloop
  endfacet
  facet normal -0.993 0.118 0
    outer loop
      vertex -12.478 0.741 0
      vertex -12.478 0.741 20
      vertex -12.303 2.211 20
    endloop
  endfacet
  facet normal -0.972 0.235 0
    outer loop
      vertex -12.303 2.211 0
      vertex -12.303 2.211 20
      vertex -11.955 3.651 20
    endloop
  endfacet
  facet normal -0.937 0.348 0
    outer loop
      vertex -11.955 3.651 0
      vertex -11.955 3.651 20
      vertex -11.439 5.039 20
    endloop
  endfacet
  facet normal 0.915 0.403 0
    outer loop
      vertex 11.121 5.708 0
      vertex 11.121 5.708 20
      vertex 11.718 4.353 20
    endloop
  endfacet
  facet normal -0.89 0.457 0
    outer loop
      vertex -11.439 5.039 0
      vertex -11.439 5.039 20
      vertex -10.763 6.357 20
    endloop
  endfacet
  facet normal 0.861 0.509 0
    outer loop
      vertex 10.368 6.983 0
      vertex 10.368 6.983 20
      vertex 11.121 5.708 20
    endloop
  endfacet
  facet normal -0.829 0.559 0
    outer loop
      vertex -10.763 6.357 0
      vertex -10.763 6.357 20
      vertex -9.936 7.585 20
    endloop
  endfacet
  facet normal 0.795 0.607 0
    outer loop
      vertex 9.469 8.16 0
      vertex 9.469 8.16 20
      vertex 10.368 6.983 20
    endloop
  endfacet
  facet normal -0.758 0.653 0
    outer loop
      vertex -9.936 7.585 0
      vertex -9.936 7.585 20
      vertex -8.969 8.707 20
    endloop
  endfacet
  facet normal 0.718 0.697 0
    outer loop
      vertex 8.437 9.223 0
      vertex 8.437 9.223 20
      vertex 9.469 8.16 20
    endloop
  endfacet
  facet normal -0.675 0.738 0
    outer loop
      vertex -7.876 9.707 0
      vertex -8.969 8.707 20
      vertex -7.876 9.707 20
    endloop
  endfacet
  facet normal 0.63 0.777 0
    outer loop
      vertex 8.437 9.223 0
      vertex 7.287 10.156 20
      vertex 8.437 9.223 20
    endloop
  endfacet
  facet normal -0.583 0.812 0
    outer loop
      vertex -6.673 10.57 0
      vertex -7.876 9.707 20
      vertex -6.673 10.57 20
    endloop
  endfacet
  facet normal 0.534 0.846 0
    outer loop
      vertex 7.287 10.156 0
      vertex 6.035 10.947 20
      vertex 7.287 10.156 20
    endloop
  endfacet
  facet normal -0.483 0.876 0
    outer loop
      vertex -5.376 11.285 0
      vertex -6.673 10.57 20
      vertex -5.376 11.285 20
    endloop
  endfacet
  facet normal 0.43 0.903 0
    outer loop
      vertex 6.035 10.947 0
      vertex 4.698 11.584 20
      vertex 6.035 10.947 20
    endloop
  endfacet
  facet normal -0.376 0.927 0
    outer loop
      vertex -4.003 11.842 0
      vertex -5.376 11.285 20
      vertex -4.003 11.842 20
    endloop
  endfacet
  facet normal 0.32 0.947 0
    outer loop
      vertex 4.698 11.584 0
      vertex 3.295 12.058 20
      vertex 4.698 11.584 20
    endloop
  endfacet
  facet normal -0.264 0.965 0
    outer loop
      vertex -2.575 12.232 0
      vertex -4.003 11.842 20
      vertex -2.575 12.232 20
    endloop
  endfacet
  facet normal 0.206 0.979 0
    outer loop
      vertex 3.295 12.058 0
      vertex 1.846 12.363 20
      vertex 3.295 12.058 20
    endloop
  endfacet
  facet normal -0.148 0.989 0
    outer loop
      vertex -1.11 12.451 0
      vertex -2.575 12.232 20
      vertex -1.11 12.451 20
    endloop
  endfacet
  facet normal 0.089 0.996 0
    outer loop
      vertex 1.846 12.363 0
      vertex 0.37 12.495 20
      vertex 1.846 12.363 20
    endloop
  endfacet
  facet normal -0.03 1 0
    outer loop
      vertex 0.37 12.495 0
      vertex -1.11 12.451 20
      vertex 0.37 12.495 20
    endloop
  endfacet
  facet normal -1 0 0
    outer loop
      vertex 2 -1.678 1.758
      vertex 2 1.582 1.856
      vertex 2 1.678 1.758
    endloop
  endfacet
  facet normal -1 0 0
    outer loop
      vertex 2 -1.678 1.758
      vertex 2 -1.582 1.856
      vertex 2 1.582 1.856
    endloop
  endfacet
  facet normal -0.777 0.449 -0.442
    outer loop
      vertex 2 -1.678 1.758
      vertex 1.915 -1.607 1.98
      vertex 2 -1.582 1.856
    endloop
  endfacet
  facet normal -0.777 -0.449 -0.442
    outer loop
      vertex 2 1.678 1.758
      vertex 2 1.582 1.856
      vertex 1.915 1.607 1.98
    endloop
  endfacet
  facet normal -1 0 0
    outer loop
      vertex 2 -1.582 1.856
      vertex 2 1.46 1.98
      vertex 2 1.582 1.856
    endloop
  endfacet
  facet normal -0.777 0.449 -0.442
    outer loop
      vertex 2 -1.582 1.856
      vertex 1.915 -1.607 1.98
      vertex 2 -1.46 1.98
    endloop
  endfacet
  facet normal -1 0 0
    outer loop
      vertex 2 -1.582 1.856
      vertex 2 -1.46 1.98
      vertex 2 1.46 1.98
    endloop
  endfacet
  facet normal -0.777 -0.449 -0.442
    outer loop
      vertex 2 1.582 1.856
      vertex 2 1.46 1.98
      vertex 1.915 1.607 1.98
    endloop
  endfacet
  facet normal 0 0.174 0.985
    outer loop
      vertex 10 0 1.9
      vertex 12.437 -1.06 2.087
      vertex 12.5 0 1.9
    endloop
  endfacet
  facet normal 0 -0.174 0.985
    outer loop
      vertex 10 0 1.9
      vertex 12.5 0 1.9
      vertex 12.437 1.06 2.087
    endloop
  endfacet
  facet normal 0 0.174 0.985
    outer loop
      vertex 10 0 1.9
      vertex 10 -1.06 2.087
      vertex 12.437 -1.06 2.087
    endloop
  endfacet
  facet normal 0 -0.174 0.985
    outer loop
      vertex 10 0 1.9
      vertex 12.437 1.06 2.087
      vertex 10 1.06 2.087
    endloop
  endfacet
  facet normal 1 0 0
    outer loop
      vertex 10 0 1.9
      vertex 10 -0.59 3.521
      vertex 10 -1.06 2.087
    endloop
  endfacet
  facet normal 1 0 0
    outer loop
      vertex 10 0 1.9
      vertex 10 1.06 2.087
      vertex 10 0.59 3.521
    endloop
  endfacet
  facet normal 1 0 0
    outer loop
      vertex 10 0 1.9
      vertex 10 0 3.4
      vertex 10 -0.547 3.497
    endloop
  endfacet
  facet normal 1 0 0
    outer loop
      vertex 10 0 1.9
      vertex 10 0.547 3.497
      vertex 10 0 3.4
    endloop
  endfacet
  facet normal 1 0 0
    outer loop
      vertex 10 0 1.9
      vertex 10 -0.547 3.497
      vertex 10 -0.59 3.521
    endloop
  endfacet
  facet normal 1 0 0
    outer loop
      vertex 10 0 1.9
      vertex 10 0.59 3.521
      vertex 10 0.547 3.497
    endloop
  endfacet
  facet normal -1 0 0
    outer loop
      vertex 2 -1.46 1.98
      vertex 2 0 3.4
      vertex 2 1.46 1.98
    endloop
  endfacet
  facet normal -0.866 0.5 0
    outer loop
      vertex 1.915 -1.607 1.98
      vertex 2 -1.46 4.404
      vertex 2 -1.46 1.98
    endloop
  endfacet
  facet normal -0.866 -0.5 0
    outer loop
      vertex 2 1.46 1.98
      vertex 2 1.46 4.404
      vertex 1.915 1.607 1.98
    endloop
  endfacet
  facet normal 0 1 0
    outer loop
      vertex -0.434 -2.462 1.98
      vertex -0.434 -2.462 31.99
      vertex 0.434 -2.462 1.98
    endloop
  endfacet
  facet normal -0.342 0.94 0
    outer loop
      vertex 0.434 -2.462 1.98
      vertex 0.434 -2.462 31.99
      vertex 1.25 -2.165 1.98
    endloop
  endfacet
  facet normal 0.342 0.94 0
    outer loop
      vertex -0.434 -2.462 1.98
      vertex -1.25 -2.165 1.98
      vertex -1.25 -2.165 31.99
    endloop
  endfacet
  facet normal -0.643 0.766 0
    outer loop
      vertex 1.25 -2.165 1.98
      vertex 1.25 -2.165 31.99
      vertex 1.915 -1.607 1.98
    endloop
  endfacet
  facet normal 0.643 0.766 0
    outer loop
      vertex -1.25 -2.165 1.98
      vertex -1.915 -1.607 1.98
      vertex -1.915 -1.607 31.99
    endloop
  endfacet
  facet normal 0.866 0.5 0
    outer loop
      vertex -1.915 -1.607 1.98
      vertex -2.349 -0.855 1.98
      vertex -1.915 -1.607 31.99
    endloop
  endfacet
  facet normal 0.985 0.174 0
    outer loop
      vertex -2.349 -0.855 1.98
      vertex -2.5 0 1.98
      vertex -2.349 -0.855 31.99
    endloop
  endfacet
  facet normal 0.985 -0.174 0
    outer loop
      vertex -2.5 0 1.98
      vertex -2.349 0.855 1.98
      vertex -2.5 0 31.99
    endloop
  endfacet
  facet normal 0.866 -0.5 0
    outer loop
      vertex -2.349 0.855 1.98
      vertex -1.915 1.607 1.98
      vertex -2.349 0.855 31.99
    endloop
  endfacet
  facet normal -0.643 -0.766 0
    outer loop
      vertex 1.915 1.607 1.98
      vertex 1.915 1.607 31.99
      vertex 1.25 2.165 1.98
    endloop
  endfacet
  facet normal 0.643 -0.766 0
    outer loop
      vertex -1.915 1.607 1.98
      vertex -1.25 2.165 1.98
      vertex -1.25 2.165 31.99
    endloop
  endfacet
  facet normal -0.342 -0.94 0
    outer loop
      vertex 1.25 2.165 1.98
      vertex 1.25 2.165 31.99
      vertex 0.434 2.462 1.98
    endloop
  endfacet
  facet normal 0.342 -0.94 0
    outer loop
      vertex -1.25 2.165 1.98
      vertex -0.434 2.462 1.98
      vertex -0.434 2.462 31.99
    endloop
  endfacet
  facet normal 0 -1 0
    outer loop
      vertex -0.434 2.462 1.98
      vertex 0.434 2.462 1.98
      vertex 0.434 2.462 31.99
    endloop
  endfacet
  facet normal -1 0 0
    outer loop
      vertex 2 -1.46 1.98
      vertex 2 -0.547 3.497
      vertex 2 0 3.4
    endloop
  endfacet
  facet normal -1 0 0
    outer loop
      vertex 2 1.46 1.98
      vertex 2 0 3.4
      vertex 2 0.547 3.497
    endloop
  endfacet
  facet normal -1 0 0
    outer loop
      vertex 2 -1.46 1.98
      vertex 2 -1.028 3.774
      vertex 2 -0.547 3.497
    endloop
  endfacet
  facet normal -1 0 0
    outer loop
      vertex 2 1.46 1.98
      vertex 2 0.547 3.497
      vertex 2 1.028 3.774
    endloop
  endfacet
  facet normal -1 0 0
    outer loop
      vertex 2 -1.46 1.98
      vertex 2 -1.386 4.2
      vertex 2 -1.028 3.774
    endloop
  endfacet
  facet normal -1 0 0
    outer loop
      vertex 2 1.46 1.98
      vertex 2 1.028 3.774
      vertex 2 1.386 4.2
    endloop
  endfacet
  facet normal -1 0 0
    outer loop
      vertex 2 -1.46 1.98
      vertex 2 -1.46 4.404
      vertex 2 -1.386 4.2
    endloop
  endfacet
  facet normal -1 0 0
    outer loop
      vertex 2 1.46 1.98
      vertex 2 1.386 4.2
      vertex 2 1.46 4.404
    endloop
  endfacet
  facet normal -0.866 0.5 0
    outer loop
      vertex 1.915 -1.607 1.98
      vertex 1.933 -1.576 4.722
      vertex 2 -1.46 4.404
    endloop
  endfacet
  facet normal -0.866 -0.5 0
    outer loop
      vertex 1.915 1.607 1.98
      vertex 2 1.46 4.404
      vertex 1.933 1.576 4.722
    endloop
  endfacet
  facet normal -0.866 0.5 0
    outer loop
      vertex 1.915 -1.607 1.98
      vertex 1.933 -1.576 5.278
      vertex 1.933 -1.576 4.722
    endloop
  endfacet
  facet normal -0.866 -0.5 0
    outer loop
      vertex 1.915 1.607 1.98
      vertex 1.933 1.576 4.722
      vertex 1.933 1.576 5.278
    endloop
  endfacet
  facet normal -0.866 0.5 0
    outer loop
      vertex 1.915 -1.607 1.98
      vertex 1.915 -1.607 31.99
      vertex 1.933 -1.576 5.278
    endloop
  endfacet
  facet normal -0.866 -0.5 0
    outer loop
      vertex 1.915 1.607 1.98
      vertex 1.933 1.576 5.278
      vertex 1.915 1.607 31.99
    endloop
  endfacet
  facet normal 0 1 0
    outer loop
      vertex 0.434 -2.462 1.98
      vertex -0.434 -2.462 31.99
      vertex 0.434 -2.462 31.99
    endloop
  endfacet
  facet normal 0.342 0.94 0
    outer loop
      vertex -0.434 -2.462 1.98
      vertex -1.25 -2.165 31.99
      vertex -0.434 -2.462 31.99
    endloop
  endfacet
  facet normal -0.342 0.94 0
    outer loop
      vertex 1.25 -2.165 1.98
      vertex 0.434 -2.462 31.99
      vertex 1.25 -2.165 31.99
    endloop
  endfacet
  facet normal 0.643 0.766 0
    outer loop
      vertex -1.25 -2.165 1.98
      vertex -1.915 -1.607 31.99
      vertex -1.25 -2.165 31.99
    endloop
  endfacet
  facet normal -0.643 0.766 0
    outer loop
      vertex 1.915 -1.607 1.98
      vertex 1.25 -2.165 31.99
      vertex 1.915 -1.607 31.99
    endloop
  endfacet
  facet normal 0.866 0.5 0
    outer loop
      vertex -2.349 -0.855 1.98
      vertex -2.349 -0.855 31.99
      vertex -1.915 -1.607 31.99
    endloop
  endfacet
  facet normal 0.985 0.174 0
    outer loop
      vertex -2.5 0 1.98
      vertex -2.5 0 31.99
      vertex -2.349 -0.855 31.99
    endloop
  endfacet
  facet normal 0.985 -0.174 0
    outer loop
      vertex -2.349 0.855 1.98
      vertex -2.349 0.855 31.99
      vertex -2.5 0 31.99
    endloop
  endfacet
  facet normal 0.866 -0.5 0
    outer loop
      vertex -1.915 1.607 1.98
      vertex -1.915 1.607 31.99
      vertex -2.349 0.855 31.99
    endloop
  endfacet
  facet normal 0.643 -0.766 0
    outer loop
      vertex -1.915 1.607 1.98
      vertex -1.25 2.165 31.99
      vertex -1.915 1.607 31.99
    endloop
  endfacet
  facet normal -0.643 -0.766 0
    outer loop
      vertex 1.25 2.165 1.98
      vertex 1.915 1.607 31.99
      vertex 1.25 2.165 31.99
    endloop
  endfacet
  facet normal 0.342 -0.94 0
    outer loop
      vertex -1.25 2.165 1.98
      vertex -0.434 2.462 31.99
      vertex -1.25 2.165 31.99
    endloop
  endfacet
  facet normal -0.342 -0.94 0
    outer loop
      vertex 0.434 2.462 1.98
      vertex 1.25 2.165 31.99
      vertex 0.434 2.462 31.99
    endloop
  endfacet
  facet normal 0 -1 0
    outer loop
      vertex -0.434 2.462 1.98
      vertex 0.434 2.462 31.99
      vertex -0.434 2.462 31.99
    endloop
  endfacet
  facet normal 0 0.5 0.866
    outer loop
      vertex 10 -1.06 2.087
      vertex 12.412 -1.478 2.328
      vertex 12.437 -1.06 2.087
    endloop
  endfacet
  facet normal 0 -0.5 0.866
    outer loop
      vertex 10 1.06 2.087
      vertex 12.437 1.06 2.087
      vertex 12.412 1.478 2.328
    endloop
  endfacet
  facet normal 0 0.5 0.866
    outer loop
      vertex 10 -1.06 2.087
      vertex 12.32 -1.993 2.625
      vertex 12.412 -1.478 2.328
    endloop
  endfacet
  facet normal 0 -0.5 0.866
    outer loop
      vertex 10 1.06 2.087
      vertex 12.412 1.478 2.328
      vertex 12.32 1.993 2.625
    endloop
  endfacet
  facet normal 0 0.5 0.866
    outer loop
      vertex 10 -1.06 2.087
      vertex 10 -1.993 2.625
      vertex 12.32 -1.993 2.625
    endloop
  endfacet
  facet normal 0 -0.5 0.866
    outer loop
      vertex 10 1.06 2.087
      vertex 12.32 1.993 2.625
      vertex 10 1.993 2.625
    endloop
  endfacet
  facet normal 1 0 0
    outer loop
      vertex 10 -1.06 2.087
      vertex 10 -1.477 4.452
      vertex 10 -1.993 2.625
    endloop
  endfacet
  facet normal 1 0 0
    outer loop
      vertex 10 1.06 2.087
      vertex 10 1.993 2.625
      vertex 10 1.477 4.452
    endloop
  endfacet
  facet normal 1 0 0
    outer loop
      vertex 10 -1.06 2.087
      vertex 10 -0.59 3.521
      vertex 10 -1.028 3.774
    endloop
  endfacet
  facet normal 1 0 0
    outer loop
      vertex 10 1.06 2.087
      vertex 10 1.028 3.774
      vertex 10 0.59 3.521
    endloop
  endfacet
  facet normal 1 0 0
    outer loop
      vertex 10 -1.06 2.087
      vertex 10 -1.028 3.774
      vertex 10 -1.386 4.2
    endloop
  endfacet
  facet normal 1 0 0
    outer loop
      vertex 10 1.06 2.087
      vertex 10 1.386 4.2
      vertex 10 1.028 3.774
    endloop
  endfacet
  facet normal 1 0 0
    outer loop
      vertex 10 -1.06 2.087
      vertex 10 -1.386 4.2
      vertex 10 -1.477 4.452
    endloop
  endfacet
  facet normal 1 0 0
    outer loop
      vertex 10 1.06 2.087
      vertex 10 1.477 4.452
      vertex 10 1.386 4.2
    endloop
  endfacet
  facet normal 0 0.766 0.643
    outer loop
      vertex 10 -1.993 2.625
      vertex 12.195 -2.685 3.45
      vertex 12.32 -1.993 2.625
    endloop
  endfacet
  facet normal 0 -0.766 0.643
    outer loop
      vertex 10 1.993 2.625
      vertex 12.32 1.993 2.625
      vertex 12.195 2.685 3.45
    endloop
  endfacet
  facet normal 0 0.766 0.643
    outer loop
      vertex 10 -1.993 2.625
      vertex 10 -2.685 3.45
      vertex 12.195 -2.685 3.45
    endloop
  endfacet
  facet normal 0 -0.766 0.643
    outer loop
      vertex 10 1.993 2.625
      vertex 12.195 2.685 3.45
      vertex 10 2.685 3.45
    endloop
  endfacet
  facet normal 1 0 0
    outer loop
      vertex 10 -1.993 2.625
      vertex 10 -1.993 7.375
      vertex 10 -2.685 3.45
    endloop
  endfacet
  facet normal 1 0 0
    outer loop
      vertex 10 1.993 2.625
      vertex 10 2.685 3.45
      vertex 10 1.993 7.375
    endloop
  endfacet
  facet normal 1 0 0
    outer loop
      vertex 10 -1.993 2.625
      vertex 10 -1.477 4.452
      vertex 10 -1.576 4.722
    endloop
  endfacet
  facet normal 1 0 0
    outer loop
      vertex 10 1.993 2.625
      vertex 10 1.576 4.722
      vertex 10 1.477 4.452
    endloop
  endfacet
  facet normal 1 0 0
    outer loop
      vertex 10 -1.993 2.625
      vertex 10 -1.576 4.722
      vertex 10 -1.576 5.01
    endloop
  endfacet
  facet normal 1 0 0
    outer loop
      vertex 10 1.993 2.625
      vertex 10 1.576 5.01
      vertex 10 1.576 4.722
    endloop
  endfacet
  facet normal 1 0 0
    outer loop
      vertex 10 -1.993 2.625
      vertex 10 -1.576 5.01
      vertex 10 -1.993 7.375
    endloop
  endfacet
  facet normal 1 0 0
    outer loop
      vertex 10 1.993 2.625
      vertex 10 1.993 7.375
      vertex 10 1.576 5.01
    endloop
  endfacet
  facet normal 0 0.174 0.985
    outer loop
      vertex 2 0 3.4
      vertex 4 -0.547 3.497
      vertex 4 0 3.4
    endloop
  endfacet
  facet normal 0 0.174 0.985
    outer loop
      vertex 6.64 0 3.4
      vertex 10 -0.547 3.497
      vertex 10 0 3.4
    endloop
  endfacet
  facet normal 0 -0.174 0.985
    outer loop
      vertex 2 0 3.4
      vertex 4 0 3.4
      vertex 2 0.547 3.497
    endloop
  endfacet
  facet normal 0 -0.174 0.985
    outer loop
      vertex 6.64 0 3.4
      vertex 10 0 3.4
      vertex 6.64 0.547 3.497
    endloop
  endfacet
  facet normal 0 0.174 0.985
    outer loop
      vertex 2 0 3.4
      vertex 2 -0.547 3.497
      vertex 4 -0.547 3.497
    endloop
  endfacet
  facet normal 0 0.174 0.985
    outer loop
      vertex 6.64 0 3.4
      vertex 6.64 -0.547 3.497
      vertex 10 -0.547 3.497
    endloop
  endfacet
  facet normal 0 -0.174 0.985
    outer loop
      vertex 4 0 3.4
      vertex 4 0.547 3.497
      vertex 2 0.547 3.497
    endloop
  endfacet
  facet normal 0 -0.174 0.985
    outer loop
      vertex 10 0 3.4
      vertex 10 0.547 3.497
      vertex 6.64 0.547 3.497
    endloop
  endfacet
  facet normal 0 0.94 0.342
    outer loop
      vertex 10 -2.685 3.45
      vertex 12.15 -2.936 4.141
      vertex 12.195 -2.685 3.45
    endloop
  endfacet
  facet normal 0 -0.94 0.342
    outer loop
      vertex 10 2.685 3.45
      vertex 12.195 2.685 3.45
      vertex 12.15 2.936 4.141
    endloop
  endfacet
  facet normal 0 0.94 0.342
    outer loop
      vertex 10 -2.685 3.45
      vertex 10 -3.053 4.462
      vertex 12.15 -2.936 4.141
    endloop
  endfacet
  facet normal 0 -0.94 0.342
    outer loop
      vertex 10 2.685 3.45
      vertex 12.15 2.936 4.141
      vertex 10 3.053 4.462
    endloop
  endfacet
  facet normal 1 0 0
    outer loop
      vertex 10 -2.685 3.45
      vertex 10 -1.993 7.375
      vertex 10 -3.053 4.462
    endloop
  endfacet
  facet normal 1 0 0
    outer loop
      vertex 10 2.685 3.45
      vertex 10 3.053 4.462
      vertex 10 1.993 7.375
    endloop
  endfacet
  facet normal 0 0.5 0.866
    outer loop
      vertex 6.64 -0.547 3.497
      vertex 10 -0.59 3.521
      vertex 10 -0.547 3.497
    endloop
  endfacet
  facet normal 0 -0.5 0.866
    outer loop
      vertex 6.64 0.547 3.497
      vertex 10 0.547 3.497
      vertex 10 0.59 3.521
    endloop
  endfacet
  facet normal 0 0.5 0.866
    outer loop
      vertex 2 -0.547 3.497
      vertex 4 -1.028 3.774
      vertex 4 -0.547 3.497
    endloop
  endfacet
  facet normal 0 -0.5 0.866
    outer loop
      vertex 2 0.547 3.497
      vertex 4 0.547 3.497
      vertex 2 1.028 3.774
    endloop
  endfacet
  facet normal 0 0.5 0.866
    outer loop
      vertex 6.64 -0.547 3.497
      vertex 6.64 -1.028 3.774
      vertex 10 -0.59 3.521
    endloop
  endfacet
  facet normal 0 -0.5 0.866
    outer loop
      vertex 6.64 0.547 3.497
      vertex 10 0.59 3.521
      vertex 6.64 1.028 3.774
    endloop
  endfacet
  facet normal 0 0.5 0.866
    outer loop
      vertex 2 -0.547 3.497
      vertex 2 -1.028 3.774
      vertex 4 -1.028 3.774
    endloop
  endfacet
  facet normal 0 -0.5 0.866
    outer loop
      vertex 4 0.547 3.497
      vertex 4 1.028 3.774
      vertex 2 1.028 3.774
    endloop
  endfacet
  facet normal 0 0.5 0.866
    outer loop
      vertex 10 -0.59 3.521
      vertex 6.64 -1.028 3.774
      vertex 10 -1.028 3.774
    endloop
  endfacet
  facet normal 0 -0.5 0.866
    outer loop
      vertex 10 0.59 3.521
      vertex 10 1.028 3.774
      vertex 6.64 1.028 3.774
    endloop
  endfacet
  facet normal 0 0.766 0.643
    outer loop
      vertex 2 -1.028 3.774
      vertex 2 -1.386 4.2
      vertex 4 -1.028 3.774
    endloop
  endfacet
  facet normal 0 0.766 0.643
    outer loop
      vertex 6.64 -1.028 3.774
      vertex 6.64 -1.386 4.2
      vertex 10 -1.028 3.774
    endloop
  endfacet
  facet normal 0 -0.766 0.643
    outer loop
      vertex 2 1.028 3.774
      vertex 4 1.028 3.774
      vertex 4 1.386 4.2
    endloop
  endfacet
  facet normal 0 -0.766 0.643
    outer loop
      vertex 6.64 1.028 3.774
      vertex 10 1.028 3.774
      vertex 10 1.386 4.2
    endloop
  endfacet
  facet normal 0 0.766 0.643
    outer loop
      vertex 4 -1.028 3.774
      vertex 2 -1.386 4.2
      vertex 4 -1.386 4.2
    endloop
  endfacet
  facet normal 0 0.766 0.643
    outer loop
      vertex 10 -1.028 3.774
      vertex 6.64 -1.386 4.2
      vertex 10 -1.386 4.2
    endloop
  endfacet
  facet normal 0 -0.766 0.643
    outer loop
      vertex 2 1.028 3.774
      vertex 4 1.386 4.2
      vertex 2 1.386 4.2
    endloop
  endfacet
  facet normal 0 -0.766 0.643
    outer loop
      vertex 6.64 1.028 3.774
      vertex 10 1.386 4.2
      vertex 6.64 1.386 4.2
    endloop
  endfacet
  facet normal 0 0.94 0.342
    outer loop
      vertex 12.15 -2.936 4.141
      vertex 10 -3.053 4.462
      vertex 12.115 -3.053 4.462
    endloop
  endfacet
  facet normal 0 -0.94 0.342
    outer loop
      vertex 12.15 2.936 4.141
      vertex 12.115 3.053 4.462
      vertex 10 3.053 4.462
    endloop
  endfacet
  facet normal 0 0.94 0.342
    outer loop
      vertex 2 -1.386 4.2
      vertex 2 -1.46 4.404
      vertex 4 -1.386 4.2
    endloop
  endfacet
  facet normal 0 -0.94 0.342
    outer loop
      vertex 2 1.386 4.2
      vertex 4 1.386 4.2
      vertex 2 1.46 4.404
    endloop
  endfacet
  facet normal 0 0.94 0.342
    outer loop
      vertex 6.64 -1.386 4.2
      vertex 10 -1.477 4.452
      vertex 10 -1.386 4.2
    endloop
  endfacet
  facet normal 0 -0.94 0.342
    outer loop
      vertex 6.64 1.386 4.2
      vertex 10 1.386 4.2
      vertex 10 1.477 4.452
    endloop
  endfacet
  facet normal 0 0.94 0.342
    outer loop
      vertex 4 -1.386 4.2
      vertex 2 -1.46 4.404
      vertex 4 -1.576 4.722
    endloop
  endfacet
  facet normal 0 -0.94 0.342
    outer loop
      vertex 4 1.386 4.2
      vertex 4 1.576 4.722
      vertex 2 1.46 4.404
    endloop
  endfacet
  facet normal 0 0.94 0.342
    outer loop
      vertex 6.64 -1.386 4.2
      vertex 6.64 -1.576 4.722
      vertex 10 -1.477 4.452
    endloop
  endfacet
  facet normal 0 -0.94 0.342
    outer loop
      vertex 6.64 1.386 4.2
      vertex 10 1.477 4.452
      vertex 6.64 1.576 4.722
    endloop
  endfacet
  facet normal 0 0.94 0.342
    outer loop
      vertex 2 -1.46 4.404
      vertex 1.933 -1.576 4.722
      vertex 4 -1.576 4.722
    endloop
  endfacet
  facet normal 0 -0.94 0.342
    outer loop
      vertex 2 1.46 4.404
      vertex 4 1.576 4.722
      vertex 1.933 1.576 4.722
    endloop
  endfacet
  facet normal 0 0.94 0.342
    outer loop
      vertex 10 -1.477 4.452
      vertex 6.64 -1.576 4.722
      vertex 10 -1.576 4.722
    endloop
  endfacet
  facet normal 0 -0.94 0.342
    outer loop
      vertex 10 1.477 4.452
      vertex 10 1.576 4.722
      vertex 6.64 1.576 4.722
    endloop
  endfacet
  facet normal 0 1 0
    outer loop
      vertex 10 -3.053 4.462
      vertex 10 -3.053 5.538
      vertex 12.115 -3.053 4.462
    endloop
  endfacet
  facet normal 0 -1 0
    outer loop
      vertex 10 3.053 4.462
      vertex 12.115 3.053 4.462
      vertex 12.115 3.053 5.538
    endloop
  endfacet
  facet normal 0 1 0
    outer loop
      vertex 12.115 -3.053 4.462
      vertex 10 -3.053 5.538
      vertex 12.115 -3.053 5.538
    endloop
  endfacet
  facet normal 0 -1 0
    outer loop
      vertex 10 3.053 4.462
      vertex 12.115 3.053 5.538
      vertex 10 3.053 5.538
    endloop
  endfacet
  facet normal 1 0 0
    outer loop
      vertex 10 -3.053 4.462
      vertex 10 -1.993 7.375
      vertex 10 -3.053 5.538
    endloop
  endfacet
  facet normal 1 0 0
    outer loop
      vertex 10 3.053 4.462
      vertex 10 3.053 5.538
      vertex 10 1.993 7.375
    endloop
  endfacet
  facet normal 0 1 0
    outer loop
      vertex 6.64 -1.576 4.722
      vertex 10 -1.576 5.01
      vertex 10 -1.576 4.722
    endloop
  endfacet
  facet normal 0 -1 0
    outer loop
      vertex 6.64 1.576 4.722
      vertex 10 1.576 4.722
      vertex 10 1.576 5.01
    endloop
  endfacet
  facet normal 0 1 0
    outer loop
      vertex 1.933 -1.576 4.722
      vertex 1.933 -1.576 5.278
      vertex 4 -1.576 4.722
    endloop
  endfacet
  facet normal 0 -1 0
    outer loop
      vertex 1.933 1.576 4.722
      vertex 4 1.576 4.722
      vertex 4 1.576 5.278
    endloop
  endfacet
  facet normal 0 1 0
    outer loop
      vertex 6.64 -1.576 4.722
      vertex 6.64 -1.576 5.278
      vertex 10 -1.576 5.01
    endloop
  endfacet
  facet normal 0 -1 0
    outer loop
      vertex 6.64 1.576 4.722
      vertex 10 1.576 5.01
      vertex 6.64 1.576 5.278
    endloop
  endfacet
  facet normal 0 1 0
    outer loop
      vertex 4 -1.576 4.722
      vertex 1.933 -1.576 5.278
      vertex 4 -1.576 5.278
    endloop
  endfacet
  facet normal 0 -1 0
    outer loop
      vertex 1.933 1.576 4.722
      vertex 4 1.576 5.278
      vertex 1.933 1.576 5.278
    endloop
  endfacet
  facet normal 1 0 0
    outer loop
      vertex 4 -1.576 4.722
      vertex 4 -1.576 5.278
      vertex 4 -2.86 6.651
    endloop
  endfacet
  facet normal -1 0 0
    outer loop
      vertex 6.64 -1.576 4.722
      vertex 6.64 -2.86 6.651
      vertex 6.64 -1.576 5.278
    endloop
  endfacet
  facet normal 1 0 0
    outer loop
      vertex 4 1.576 4.722
      vertex 4 2.86 6.651
      vertex 4 1.576 5.278
    endloop
  endfacet
  facet normal -1 0 0
    outer loop
      vertex 6.64 1.576 4.722
      vertex 6.64 1.576 5.278
      vertex 6.64 2.86 6.651
    endloop
  endfacet
  facet normal 0 1 0
    outer loop
      vertex 10 -1.576 5.01
      vertex 6.64 -1.576 5.278
      vertex 10 -1.576 5.278
    endloop
  endfacet
  facet normal 0 -1 0
    outer loop
      vertex 10 1.576 5.01
      vertex 10 1.576 5.278
      vertex 6.64 1.576 5.278
    endloop
  endfacet
  facet normal 1 0 0
    outer loop
      vertex 10 -1.576 5.01
      vertex 10 -1.576 5.278
      vertex 10 -1.993 7.375
    endloop
  endfacet
  facet normal 1 0 0
    outer loop
      vertex 10 1.576 5.01
      vertex 10 1.993 7.375
      vertex 10 1.576 5.278
    endloop
  endfacet
  facet normal 0 0.94 -0.342
    outer loop
      vertex 1.933 -1.576 5.278
      vertex 2 -1.46 5.596
      vertex 4 -1.576 5.278
    endloop
  endfacet
  facet normal 0 -0.94 -0.342
    outer loop
      vertex 1.933 1.576 5.278
      vertex 4 1.576 5.278
      vertex 2 1.46 5.596
    endloop
  endfacet
  facet normal 0 0.94 -0.342
    outer loop
      vertex 6.64 -1.576 5.278
      vertex 10 -1.403 5.753
      vertex 10 -1.576 5.278
    endloop
  endfacet
  facet normal 0 -0.94 -0.342
    outer loop
      vertex 6.64 1.576 5.278
      vertex 10 1.576 5.278
      vertex 10 1.403 5.753
    endloop
  endfacet
  facet normal 0 0.94 -0.342
    outer loop
      vertex 4 -1.576 5.278
      vertex 2 -1.46 5.596
      vertex 4 -1.386 5.8
    endloop
  endfacet
  facet normal 0 -0.94 -0.342
    outer loop
      vertex 4 1.576 5.278
      vertex 4 1.386 5.8
      vertex 2 1.46 5.596
    endloop
  endfacet
  facet normal -0.866 0.5 0
    outer loop
      vertex 1.933 -1.576 5.278
      vertex 1.915 -1.607 31.99
      vertex 2 -1.46 5.596
    endloop
  endfacet
  facet normal -0.866 -0.5 0
    outer loop
      vertex 1.933 1.576 5.278
      vertex 2 1.46 5.596
      vertex 1.915 1.607 31.99
    endloop
  endfacet
  facet normal 0 0.94 -0.342
    outer loop
      vertex 6.64 -1.576 5.278
      vertex 6.64 -1.386 5.8
      vertex 10 -1.403 5.753
    endloop
  endfacet
  facet normal 0 -0.94 -0.342
    outer loop
      vertex 6.64 1.576 5.278
      vertex 10 1.403 5.753
      vertex 6.64 1.386 5.8
    endloop
  endfacet
  facet normal 1 0 0
    outer loop
      vertex 10 -1.576 5.278
      vertex 10 -1.403 5.753
      vertex 10 -1.993 7.375
    endloop
  endfacet
  facet normal 1 0 0
    outer loop
      vertex 10 1.576 5.278
      vertex 10 1.993 7.375
      vertex 10 1.403 5.753
    endloop
  endfacet
  facet normal 1 0 0
    outer loop
      vertex 4 -1.576 5.278
      vertex 4 -1.386 5.8
      vertex 4 -2.86 6.651
    endloop
  endfacet
  facet normal -1 0 0
    outer loop
      vertex 6.64 -1.576 5.278
      vertex 6.64 -2.86 6.651
      vertex 6.64 -1.386 5.8
    endloop
  endfacet
  facet normal 1 0 0
    outer loop
      vertex 4 1.576 5.278
      vertex 4 2.86 6.651
      vertex 4 1.386 5.8
    endloop
  endfacet
  facet normal -1 0 0
    outer loop
      vertex 6.64 1.576 5.278
      vertex 6.64 1.386 5.8
      vertex 6.64 2.86 6.651
    endloop
  endfacet
  facet normal 0 0.94 -0.342
    outer loop
      vertex 10 -3.053 5.538
      vertex 12.15 -2.936 5.859
      vertex 12.115 -3.053 5.538
    endloop
  endfacet
  facet normal 0 -0.94 -0.342
    outer loop
      vertex 10 3.053 5.538
      vertex 12.115 3.053 5.538
      vertex 12.15 2.936 5.859
    endloop
  endfacet
  facet normal 0 0.94 -0.342
    outer loop
      vertex 10 -3.053 5.538
      vertex 10 -2.685 6.55
      vertex 12.15 -2.936 5.859
    endloop
  endfacet
  facet normal 0 -0.94 -0.342
    outer loop
      vertex 10 3.053 5.538
      vertex 12.15 2.936 5.859
      vertex 10 2.685 6.55
    endloop
  endfacet
  facet normal 0.956 -0.292 0
    outer loop
      vertex 12.115 -3.053 5.538
      vertex 12.15 -2.936 5.859
      vertex 11.718 -4.353 20
    endloop
  endfacet
  facet normal 0.956 0.292 0
    outer loop
      vertex 12.115 3.053 5.538
      vertex 11.718 4.353 20
      vertex 12.15 2.936 5.859
    endloop
  endfacet
  facet normal 1 0 0
    outer loop
      vertex 10 -3.053 5.538
      vertex 10 -1.993 7.375
      vertex 10 -2.685 6.55
    endloop
  endfacet
  facet normal 1 0 0
    outer loop
      vertex 10 3.053 5.538
      vertex 10 2.685 6.55
      vertex 10 1.993 7.375
    endloop
  endfacet
  facet normal 0 0.94 -0.342
    outer loop
      vertex 2 -1.46 5.596
      vertex 2 -1.386 5.8
      vertex 4 -1.386 5.8
    endloop
  endfacet
  facet normal 0 -0.94 -0.342
    outer loop
      vertex 2 1.46 5.596
      vertex 4 1.386 5.8
      vertex 2 1.386 5.8
    endloop
  endfacet
  facet normal -1 0 0
    outer loop
      vertex 2 -1.46 5.596
      vertex 2 -1.46 31.99
      vertex 2 -1.386 5.8
    endloop
  endfacet
  facet normal -1 0 0
    outer loop
      vertex 2 1.46 5.596
      vertex 2 1.386 5.8
      vertex 2 1.46 31.99
    endloop
  endfacet
  facet normal -0.866 0.5 0
    outer loop
      vertex 2 -1.46 5.596
      vertex 1.915 -1.607 31.99
      vertex 2 -1.46 31.99
    endloop
  endfacet
  facet normal -0.866 -0.5 0
    outer loop
      vertex 2 1.46 5.596
      vertex 2 1.46 31.99
      vertex 1.915 1.607 31.99
    endloop
  endfacet
  facet normal 0 0.94 -0.342
    outer loop
      vertex 10 -1.403 5.753
      vertex 6.64 -1.386 5.8
      vertex 10 -1.386 5.8
    endloop
  endfacet
  facet normal 0 -0.94 -0.342
    outer loop
      vertex 10 1.403 5.753
      vertex 10 1.386 5.8
      vertex 6.64 1.386 5.8
    endloop
  endfacet
  facet normal 1 0 0
    outer loop
      vertex 10 -1.403 5.753
      vertex 10 -1.386 5.8
      vertex 10 -1.993 7.375
    endloop
  endfacet
  facet normal 1 0 0
    outer loop
      vertex 10 1.403 5.753
      vertex 10 1.993 7.375
      vertex 10 1.386 5.8
    endloop
  endfacet
  facet normal 0 0.766 -0.643
    outer loop
      vertex 2 -1.386 5.8
      vertex 2 -1.028 6.226
      vertex 4 -1.386 5.8
    endloop
  endfacet
  facet normal 0 0.766 -0.643
    outer loop
      vertex 6.64 -1.386 5.8
      vertex 6.64 -1.028 6.226
      vertex 10 -1.386 5.8
    endloop
  endfacet
  facet normal 0 -0.766 -0.643
    outer loop
      vertex 2 1.386 5.8
      vertex 4 1.386 5.8
      vertex 4 1.028 6.226
    endloop
  endfacet
  facet normal 0 -0.766 -0.643
    outer loop
      vertex 6.64 1.386 5.8
      vertex 10 1.386 5.8
      vertex 10 1.028 6.226
    endloop
  endfacet
  facet normal 0 0.766 -0.643
    outer loop
      vertex 4 -1.386 5.8
      vertex 2 -1.028 6.226
      vertex 4 -1.028 6.226
    endloop
  endfacet
  facet normal 0 0.766 -0.643
    outer loop
      vertex 10 -1.386 5.8
      vertex 6.64 -1.028 6.226
      vertex 10 -1.028 6.226
    endloop
  endfacet
  facet normal 0 -0.766 -0.643
    outer loop
      vertex 2 1.386 5.8
      vertex 4 1.028 6.226
      vertex 2 1.028 6.226
    endloop
  endfacet
  facet normal 0 -0.766 -0.643
    outer loop
      vertex 6.64 1.386 5.8
      vertex 10 1.028 6.226
      vertex 6.64 1.028 6.226
    endloop
  endfacet
  facet normal 1 0 0
    outer loop
      vertex 4 -1.386 5.8
      vertex 4 -1.028 6.226
      vertex 4 -2.86 6.651
    endloop
  endfacet
  facet normal -1 0 0
    outer loop
      vertex 6.64 -1.386 5.8
      vertex 6.64 -2.86 6.651
      vertex 6.64 -1.028 6.226
    endloop
  endfacet
  facet normal 1 0 0
    outer loop
      vertex 4 1.386 5.8
      vertex 4 2.86 6.651
      vertex 4 1.028 6.226
    endloop
  endfacet
  facet normal -1 0 0
    outer loop
      vertex 6.64 1.386 5.8
      vertex 6.64 1.028 6.226
      vertex 6.64 2.86 6.651
    endloop
  endfacet
  facet normal 1 0 0
    outer loop
      vertex 10 -1.386 5.8
      vertex 10 -1.028 6.226
      vertex 10 -1.993 7.375
    endloop
  endfacet
  facet normal 1 0 0
    outer loop
      vertex 10 1.386 5.8
      vertex 10 1.993 7.375
      vertex 10 1.028 6.226
    endloop
  endfacet
  facet normal -1 0 0
    outer loop
      vertex 2 -1.386 5.8
      vertex 2 -1.46 31.99
      vertex 2 -1.028 6.226
    endloop
  endfacet
  facet normal -1 0 0
    outer loop
      vertex 2 1.386 5.8
      vertex 2 1.028 6.226
      vertex 2 1.46 31.99
    endloop
  endfacet
  facet normal 0 0.94 -0.342
    outer loop
      vertex 12.15 -2.936 5.859
      vertex 10 -2.685 6.55
      vertex 12.195 -2.685 6.55
    endloop
  endfacet
  facet normal 0 -0.94 -0.342
    outer loop
      vertex 12.15 2.936 5.859
      vertex 12.195 2.685 6.55
      vertex 10 2.685 6.55
    endloop
  endfacet
  facet normal 0.984 -0.177 0
    outer loop
      vertex 12.15 -2.936 5.859
      vertex 12.195 -2.685 6.55
      vertex 12.15 -2.936 20
    endloop
  endfacet
  facet normal 0.984 0.177 0
    outer loop
      vertex 12.15 2.936 5.859
      vertex 12.15 2.936 20
      vertex 12.195 2.685 6.55
    endloop
  endfacet
  facet normal 0.956 -0.292 0
    outer loop
      vertex 12.15 -2.936 5.859
      vertex 12.15 -2.936 20
      vertex 11.718 -4.353 20
    endloop
  endfacet
  facet normal 0.956 0.292 0
    outer loop
      vertex 12.15 2.936 5.859
      vertex 11.718 4.353 20
      vertex 12.15 2.936 20
    endloop
  endfacet
  facet normal 0 0.5 -0.866
    outer loop
      vertex 2 -1.028 6.226
      vertex 4 -0.547 6.503
      vertex 4 -1.028 6.226
    endloop
  endfacet
  facet normal 0 0.5 -0.866
    outer loop
      vertex 6.64 -1.028 6.226
      vertex 10 -0.547 6.503
      vertex 10 -1.028 6.226
    endloop
  endfacet
  facet normal 0 -0.5 -0.866
    outer loop
      vertex 2 1.028 6.226
      vertex 4 1.028 6.226
      vertex 2 0.547 6.503
    endloop
  endfacet
  facet normal 0 -0.5 -0.866
    outer loop
      vertex 6.64 1.028 6.226
      vertex 10 1.028 6.226
      vertex 6.64 0.547 6.503
    endloop
  endfacet
  facet normal 0 0.5 -0.866
    outer loop
      vertex 2 -1.028 6.226
      vertex 2 -0.547 6.503
      vertex 4 -0.547 6.503
    endloop
  endfacet
  facet normal 0 0.5 -0.866
    outer loop
      vertex 6.64 -1.028 6.226
      vertex 6.64 -0.547 6.503
      vertex 10 -0.547 6.503
    endloop
  endfacet
  facet normal 0 -0.5 -0.866
    outer loop
      vertex 4 1.028 6.226
      vertex 4 0.547 6.503
      vertex 2 0.547 6.503
    endloop
  endfacet
  facet normal 0 -0.5 -0.866
    outer loop
      vertex 10 1.028 6.226
      vertex 10 0.547 6.503
      vertex 6.64 0.547 6.503
    endloop
  endfacet
  facet normal 1 0 0
    outer loop
      vertex 4 1.028 6.226
      vertex 4 2.86 6.651
      vertex 4 0.547 6.503
    endloop
  endfacet
  facet normal -1 0 0
    outer loop
      vertex 6.64 1.028 6.226
      vertex 6.64 0.547 6.503
      vertex 6.64 2.86 6.651
    endloop
  endfacet
  facet normal 1 0 0
    outer loop
      vertex 10 -1.028 6.226
      vertex 10 -0.547 6.503
      vertex 10 -1.993 7.375
    endloop
  endfacet
  facet normal 1 0 0
    outer loop
      vertex 10 1.028 6.226
      vertex 10 1.993 7.375
      vertex 10 0.547 6.503
    endloop
  endfacet
  facet normal 1 0 0
    outer loop
      vertex 4 -1.028 6.226
      vertex 4 -0.547 6.503
      vertex 4 0 8.302
    endloop
  endfacet
  facet normal -1 0 0
    outer loop
      vertex 6.64 -1.028 6.226
      vertex 6.64 0 8.302
      vertex 6.64 -0.547 6.503
    endloop
  endfacet
  facet normal -1 0 0
    outer loop
      vertex 2 -1.028 6.226
      vertex 2 -1.46 31.99
      vertex 2 -0.547 6.503
    endloop
  endfacet
  facet normal -1 0 0
    outer loop
      vertex 2 1.028 6.226
      vertex 2 0.547 6.503
      vertex 2 1.46 31.99
    endloop
  endfacet
  facet normal 1 0 0
    outer loop
      vertex 4 -1.028 6.226
      vertex 4 0 8.302
      vertex 4 -2.86 6.651
    endloop
  endfacet
  facet normal -1 0 0
    outer loop
      vertex 6.64 -1.028 6.226
      vertex 6.64 -2.86 6.651
      vertex 6.64 0 8.302
    endloop
  endfacet
  facet normal 0 0.174 -0.985
    outer loop
      vertex 2 -0.547 6.503
      vertex 4 0 6.6
      vertex 4 -0.547 6.503
    endloop
  endfacet
  facet normal 0 0.174 -0.985
    outer loop
      vertex 6.64 -0.547 6.503
      vertex 10 0 6.6
      vertex 10 -0.547 6.503
    endloop
  endfacet
  facet normal 0 -0.174 -0.985
    outer loop
      vertex 2 0.547 6.503
      vertex 4 0.547 6.503
      vertex 2 0 6.6
    endloop
  endfacet
  facet normal 0 -0.174 -0.985
    outer loop
      vertex 6.64 0.547 6.503
      vertex 10 0.547 6.503
      vertex 6.64 0 6.6
    endloop
  endfacet
  facet normal 0 0.174 -0.985
    outer loop
      vertex 2 -0.547 6.503
      vertex 2 0 6.6
      vertex 4 0 6.6
    endloop
  endfacet
  facet normal 0 0.174 -0.985
    outer loop
      vertex 6.64 -0.547 6.503
      vertex 6.64 0 6.6
      vertex 10 0 6.6
    endloop
  endfacet
  facet normal 0 -0.174 -0.985
    outer loop
      vertex 4 0.547 6.503
      vertex 4 0 6.6
      vertex 2 0 6.6
    endloop
  endfacet
  facet normal 0 -0.174 -0.985
    outer loop
      vertex 10 0.547 6.503
      vertex 10 0 6.6
      vertex 6.64 0 6.6
    endloop
  endfacet
  facet normal 1 0 0
    outer loop
      vertex 10 -0.547 6.503
      vertex 10 0 6.6
      vertex 10 -1.993 7.375
    endloop
  endfacet
  facet normal 1 0 0
    outer loop
      vertex 10 0.547 6.503
      vertex 10 1.993 7.375
      vertex 10 0 6.6
    endloop
  endfacet
  facet normal 1 0 0
    outer loop
      vertex 4 -0.547 6.503
      vertex 4 0 6.6
      vertex 4 0 8.302
    endloop
  endfacet
  facet normal -1 0 0
    outer loop
      vertex 6.64 -0.547 6.503
      vertex 6.64 0 8.302
      vertex 6.64 0 6.6
    endloop
  endfacet
  facet normal 1 0 0
    outer loop
      vertex 4 0.547 6.503
      vertex 4 0 8.302
      vertex 4 0 6.6
    endloop
  endfacet
  facet normal -1 0 0
    outer loop
      vertex 6.64 0.547 6.503
      vertex 6.64 0 6.6
      vertex 6.64 0 8.302
    endloop
  endfacet
  facet normal -1 0 0
    outer loop
      vertex 2 -0.547 6.503
      vertex 2 -1.46 31.99
      vertex 2 0 6.6
    endloop
  endfacet
  facet normal -1 0 0
    outer loop
      vertex 2 0.547 6.503
      vertex 2 0 6.6
      vertex 2 1.46 31.99
    endloop
  endfacet
  facet normal 1 0 0
    outer loop
      vertex 4 0.547 6.503
      vertex 4 2.86 6.651
      vertex 4 0 8.302
    endloop
  endfacet
  facet normal -1 0 0
    outer loop
      vertex 6.64 0.547 6.503
      vertex 6.64 0 8.302
      vertex 6.64 2.86 6.651
    endloop
  endfacet
  facet normal 0 0.766 -0.643
    outer loop
      vertex 10 -2.685 6.55
      vertex 10 -1.993 7.375
      vertex 12.195 -2.685 6.55
    endloop
  endfacet
  facet normal 0 -0.766 -0.643
    outer loop
      vertex 10 2.685 6.55
      vertex 12.195 2.685 6.55
      vertex 10 1.993 7.375
    endloop
  endfacet
  facet normal 0 0.766 -0.643
    outer loop
      vertex 12.195 -2.685 6.55
      vertex 10 -1.993 7.375
      vertex 12.32 -1.993 7.375
    endloop
  endfacet
  facet normal 0 -0.766 -0.643
    outer loop
      vertex 12.195 2.685 6.55
      vertex 12.32 1.993 7.375
      vertex 10 1.993 7.375
    endloop
  endfacet
  facet normal 0.984 -0.177 0
    outer loop
      vertex 12.195 -2.685 6.55
      vertex 12.32 -1.993 7.375
      vertex 12.15 -2.936 20
    endloop
  endfacet
  facet normal 0.984 0.177 0
    outer loop
      vertex 12.195 2.685 6.55
      vertex 12.15 2.936 20
      vertex 12.32 1.993 7.375
    endloop
  endfacet
  facet normal 1 0 0
    outer loop
      vertex 10 0 6.6
      vertex 10 1.993 7.375
      vertex 10 -1.993 7.375
    endloop
  endfacet
  facet normal -1 0 0
    outer loop
      vertex 2 0 6.6
      vertex 2 -1.46 31.99
      vertex 2 1.46 31.99
    endloop
  endfacet
  facet normal 0 0.5 -0.866
    outer loop
      vertex 4 -2.86 6.651
      vertex 6.64 0 8.302
      vertex 6.64 -2.86 6.651
    endloop
  endfacet
  facet normal 0 -0.5 -0.866
    outer loop
      vertex 4 2.86 6.651
      vertex 6.64 2.86 6.651
      vertex 4 0 8.302
    endloop
  endfacet
  facet normal 0 0.5 -0.866
    outer loop
      vertex 4 -2.86 6.651
      vertex 4 0 8.302
      vertex 6.64 0 8.302
    endloop
  endfacet
  facet normal 0 -0.5 -0.866
    outer loop
      vertex 6.64 2.86 6.651
      vertex 6.64 0 8.302
      vertex 4 0 8.302
    endloop
  endfacet
  facet normal 0 0.5 -0.866
    outer loop
      vertex 10 -1.993 7.375
      vertex 10 -1.06 7.913
      vertex 12.32 -1.993 7.375
    endloop
  endfacet
  facet normal 1 0 0
    outer loop
      vertex 10 -1.993 7.375
      vertex 10 1.993 7.375
      vertex 10 -1.06 7.913
    endloop
  endfacet
  facet normal 0 -0.5 -0.866
    outer loop
      vertex 10 1.993 7.375
      vertex 12.32 1.993 7.375
      vertex 10 1.06 7.913
    endloop
  endfacet
  facet normal 0 0.5 -0.866
    outer loop
      vertex 12.32 -1.993 7.375
      vertex 10 -1.06 7.913
      vertex 12.412 -1.478 7.672
    endloop
  endfacet
  facet normal 0 -0.5 -0.866
    outer loop
      vertex 12.32 1.993 7.375
      vertex 12.412 1.478 7.672
      vertex 10 1.06 7.913
    endloop
  endfacet
  facet normal 0.984 -0.177 0
    outer loop
      vertex 12.32 -1.993 7.375
      vertex 12.412 -1.478 7.672
      vertex 12.15 -2.936 20
    endloop
  endfacet
  facet normal 0.984 0.177 0
    outer loop
      vertex 12.32 1.993 7.375
      vertex 12.15 2.936 20
      vertex 12.412 1.478 7.672
    endloop
  endfacet
  facet normal 1 0 0
    outer loop
      vertex 10 1.993 7.375
      vertex 10 0 8.1
      vertex 10 -1.06 7.913
    endloop
  endfacet
  facet normal 1 0 0
    outer loop
      vertex 10 1.993 7.375
      vertex 10 1.06 7.913
      vertex 10 0 8.1
    endloop
  endfacet
  facet normal 0 0.5 -0.866
    outer loop
      vertex 12.412 -1.478 7.672
      vertex 10 -1.06 7.913
      vertex 12.437 -1.06 7.913
    endloop
  endfacet
  facet normal 0 -0.5 -0.866
    outer loop
      vertex 12.412 1.478 7.672
      vertex 12.437 1.06 7.913
      vertex 10 1.06 7.913
    endloop
  endfacet
  facet normal 0.998 -0.059 0
    outer loop
      vertex 12.412 -1.478 7.672
      vertex 12.437 -1.06 7.913
      vertex 12.412 -1.478 20
    endloop
  endfacet
  facet normal 0.998 0.059 0
    outer loop
      vertex 12.412 1.478 7.672
      vertex 12.412 1.478 20
      vertex 12.437 1.06 7.913
    endloop
  endfacet
  facet normal 0.984 -0.177 0
    outer loop
      vertex 12.412 -1.478 7.672
      vertex 12.412 -1.478 20
      vertex 12.15 -2.936 20
    endloop
  endfacet
  facet normal 0.984 0.177 0
    outer loop
      vertex 12.412 1.478 7.672
      vertex 12.15 2.936 20
      vertex 12.412 1.478 20
    endloop
  endfacet
  facet normal 0 0.174 -0.985
    outer loop
      vertex 10 -1.06 7.913
      vertex 10 0 8.1
      vertex 12.437 -1.06 7.913
    endloop
  endfacet
  facet normal 0 -0.174 -0.985
    outer loop
      vertex 10 1.06 7.913
      vertex 12.437 1.06 7.913
      vertex 10 0 8.1
    endloop
  endfacet
  facet normal 0 0.174 -0.985
    outer loop
      vertex 12.437 -1.06 7.913
      vertex 10 0 8.1
      vertex 12.5 0 8.1
    endloop
  endfacet
  facet normal 0 -0.174 -0.985
    outer loop
      vertex 12.437 1.06 7.913
      vertex 12.5 0 8.1
      vertex 10 0 8.1
    endloop
  endfacet
  facet normal 0.998 -0.059 0
    outer loop
      vertex 12.437 -1.06 7.913
      vertex 12.5 0 8.1
      vertex 12.412 -1.478 20
    endloop
  endfacet
  facet normal 0.998 0.059 0
    outer loop
      vertex 12.437 1.06 7.913
      vertex 12.412 1.478 20
      vertex 12.5 0 8.1
    endloop
  endfacet
  facet normal 0.998 -0.059 0
    outer loop
      vertex 12.5 0 8.1
      vertex 12.5 0 20
      vertex 12.412 -1.478 20
    endloop
  endfacet
  facet normal 0.998 0.059 0
    outer loop
      vertex 12.5 0 8.1
      vertex 12.412 1.478 20
      vertex 12.5 0 20
    endloop
  endfacet
  facet normal 0 0 1
    outer loop
      vertex 0.37 -12.495 20
      vertex 0 -7 20
      vertex -1.11 -12.451 20
    endloop
  endfacet
  facet normal 0 0 1
    outer loop
      vertex 0.37 -12.495 20
      vertex 1.846 -12.363 20
      vertex 0 -7 20
    endloop
  endfacet
  facet normal 0 0 1
    outer loop
      vertex -1.11 -12.451 20
      vertex 0 -7 20
      vertex -2.575 -12.232 20
    endloop
  endfacet
  facet normal 0 0 1
    outer loop
      vertex 1.846 -12.363 20
      vertex 3.295 -12.058 20
      vertex 0 -7 20
    endloop
  endfacet
  facet normal 0 0 1
    outer loop
      vertex -2.575 -12.232 20
      vertex 0 -7 20
      vertex -4.003 -11.842 20
    endloop
  endfacet
  facet normal 0 0 1
    outer loop
      vertex 3.295 -12.058 20
      vertex 4.698 -11.584 20
      vertex 0 -7 20
    endloop
  endfacet
  facet normal 0 0 1
    outer loop
      vertex -4.003 -11.842 20
      vertex 0 -7 20
      vertex -5.376 -11.285 20
    endloop
  endfacet
  facet normal 0 0 1
    outer loop
      vertex 4.698 -11.584 20
      vertex 6.035 -10.947 20
      vertex 0 -7 20
    endloop
  endfacet
  facet normal 0 0 1
    outer loop
      vertex -5.376 -11.285 20
      vertex 0 -7 20
      vertex -6.673 -10.57 20
    endloop
  endfacet
  facet normal 0 0 1
    outer loop
      vertex 6.035 -10.947 20
      vertex 7.287 -10.156 20
      vertex 4.455 -2.545 20
    endloop
  endfacet
  facet normal 0 0 1
    outer loop
      vertex 6.035 -10.947 20
      vertex 4.455 -2.545 20
      vertex 0 -7 20
    endloop
  endfacet
  facet normal 0 0 1
    outer loop
      vertex -6.673 -10.57 20
      vertex 0 -7 20
      vertex -7.876 -9.707 20
    endloop
  endfacet
  facet normal 0 0 1
    outer loop
      vertex 7.287 -10.156 20
      vertex 8.437 -9.223 20
      vertex 4.455 -2.545 20
    endloop
  endfacet
  facet normal 0 0 1
    outer loop
      vertex -7.876 -9.707 20
      vertex 0 -7 20
      vertex -8.969 -8.707 20
    endloop
  endfacet
  facet normal 0 0 1
    outer loop
      vertex 8.437 -9.223 20
      vertex 9.469 -8.16 20
      vertex 4.455 -2.545 20
    endloop
  endfacet
  facet normal 0 0 1
    outer loop
      vertex -8.969 -8.707 20
      vertex -7 0 20
      vertex -9.936 -7.585 20
    endloop
  endfacet
  facet normal 0 0 1
    outer loop
      vertex -8.969 -8.707 20
      vertex 0 -7 20
      vertex -7 0 20
    endloop
  endfacet
  facet normal 0 0 1
    outer loop
      vertex 9.469 -8.16 20
      vertex 10.368 -6.983 20
      vertex 4.455 -2.545 20
    endloop
  endfacet
  facet normal 0 0 1
    outer loop
      vertex -9.936 -7.585 20
      vertex -7 0 20
      vertex -10.763 -6.357 20
    endloop
  endfacet
  facet normal 0 0 1
    outer loop
      vertex 10.368 -6.983 20
      vertex 11.121 -5.708 20
      vertex 4.455 -2.545 20
    endloop
  endfacet
  facet normal 0 0 1
    outer loop
      vertex -10.763 -6.357 20
      vertex -7 0 20
      vertex -11.439 -5.039 20
    endloop
  endfacet
  facet normal 0 0 1
    outer loop
      vertex 11.121 -5.708 20
      vertex 11.718 -4.353 20
      vertex 4.455 -2.545 20
    endloop
  endfacet
  facet normal 0 0 1
    outer loop
      vertex -11.439 -5.039 20
      vertex -7 0 20
      vertex -11.955 -3.651 20
    endloop
  endfacet
  facet normal 0 0 1
    outer loop
      vertex 11.718 -4.353 20
      vertex 12.15 -2.936 20
      vertex 4.455 -2.545 20
    endloop
  endfacet
  facet normal 0 0 1
    outer loop
      vertex -11.955 -3.651 20
      vertex -7 0 20
      vertex -12.303 -2.211 20
    endloop
  endfacet
  facet normal 0 0 1
    outer loop
      vertex 12.15 -2.936 20
      vertex 12.412 -1.478 20
      vertex 4.455 -2.545 20
    endloop
  endfacet
  facet normal 0 0 1
    outer loop
      vertex 4.455 -2.545 20
      vertex 12.412 -1.478 20
      vertex 12.5 0 20
    endloop
  endfacet
  facet normal 0 0 1
    outer loop
      vertex 4.455 -2.545 20
      vertex 12.5 0 20
      vertex 4.455 2.545 20
    endloop
  endfacet
  facet normal 0 0 1
    outer loop
      vertex -12.303 -2.211 20
      vertex -7 0 20
      vertex -12.478 -0.741 20
    endloop
  endfacet
  facet normal 0 0 1
    outer loop
      vertex -12.478 -0.741 20
      vertex -7 0 20
      vertex -12.478 0.741 20
    endloop
  endfacet
  facet normal 0 0 1
    outer loop
      vertex -7 0 20
      vertex -12.303 2.211 20
      vertex -12.478 0.741 20
    endloop
  endfacet
  facet normal 0 0 1
    outer loop
      vertex 12.5 0 20
      vertex 12.412 1.478 20
      vertex 4.455 2.545 20
    endloop
  endfacet
  facet normal 0 0 1
    outer loop
      vertex -7 0 20
      vertex -11.955 3.651 20
      vertex -12.303 2.211 20
    endloop
  endfacet
  facet normal 0 0 1
    outer loop
      vertex -7 0 20
      vertex -11.439 5.039 20
      vertex -11.955 3.651 20
    endloop
  endfacet
  facet normal 0 0 1
    outer loop
      vertex -7 0 20
      vertex -10.763 6.357 20
      vertex -11.439 5.039 20
    endloop
  endfacet
  facet normal 0 0 1
    outer loop
      vertex -7 0 20
      vertex -9.936 7.585 20
      vertex -10.763 6.357 20
    endloop
  endfacet
  facet normal 0 0 1
    outer loop
      vertex -7 0 20
      vertex 0 7 20
      vertex -8.969 8.707 20
    endloop
  endfacet
  facet normal 0 0 1
    outer loop
      vertex -7 0 20
      vertex -8.969 8.707 20
      vertex -9.936 7.585 20
    endloop
  endfacet
  facet normal 0 0 1
    outer loop
      vertex 12.412 1.478 20
      vertex 12.15 2.936 20
      vertex 4.455 2.545 20
    endloop
  endfacet
  facet normal 0 0 1
    outer loop
      vertex 4.455 2.545 20
      vertex 12.15 2.936 20
      vertex 11.718 4.353 20
    endloop
  endfacet
  facet normal 0 0 1
    outer loop
      vertex 4.455 2.545 20
      vertex 11.718 4.353 20
      vertex 11.121 5.708 20
    endloop
  endfacet
  facet normal 0 0 1
    outer loop
      vertex 4.455 2.545 20
      vertex 11.121 5.708 20
      vertex 10.368 6.983 20
    endloop
  endfacet
  facet normal 0 0 1
    outer loop
      vertex 4.455 2.545 20
      vertex 10.368 6.983 20
      vertex 9.469 8.16 20
    endloop
  endfacet
  facet normal 0 0 1
    outer loop
      vertex 4.455 2.545 20
      vertex 6.035 10.947 20
      vertex 0 7 20
    endloop
  endfacet
  facet normal 0 0 1
    outer loop
      vertex 4.455 2.545 20
      vertex 9.469 8.16 20
      vertex 8.437 9.223 20
    endloop
  endfacet
  facet normal 0 0 1
    outer loop
      vertex 4.455 2.545 20
      vertex 8.437 9.223 20
      vertex 7.287 10.156 20
    endloop
  endfacet
  facet normal 0 0 1
    outer loop
      vertex 4.455 2.545 20
      vertex 7.287 10.156 20
      vertex 6.035 10.947 20
    endloop
  endfacet
  facet normal 0 0 1
    outer loop
      vertex 0 7 20
      vertex -7.876 9.707 20
      vertex -8.969 8.707 20
    endloop
  endfacet
  facet normal 0 0 1
    outer loop
      vertex 0 7 20
      vertex -6.673 10.57 20
      vertex -7.876 9.707 20
    endloop
  endfacet
  facet normal 0 0 1
    outer loop
      vertex 0 7 20
      vertex -5.376 11.285 20
      vertex -6.673 10.57 20
    endloop
  endfacet
  facet normal 0 0 1
    outer loop
      vertex 0 7 20
      vertex 6.035 10.947 20
      vertex 4.698 11.584 20
    endloop
  endfacet
  facet normal 0 0 1
    outer loop
      vertex 0 7 20
      vertex -4.003 11.842 20
      vertex -5.376 11.285 20
    endloop
  endfacet
  facet normal 0 0 1
    outer loop
      vertex 0 7 20
      vertex 4.698 11.584 20
      vertex 3.295 12.058 20
    endloop
  endfacet
  facet normal 0 0 1
    outer loop
      vertex 0 7 20
      vertex -2.575 12.232 20
      vertex -4.003 11.842 20
    endloop
  endfacet
  facet normal 0 0 1
    outer loop
      vertex 0 7 20
      vertex 3.295 12.058 20
      vertex 1.846 12.363 20
    endloop
  endfacet
  facet normal 0 0 1
    outer loop
      vertex 0 7 20
      vertex -1.11 12.451 20
      vertex -2.575 12.232 20
    endloop
  endfacet
  facet normal 0 0 1
    outer loop
      vertex 0 7 20
      vertex 1.846 12.363 20
      vertex 0.37 12.495 20
    endloop
  endfacet
  facet normal 0 0 1
    outer loop
      vertex 0 7 20
      vertex 0.37 12.495 20
      vertex -1.11 12.451 20
    endloop
  endfacet
  facet normal 0.707 -0.707 0
    outer loop
      vertex 0 -7 20
      vertex 4.455 -2.545 20
      vertex 0 -7 31.99
    endloop
  endfacet
  facet normal -0.707 -0.707 0
    outer loop
      vertex 0 -7 20
      vertex -7 0 31.99
      vertex -7 0 20
    endloop
  endfacet
  facet normal 1 0 0
    outer loop
      vertex 4.455 -2.545 20
      vertex 4.455 2.545 20
      vertex 4.455 -2.545 31.99
    endloop
  endfacet
  facet normal -0.707 0.707 0
    outer loop
      vertex -7 0 20
      vertex 0 7 31.99
      vertex 0 7 20
    endloop
  endfacet
  facet normal 0.707 0.707 0
    outer loop
      vertex 4.455 2.545 20
      vertex 0 7 20
      vertex 4.455 2.545 31.99
    endloop
  endfacet
  facet normal -0.707 -0.707 0
    outer loop
      vertex 0 -7 20
      vertex 0 -7 31.99
      vertex -7 0 31.99
    endloop
  endfacet
  facet normal 0.707 -0.707 0
    outer loop
      vertex 4.455 -2.545 20
      vertex 4.455 -2.545 31.99
      vertex 0 -7 31.99
    endloop
  endfacet
  facet normal 1 0 0
    outer loop
      vertex 4.455 2.545 20
      vertex 4.455 2.545 31.99
      vertex 4.455 -2.545 31.99
    endloop
  endfacet
  facet normal -0.707 0.707 0
    outer loop
      vertex -7 0 20
      vertex -7 0 31.99
      vertex 0 7 31.99
    endloop
  endfacet
  facet normal 0.707 0.707 0
    outer loop
      vertex 0 7 20
      vertex 0 7 31.99
      vertex 4.455 2.545 31.99
    endloop
  endfacet
  facet normal 0 0 1
    outer loop
      vertex 0 -7 31.99
      vertex 4.455 -2.545 31.99
      vertex 1.25 -2.165 31.99
    endloop
  endfacet
  facet normal 0 0 1
    outer loop
      vertex 0 -7 31.99
      vertex 0.434 -2.462 31.99
      vertex -0.434 -2.462 31.99
    endloop
  endfacet
  facet normal 0 0 1
    outer loop
      vertex 0 -7 31.99
      vertex -0.434 -2.462 31.99
      vertex -1.25 -2.165 31.99
    endloop
  endfacet
  facet normal 0 0 1
    outer loop
      vertex 0 -7 31.99
      vertex 1.25 -2.165 31.99
      vertex 0.434 -2.462 31.99
    endloop
  endfacet
  facet normal 0 0 1
    outer loop
      vertex 0 -7 31.99
      vertex -1.25 -2.165 31.99
      vertex -1.915 -1.607 31.99
    endloop
  endfacet
  facet normal 0 0 1
    outer loop
      vertex 0 -7 31.99
      vertex -1.915 -1.607 31.99
      vertex -7 0 31.99
    endloop
  endfacet
  facet normal 0 0 1
    outer loop
      vertex 4.455 -2.545 31.99
      vertex 1.915 -1.607 31.99
      vertex 1.25 -2.165 31.99
    endloop
  endfacet
  facet normal 0 0 1
    outer loop
      vertex 4.455 -2.545 31.99
      vertex 2 -1.46 31.99
      vertex 1.915 -1.607 31.99
    endloop
  endfacet
  facet normal 0 0 1
    outer loop
      vertex 4.455 -2.545 31.99
      vertex 2 1.46 31.99
      vertex 2 -1.46 31.99
    endloop
  endfacet
  facet normal 0 0 1
    outer loop
      vertex 4.455 -2.545 31.99
      vertex 4.455 2.545 31.99
      vertex 2 1.46 31.99
    endloop
  endfacet
  facet normal 0 0 1
    outer loop
      vertex -1.915 -1.607 31.99
      vertex -2.349 -0.855 31.99
      vertex -7 0 31.99
    endloop
  endfacet
  facet normal 0 0 1
    outer loop
      vertex -2.349 -0.855 31.99
      vertex -2.5 0 31.99
      vertex -7 0 31.99
    endloop
  endfacet
  facet normal 0 0 1
    outer loop
      vertex -7 0 31.99
      vertex -2.5 0 31.99
      vertex -2.349 0.855 31.99
    endloop
  endfacet
  facet normal 0 0 1
    outer loop
      vertex -7 0 31.99
      vertex -2.349 0.855 31.99
      vertex -1.915 1.607 31.99
    endloop
  endfacet
  facet normal 0 0 1
    outer loop
      vertex -7 0 31.99
      vertex -1.915 1.607 31.99
      vertex 0 7 31.99
    endloop
  endfacet
  facet normal 0 0 1
    outer loop
      vertex 2 1.46 31.99
      vertex 4.455 2.545 31.99
      vertex 1.915 1.607 31.99
    endloop
  endfacet
  facet normal 0 0 1
    outer loop
      vertex 1.915 1.607 31.99
      vertex 4.455 2.545 31.99
      vertex 1.25 2.165 31.99
    endloop
  endfacet
  facet normal 0 0 1
    outer loop
      vertex -1.915 1.607 31.99
      vertex -1.25 2.165 31.99
      vertex 0 7 31.99
    endloop
  endfacet
  facet normal 0 0 1
    outer loop
      vertex -1.25 2.165 31.99
      vertex -0.434 2.462 31.99
      vertex 0 7 31.99
    endloop
  endfacet
  facet normal 0 0 1
    outer loop
      vertex 1.25 2.165 31.99
      vertex 0 7 31.99
      vertex 0.434 2.462 31.99
    endloop
  endfacet
  facet normal 0 0 1
    outer loop
      vertex 1.25 2.165 31.99
      vertex 4.455 2.545 31.99
      vertex 0 7 31.99
    endloop
  endfacet
  facet normal 0 0 1
    outer loop
      vertex -0.434 2.462 31.99
      vertex 0.434 2.462 31.99
      vertex 0 7 31.99
    endloop
  endfacet
endsolid Model
