solid OpenSCAD_Model
  facet normal 0 0 -1
    outer loop
      vertex -12 0 -25
      vertex -11.7378 2.49494 -25
      vertex -11.7378 -2.49494 -25
    endloop
  endfacet
  facet normal 0 0 -1
    outer loop
      vertex -11.7378 -2.49494 -25
      vertex -11.7378 2.49494 -25
      vertex -10.9625 4.88084 -25
    endloop
  endfacet
  facet normal 0 0 -1
    outer loop
      vertex -11.7378 -2.49494 -25
      vertex -10.9625 4.88084 -25
      vertex -9.7082 7.05342 -25
    endloop
  endfacet
  facet normal 0 0 -1
    outer loop
      vertex -11.7378 -2.49494 -25
      vertex -9.7082 7.05342 -25
      vertex -8.02957 8.91774 -25
    endloop
  endfacet
  facet normal 0 0 -1
    outer loop
      vertex -11.7378 -2.49494 -25
      vertex -8.02957 8.91774 -25
      vertex -6 10.3923 -25
    endloop
  endfacet
  facet normal 0 0 -1
    outer loop
      vertex -11.7378 -2.49494 -25
      vertex -6 10.3923 -25
      vertex -3.7082 11.4127 -25
    endloop
  endfacet
  facet normal 0 0 -1
    outer loop
      vertex -11.7378 -2.49494 -25
      vertex -3.7082 11.4127 -25
      vertex -1.25434 11.9343 -25
    endloop
  endfacet
  facet normal 0 0 -1
    outer loop
      vertex -11.7378 -2.49494 -25
      vertex -1.25434 11.9343 -25
      vertex 1.25434 11.9343 -25
    endloop
  endfacet
  facet normal 0 0 -1
    outer loop
      vertex -11.7378 -2.49494 -25
      vertex 1.25434 11.9343 -25
      vertex 3.7082 11.4127 -25
    endloop
  endfacet
  facet normal 0 0 -1
    outer loop
      vertex -11.7378 -2.49494 -25
      vertex 3.7082 11.4127 -25
      vertex 6 10.3923 -25
    endloop
  endfacet
  facet normal 0 0 -1
    outer loop
      vertex -11.7378 -2.49494 -25
      vertex 6 10.3923 -25
      vertex 8.02957 8.91774 -25
    endloop
  endfacet
  facet normal 0 0 -1
    outer loop
      vertex 0 2.75 -25
      vertex 8.02957 8.91774 -25
      vertex 9.7082 7.05342 -25
    endloop
  endfacet
  facet normal 0 0 -1
    outer loop
      vertex 1.05238 2.54067 -25
      vertex 9.7082 7.05342 -25
      vertex 10.9625 4.88084 -25
    endloop
  endfacet
  facet normal 0 0 -1
    outer loop
      vertex 8.14 3.025 -25
      vertex 10.9625 4.88084 -25
      vertex 11.7378 2.49494 -25
    endloop
  endfacet
  facet normal 0 0 -1
    outer loop
      vertex 8.14 3.025 -25
      vertex 11.7378 -2.49494 -25
      vertex 8.14 -3.025 -25
    endloop
  endfacet
  facet normal 0 0 -1
    outer loop
      vertex 8.14 -3.025 -25
      vertex 11.7378 -2.49494 -25
      vertex 10.9625 -4.88084 -25
    endloop
  endfacet
  facet normal 0 0 -1
    outer loop
      vertex -11.7378 -2.49494 -25
      vertex 10.9625 -4.88084 -25
      vertex 9.7082 -7.05342 -25
    endloop
  endfacet
  facet normal 0 0 -1
    outer loop
      vertex -11.7378 -2.49494 -25
      vertex 9.7082 -7.05342 -25
      vertex 8.02957 -8.91774 -25
    endloop
  endfacet
  facet normal 0 0 -1
    outer loop
      vertex -11.7378 -2.49494 -25
      vertex 8.02957 -8.91774 -25
      vertex 6 -10.3923 -25
    endloop
  endfacet
  facet normal 0 0 -1
    outer loop
      vertex -11.7378 -2.49494 -25
      vertex 6 -10.3923 -25
      vertex 3.7082 -11.4127 -25
    endloop
  endfacet
  facet normal 0 0 -1
    outer loop
      vertex -11.7378 -2.49494 -25
      vertex 3.7082 -11.4127 -25
      vertex 1.25434 -11.9343 -25
    endloop
  endfacet
  facet normal 0 0 -1
    outer loop
      vertex -11.7378 -2.49494 -25
      vertex 1.25434 -11.9343 -25
      vertex -1.25434 -11.9343 -25
    endloop
  endfacet
  facet normal 0 0 -1
    outer loop
      vertex -11.7378 -2.49494 -25
      vertex -1.25434 -11.9343 -25
      vertex -3.7082 -11.4127 -25
    endloop
  endfacet
  facet normal 0 0 -1
    outer loop
      vertex -11.7378 -2.49494 -25
      vertex -3.7082 -11.4127 -25
      vertex -6 -10.3923 -25
    endloop
  endfacet
  facet normal 0 0 -1
    outer loop
      vertex -11.7378 -2.49494 -25
      vertex -6 -10.3923 -25
      vertex -8.02957 -8.91774 -25
    endloop
  endfacet
  facet normal 0 0 -1
    outer loop
      vertex -11.7378 -2.49494 -25
      vertex -8.02957 -8.91774 -25
      vertex -9.7082 -7.05342 -25
    endloop
  endfacet
  facet normal 0 0 -1
    outer loop
      vertex -11.7378 -2.49494 -25
      vertex -9.7082 -7.05342 -25
      vertex -10.9625 -4.88084 -25
    endloop
  endfacet
  facet normal 0 0 -1
    outer loop
      vertex -1.94454 -1.94454 -25
      vertex -11.7378 -2.49494 -25
      vertex -2.54067 -1.05238 -25
    endloop
  endfacet
  facet normal 0 0 -1
    outer loop
      vertex 1.05238 -2.54067 -25
      vertex 10.9625 -4.88084 -25
      vertex 0 -2.75 -25
    endloop
  endfacet
  facet normal 0 0 -1
    outer loop
      vertex -11.7378 -2.49494 -25
      vertex -1.05238 -2.54067 -25
      vertex 0 -2.75 -25
    endloop
  endfacet
  facet normal 0 0 -1
    outer loop
      vertex -11.7378 -2.49494 -25
      vertex 0 -2.75 -25
      vertex 10.9625 -4.88084 -25
    endloop
  endfacet
  facet normal 0 0 -1
    outer loop
      vertex 8.14 3.025 -25
      vertex 12 0 -25
      vertex 11.7378 -2.49494 -25
    endloop
  endfacet
  facet normal 0 0 -1
    outer loop
      vertex -1.05238 -2.54067 -25
      vertex -11.7378 -2.49494 -25
      vertex -1.94454 -1.94454 -25
    endloop
  endfacet
  facet normal 0 0 -1
    outer loop
      vertex 5.5 -3.025 -25
      vertex 1.05238 -2.54067 -25
      vertex 1.94454 -1.94454 -25
    endloop
  endfacet
  facet normal 0 0 -1
    outer loop
      vertex 1.94454 1.94454 -25
      vertex 5.5 3.025 -25
      vertex 2.54067 1.05238 -25
    endloop
  endfacet
  facet normal 0 0 -1
    outer loop
      vertex -2.54067 -1.05238 -25
      vertex -11.7378 -2.49494 -25
      vertex -2.75 0 -25
    endloop
  endfacet
  facet normal 0 0 -1
    outer loop
      vertex 0 2.75 -25
      vertex 9.7082 7.05342 -25
      vertex 1.05238 2.54067 -25
    endloop
  endfacet
  facet normal 0 0 -1
    outer loop
      vertex -1.05238 2.54067 -25
      vertex 8.02957 8.91774 -25
      vertex 0 2.75 -25
    endloop
  endfacet
  facet normal 0 0 -1
    outer loop
      vertex -2.54067 1.05238 -25
      vertex -11.7378 -2.49494 -25
      vertex -1.94454 1.94454 -25
    endloop
  endfacet
  facet normal 0 0 -1
    outer loop
      vertex -11.7378 -2.49494 -25
      vertex 8.02957 8.91774 -25
      vertex -1.05238 2.54067 -25
    endloop
  endfacet
  facet normal 0 0 -1
    outer loop
      vertex -11.7378 -2.49494 -25
      vertex -1.05238 2.54067 -25
      vertex -1.94454 1.94454 -25
    endloop
  endfacet
  facet normal 0 0 -1
    outer loop
      vertex 5.5 -3.025 -25
      vertex 2.54067 -1.05238 -25
      vertex 2.75 0 -25
    endloop
  endfacet
  facet normal 0 0 -1
    outer loop
      vertex 5.5 3.025 -25
      vertex 10.9625 4.88084 -25
      vertex 8.14 3.025 -25
    endloop
  endfacet
  facet normal 0 0 -1
    outer loop
      vertex 1.94454 1.94454 -25
      vertex 10.9625 4.88084 -25
      vertex 5.5 3.025 -25
    endloop
  endfacet
  facet normal 0 0 -1
    outer loop
      vertex 1.05238 2.54067 -25
      vertex 10.9625 4.88084 -25
      vertex 1.94454 1.94454 -25
    endloop
  endfacet
  facet normal 0 0 -1
    outer loop
      vertex 8.14 3.025 -25
      vertex 11.7378 2.49494 -25
      vertex 12 0 -25
    endloop
  endfacet
  facet normal 0 0 -1
    outer loop
      vertex 1.05238 -2.54067 -25
      vertex 5.5 -3.025 -25
      vertex 10.9625 -4.88084 -25
    endloop
  endfacet
  facet normal 0 0 -1
    outer loop
      vertex 5.5 -3.025 -25
      vertex 8.14 -3.025 -25
      vertex 10.9625 -4.88084 -25
    endloop
  endfacet
  facet normal 0 0 -1
    outer loop
      vertex 5.5 -3.025 -25
      vertex 1.94454 -1.94454 -25
      vertex 2.54067 -1.05238 -25
    endloop
  endfacet
  facet normal 0 0 -1
    outer loop
      vertex -2.75 0 -25
      vertex -11.7378 -2.49494 -25
      vertex -2.54067 1.05238 -25
    endloop
  endfacet
  facet normal 0 0 -1
    outer loop
      vertex 5.5 -3.025 -25
      vertex 2.75 0 -25
      vertex 2.54067 1.05238 -25
    endloop
  endfacet
  facet normal 0 0 -1
    outer loop
      vertex 5.5 -3.025 -25
      vertex 2.54067 1.05238 -25
      vertex 5.5 3.025 -25
    endloop
  endfacet
  facet normal -0.994522 0.104529 0
    outer loop
      vertex -12 0 -25
      vertex -12 0 25
      vertex -11.7378 2.49494 -25
    endloop
  endfacet
  facet normal -0.994522 0.104529 0
    outer loop
      vertex -11.7378 2.49494 -25
      vertex -12 0 25
      vertex -11.7378 2.49494 25
    endloop
  endfacet
  facet normal -0.994522 -0.104529 0
    outer loop
      vertex -12 0 -25
      vertex -11.7378 -2.49494 -25
      vertex -12 0 25
    endloop
  endfacet
  facet normal -0.994522 -0.104529 0
    outer loop
      vertex -12 0 25
      vertex -11.7378 -2.49494 -25
      vertex -11.7378 -2.49494 25
    endloop
  endfacet
  facet normal -0.951057 -0.309017 0
    outer loop
      vertex -11.7378 -2.49494 -25
      vertex -10.9625 -4.88084 -25
      vertex -11.7378 -2.49494 25
    endloop
  endfacet
  facet normal -0.951057 -0.309017 0
    outer loop
      vertex -11.7378 -2.49494 25
      vertex -10.9625 -4.88084 -25
      vertex -10.9625 -4.88084 25
    endloop
  endfacet
  facet normal -0.866025 -0.5 0
    outer loop
      vertex -10.9625 -4.88084 -25
      vertex -9.7082 -7.05342 -25
      vertex -10.9625 -4.88084 25
    endloop
  endfacet
  facet normal -0.866025 -0.5 0
    outer loop
      vertex -10.9625 -4.88084 25
      vertex -9.7082 -7.05342 -25
      vertex -9.7082 -7.05342 25
    endloop
  endfacet
  facet normal -0.743145 -0.669131 0
    outer loop
      vertex -9.7082 -7.05342 -25
      vertex -8.02957 -8.91774 -25
      vertex -9.7082 -7.05342 25
    endloop
  endfacet
  facet normal -0.743145 -0.669131 0
    outer loop
      vertex -9.7082 -7.05342 25
      vertex -8.02957 -8.91774 -25
      vertex -8.02957 -8.91774 25
    endloop
  endfacet
  facet normal -0.587785 -0.809017 0
    outer loop
      vertex -8.02957 -8.91774 25
      vertex -8.02957 -8.91774 -25
      vertex -6 -10.3923 -25
    endloop
  endfacet
  facet normal -0.587785 -0.809017 0
    outer loop
      vertex -6 -10.3923 25
      vertex -8.02957 -8.91774 25
      vertex -6 -10.3923 -25
    endloop
  endfacet
  facet normal -0.406737 -0.913546 0
    outer loop
      vertex -6 -10.3923 25
      vertex -6 -10.3923 -25
      vertex -3.7082 -11.4127 -25
    endloop
  endfacet
  facet normal -0.406737 -0.913546 0
    outer loop
      vertex -3.7082 -11.4127 25
      vertex -6 -10.3923 25
      vertex -3.7082 -11.4127 -25
    endloop
  endfacet
  facet normal -0.207912 -0.978148 0
    outer loop
      vertex -3.7082 -11.4127 25
      vertex -3.7082 -11.4127 -25
      vertex -1.25434 -11.9343 -25
    endloop
  endfacet
  facet normal -0.207912 -0.978148 0
    outer loop
      vertex -1.25434 -11.9343 25
      vertex -3.7082 -11.4127 25
      vertex -1.25434 -11.9343 -25
    endloop
  endfacet
  facet normal 0 -1 0
    outer loop
      vertex -1.25434 -11.9343 25
      vertex -1.25434 -11.9343 -25
      vertex 1.25434 -11.9343 -25
    endloop
  endfacet
  facet normal 0 -1 0
    outer loop
      vertex 1.25434 -11.9343 25
      vertex -1.25434 -11.9343 25
      vertex 1.25434 -11.9343 -25
    endloop
  endfacet
  facet normal 0.207912 -0.978148 0
    outer loop
      vertex 1.25434 -11.9343 25
      vertex 1.25434 -11.9343 -25
      vertex 3.7082 -11.4127 -25
    endloop
  endfacet
  facet normal 0.207912 -0.978148 0
    outer loop
      vertex 3.7082 -11.4127 25
      vertex 1.25434 -11.9343 25
      vertex 3.7082 -11.4127 -25
    endloop
  endfacet
  facet normal 0.406737 -0.913546 0
    outer loop
      vertex 3.7082 -11.4127 25
      vertex 3.7082 -11.4127 -25
      vertex 6 -10.3923 -25
    endloop
  endfacet
  facet normal 0.406737 -0.913546 0
    outer loop
      vertex 6 -10.3923 25
      vertex 3.7082 -11.4127 25
      vertex 6 -10.3923 -25
    endloop
  endfacet
  facet normal 0.587785 -0.809017 0
    outer loop
      vertex 6 -10.3923 25
      vertex 6 -10.3923 -25
      vertex 8.02957 -8.91774 -25
    endloop
  endfacet
  facet normal 0.587785 -0.809017 0
    outer loop
      vertex 8.02957 -8.91774 25
      vertex 6 -10.3923 25
      vertex 8.02957 -8.91774 -25
    endloop
  endfacet
  facet normal 0.743145 -0.669131 0
    outer loop
      vertex 8.02957 -8.91774 25
      vertex 8.02957 -8.91774 -25
      vertex 9.7082 -7.05342 -25
    endloop
  endfacet
  facet normal 0.743145 -0.669131 0
    outer loop
      vertex 9.7082 -7.05342 25
      vertex 8.02957 -8.91774 25
      vertex 9.7082 -7.05342 -25
    endloop
  endfacet
  facet normal 0.866025 -0.5 0
    outer loop
      vertex 9.7082 -7.05342 25
      vertex 9.7082 -7.05342 -25
      vertex 10.9625 -4.88084 -25
    endloop
  endfacet
  facet normal 0.866025 -0.5 0
    outer loop
      vertex 10.9625 -4.88084 25
      vertex 9.7082 -7.05342 25
      vertex 10.9625 -4.88084 -25
    endloop
  endfacet
  facet normal 0.951057 -0.309017 0
    outer loop
      vertex 10.9625 -4.88084 25
      vertex 10.9625 -4.88084 -25
      vertex 11.7378 -2.49494 -25
    endloop
  endfacet
  facet normal 0.951057 -0.309017 0
    outer loop
      vertex 11.7378 -2.49494 25
      vertex 10.9625 -4.88084 25
      vertex 11.7378 -2.49494 -25
    endloop
  endfacet
  facet normal 0.994522 -0.104529 0
    outer loop
      vertex 11.8699 -1.23744 -19.7374
      vertex 11.7378 -2.49494 -25
      vertex 12 0 -25
    endloop
  endfacet
  facet normal 0.994522 -0.104529 0
    outer loop
      vertex 11.8161 -1.75 -18.5
      vertex 11.7378 -2.49494 -25
      vertex 11.8699 -1.23744 -19.7374
    endloop
  endfacet
  facet normal 0.994522 -0.104529 0
    outer loop
      vertex 11.8699 -1.23744 -17.2626
      vertex 12 0 -16.75
      vertex 11.7378 -2.49494 25
    endloop
  endfacet
  facet normal 0.994522 -0.104529 0
    outer loop
      vertex 11.7378 -2.49494 25
      vertex 11.7378 -2.49494 -25
      vertex 11.8161 -1.75 -18.5
    endloop
  endfacet
  facet normal 0.994522 -0.104529 0
    outer loop
      vertex 11.8161 -1.75 -18.5
      vertex 11.8699 -1.23744 -17.2626
      vertex 11.7378 -2.49494 25
    endloop
  endfacet
  facet normal 0.994522 -0.104529 0
    outer loop
      vertex 11.8161 -1.75 18.5
      vertex 11.7378 -2.49494 25
      vertex 12 0 -16.75
    endloop
  endfacet
  facet normal 0.994522 -0.104529 0
    outer loop
      vertex 12 0 16.75
      vertex 11.8699 -1.23744 17.2626
      vertex 12 0 -16.75
    endloop
  endfacet
  facet normal 0.994522 -0.104529 0
    outer loop
      vertex 11.8699 -1.23744 17.2626
      vertex 11.8161 -1.75 18.5
      vertex 12 0 -16.75
    endloop
  endfacet
  facet normal 0.994522 -0.104529 0
    outer loop
      vertex 11.8699 -1.23744 19.7374
      vertex 12 0 20.25
      vertex 11.7378 -2.49494 25
    endloop
  endfacet
  facet normal 0.994522 -0.104529 0
    outer loop
      vertex 12 0 25
      vertex 11.7378 -2.49494 25
      vertex 12 0 20.25
    endloop
  endfacet
  facet normal 0.994522 -0.104529 0
    outer loop
      vertex 11.8161 -1.75 18.5
      vertex 11.8699 -1.23744 19.7374
      vertex 11.7378 -2.49494 25
    endloop
  endfacet
  facet normal 0.994522 -0.104529 0
    outer loop
      vertex 12 0 -20.25
      vertex 11.8699 -1.23744 -19.7374
      vertex 12 0 -25
    endloop
  endfacet
  facet normal 0.994522 0.104529 0
    outer loop
      vertex 11.8161 1.75 -18.5
      vertex 11.7378 2.49494 -25
      vertex 11.7378 2.49494 25
    endloop
  endfacet
  facet normal 0.994522 0.104529 0
    outer loop
      vertex 11.8161 1.75 -18.5
      vertex 11.8699 1.23744 -19.7374
      vertex 11.7378 2.49494 -25
    endloop
  endfacet
  facet normal 0.994522 0.104529 0
    outer loop
      vertex 12 0 25
      vertex 12 0 20.25
      vertex 11.7378 2.49494 25
    endloop
  endfacet
  facet normal 0.994522 0.104529 0
    outer loop
      vertex 12 0 20.25
      vertex 11.8699 1.23744 19.7374
      vertex 11.7378 2.49494 25
    endloop
  endfacet
  facet normal 0.994522 0.104529 0
    outer loop
      vertex 12 0 -16.75
      vertex 11.8161 1.75 18.5
      vertex 11.8699 1.23744 17.2626
    endloop
  endfacet
  facet normal 0.994522 0.104529 0
    outer loop
      vertex 11.8699 1.23744 19.7374
      vertex 11.8161 1.75 18.5
      vertex 11.7378 2.49494 25
    endloop
  endfacet
  facet normal 0.994522 0.104529 0
    outer loop
      vertex 12 0 -16.75
      vertex 11.7378 2.49494 25
      vertex 11.8161 1.75 18.5
    endloop
  endfacet
  facet normal 0.994522 0.104529 0
    outer loop
      vertex 11.8699 1.23744 -17.2626
      vertex 11.8161 1.75 -18.5
      vertex 11.7378 2.49494 25
    endloop
  endfacet
  facet normal 0.994522 0.104529 0
    outer loop
      vertex 11.8699 1.23744 -19.7374
      vertex 12 0 -20.25
      vertex 12 0 -25
    endloop
  endfacet
  facet normal 0.994522 0.104529 0
    outer loop
      vertex 12 0 -25
      vertex 11.7378 2.49494 -25
      vertex 11.8699 1.23744 -19.7374
    endloop
  endfacet
  facet normal 0.994522 0.104529 0
    outer loop
      vertex 11.8699 1.23744 17.2626
      vertex 12 0 16.75
      vertex 12 0 -16.75
    endloop
  endfacet
  facet normal 0.994522 0.104529 0
    outer loop
      vertex 12 0 -16.75
      vertex 11.8699 1.23744 -17.2626
      vertex 11.7378 2.49494 25
    endloop
  endfacet
  facet normal 0.951057 0.309017 0
    outer loop
      vertex 11.7378 2.49494 -25
      vertex 10.9625 4.88084 -25
      vertex 10.9625 4.88084 25
    endloop
  endfacet
  facet normal 0.951057 0.309017 0
    outer loop
      vertex 11.7378 2.49494 25
      vertex 11.7378 2.49494 -25
      vertex 10.9625 4.88084 25
    endloop
  endfacet
  facet normal 0.866025 0.5 0
    outer loop
      vertex 10.9625 4.88084 -25
      vertex 9.7082 7.05342 -25
      vertex 9.7082 7.05342 25
    endloop
  endfacet
  facet normal 0.866025 0.5 0
    outer loop
      vertex 10.9625 4.88084 25
      vertex 10.9625 4.88084 -25
      vertex 9.7082 7.05342 25
    endloop
  endfacet
  facet normal 0.743145 0.669131 0
    outer loop
      vertex 9.7082 7.05342 -25
      vertex 8.02957 8.91774 -25
      vertex 8.02957 8.91774 25
    endloop
  endfacet
  facet normal 0.743145 0.669131 0
    outer loop
      vertex 9.7082 7.05342 25
      vertex 9.7082 7.05342 -25
      vertex 8.02957 8.91774 25
    endloop
  endfacet
  facet normal 0.587785 0.809017 0
    outer loop
      vertex 6 10.3923 -25
      vertex 6 10.3923 25
      vertex 8.02957 8.91774 -25
    endloop
  endfacet
  facet normal 0.587785 0.809017 0
    outer loop
      vertex 8.02957 8.91774 -25
      vertex 6 10.3923 25
      vertex 8.02957 8.91774 25
    endloop
  endfacet
  facet normal 0.406737 0.913546 0
    outer loop
      vertex 3.7082 11.4127 -25
      vertex 3.7082 11.4127 25
      vertex 6 10.3923 -25
    endloop
  endfacet
  facet normal 0.406737 0.913546 0
    outer loop
      vertex 6 10.3923 -25
      vertex 3.7082 11.4127 25
      vertex 6 10.3923 25
    endloop
  endfacet
  facet normal 0.207912 0.978148 0
    outer loop
      vertex 1.25434 11.9343 -25
      vertex 1.25434 11.9343 25
      vertex 3.7082 11.4127 -25
    endloop
  endfacet
  facet normal 0.207912 0.978148 0
    outer loop
      vertex 3.7082 11.4127 -25
      vertex 1.25434 11.9343 25
      vertex 3.7082 11.4127 25
    endloop
  endfacet
  facet normal 0 1 0
    outer loop
      vertex -1.25434 11.9343 -25
      vertex -1.25434 11.9343 25
      vertex 1.25434 11.9343 -25
    endloop
  endfacet
  facet normal 0 1 0
    outer loop
      vertex 1.25434 11.9343 -25
      vertex -1.25434 11.9343 25
      vertex 1.25434 11.9343 25
    endloop
  endfacet
  facet normal -0.207912 0.978148 0
    outer loop
      vertex -3.7082 11.4127 -25
      vertex -3.7082 11.4127 25
      vertex -1.25434 11.9343 -25
    endloop
  endfacet
  facet normal -0.207912 0.978148 0
    outer loop
      vertex -1.25434 11.9343 -25
      vertex -3.7082 11.4127 25
      vertex -1.25434 11.9343 25
    endloop
  endfacet
  facet normal -0.406737 0.913546 0
    outer loop
      vertex -6 10.3923 -25
      vertex -6 10.3923 25
      vertex -3.7082 11.4127 -25
    endloop
  endfacet
  facet normal -0.406737 0.913546 0
    outer loop
      vertex -3.7082 11.4127 -25
      vertex -6 10.3923 25
      vertex -3.7082 11.4127 25
    endloop
  endfacet
  facet normal -0.587785 0.809017 0
    outer loop
      vertex -8.02957 8.91774 -25
      vertex -8.02957 8.91774 25
      vertex -6 10.3923 -25
    endloop
  endfacet
  facet normal -0.587785 0.809017 0
    outer loop
      vertex -6 10.3923 -25
      vertex -8.02957 8.91774 25
      vertex -6 10.3923 25
    endloop
  endfacet
  facet normal -0.743145 0.669131 0
    outer loop
      vertex -9.7082 7.05342 -25
      vertex -9.7082 7.05342 25
      vertex -8.02957 8.91774 -25
    endloop
  endfacet
  facet normal -0.743145 0.669131 0
    outer loop
      vertex -8.02957 8.91774 -25
      vertex -9.7082 7.05342 25
      vertex -8.02957 8.91774 25
    endloop
  endfacet
  facet normal -0.866025 0.5 0
    outer loop
      vertex -10.9625 4.88084 -25
      vertex -10.9625 4.88084 25
      vertex -9.7082 7.05342 -25
    endloop
  endfacet
  facet normal -0.866025 0.5 0
    outer loop
      vertex -9.7082 7.05342 -25
      vertex -10.9625 4.88084 25
      vertex -9.7082 7.05342 25
    endloop
  endfacet
  facet normal -0.951057 0.309017 0
    outer loop
      vertex -11.7378 2.49494 -25
      vertex -11.7378 2.49494 25
      vertex -10.9625 4.88084 -25
    endloop
  endfacet
  facet normal -0.951057 0.309017 0
    outer loop
      vertex -10.9625 4.88084 -25
      vertex -11.7378 2.49494 25
      vertex -10.9625 4.88084 25
    endloop
  endfacet
  facet normal 0.980785 -0.19509 0
    outer loop
      vertex -2.54067 1.05238 -25
      vertex -2.54067 1.05238 -1
      vertex -2.75 0 -1
    endloop
  endfacet
  facet normal 0.980785 -0.19509 0
    outer loop
      vertex -2.75 0 -25
      vertex -2.54067 1.05238 -25
      vertex -2.75 0 -1
    endloop
  endfacet
  facet normal 0.980785 0.19509 0
    outer loop
      vertex -2.75 0 -1
      vertex -2.54067 -1.05238 -1
      vertex -2.54067 -1.05238 -25
    endloop
  endfacet
  facet normal 0.980785 0.19509 0
    outer loop
      vertex -2.75 0 -25
      vertex -2.75 0 -1
      vertex -2.54067 -1.05238 -25
    endloop
  endfacet
  facet normal 0.83147 -0.55557 0
    outer loop
      vertex -1.94454 1.94454 -25
      vertex -1.94454 1.94454 -1
      vertex -2.54067 1.05238 -1
    endloop
  endfacet
  facet normal 0.83147 -0.55557 0
    outer loop
      vertex -2.54067 1.05238 -25
      vertex -1.94454 1.94454 -25
      vertex -2.54067 1.05238 -1
    endloop
  endfacet
  facet normal 0.55557 -0.83147 0
    outer loop
      vertex -1.05238 2.54067 -25
      vertex -1.05238 2.54067 -1
      vertex -1.94454 1.94454 -1
    endloop
  endfacet
  facet normal 0.55557 -0.83147 0
    outer loop
      vertex -1.94454 1.94454 -25
      vertex -1.05238 2.54067 -25
      vertex -1.94454 1.94454 -1
    endloop
  endfacet
  facet normal 0.19509 -0.980785 0
    outer loop
      vertex 0 2.75 -25
      vertex 0 2.75 -1
      vertex -1.05238 2.54067 -1
    endloop
  endfacet
  facet normal 0.19509 -0.980785 0
    outer loop
      vertex -1.05238 2.54067 -25
      vertex 0 2.75 -25
      vertex -1.05238 2.54067 -1
    endloop
  endfacet
  facet normal -0.19509 -0.980785 0
    outer loop
      vertex 1.05238 2.54067 -25
      vertex 1.05238 2.54067 -1
      vertex 0 2.75 -1
    endloop
  endfacet
  facet normal -0.19509 -0.980785 0
    outer loop
      vertex 0 2.75 -25
      vertex 1.05238 2.54067 -25
      vertex 0 2.75 -1
    endloop
  endfacet
  facet normal -0.55557 -0.83147 0
    outer loop
      vertex 1.94454 1.94454 -25
      vertex 1.94454 1.94454 -1
      vertex 1.05238 2.54067 -1
    endloop
  endfacet
  facet normal -0.55557 -0.83147 0
    outer loop
      vertex 1.05238 2.54067 -25
      vertex 1.94454 1.94454 -25
      vertex 1.05238 2.54067 -1
    endloop
  endfacet
  facet normal -0.83147 -0.55557 0
    outer loop
      vertex 2.54067 1.05238 -19.8141
      vertex 2.41702 1.23744 -19.7374
      vertex 2.54067 1.05238 -25
    endloop
  endfacet
  facet normal -0.83147 -0.55557 0
    outer loop
      vertex 2.54067 1.05238 -25
      vertex 2.41702 1.23744 -19.7374
      vertex 2.07453 1.75 -18.5
    endloop
  endfacet
  facet normal -0.83147 -0.55557 0
    outer loop
      vertex 2.41702 1.23744 -17.2626
      vertex 2.54067 1.05238 -17.1859
      vertex 2.54067 1.05238 -1
    endloop
  endfacet
  facet normal -0.83147 -0.55557 0
    outer loop
      vertex 2.41702 1.23744 -17.2626
      vertex 2.54067 1.05238 -1
      vertex 2.07453 1.75 -18.5
    endloop
  endfacet
  facet normal -0.83147 -0.55557 0
    outer loop
      vertex 2.07453 1.75 -18.5
      vertex 2.54067 1.05238 -1
      vertex 1.94454 1.94454 -1
    endloop
  endfacet
  facet normal -0.83147 -0.55557 0
    outer loop
      vertex 2.07453 1.75 -18.5
      vertex 1.94454 1.94454 -1
      vertex 1.94454 1.94454 -25
    endloop
  endfacet
  facet normal -0.83147 -0.55557 0
    outer loop
      vertex 2.07453 1.75 -18.5
      vertex 1.94454 1.94454 -25
      vertex 2.54067 1.05238 -25
    endloop
  endfacet
  facet normal -0.980785 -0.19509 0
    outer loop
      vertex 2.75 0 -20.25
      vertex 2.54067 1.05238 -19.8141
      vertex 2.75 0 -25
    endloop
  endfacet
  facet normal -0.980785 -0.19509 0
    outer loop
      vertex 2.75 0 -25
      vertex 2.54067 1.05238 -19.8141
      vertex 2.54067 1.05238 -25
    endloop
  endfacet
  facet normal -0.980785 0.19509 0
    outer loop
      vertex 2.75 0 -20.25
      vertex 2.75 0 -25
      vertex 2.54067 -1.05238 -19.8141
    endloop
  endfacet
  facet normal -0.980785 0.19509 0
    outer loop
      vertex 2.54067 -1.05238 -19.8141
      vertex 2.75 0 -25
      vertex 2.54067 -1.05238 -25
    endloop
  endfacet
  facet normal -0.83147 0.55557 0
    outer loop
      vertex 2.54067 -1.05238 -1
      vertex 2.54067 -1.05238 -17.1859
      vertex 1.94454 -1.94454 -1
    endloop
  endfacet
  facet normal -0.83147 0.55557 0
    outer loop
      vertex 1.94454 -1.94454 -1
      vertex 2.54067 -1.05238 -17.1859
      vertex 2.41702 -1.23744 -17.2626
    endloop
  endfacet
  facet normal -0.83147 0.55557 0
    outer loop
      vertex 1.94454 -1.94454 -1
      vertex 2.41702 -1.23744 -17.2626
      vertex 2.07453 -1.75 -18.5
    endloop
  endfacet
  facet normal -0.83147 0.55557 0
    outer loop
      vertex 2.41702 -1.23744 -19.7374
      vertex 2.54067 -1.05238 -19.8141
      vertex 2.54067 -1.05238 -25
    endloop
  endfacet
  facet normal -0.83147 0.55557 0
    outer loop
      vertex 2.41702 -1.23744 -19.7374
      vertex 2.54067 -1.05238 -25
      vertex 2.07453 -1.75 -18.5
    endloop
  endfacet
  facet normal -0.83147 0.55557 0
    outer loop
      vertex 2.07453 -1.75 -18.5
      vertex 2.54067 -1.05238 -25
      vertex 1.94454 -1.94454 -25
    endloop
  endfacet
  facet normal -0.83147 0.55557 0
    outer loop
      vertex 2.07453 -1.75 -18.5
      vertex 1.94454 -1.94454 -25
      vertex 1.94454 -1.94454 -1
    endloop
  endfacet
  facet normal -0.55557 0.83147 0
    outer loop
      vertex 1.94454 -1.94454 -1
      vertex 1.94454 -1.94454 -25
      vertex 1.05238 -2.54067 -1
    endloop
  endfacet
  facet normal -0.55557 0.83147 0
    outer loop
      vertex 1.05238 -2.54067 -1
      vertex 1.94454 -1.94454 -25
      vertex 1.05238 -2.54067 -25
    endloop
  endfacet
  facet normal -0.19509 0.980785 0
    outer loop
      vertex 1.05238 -2.54067 -1
      vertex 1.05238 -2.54067 -25
      vertex 0 -2.75 -1
    endloop
  endfacet
  facet normal -0.19509 0.980785 0
    outer loop
      vertex 0 -2.75 -1
      vertex 1.05238 -2.54067 -25
      vertex 0 -2.75 -25
    endloop
  endfacet
  facet normal 0.19509 0.980785 0
    outer loop
      vertex 0 -2.75 -1
      vertex 0 -2.75 -25
      vertex -1.05238 -2.54067 -1
    endloop
  endfacet
  facet normal 0.19509 0.980785 0
    outer loop
      vertex -1.05238 -2.54067 -1
      vertex 0 -2.75 -25
      vertex -1.05238 -2.54067 -25
    endloop
  endfacet
  facet normal 0.55557 0.83147 0
    outer loop
      vertex -1.05238 -2.54067 -1
      vertex -1.05238 -2.54067 -25
      vertex -1.94454 -1.94454 -1
    endloop
  endfacet
  facet normal 0.55557 0.83147 0
    outer loop
      vertex -1.94454 -1.94454 -1
      vertex -1.05238 -2.54067 -25
      vertex -1.94454 -1.94454 -25
    endloop
  endfacet
  facet normal 0.83147 0.55557 0
    outer loop
      vertex -2.54067 -1.05238 -1
      vertex -1.94454 -1.94454 -1
      vertex -1.94454 -1.94454 -25
    endloop
  endfacet
  facet normal 0.83147 0.55557 0
    outer loop
      vertex -2.54067 -1.05238 -25
      vertex -2.54067 -1.05238 -1
      vertex -1.94454 -1.94454 -25
    endloop
  endfacet
  facet normal 0 -1 0
    outer loop
      vertex 5.5 3.025 -25
      vertex 8.14 3.025 -25
      vertex 8.14 3.025 -16.7535
    endloop
  endfacet
  facet normal 0 -1 0
    outer loop
      vertex 5.5 3.025 -16.7535
      vertex 5.5 3.025 -25
      vertex 8.14 3.025 -16.7535
    endloop
  endfacet
  facet normal 1 0 2.22045e-16
    outer loop
      vertex 5.5 -1.23744 -19.7374
      vertex 5.5 -3.025 -25
      vertex 5.5 3.025 -25
    endloop
  endfacet
  facet normal 1 0 2.22045e-16
    outer loop
      vertex 5.5 -1.75 -18.5
      vertex 5.5 -1.23744 -17.2626
      vertex 5.5 -3.025 -16.7535
    endloop
  endfacet
  facet normal 1 0 2.22045e-16
    outer loop
      vertex 5.5 0 -15.007
      vertex 5.5 0 -16.75
      vertex 5.5 3.025 -16.7535
    endloop
  endfacet
  facet normal 1 0 2.22045e-16
    outer loop
      vertex 5.5 0 -15.007
      vertex 5.5 -3.025 -16.7535
      vertex 5.5 0 -16.75
    endloop
  endfacet
  facet normal 1 0 2.22045e-16
    outer loop
      vertex 5.5 1.75 -18.5
      vertex 5.5 1.23744 -19.7374
      vertex 5.5 3.025 -25
    endloop
  endfacet
  facet normal 1 0 2.22045e-16
    outer loop
      vertex 5.5 3.025 -16.7535
      vertex 5.5 1.75 -18.5
      vertex 5.5 3.025 -25
    endloop
  endfacet
  facet normal 1 0 2.22045e-16
    outer loop
      vertex 5.5 3.025 -16.7535
      vertex 5.5 1.23744 -17.2626
      vertex 5.5 1.75 -18.5
    endloop
  endfacet
  facet normal 1 0 2.22045e-16
    outer loop
      vertex 5.5 1.23744 -19.7374
      vertex 5.5 0 -20.25
      vertex 5.5 3.025 -25
    endloop
  endfacet
  facet normal 1 0 2.22045e-16
    outer loop
      vertex 5.5 -3.025 -16.7535
      vertex 5.5 -3.025 -25
      vertex 5.5 -1.23744 -19.7374
    endloop
  endfacet
  facet normal 1 0 2.22045e-16
    outer loop
      vertex 5.5 -3.025 -16.7535
      vertex 5.5 -1.23744 -19.7374
      vertex 5.5 -1.75 -18.5
    endloop
  endfacet
  facet normal 1 0 2.22045e-16
    outer loop
      vertex 5.5 0 -20.25
      vertex 5.5 -1.23744 -19.7374
      vertex 5.5 3.025 -25
    endloop
  endfacet
  facet normal 1 0 2.22045e-16
    outer loop
      vertex 5.5 0 -16.75
      vertex 5.5 1.23744 -17.2626
      vertex 5.5 3.025 -16.7535
    endloop
  endfacet
  facet normal 1 0 2.22045e-16
    outer loop
      vertex 5.5 -1.23744 -17.2626
      vertex 5.5 0 -16.75
      vertex 5.5 -3.025 -16.7535
    endloop
  endfacet
  facet normal -1 0 -2.22045e-16
    outer loop
      vertex 8.14 -1.75 -18.5
      vertex 8.14 -3.025 -25
      vertex 8.14 -3.025 -16.7535
    endloop
  endfacet
  facet normal -1 0 -2.22045e-16
    outer loop
      vertex 8.14 0 -16.75
      vertex 8.14 -3.025 -16.7535
      vertex 8.14 0 -15.007
    endloop
  endfacet
  facet normal -1 0 -2.22045e-16
    outer loop
      vertex 8.14 1.23744 -19.7374
      vertex 8.14 -3.025 -25
      vertex 8.14 0 -20.25
    endloop
  endfacet
  facet normal -1 0 -2.22045e-16
    outer loop
      vertex 8.14 -1.23744 -19.7374
      vertex 8.14 -3.025 -25
      vertex 8.14 -1.75 -18.5
    endloop
  endfacet
  facet normal -1 0 -2.22045e-16
    outer loop
      vertex 8.14 -1.23744 -17.2626
      vertex 8.14 -1.75 -18.5
      vertex 8.14 -3.025 -16.7535
    endloop
  endfacet
  facet normal -1 0 -2.22045e-16
    outer loop
      vertex 8.14 0 -20.25
      vertex 8.14 -3.025 -25
      vertex 8.14 -1.23744 -19.7374
    endloop
  endfacet
  facet normal -1 0 -2.22045e-16
    outer loop
      vertex 8.14 3.025 -25
      vertex 8.14 -3.025 -25
      vertex 8.14 1.23744 -19.7374
    endloop
  endfacet
  facet normal -1 0 -2.22045e-16
    outer loop
      vertex 8.14 3.025 -25
      vertex 8.14 1.23744 -19.7374
      vertex 8.14 3.025 -16.7535
    endloop
  endfacet
  facet normal -1 0 -2.22045e-16
    outer loop
      vertex 8.14 1.23744 -17.2626
      vertex 8.14 3.025 -16.7535
      vertex 8.14 1.75 -18.5
    endloop
  endfacet
  facet normal -1 0 -2.22045e-16
    outer loop
      vertex 8.14 1.23744 -19.7374
      vertex 8.14 1.75 -18.5
      vertex 8.14 3.025 -16.7535
    endloop
  endfacet
  facet normal -1 0 -2.22045e-16
    outer loop
      vertex 8.14 0 -16.75
      vertex 8.14 3.025 -16.7535
      vertex 8.14 1.23744 -17.2626
    endloop
  endfacet
  facet normal -1 0 -2.22045e-16
    outer loop
      vertex 8.14 3.025 -16.7535
      vertex 8.14 0 -16.75
      vertex 8.14 0 -15.007
    endloop
  endfacet
  facet normal -1 0 -2.22045e-16
    outer loop
      vertex 8.14 -1.23744 -17.2626
      vertex 8.14 -3.025 -16.7535
      vertex 8.14 0 -16.75
    endloop
  endfacet
  facet normal 0 1 0
    outer loop
      vertex 8.14 -3.025 -25
      vertex 5.5 -3.025 -25
      vertex 8.14 -3.025 -16.7535
    endloop
  endfacet
  facet normal 0 1 0
    outer loop
      vertex 8.14 -3.025 -16.7535
      vertex 5.5 -3.025 -25
      vertex 5.5 -3.025 -16.7535
    endloop
  endfacet
  facet normal 0 0 1
    outer loop
      vertex -11.7378 2.49494 25
      vertex -12 0 25
      vertex -11.7378 -2.49494 25
    endloop
  endfacet
  facet normal 0 0 1
    outer loop
      vertex -9.7082 -7.05342 25
      vertex -11.7378 2.49494 25
      vertex -10.9625 -4.88084 25
    endloop
  endfacet
  facet normal 0 0 1
    outer loop
      vertex -10.9625 -4.88084 25
      vertex -11.7378 2.49494 25
      vertex -11.7378 -2.49494 25
    endloop
  endfacet
  facet normal 0 0 1
    outer loop
      vertex -8.02957 -8.91774 25
      vertex -11.7378 2.49494 25
      vertex -9.7082 -7.05342 25
    endloop
  endfacet
  facet normal 0 0 1
    outer loop
      vertex -6 -10.3923 25
      vertex -11.7378 2.49494 25
      vertex -8.02957 -8.91774 25
    endloop
  endfacet
  facet normal 0 0 1
    outer loop
      vertex -3.7082 -11.4127 25
      vertex -11.7378 2.49494 25
      vertex -6 -10.3923 25
    endloop
  endfacet
  facet normal 0 0 1
    outer loop
      vertex -1.25434 -11.9343 25
      vertex -11.7378 2.49494 25
      vertex -3.7082 -11.4127 25
    endloop
  endfacet
  facet normal 0 0 1
    outer loop
      vertex 1.25434 -11.9343 25
      vertex -11.7378 2.49494 25
      vertex -1.25434 -11.9343 25
    endloop
  endfacet
  facet normal 0 0 1
    outer loop
      vertex 3.7082 -11.4127 25
      vertex -11.7378 2.49494 25
      vertex 1.25434 -11.9343 25
    endloop
  endfacet
  facet normal 0 0 1
    outer loop
      vertex -2.475 -4.28683 25
      vertex -11.7378 2.49494 25
      vertex 3.7082 -11.4127 25
    endloop
  endfacet
  facet normal 0 0 1
    outer loop
      vertex 1.28115 -4.78133 25
      vertex 0 -4.95 25
      vertex 8.02957 -8.91774 25
    endloop
  endfacet
  facet normal 0 0 1
    outer loop
      vertex 3.50018 3.50018 25
      vertex 4.28683 2.475 25
      vertex 6.5 3.025 25
    endloop
  endfacet
  facet normal 0 0 1
    outer loop
      vertex -1.28115 4.78133 25
      vertex 0 4.95 25
      vertex 9.7082 7.05342 25
    endloop
  endfacet
  facet normal 0 0 1
    outer loop
      vertex 6 10.3923 25
      vertex -11.7378 2.49494 25
      vertex 8.02957 8.91774 25
    endloop
  endfacet
  facet normal 0 0 1
    outer loop
      vertex 3.7082 11.4127 25
      vertex -11.7378 2.49494 25
      vertex 6 10.3923 25
    endloop
  endfacet
  facet normal 0 0 1
    outer loop
      vertex 1.25434 11.9343 25
      vertex -11.7378 2.49494 25
      vertex 3.7082 11.4127 25
    endloop
  endfacet
  facet normal 0 0 1
    outer loop
      vertex -1.25434 11.9343 25
      vertex -11.7378 2.49494 25
      vertex 1.25434 11.9343 25
    endloop
  endfacet
  facet normal 0 0 1
    outer loop
      vertex -3.7082 11.4127 25
      vertex -11.7378 2.49494 25
      vertex -1.25434 11.9343 25
    endloop
  endfacet
  facet normal 0 0 1
    outer loop
      vertex -6 10.3923 25
      vertex -11.7378 2.49494 25
      vertex -3.7082 11.4127 25
    endloop
  endfacet
  facet normal 0 0 1
    outer loop
      vertex -8.02957 8.91774 25
      vertex -11.7378 2.49494 25
      vertex -6 10.3923 25
    endloop
  endfacet
  facet normal 0 0 1
    outer loop
      vertex -9.7082 7.05342 25
      vertex -11.7378 2.49494 25
      vertex -8.02957 8.91774 25
    endloop
  endfacet
  facet normal 0 0 1
    outer loop
      vertex -10.9625 4.88084 25
      vertex -11.7378 2.49494 25
      vertex -9.7082 7.05342 25
    endloop
  endfacet
  facet normal 0 0 1
    outer loop
      vertex -1.28115 -4.78133 25
      vertex -2.475 -4.28683 25
      vertex 6 -10.3923 25
    endloop
  endfacet
  facet normal 0 0 1
    outer loop
      vertex -4.28683 2.475 25
      vertex -3.50018 3.50018 25
      vertex -11.7378 2.49494 25
    endloop
  endfacet
  facet normal 0 0 1
    outer loop
      vertex 4.28683 -2.475 25
      vertex 3.50018 -3.50018 25
      vertex 10.9625 -4.88084 25
    endloop
  endfacet
  facet normal 0 0 1
    outer loop
      vertex 3.50018 -3.50018 25
      vertex 2.475 -4.28683 25
      vertex 9.7082 -7.05342 25
    endloop
  endfacet
  facet normal 0 0 1
    outer loop
      vertex 6.5 -3.025 25
      vertex 4.95 0 25
      vertex 4.78133 -1.28115 25
    endloop
  endfacet
  facet normal 0 0 1
    outer loop
      vertex -2.475 4.28683 25
      vertex -11.7378 2.49494 25
      vertex -3.50018 3.50018 25
    endloop
  endfacet
  facet normal 0 0 1
    outer loop
      vertex 2.475 4.28683 25
      vertex 3.50018 3.50018 25
      vertex 10.9625 4.88084 25
    endloop
  endfacet
  facet normal 0 0 1
    outer loop
      vertex 0 4.95 25
      vertex 1.28115 4.78133 25
      vertex 9.7082 7.05342 25
    endloop
  endfacet
  facet normal 0 0 1
    outer loop
      vertex 8.02957 8.91774 25
      vertex -1.28115 4.78133 25
      vertex 9.7082 7.05342 25
    endloop
  endfacet
  facet normal 0 0 1
    outer loop
      vertex 8.02957 8.91774 25
      vertex -11.7378 2.49494 25
      vertex -1.28115 4.78133 25
    endloop
  endfacet
  facet normal 0 0 1
    outer loop
      vertex 9.7082 7.05342 25
      vertex 1.28115 4.78133 25
      vertex 10.9625 4.88084 25
    endloop
  endfacet
  facet normal 0 0 1
    outer loop
      vertex 1.28115 4.78133 25
      vertex 2.475 4.28683 25
      vertex 10.9625 4.88084 25
    endloop
  endfacet
  facet normal 0 0 1
    outer loop
      vertex 6.5 3.025 25
      vertex 9.14 3.025 25
      vertex 3.50018 3.50018 25
    endloop
  endfacet
  facet normal 0 0 1
    outer loop
      vertex 9.14 3.025 25
      vertex 11.7378 -2.49494 25
      vertex 12 0 25
    endloop
  endfacet
  facet normal 0 0 1
    outer loop
      vertex -4.78133 1.28115 25
      vertex -4.28683 2.475 25
      vertex -11.7378 2.49494 25
    endloop
  endfacet
  facet normal 0 0 1
    outer loop
      vertex 6.5 -3.025 25
      vertex 4.28683 -2.475 25
      vertex 10.9625 -4.88084 25
    endloop
  endfacet
  facet normal 0 0 1
    outer loop
      vertex 9.14 3.025 25
      vertex 9.14 -3.025 25
      vertex 11.7378 -2.49494 25
    endloop
  endfacet
  facet normal 0 0 1
    outer loop
      vertex 10.9625 -4.88084 25
      vertex 3.50018 -3.50018 25
      vertex 9.7082 -7.05342 25
    endloop
  endfacet
  facet normal 0 0 1
    outer loop
      vertex 9.7082 -7.05342 25
      vertex 2.475 -4.28683 25
      vertex 8.02957 -8.91774 25
    endloop
  endfacet
  facet normal 0 0 1
    outer loop
      vertex 2.475 -4.28683 25
      vertex 1.28115 -4.78133 25
      vertex 8.02957 -8.91774 25
    endloop
  endfacet
  facet normal 0 0 1
    outer loop
      vertex 8.02957 -8.91774 25
      vertex 0 -4.95 25
      vertex 6 -10.3923 25
    endloop
  endfacet
  facet normal 0 0 1
    outer loop
      vertex -4.78133 -1.28115 25
      vertex -4.95 0 25
      vertex -11.7378 2.49494 25
    endloop
  endfacet
  facet normal 0 0 1
    outer loop
      vertex 0 -4.95 25
      vertex -1.28115 -4.78133 25
      vertex 6 -10.3923 25
    endloop
  endfacet
  facet normal 0 0 1
    outer loop
      vertex 6 -10.3923 25
      vertex -2.475 -4.28683 25
      vertex 3.7082 -11.4127 25
    endloop
  endfacet
  facet normal 0 0 1
    outer loop
      vertex -3.50018 -3.50018 25
      vertex -11.7378 2.49494 25
      vertex -2.475 -4.28683 25
    endloop
  endfacet
  facet normal 0 0 1
    outer loop
      vertex -3.50018 -3.50018 25
      vertex -4.28683 -2.475 25
      vertex -11.7378 2.49494 25
    endloop
  endfacet
  facet normal 0 0 1
    outer loop
      vertex 4.78133 -1.28115 25
      vertex 4.28683 -2.475 25
      vertex 6.5 -3.025 25
    endloop
  endfacet
  facet normal 0 0 1
    outer loop
      vertex 9.14 3.025 25
      vertex 12 0 25
      vertex 11.7378 2.49494 25
    endloop
  endfacet
  facet normal 0 0 1
    outer loop
      vertex -2.475 4.28683 25
      vertex -1.28115 4.78133 25
      vertex -11.7378 2.49494 25
    endloop
  endfacet
  facet normal 0 0 1
    outer loop
      vertex 10.9625 4.88084 25
      vertex 9.14 3.025 25
      vertex 11.7378 2.49494 25
    endloop
  endfacet
  facet normal 0 0 1
    outer loop
      vertex 10.9625 4.88084 25
      vertex 3.50018 3.50018 25
      vertex 9.14 3.025 25
    endloop
  endfacet
  facet normal 0 0 1
    outer loop
      vertex 11.7378 -2.49494 25
      vertex 9.14 -3.025 25
      vertex 10.9625 -4.88084 25
    endloop
  endfacet
  facet normal 0 0 1
    outer loop
      vertex 9.14 -3.025 25
      vertex 6.5 -3.025 25
      vertex 10.9625 -4.88084 25
    endloop
  endfacet
  facet normal 0 0 1
    outer loop
      vertex -4.28683 -2.475 25
      vertex -4.78133 -1.28115 25
      vertex -11.7378 2.49494 25
    endloop
  endfacet
  facet normal 0 0 1
    outer loop
      vertex -4.95 0 25
      vertex -4.78133 1.28115 25
      vertex -11.7378 2.49494 25
    endloop
  endfacet
  facet normal 0 0 1
    outer loop
      vertex 6.5 -3.025 25
      vertex 4.78133 1.28115 25
      vertex 4.95 0 25
    endloop
  endfacet
  facet normal 0 0 1
    outer loop
      vertex 4.78133 1.28115 25
      vertex 6.5 3.025 25
      vertex 4.28683 2.475 25
    endloop
  endfacet
  facet normal 0 0 1
    outer loop
      vertex 6.5 -3.025 25
      vertex 6.5 3.025 25
      vertex 4.78133 1.28115 25
    endloop
  endfacet
  facet normal 2.05142e-16 -0.382683 -0.92388
    outer loop
      vertex 11.8699 1.23744 19.7374
      vertex 12 0 20.25
      vertex 9.14 1.23744 19.7374
    endloop
  endfacet
  facet normal 2.05142e-16 -0.382683 -0.92388
    outer loop
      vertex 9.14 1.23744 19.7374
      vertex 12 0 20.25
      vertex 9.14 0 20.25
    endloop
  endfacet
  facet normal 2.05142e-16 0.382683 -0.92388
    outer loop
      vertex 11.8699 -1.23744 19.7374
      vertex 9.14 -1.23744 19.7374
      vertex 12 0 20.25
    endloop
  endfacet
  facet normal 2.05142e-16 0.382683 -0.92388
    outer loop
      vertex 12 0 20.25
      vertex 9.14 -1.23744 19.7374
      vertex 9.14 0 20.25
    endloop
  endfacet
  facet normal 8.49728e-17 0.92388 -0.382683
    outer loop
      vertex 11.8161 -1.75 18.5
      vertex 9.14 -1.75 18.5
      vertex 11.8699 -1.23744 19.7374
    endloop
  endfacet
  facet normal 8.49728e-17 0.92388 -0.382683
    outer loop
      vertex 11.8699 -1.23744 19.7374
      vertex 9.14 -1.75 18.5
      vertex 9.14 -1.23744 19.7374
    endloop
  endfacet
  facet normal -8.49728e-17 0.92388 0.382683
    outer loop
      vertex 11.8699 -1.23744 17.2626
      vertex 9.14 -1.23744 17.2626
      vertex 11.8161 -1.75 18.5
    endloop
  endfacet
  facet normal -8.49728e-17 0.92388 0.382683
    outer loop
      vertex 11.8161 -1.75 18.5
      vertex 9.14 -1.23744 17.2626
      vertex 9.14 -1.75 18.5
    endloop
  endfacet
  facet normal -2.05142e-16 0.382683 0.92388
    outer loop
      vertex 11.8699 -1.23744 17.2626
      vertex 12 0 16.75
      vertex 9.14 0 16.75
    endloop
  endfacet
  facet normal -2.05142e-16 0.382683 0.92388
    outer loop
      vertex 9.14 -1.23744 17.2626
      vertex 11.8699 -1.23744 17.2626
      vertex 9.14 0 16.75
    endloop
  endfacet
  facet normal -2.05142e-16 -0.382683 0.92388
    outer loop
      vertex 9.14 0 16.75
      vertex 12 0 16.75
      vertex 11.8699 1.23744 17.2626
    endloop
  endfacet
  facet normal -2.05142e-16 -0.382683 0.92388
    outer loop
      vertex 9.14 1.23744 17.2626
      vertex 9.14 0 16.75
      vertex 11.8699 1.23744 17.2626
    endloop
  endfacet
  facet normal 2.05142e-16 0.382683 -0.92388
    outer loop
      vertex 11.8699 -1.23744 -17.2626
      vertex 8.14 -1.23744 -17.2626
      vertex 12 0 -16.75
    endloop
  endfacet
  facet normal 2.05142e-16 0.382683 -0.92388
    outer loop
      vertex 12 0 -16.75
      vertex 8.14 -1.23744 -17.2626
      vertex 8.14 0 -16.75
    endloop
  endfacet
  facet normal 2.05142e-16 -0.382683 -0.92388
    outer loop
      vertex 11.8699 1.23744 -17.2626
      vertex 12 0 -16.75
      vertex 8.14 1.23744 -17.2626
    endloop
  endfacet
  facet normal 2.05142e-16 -0.382683 -0.92388
    outer loop
      vertex 8.14 1.23744 -17.2626
      vertex 12 0 -16.75
      vertex 8.14 0 -16.75
    endloop
  endfacet
  facet normal 8.49728e-17 0.92388 -0.382683
    outer loop
      vertex 11.8161 -1.75 -18.5
      vertex 8.14 -1.75 -18.5
      vertex 11.8699 -1.23744 -17.2626
    endloop
  endfacet
  facet normal 8.49728e-17 0.92388 -0.382683
    outer loop
      vertex 11.8699 -1.23744 -17.2626
      vertex 8.14 -1.75 -18.5
      vertex 8.14 -1.23744 -17.2626
    endloop
  endfacet
  facet normal -8.49728e-17 0.92388 0.382683
    outer loop
      vertex 11.8699 -1.23744 -19.7374
      vertex 8.14 -1.23744 -19.7374
      vertex 11.8161 -1.75 -18.5
    endloop
  endfacet
  facet normal -8.49728e-17 0.92388 0.382683
    outer loop
      vertex 11.8161 -1.75 -18.5
      vertex 8.14 -1.23744 -19.7374
      vertex 8.14 -1.75 -18.5
    endloop
  endfacet
  facet normal -2.05142e-16 0.382683 0.92388
    outer loop
      vertex 11.8699 -1.23744 -19.7374
      vertex 12 0 -20.25
      vertex 8.14 0 -20.25
    endloop
  endfacet
  facet normal -2.05142e-16 0.382683 0.92388
    outer loop
      vertex 8.14 -1.23744 -19.7374
      vertex 11.8699 -1.23744 -19.7374
      vertex 8.14 0 -20.25
    endloop
  endfacet
  facet normal -2.05142e-16 -0.382683 0.92388
    outer loop
      vertex 8.14 0 -20.25
      vertex 12 0 -20.25
      vertex 11.8699 1.23744 -19.7374
    endloop
  endfacet
  facet normal -2.05142e-16 -0.382683 0.92388
    outer loop
      vertex 8.14 1.23744 -19.7374
      vertex 8.14 0 -20.25
      vertex 11.8699 1.23744 -19.7374
    endloop
  endfacet
  facet normal -8.49728e-17 -0.92388 0.382683
    outer loop
      vertex 8.14 1.23744 -19.7374
      vertex 11.8699 1.23744 -19.7374
      vertex 11.8161 1.75 -18.5
    endloop
  endfacet
  facet normal -8.49728e-17 -0.92388 0.382683
    outer loop
      vertex 8.14 1.75 -18.5
      vertex 8.14 1.23744 -19.7374
      vertex 11.8161 1.75 -18.5
    endloop
  endfacet
  facet normal 8.49728e-17 -0.92388 -0.382683
    outer loop
      vertex 8.14 1.75 -18.5
      vertex 11.8161 1.75 -18.5
      vertex 11.8699 1.23744 -17.2626
    endloop
  endfacet
  facet normal 8.49728e-17 -0.92388 -0.382683
    outer loop
      vertex 8.14 1.23744 -17.2626
      vertex 8.14 1.75 -18.5
      vertex 11.8699 1.23744 -17.2626
    endloop
  endfacet
  facet normal -8.49728e-17 -0.92388 0.382683
    outer loop
      vertex 9.14 1.23744 17.2626
      vertex 11.8699 1.23744 17.2626
      vertex 11.8161 1.75 18.5
    endloop
  endfacet
  facet normal -8.49728e-17 -0.92388 0.382683
    outer loop
      vertex 9.14 1.75 18.5
      vertex 9.14 1.23744 17.2626
      vertex 11.8161 1.75 18.5
    endloop
  endfacet
  facet normal 8.49728e-17 -0.92388 -0.382683
    outer loop
      vertex 9.14 1.75 18.5
      vertex 11.8161 1.75 18.5
      vertex 11.8699 1.23744 19.7374
    endloop
  endfacet
  facet normal 8.49728e-17 -0.92388 -0.382683
    outer loop
      vertex 9.14 1.23744 19.7374
      vertex 9.14 1.75 18.5
      vertex 11.8699 1.23744 19.7374
    endloop
  endfacet
  facet normal 0 0 -1
    outer loop
      vertex -1.94454 1.94454 -1
      vertex -1.05238 2.54067 -1
      vertex -2.54067 1.05238 -1
    endloop
  endfacet
  facet normal 0 0 -1
    outer loop
      vertex -2.54067 1.05238 -1
      vertex -1.05238 2.54067 -1
      vertex 0 2.75 -1
    endloop
  endfacet
  facet normal 0 0 -1
    outer loop
      vertex -2.54067 1.05238 -1
      vertex 0 2.75 -1
      vertex 1.05238 2.54067 -1
    endloop
  endfacet
  facet normal 0 0 -1
    outer loop
      vertex -2.54067 1.05238 -1
      vertex 1.05238 2.54067 -1
      vertex 1.94454 1.94454 -1
    endloop
  endfacet
  facet normal 0 0 -1
    outer loop
      vertex -2.54067 1.05238 -1
      vertex 1.94454 1.94454 -1
      vertex 2.54067 1.05238 -1
    endloop
  endfacet
  facet normal 0 0 -1
    outer loop
      vertex -2.54067 1.05238 -1
      vertex 2.54067 1.05238 -1
      vertex 2.75 0 -1
    endloop
  endfacet
  facet normal 0 0 -1
    outer loop
      vertex -2.54067 1.05238 -1
      vertex 2.75 0 -1
      vertex 2.54067 -1.05238 -1
    endloop
  endfacet
  facet normal 0 0 -1
    outer loop
      vertex -2.54067 1.05238 -1
      vertex 2.54067 -1.05238 -1
      vertex 1.94454 -1.94454 -1
    endloop
  endfacet
  facet normal 0 0 -1
    outer loop
      vertex -2.54067 1.05238 -1
      vertex 1.94454 -1.94454 -1
      vertex 1.05238 -2.54067 -1
    endloop
  endfacet
  facet normal 0 0 -1
    outer loop
      vertex -2.54067 1.05238 -1
      vertex 1.05238 -2.54067 -1
      vertex 0 -2.75 -1
    endloop
  endfacet
  facet normal 0 0 -1
    outer loop
      vertex -2.54067 1.05238 -1
      vertex 0 -2.75 -1
      vertex -1.05238 -2.54067 -1
    endloop
  endfacet
  facet normal 0 0 -1
    outer loop
      vertex -2.54067 1.05238 -1
      vertex -1.05238 -2.54067 -1
      vertex -1.94454 -1.94454 -1
    endloop
  endfacet
  facet normal 0 0 -1
    outer loop
      vertex -2.54067 1.05238 -1
      vertex -1.94454 -1.94454 -1
      vertex -2.54067 -1.05238 -1
    endloop
  endfacet
  facet normal 0 0 -1
    outer loop
      vertex -2.54067 1.05238 -1
      vertex -2.54067 -1.05238 -1
      vertex -2.75 0 -1
    endloop
  endfacet
  facet normal -0.980785 -0.19509 0
    outer loop
      vertex 2.75 0 -1
      vertex 2.54067 1.05238 -1
      vertex 2.75 0 -16.75
    endloop
  endfacet
  facet normal -0.980785 -0.19509 0
    outer loop
      vertex 2.75 0 -16.75
      vertex 2.54067 1.05238 -1
      vertex 2.54067 1.05238 -17.1859
    endloop
  endfacet
  facet normal 2.05142e-16 -0.382683 -0.92388
    outer loop
      vertex 5.5 0 -16.75
      vertex 2.75 0 -16.75
      vertex 5.5 1.23744 -17.2626
    endloop
  endfacet
  facet normal 2.05142e-16 -0.382683 -0.92388
    outer loop
      vertex 5.5 1.23744 -17.2626
      vertex 2.75 0 -16.75
      vertex 2.54067 1.05238 -17.1859
    endloop
  endfacet
  facet normal 2.05142e-16 -0.382683 -0.92388
    outer loop
      vertex 5.5 1.23744 -17.2626
      vertex 2.54067 1.05238 -17.1859
      vertex 2.41702 1.23744 -17.2626
    endloop
  endfacet
  facet normal 8.49728e-17 -0.92388 -0.382683
    outer loop
      vertex 5.5 1.75 -18.5
      vertex 5.5 1.23744 -17.2626
      vertex 2.41702 1.23744 -17.2626
    endloop
  endfacet
  facet normal 8.49728e-17 -0.92388 -0.382683
    outer loop
      vertex 2.07453 1.75 -18.5
      vertex 5.5 1.75 -18.5
      vertex 2.41702 1.23744 -17.2626
    endloop
  endfacet
  facet normal -8.49728e-17 -0.92388 0.382683
    outer loop
      vertex 2.41702 1.23744 -19.7374
      vertex 5.5 1.23744 -19.7374
      vertex 5.5 1.75 -18.5
    endloop
  endfacet
  facet normal -8.49728e-17 -0.92388 0.382683
    outer loop
      vertex 2.07453 1.75 -18.5
      vertex 2.41702 1.23744 -19.7374
      vertex 5.5 1.75 -18.5
    endloop
  endfacet
  facet normal -2.05142e-16 -0.382683 0.92388
    outer loop
      vertex 2.54067 1.05238 -19.8141
      vertex 2.75 0 -20.25
      vertex 5.5 0 -20.25
    endloop
  endfacet
  facet normal -2.05142e-16 -0.382683 0.92388
    outer loop
      vertex 2.41702 1.23744 -19.7374
      vertex 2.54067 1.05238 -19.8141
      vertex 5.5 1.23744 -19.7374
    endloop
  endfacet
  facet normal -2.05142e-16 -0.382683 0.92388
    outer loop
      vertex 5.5 1.23744 -19.7374
      vertex 2.54067 1.05238 -19.8141
      vertex 5.5 0 -20.25
    endloop
  endfacet
  facet normal -2.05142e-16 0.382683 0.92388
    outer loop
      vertex 5.5 -1.23744 -19.7374
      vertex 5.5 0 -20.25
      vertex 2.75 0 -20.25
    endloop
  endfacet
  facet normal -2.05142e-16 0.382683 0.92388
    outer loop
      vertex 2.41702 -1.23744 -19.7374
      vertex 5.5 -1.23744 -19.7374
      vertex 2.54067 -1.05238 -19.8141
    endloop
  endfacet
  facet normal -2.05142e-16 0.382683 0.92388
    outer loop
      vertex 2.54067 -1.05238 -19.8141
      vertex 5.5 -1.23744 -19.7374
      vertex 2.75 0 -20.25
    endloop
  endfacet
  facet normal -8.49728e-17 0.92388 0.382683
    outer loop
      vertex 5.5 -1.23744 -19.7374
      vertex 2.41702 -1.23744 -19.7374
      vertex 5.5 -1.75 -18.5
    endloop
  endfacet
  facet normal -8.49728e-17 0.92388 0.382683
    outer loop
      vertex 5.5 -1.75 -18.5
      vertex 2.41702 -1.23744 -19.7374
      vertex 2.07453 -1.75 -18.5
    endloop
  endfacet
  facet normal 8.49728e-17 0.92388 -0.382683
    outer loop
      vertex 5.5 -1.23744 -17.2626
      vertex 5.5 -1.75 -18.5
      vertex 2.41702 -1.23744 -17.2626
    endloop
  endfacet
  facet normal 8.49728e-17 0.92388 -0.382683
    outer loop
      vertex 2.41702 -1.23744 -17.2626
      vertex 5.5 -1.75 -18.5
      vertex 2.07453 -1.75 -18.5
    endloop
  endfacet
  facet normal 2.05142e-16 0.382683 -0.92388
    outer loop
      vertex 2.75 0 -16.75
      vertex 5.5 0 -16.75
      vertex 2.54067 -1.05238 -17.1859
    endloop
  endfacet
  facet normal 2.05142e-16 0.382683 -0.92388
    outer loop
      vertex 2.54067 -1.05238 -17.1859
      vertex 5.5 0 -16.75
      vertex 5.5 -1.23744 -17.2626
    endloop
  endfacet
  facet normal 2.05142e-16 0.382683 -0.92388
    outer loop
      vertex 2.54067 -1.05238 -17.1859
      vertex 5.5 -1.23744 -17.2626
      vertex 2.41702 -1.23744 -17.2626
    endloop
  endfacet
  facet normal -0.980785 0.19509 0
    outer loop
      vertex 2.75 0 -1
      vertex 2.75 0 -16.75
      vertex 2.54067 -1.05238 -1
    endloop
  endfacet
  facet normal -0.980785 0.19509 0
    outer loop
      vertex 2.54067 -1.05238 -1
      vertex 2.75 0 -16.75
      vertex 2.54067 -1.05238 -17.1859
    endloop
  endfacet
  facet normal 1.92296e-16 -0.5 -0.866025
    outer loop
      vertex 8.14 3.025 -16.7535
      vertex 8.14 0 -15.007
      vertex 5.5 3.025 -16.7535
    endloop
  endfacet
  facet normal 1.92296e-16 -0.5 -0.866025
    outer loop
      vertex 5.5 3.025 -16.7535
      vertex 8.14 0 -15.007
      vertex 5.5 0 -15.007
    endloop
  endfacet
  facet normal 1.92296e-16 0.5 -0.866025
    outer loop
      vertex 8.14 -3.025 -16.7535
      vertex 5.5 -3.025 -16.7535
      vertex 8.14 0 -15.007
    endloop
  endfacet
  facet normal 1.92296e-16 0.5 -0.866025
    outer loop
      vertex 8.14 0 -15.007
      vertex 5.5 -3.025 -16.7535
      vertex 5.5 0 -15.007
    endloop
  endfacet
  facet normal 0.991445 0.130526 0
    outer loop
      vertex -4.95 0 25
      vertex -4.78133 -1.28115 25
      vertex -4.78133 -1.28115 1
    endloop
  endfacet
  facet normal 0.991445 0.130526 0
    outer loop
      vertex -4.95 0 1
      vertex -4.95 0 25
      vertex -4.78133 -1.28115 1
    endloop
  endfacet
  facet normal 0.92388 0.382683 0
    outer loop
      vertex -4.78133 -1.28115 25
      vertex -4.28683 -2.475 25
      vertex -4.28683 -2.475 1
    endloop
  endfacet
  facet normal 0.92388 0.382683 0
    outer loop
      vertex -4.78133 -1.28115 1
      vertex -4.78133 -1.28115 25
      vertex -4.28683 -2.475 1
    endloop
  endfacet
  facet normal 0.793354 0.608761 0
    outer loop
      vertex -4.28683 -2.475 25
      vertex -3.50018 -3.50018 25
      vertex -3.50018 -3.50018 1
    endloop
  endfacet
  facet normal 0.793354 0.608761 0
    outer loop
      vertex -4.28683 -2.475 1
      vertex -4.28683 -2.475 25
      vertex -3.50018 -3.50018 1
    endloop
  endfacet
  facet normal 0.608761 0.793354 0
    outer loop
      vertex -2.475 -4.28683 25
      vertex -2.475 -4.28683 1
      vertex -3.50018 -3.50018 25
    endloop
  endfacet
  facet normal 0.608761 0.793354 0
    outer loop
      vertex -3.50018 -3.50018 25
      vertex -2.475 -4.28683 1
      vertex -3.50018 -3.50018 1
    endloop
  endfacet
  facet normal 0.382683 0.92388 0
    outer loop
      vertex -1.28115 -4.78133 25
      vertex -1.28115 -4.78133 1
      vertex -2.475 -4.28683 25
    endloop
  endfacet
  facet normal 0.382683 0.92388 0
    outer loop
      vertex -2.475 -4.28683 25
      vertex -1.28115 -4.78133 1
      vertex -2.475 -4.28683 1
    endloop
  endfacet
  facet normal 0.130526 0.991445 0
    outer loop
      vertex 0 -4.95 25
      vertex 0 -4.95 1
      vertex -1.28115 -4.78133 25
    endloop
  endfacet
  facet normal 0.130526 0.991445 0
    outer loop
      vertex -1.28115 -4.78133 25
      vertex 0 -4.95 1
      vertex -1.28115 -4.78133 1
    endloop
  endfacet
  facet normal -0.130526 0.991445 0
    outer loop
      vertex 1.28115 -4.78133 25
      vertex 1.28115 -4.78133 1
      vertex 0 -4.95 25
    endloop
  endfacet
  facet normal -0.130526 0.991445 0
    outer loop
      vertex 0 -4.95 25
      vertex 1.28115 -4.78133 1
      vertex 0 -4.95 1
    endloop
  endfacet
  facet normal -0.382683 0.92388 0
    outer loop
      vertex 2.475 -4.28683 25
      vertex 2.475 -4.28683 1
      vertex 1.28115 -4.78133 25
    endloop
  endfacet
  facet normal -0.382683 0.92388 0
    outer loop
      vertex 1.28115 -4.78133 25
      vertex 2.475 -4.28683 1
      vertex 1.28115 -4.78133 1
    endloop
  endfacet
  facet normal -0.608761 0.793354 0
    outer loop
      vertex 3.50018 -3.50018 25
      vertex 3.50018 -3.50018 1
      vertex 2.475 -4.28683 25
    endloop
  endfacet
  facet normal -0.608761 0.793354 0
    outer loop
      vertex 2.475 -4.28683 25
      vertex 3.50018 -3.50018 1
      vertex 2.475 -4.28683 1
    endloop
  endfacet
  facet normal -0.793354 0.608761 0
    outer loop
      vertex 4.28683 -2.475 25
      vertex 4.28683 -2.475 1
      vertex 3.50018 -3.50018 25
    endloop
  endfacet
  facet normal -0.793354 0.608761 0
    outer loop
      vertex 3.50018 -3.50018 25
      vertex 4.28683 -2.475 1
      vertex 3.50018 -3.50018 1
    endloop
  endfacet
  facet normal -0.92388 0.382683 0
    outer loop
      vertex 4.78133 -1.28115 25
      vertex 4.78133 -1.28115 19.6319
      vertex 4.28683 -2.475 25
    endloop
  endfacet
  facet normal -0.92388 0.382683 0
    outer loop
      vertex 4.28683 -2.475 25
      vertex 4.78133 -1.28115 19.6319
      vertex 4.58713 -1.75 18.5
    endloop
  endfacet
  facet normal -0.92388 0.382683 0
    outer loop
      vertex 4.58713 -1.75 18.5
      vertex 4.78133 -1.28115 17.3681
      vertex 4.78133 -1.28115 1
    endloop
  endfacet
  facet normal -0.92388 0.382683 0
    outer loop
      vertex 4.58713 -1.75 18.5
      vertex 4.78133 -1.28115 1
      vertex 4.28683 -2.475 25
    endloop
  endfacet
  facet normal -0.92388 0.382683 0
    outer loop
      vertex 4.28683 -2.475 25
      vertex 4.78133 -1.28115 1
      vertex 4.28683 -2.475 1
    endloop
  endfacet
  facet normal -0.991445 0.130526 0
    outer loop
      vertex 4.95 0 25
      vertex 4.95 0 20.25
      vertex 4.78133 -1.28115 25
    endloop
  endfacet
  facet normal -0.991445 0.130526 0
    outer loop
      vertex 4.78133 -1.28115 25
      vertex 4.95 0 20.25
      vertex 4.78709 -1.23744 19.7374
    endloop
  endfacet
  facet normal -0.991445 0.130526 0
    outer loop
      vertex 4.78133 -1.28115 25
      vertex 4.78709 -1.23744 19.7374
      vertex 4.78133 -1.28115 19.6319
    endloop
  endfacet
  facet normal -0.991445 -0.130526 0
    outer loop
      vertex 4.95 0 20.25
      vertex 4.95 0 25
      vertex 4.78709 1.23744 19.7374
    endloop
  endfacet
  facet normal -0.991445 -0.130526 0
    outer loop
      vertex 4.78709 1.23744 19.7374
      vertex 4.95 0 25
      vertex 4.78133 1.28115 25
    endloop
  endfacet
  facet normal -0.991445 -0.130526 0
    outer loop
      vertex 4.78709 1.23744 19.7374
      vertex 4.78133 1.28115 25
      vertex 4.78133 1.28115 19.6319
    endloop
  endfacet
  facet normal -0.92388 -0.382683 0
    outer loop
      vertex 4.78133 1.28115 17.3681
      vertex 4.58713 1.75 18.5
      vertex 4.78133 1.28115 1
    endloop
  endfacet
  facet normal -0.92388 -0.382683 0
    outer loop
      vertex 4.78133 1.28115 25
      vertex 4.58713 1.75 18.5
      vertex 4.78133 1.28115 19.6319
    endloop
  endfacet
  facet normal -0.92388 -0.382683 0
    outer loop
      vertex 4.28683 2.475 25
      vertex 4.58713 1.75 18.5
      vertex 4.78133 1.28115 25
    endloop
  endfacet
  facet normal -0.92388 -0.382683 0
    outer loop
      vertex 4.78133 1.28115 1
      vertex 4.58713 1.75 18.5
      vertex 4.28683 2.475 25
    endloop
  endfacet
  facet normal -0.92388 -0.382683 0
    outer loop
      vertex 4.78133 1.28115 1
      vertex 4.28683 2.475 25
      vertex 4.28683 2.475 1
    endloop
  endfacet
  facet normal -0.793354 -0.608761 0
    outer loop
      vertex 4.28683 2.475 25
      vertex 3.50018 3.50018 25
      vertex 4.28683 2.475 1
    endloop
  endfacet
  facet normal -0.793354 -0.608761 0
    outer loop
      vertex 4.28683 2.475 1
      vertex 3.50018 3.50018 25
      vertex 3.50018 3.50018 1
    endloop
  endfacet
  facet normal -0.608761 -0.793354 0
    outer loop
      vertex 3.50018 3.50018 1
      vertex 3.50018 3.50018 25
      vertex 2.475 4.28683 25
    endloop
  endfacet
  facet normal -0.608761 -0.793354 0
    outer loop
      vertex 2.475 4.28683 1
      vertex 3.50018 3.50018 1
      vertex 2.475 4.28683 25
    endloop
  endfacet
  facet normal -0.382683 -0.92388 0
    outer loop
      vertex 2.475 4.28683 1
      vertex 2.475 4.28683 25
      vertex 1.28115 4.78133 25
    endloop
  endfacet
  facet normal -0.382683 -0.92388 0
    outer loop
      vertex 1.28115 4.78133 1
      vertex 2.475 4.28683 1
      vertex 1.28115 4.78133 25
    endloop
  endfacet
  facet normal -0.130526 -0.991445 0
    outer loop
      vertex 1.28115 4.78133 1
      vertex 1.28115 4.78133 25
      vertex 0 4.95 25
    endloop
  endfacet
  facet normal -0.130526 -0.991445 0
    outer loop
      vertex 0 4.95 1
      vertex 1.28115 4.78133 1
      vertex 0 4.95 25
    endloop
  endfacet
  facet normal 0.130526 -0.991445 0
    outer loop
      vertex 0 4.95 1
      vertex 0 4.95 25
      vertex -1.28115 4.78133 25
    endloop
  endfacet
  facet normal 0.130526 -0.991445 0
    outer loop
      vertex -1.28115 4.78133 1
      vertex 0 4.95 1
      vertex -1.28115 4.78133 25
    endloop
  endfacet
  facet normal 0.382683 -0.92388 0
    outer loop
      vertex -1.28115 4.78133 1
      vertex -1.28115 4.78133 25
      vertex -2.475 4.28683 25
    endloop
  endfacet
  facet normal 0.382683 -0.92388 0
    outer loop
      vertex -2.475 4.28683 1
      vertex -1.28115 4.78133 1
      vertex -2.475 4.28683 25
    endloop
  endfacet
  facet normal 0.608761 -0.793354 0
    outer loop
      vertex -2.475 4.28683 1
      vertex -2.475 4.28683 25
      vertex -3.50018 3.50018 25
    endloop
  endfacet
  facet normal 0.608761 -0.793354 0
    outer loop
      vertex -3.50018 3.50018 1
      vertex -2.475 4.28683 1
      vertex -3.50018 3.50018 25
    endloop
  endfacet
  facet normal 0.793354 -0.608761 0
    outer loop
      vertex -3.50018 3.50018 1
      vertex -3.50018 3.50018 25
      vertex -4.28683 2.475 25
    endloop
  endfacet
  facet normal 0.793354 -0.608761 0
    outer loop
      vertex -4.28683 2.475 1
      vertex -3.50018 3.50018 1
      vertex -4.28683 2.475 25
    endloop
  endfacet
  facet normal 0.92388 -0.382683 0
    outer loop
      vertex -4.28683 2.475 1
      vertex -4.28683 2.475 25
      vertex -4.78133 1.28115 25
    endloop
  endfacet
  facet normal 0.92388 -0.382683 0
    outer loop
      vertex -4.78133 1.28115 1
      vertex -4.28683 2.475 1
      vertex -4.78133 1.28115 25
    endloop
  endfacet
  facet normal 0.991445 -0.130526 0
    outer loop
      vertex -4.78133 1.28115 1
      vertex -4.78133 1.28115 25
      vertex -4.95 0 25
    endloop
  endfacet
  facet normal 0.991445 -0.130526 0
    outer loop
      vertex -4.95 0 1
      vertex -4.78133 1.28115 1
      vertex -4.95 0 25
    endloop
  endfacet
  facet normal 0 1 0
    outer loop
      vertex 9.14 -3.025 16.7535
      vertex 6.5 -3.025 16.7535
      vertex 9.14 -3.025 25
    endloop
  endfacet
  facet normal 0 1 0
    outer loop
      vertex 9.14 -3.025 25
      vertex 6.5 -3.025 16.7535
      vertex 6.5 -3.025 25
    endloop
  endfacet
  facet normal 1 0 2.22045e-16
    outer loop
      vertex 6.5 0 16.75
      vertex 6.5 0 15.007
      vertex 6.5 3.025 16.7535
    endloop
  endfacet
  facet normal 1 0 2.22045e-16
    outer loop
      vertex 6.5 1.75 18.5
      vertex 6.5 1.23744 17.2626
      vertex 6.5 3.025 16.7535
    endloop
  endfacet
  facet normal 1 0 2.22045e-16
    outer loop
      vertex 6.5 0 16.75
      vertex 6.5 -1.23744 17.2626
      vertex 6.5 -3.025 16.7535
    endloop
  endfacet
  facet normal 1 0 2.22045e-16
    outer loop
      vertex 6.5 1.23744 17.2626
      vertex 6.5 0 16.75
      vertex 6.5 3.025 16.7535
    endloop
  endfacet
  facet normal 1 0 2.22045e-16
    outer loop
      vertex 6.5 3.025 25
      vertex 6.5 1.23744 19.7374
      vertex 6.5 3.025 16.7535
    endloop
  endfacet
  facet normal 1 0 2.22045e-16
    outer loop
      vertex 6.5 3.025 25
      vertex 6.5 0 20.25
      vertex 6.5 1.23744 19.7374
    endloop
  endfacet
  facet normal 1 0 2.22045e-16
    outer loop
      vertex 6.5 1.23744 19.7374
      vertex 6.5 1.75 18.5
      vertex 6.5 3.025 16.7535
    endloop
  endfacet
  facet normal 1 0 2.22045e-16
    outer loop
      vertex 6.5 -1.23744 17.2626
      vertex 6.5 -1.75 18.5
      vertex 6.5 -3.025 16.7535
    endloop
  endfacet
  facet normal 1 0 2.22045e-16
    outer loop
      vertex 6.5 -3.025 16.7535
      vertex 6.5 0 15.007
      vertex 6.5 0 16.75
    endloop
  endfacet
  facet normal 1 0 2.22045e-16
    outer loop
      vertex 6.5 -3.025 25
      vertex 6.5 -3.025 16.7535
      vertex 6.5 -1.75 18.5
    endloop
  endfacet
  facet normal 1 0 2.22045e-16
    outer loop
      vertex 6.5 -3.025 25
      vertex 6.5 -1.23744 19.7374
      vertex 6.5 3.025 25
    endloop
  endfacet
  facet normal 1 0 2.22045e-16
    outer loop
      vertex 6.5 -3.025 25
      vertex 6.5 -1.75 18.5
      vertex 6.5 -1.23744 19.7374
    endloop
  endfacet
  facet normal 1 0 2.22045e-16
    outer loop
      vertex 6.5 -1.23744 19.7374
      vertex 6.5 0 20.25
      vertex 6.5 3.025 25
    endloop
  endfacet
  facet normal -1 0 -2.22045e-16
    outer loop
      vertex 9.14 1.23744 19.7374
      vertex 9.14 3.025 25
      vertex 9.14 1.75 18.5
    endloop
  endfacet
  facet normal -1 0 -2.22045e-16
    outer loop
      vertex 9.14 -1.23744 17.2626
      vertex 9.14 0 15.007
      vertex 9.14 -3.025 16.7535
    endloop
  endfacet
  facet normal -1 0 -2.22045e-16
    outer loop
      vertex 9.14 -1.23744 19.7374
      vertex 9.14 -3.025 16.7535
      vertex 9.14 -3.025 25
    endloop
  endfacet
  facet normal -1 0 -2.22045e-16
    outer loop
      vertex 9.14 -1.75 18.5
      vertex 9.14 -3.025 16.7535
      vertex 9.14 -1.23744 19.7374
    endloop
  endfacet
  facet normal -1 0 -2.22045e-16
    outer loop
      vertex 9.14 3.025 25
      vertex 9.14 -1.23744 19.7374
      vertex 9.14 -3.025 25
    endloop
  endfacet
  facet normal -1 0 -2.22045e-16
    outer loop
      vertex 9.14 -1.23744 17.2626
      vertex 9.14 -3.025 16.7535
      vertex 9.14 -1.75 18.5
    endloop
  endfacet
  facet normal -1 0 -2.22045e-16
    outer loop
      vertex 9.14 0 16.75
      vertex 9.14 0 15.007
      vertex 9.14 -1.23744 17.2626
    endloop
  endfacet
  facet normal -1 0 -2.22045e-16
    outer loop
      vertex 9.14 1.23744 17.2626
      vertex 9.14 0 15.007
      vertex 9.14 0 16.75
    endloop
  endfacet
  facet normal -1 0 -2.22045e-16
    outer loop
      vertex 9.14 3.025 16.7535
      vertex 9.14 0 15.007
      vertex 9.14 1.23744 17.2626
    endloop
  endfacet
  facet normal -1 0 -2.22045e-16
    outer loop
      vertex 9.14 3.025 16.7535
      vertex 9.14 1.23744 17.2626
      vertex 9.14 1.75 18.5
    endloop
  endfacet
  facet normal -1 0 -2.22045e-16
    outer loop
      vertex 9.14 3.025 16.7535
      vertex 9.14 1.75 18.5
      vertex 9.14 3.025 25
    endloop
  endfacet
  facet normal -1 0 -2.22045e-16
    outer loop
      vertex 9.14 -1.23744 19.7374
      vertex 9.14 3.025 25
      vertex 9.14 0 20.25
    endloop
  endfacet
  facet normal -1 0 -2.22045e-16
    outer loop
      vertex 9.14 0 20.25
      vertex 9.14 3.025 25
      vertex 9.14 1.23744 19.7374
    endloop
  endfacet
  facet normal 0 -1 0
    outer loop
      vertex 6.5 3.025 16.7535
      vertex 9.14 3.025 16.7535
      vertex 9.14 3.025 25
    endloop
  endfacet
  facet normal 0 -1 0
    outer loop
      vertex 6.5 3.025 25
      vertex 6.5 3.025 16.7535
      vertex 9.14 3.025 25
    endloop
  endfacet
  facet normal 0 0 1
    outer loop
      vertex -4.78133 -1.28115 1
      vertex -4.28683 -2.475 1
      vertex -3.50018 -3.50018 1
    endloop
  endfacet
  facet normal 0 0 1
    outer loop
      vertex -1.28115 -4.78133 1
      vertex -4.78133 -1.28115 1
      vertex -2.475 -4.28683 1
    endloop
  endfacet
  facet normal 0 0 1
    outer loop
      vertex -2.475 -4.28683 1
      vertex -4.78133 -1.28115 1
      vertex -3.50018 -3.50018 1
    endloop
  endfacet
  facet normal 0 0 1
    outer loop
      vertex 0 -4.95 1
      vertex -4.78133 -1.28115 1
      vertex -1.28115 -4.78133 1
    endloop
  endfacet
  facet normal 0 0 1
    outer loop
      vertex 1.28115 -4.78133 1
      vertex -4.78133 -1.28115 1
      vertex 0 -4.95 1
    endloop
  endfacet
  facet normal 0 0 1
    outer loop
      vertex 2.475 -4.28683 1
      vertex -4.78133 -1.28115 1
      vertex 1.28115 -4.78133 1
    endloop
  endfacet
  facet normal 0 0 1
    outer loop
      vertex 3.50018 -3.50018 1
      vertex -4.78133 -1.28115 1
      vertex 2.475 -4.28683 1
    endloop
  endfacet
  facet normal 0 0 1
    outer loop
      vertex 4.28683 -2.475 1
      vertex -4.78133 -1.28115 1
      vertex 3.50018 -3.50018 1
    endloop
  endfacet
  facet normal 0 0 1
    outer loop
      vertex 4.78133 -1.28115 1
      vertex -4.78133 -1.28115 1
      vertex 4.28683 -2.475 1
    endloop
  endfacet
  facet normal 0 0 1
    outer loop
      vertex 4.95 0 1
      vertex -4.78133 -1.28115 1
      vertex 4.78133 -1.28115 1
    endloop
  endfacet
  facet normal 0 0 1
    outer loop
      vertex 4.78133 1.28115 1
      vertex -4.78133 -1.28115 1
      vertex 4.95 0 1
    endloop
  endfacet
  facet normal 0 0 1
    outer loop
      vertex 4.28683 2.475 1
      vertex -4.78133 -1.28115 1
      vertex 4.78133 1.28115 1
    endloop
  endfacet
  facet normal 0 0 1
    outer loop
      vertex 3.50018 3.50018 1
      vertex -4.78133 -1.28115 1
      vertex 4.28683 2.475 1
    endloop
  endfacet
  facet normal 0 0 1
    outer loop
      vertex 2.475 4.28683 1
      vertex -4.78133 -1.28115 1
      vertex 3.50018 3.50018 1
    endloop
  endfacet
  facet normal 0 0 1
    outer loop
      vertex 1.28115 4.78133 1
      vertex -4.78133 -1.28115 1
      vertex 2.475 4.28683 1
    endloop
  endfacet
  facet normal 0 0 1
    outer loop
      vertex 0 4.95 1
      vertex -4.78133 -1.28115 1
      vertex 1.28115 4.78133 1
    endloop
  endfacet
  facet normal 0 0 1
    outer loop
      vertex -1.28115 4.78133 1
      vertex -4.78133 -1.28115 1
      vertex 0 4.95 1
    endloop
  endfacet
  facet normal 0 0 1
    outer loop
      vertex -2.475 4.28683 1
      vertex -4.78133 -1.28115 1
      vertex -1.28115 4.78133 1
    endloop
  endfacet
  facet normal 0 0 1
    outer loop
      vertex -3.50018 3.50018 1
      vertex -4.78133 -1.28115 1
      vertex -2.475 4.28683 1
    endloop
  endfacet
  facet normal 0 0 1
    outer loop
      vertex -4.28683 2.475 1
      vertex -4.78133 -1.28115 1
      vertex -3.50018 3.50018 1
    endloop
  endfacet
  facet normal 0 0 1
    outer loop
      vertex -4.78133 1.28115 1
      vertex -4.78133 -1.28115 1
      vertex -4.28683 2.475 1
    endloop
  endfacet
  facet normal 0 0 1
    outer loop
      vertex -4.95 0 1
      vertex -4.78133 -1.28115 1
      vertex -4.78133 1.28115 1
    endloop
  endfacet
  facet normal -0.991445 0.130526 0
    outer loop
      vertex 4.78709 -1.23744 17.2626
      vertex 4.95 0 16.75
      vertex 4.95 0 1
    endloop
  endfacet
  facet normal -0.991445 0.130526 0
    outer loop
      vertex 4.78709 -1.23744 17.2626
      vertex 4.95 0 1
      vertex 4.78133 -1.28115 17.3681
    endloop
  endfacet
  facet normal -0.991445 0.130526 0
    outer loop
      vertex 4.95 0 1
      vertex 4.78133 -1.28115 1
      vertex 4.78133 -1.28115 17.3681
    endloop
  endfacet
  facet normal -8.49728e-17 0.92388 0.382683
    outer loop
      vertex 6.5 -1.23744 17.2626
      vertex 4.78709 -1.23744 17.2626
      vertex 6.5 -1.75 18.5
    endloop
  endfacet
  facet normal -8.49728e-17 0.92388 0.382683
    outer loop
      vertex 6.5 -1.75 18.5
      vertex 4.78709 -1.23744 17.2626
      vertex 4.78133 -1.28115 17.3681
    endloop
  endfacet
  facet normal -8.49728e-17 0.92388 0.382683
    outer loop
      vertex 6.5 -1.75 18.5
      vertex 4.78133 -1.28115 17.3681
      vertex 4.58713 -1.75 18.5
    endloop
  endfacet
  facet normal 8.49728e-17 0.92388 -0.382683
    outer loop
      vertex 4.78709 -1.23744 19.7374
      vertex 6.5 -1.23744 19.7374
      vertex 4.78133 -1.28115 19.6319
    endloop
  endfacet
  facet normal 8.49728e-17 0.92388 -0.382683
    outer loop
      vertex 4.78133 -1.28115 19.6319
      vertex 6.5 -1.23744 19.7374
      vertex 6.5 -1.75 18.5
    endloop
  endfacet
  facet normal 8.49728e-17 0.92388 -0.382683
    outer loop
      vertex 4.78133 -1.28115 19.6319
      vertex 6.5 -1.75 18.5
      vertex 4.58713 -1.75 18.5
    endloop
  endfacet
  facet normal 2.05142e-16 0.382683 -0.92388
    outer loop
      vertex 6.5 0 20.25
      vertex 6.5 -1.23744 19.7374
      vertex 4.95 0 20.25
    endloop
  endfacet
  facet normal 2.05142e-16 0.382683 -0.92388
    outer loop
      vertex 4.95 0 20.25
      vertex 6.5 -1.23744 19.7374
      vertex 4.78709 -1.23744 19.7374
    endloop
  endfacet
  facet normal 2.05142e-16 -0.382683 -0.92388
    outer loop
      vertex 6.5 0 20.25
      vertex 4.95 0 20.25
      vertex 6.5 1.23744 19.7374
    endloop
  endfacet
  facet normal 2.05142e-16 -0.382683 -0.92388
    outer loop
      vertex 6.5 1.23744 19.7374
      vertex 4.95 0 20.25
      vertex 4.78709 1.23744 19.7374
    endloop
  endfacet
  facet normal 8.49728e-17 -0.92388 -0.382683
    outer loop
      vertex 6.5 1.75 18.5
      vertex 6.5 1.23744 19.7374
      vertex 4.78709 1.23744 19.7374
    endloop
  endfacet
  facet normal 8.49728e-17 -0.92388 -0.382683
    outer loop
      vertex 4.58713 1.75 18.5
      vertex 6.5 1.75 18.5
      vertex 4.78133 1.28115 19.6319
    endloop
  endfacet
  facet normal 8.49728e-17 -0.92388 -0.382683
    outer loop
      vertex 4.78133 1.28115 19.6319
      vertex 6.5 1.75 18.5
      vertex 4.78709 1.23744 19.7374
    endloop
  endfacet
  facet normal -0.991445 -0.130526 0
    outer loop
      vertex 4.95 0 16.75
      vertex 4.78709 1.23744 17.2626
      vertex 4.95 0 1
    endloop
  endfacet
  facet normal -0.991445 -0.130526 0
    outer loop
      vertex 4.95 0 1
      vertex 4.78709 1.23744 17.2626
      vertex 4.78133 1.28115 17.3681
    endloop
  endfacet
  facet normal -0.991445 -0.130526 0
    outer loop
      vertex 4.95 0 1
      vertex 4.78133 1.28115 17.3681
      vertex 4.78133 1.28115 1
    endloop
  endfacet
  facet normal -8.49728e-17 -0.92388 0.382683
    outer loop
      vertex 4.78133 1.28115 17.3681
      vertex 4.78709 1.23744 17.2626
      vertex 6.5 1.23744 17.2626
    endloop
  endfacet
  facet normal -8.49728e-17 -0.92388 0.382683
    outer loop
      vertex 4.58713 1.75 18.5
      vertex 4.78133 1.28115 17.3681
      vertex 6.5 1.75 18.5
    endloop
  endfacet
  facet normal -8.49728e-17 -0.92388 0.382683
    outer loop
      vertex 6.5 1.75 18.5
      vertex 4.78133 1.28115 17.3681
      vertex 6.5 1.23744 17.2626
    endloop
  endfacet
  facet normal -1.92296e-16 0.5 0.866025
    outer loop
      vertex 9.14 -3.025 16.7535
      vertex 9.14 0 15.007
      vertex 6.5 0 15.007
    endloop
  endfacet
  facet normal -1.92296e-16 0.5 0.866025
    outer loop
      vertex 6.5 -3.025 16.7535
      vertex 9.14 -3.025 16.7535
      vertex 6.5 0 15.007
    endloop
  endfacet
  facet normal -1.92296e-16 -0.5 0.866025
    outer loop
      vertex 6.5 0 15.007
      vertex 9.14 0 15.007
      vertex 9.14 3.025 16.7535
    endloop
  endfacet
  facet normal -1.92296e-16 -0.5 0.866025
    outer loop
      vertex 6.5 3.025 16.7535
      vertex 6.5 0 15.007
      vertex 9.14 3.025 16.7535
    endloop
  endfacet
  facet normal -2.05142e-16 0.382683 0.92388
    outer loop
      vertex 6.5 -1.23744 17.2626
      vertex 6.5 0 16.75
      vertex 4.95 0 16.75
    endloop
  endfacet
  facet normal -2.05142e-16 0.382683 0.92388
    outer loop
      vertex 4.78709 -1.23744 17.2626
      vertex 6.5 -1.23744 17.2626
      vertex 4.95 0 16.75
    endloop
  endfacet
  facet normal -2.05142e-16 -0.382683 0.92388
    outer loop
      vertex 4.95 0 16.75
      vertex 6.5 0 16.75
      vertex 6.5 1.23744 17.2626
    endloop
  endfacet
  facet normal -2.05142e-16 -0.382683 0.92388
    outer loop
      vertex 4.78709 1.23744 17.2626
      vertex 4.95 0 16.75
      vertex 6.5 1.23744 17.2626
    endloop
  endfacet
endsolid OpenSCAD_Model
