solid OpenSCAD_Model
  facet normal -1 0 -1.22465e-16
    outer loop
      vertex -11.7 -22.65 2
      vertex -11.7 -7.35 2
      vertex -11.7 -22.65 -1.43284e-15
    endloop
  endfacet
  facet normal -1 0 -1.22465e-16
    outer loop
      vertex -11.7 -22.65 -1.43284e-15
      vertex -11.7 -7.35 2
      vertex -11.7 -7.35 -1.43284e-15
    endloop
  endfacet
  facet normal -1.22465e-16 0 1
    outer loop
      vertex -8.7 -19.65 2
      vertex -11.7 -22.65 2
      vertex -7.7 -22.65 2
    endloop
  endfacet
  facet normal -1.22465e-16 0 1
    outer loop
      vertex -8.7 -19.65 2
      vertex -8.7 -10.35 2
      vertex -11.7 -7.35 2
    endloop
  endfacet
  facet normal -1.22465e-16 0 1
    outer loop
      vertex -11.7 -7.35 2
      vertex -11.7 -22.65 2
      vertex -8.7 -19.65 2
    endloop
  endfacet
  facet normal -1.22465e-16 0 1
    outer loop
      vertex -7.7 -10.35 2
      vertex -11.7 -7.35 2
      vertex -8.7 -10.35 2
    endloop
  endfacet
  facet normal -1.22465e-16 0 1
    outer loop
      vertex -7.7 -7.35 2
      vertex -11.7 -7.35 2
      vertex -7.7 -10.35 2
    endloop
  endfacet
  facet normal -1.22465e-16 0 1
    outer loop
      vertex -7.7 -19.65 2
      vertex -8.7 -19.65 2
      vertex -7.7 -22.65 2
    endloop
  endfacet
  facet normal 0 -1 0
    outer loop
      vertex -7.7 -22.65 2
      vertex -11.7 -22.65 2
      vertex -11.7 -22.65 -1.43284e-15
    endloop
  endfacet
  facet normal 0 -1 0
    outer loop
      vertex 7.7 -22.65 2
      vertex -7.7 -22.65 2
      vertex 11.7 -22.65 1.43284e-15
    endloop
  endfacet
  facet normal 0 -1 0
    outer loop
      vertex 11.7 -22.65 1.43284e-15
      vertex -7.7 -22.65 2
      vertex -11.7 -22.65 -1.43284e-15
    endloop
  endfacet
  facet normal 0 -1 0
    outer loop
      vertex 1.41135e-15 -22.65 4.34589
      vertex -1.99291 -22.65 4.60827
      vertex -7.7 -22.65 2
    endloop
  endfacet
  facet normal 0 -1 0
    outer loop
      vertex 1.99291 -22.65 4.60827
      vertex -7.7 -22.65 2
      vertex 7.7 -22.65 2
    endloop
  endfacet
  facet normal 0 -1 0
    outer loop
      vertex 11.7 -22.65 2
      vertex 7.7 -22.65 2
      vertex 11.7 -22.65 1.43284e-15
    endloop
  endfacet
  facet normal 0 -1 0
    outer loop
      vertex 5.44472 -22.65 6.60117
      vertex 3.85 -22.65 5.3775
      vertex 7.7 -22.65 7.02295
    endloop
  endfacet
  facet normal 0 -1 0
    outer loop
      vertex 7.7 -22.65 7.02295
      vertex 5.76836 -22.65 7.02295
      vertex 5.44472 -22.65 6.60117
    endloop
  endfacet
  facet normal 0 -1 0
    outer loop
      vertex 7.7 -22.65 7.02295
      vertex 3.85 -22.65 5.3775
      vertex 7.7 -22.65 2
    endloop
  endfacet
  facet normal 0 -1 0
    outer loop
      vertex 3.85 -22.65 5.3775
      vertex 1.99291 -22.65 4.60827
      vertex 7.7 -22.65 2
    endloop
  endfacet
  facet normal 0 -1 0
    outer loop
      vertex 1.99291 -22.65 4.60827
      vertex 1.41135e-15 -22.65 4.34589
      vertex -7.7 -22.65 2
    endloop
  endfacet
  facet normal 0 -1 0
    outer loop
      vertex -7.7 -22.65 7.02295
      vertex -5.44472 -22.65 6.60117
      vertex -5.76836 -22.65 7.02295
    endloop
  endfacet
  facet normal 0 -1 0
    outer loop
      vertex -7.7 -22.65 7.02295
      vertex -3.85 -22.65 5.3775
      vertex -5.44472 -22.65 6.60117
    endloop
  endfacet
  facet normal 0 -1 0
    outer loop
      vertex -3.85 -22.65 5.3775
      vertex -7.7 -22.65 2
      vertex -1.99291 -22.65 4.60827
    endloop
  endfacet
  facet normal 0 -1 0
    outer loop
      vertex -7.7 -22.65 7.02295
      vertex -7.7 -22.65 2
      vertex -3.85 -22.65 5.3775
    endloop
  endfacet
  facet normal 1.22465e-16 0 -1
    outer loop
      vertex -11.7 -22.65 -1.43284e-15
      vertex -11.7 -7.35 -1.43284e-15
      vertex 11.7 -22.65 1.43284e-15
    endloop
  endfacet
  facet normal 1.22465e-16 0 -1
    outer loop
      vertex 11.7 -22.65 1.43284e-15
      vertex -11.7 -7.35 -1.43284e-15
      vertex 11.7 -7.35 1.43284e-15
    endloop
  endfacet
  facet normal 0 1 0
    outer loop
      vertex -11.7 -7.35 2
      vertex -7.7 -7.35 2
      vertex -11.7 -7.35 -1.43284e-15
    endloop
  endfacet
  facet normal 0 1 0
    outer loop
      vertex -5.76836 -7.35 7.02295
      vertex -7.7 -7.35 2
      vertex -7.7 -7.35 7.02295
    endloop
  endfacet
  facet normal 0 1 0
    outer loop
      vertex -5.44472 -7.35 6.60117
      vertex -7.7 -7.35 2
      vertex -5.76836 -7.35 7.02295
    endloop
  endfacet
  facet normal 0 1 0
    outer loop
      vertex -1.99291 -7.35 4.60827
      vertex -7.7 -7.35 2
      vertex -3.85 -7.35 5.3775
    endloop
  endfacet
  facet normal 0 1 0
    outer loop
      vertex -7.7 -7.35 2
      vertex -5.44472 -7.35 6.60117
      vertex -3.85 -7.35 5.3775
    endloop
  endfacet
  facet normal 0 1 0
    outer loop
      vertex -11.7 -7.35 -1.43284e-15
      vertex -7.7 -7.35 2
      vertex -1.99291 -7.35 4.60827
    endloop
  endfacet
  facet normal 0 1 0
    outer loop
      vertex -11.7 -7.35 -1.43284e-15
      vertex -1.99291 -7.35 4.60827
      vertex -1.98593e-15 -7.35 4.34589
    endloop
  endfacet
  facet normal 0 1 0
    outer loop
      vertex -1.98593e-15 -7.35 4.34589
      vertex 1.99291 -7.35 4.60827
      vertex -11.7 -7.35 -1.43284e-15
    endloop
  endfacet
  facet normal 0 1 0
    outer loop
      vertex 1.99291 -7.35 4.60827
      vertex 7.7 -7.35 2
      vertex -11.7 -7.35 -1.43284e-15
    endloop
  endfacet
  facet normal 0 1 0
    outer loop
      vertex 5.44472 -7.35 6.60117
      vertex 5.76836 -7.35 7.02295
      vertex 7.7 -7.35 7.02295
    endloop
  endfacet
  facet normal 0 1 0
    outer loop
      vertex 5.44472 -7.35 6.60117
      vertex 7.7 -7.35 7.02295
      vertex 3.85 -7.35 5.3775
    endloop
  endfacet
  facet normal 0 1 0
    outer loop
      vertex 3.85 -7.35 5.3775
      vertex 7.7 -7.35 7.02295
      vertex 7.7 -7.35 2
    endloop
  endfacet
  facet normal 0 1 0
    outer loop
      vertex 3.85 -7.35 5.3775
      vertex 7.7 -7.35 2
      vertex 1.99291 -7.35 4.60827
    endloop
  endfacet
  facet normal 0 1 0
    outer loop
      vertex 7.7 -7.35 2
      vertex 11.7 -7.35 2
      vertex -11.7 -7.35 -1.43284e-15
    endloop
  endfacet
  facet normal 0 1 0
    outer loop
      vertex -11.7 -7.35 -1.43284e-15
      vertex 11.7 -7.35 2
      vertex 11.7 -7.35 1.43284e-15
    endloop
  endfacet
  facet normal -1 0 -1.22465e-16
    outer loop
      vertex -7.7 -9.85 7.02295
      vertex -7.7 -7.35 7.02295
      vertex -7.7 -9.85 6.4456
    endloop
  endfacet
  facet normal -1 0 -1.22465e-16
    outer loop
      vertex -7.7 -9.85 6.4456
      vertex -7.7 -7.35 7.02295
      vertex -7.7 -7.35 2
    endloop
  endfacet
  facet normal -1 0 -1.22465e-16
    outer loop
      vertex -7.7 -9.85 6.4456
      vertex -7.7 -7.35 2
      vertex -7.7 -10.35 2
    endloop
  endfacet
  facet normal -1 0 -1.22465e-16
    outer loop
      vertex -7.7 -9.85 6.4456
      vertex -7.7 -10.35 2
      vertex -7.7 -10.35 6.4456
    endloop
  endfacet
  facet normal 0 1 0
    outer loop
      vertex -8.7 -10.35 2
      vertex -8.7 -10.35 7.02295
      vertex -7.7 -10.35 6.4456
    endloop
  endfacet
  facet normal 0 1 0
    outer loop
      vertex -8.7 -10.35 2
      vertex -7.7 -10.35 6.4456
      vertex -7.7 -10.35 2
    endloop
  endfacet
  facet normal -1 0 -1.22465e-16
    outer loop
      vertex -8.7 -16.825 3.5
      vertex -8.7 -19.65 2
      vertex -8.7 -16.825 6.5
    endloop
  endfacet
  facet normal -1 0 -1.22465e-16
    outer loop
      vertex -8.7 -13.175 3.5
      vertex -8.7 -10.35 7.02295
      vertex -8.7 -10.35 2
    endloop
  endfacet
  facet normal -1 0 -1.22465e-16
    outer loop
      vertex -8.7 -19.65 7.02295
      vertex -8.7 -10.35 7.02295
      vertex -8.7 -13.175 6.5
    endloop
  endfacet
  facet normal -1 0 -1.22465e-16
    outer loop
      vertex -8.7 -19.65 7.02295
      vertex -8.7 -13.175 6.5
      vertex -8.7 -16.825 6.5
    endloop
  endfacet
  facet normal -1 0 -1.22465e-16
    outer loop
      vertex -8.7 -19.65 7.02295
      vertex -8.7 -16.825 6.5
      vertex -8.7 -19.65 2
    endloop
  endfacet
  facet normal -1 0 -1.22465e-16
    outer loop
      vertex -8.7 -19.65 2
      vertex -8.7 -16.825 3.5
      vertex -8.7 -10.35 2
    endloop
  endfacet
  facet normal -1 0 -1.22465e-16
    outer loop
      vertex -8.7 -16.825 3.5
      vertex -8.7 -13.175 3.5
      vertex -8.7 -10.35 2
    endloop
  endfacet
  facet normal -1 0 -1.22465e-16
    outer loop
      vertex -8.7 -13.175 6.5
      vertex -8.7 -10.35 7.02295
      vertex -8.7 -13.175 3.5
    endloop
  endfacet
  facet normal 0 -1 0
    outer loop
      vertex -7.7 -19.65 6.4456
      vertex -8.7 -19.65 7.02295
      vertex -7.7 -19.65 2
    endloop
  endfacet
  facet normal 0 -1 0
    outer loop
      vertex -7.7 -19.65 2
      vertex -8.7 -19.65 7.02295
      vertex -8.7 -19.65 2
    endloop
  endfacet
  facet normal -1 0 -1.22465e-16
    outer loop
      vertex -7.7 -22.65 7.02295
      vertex -7.7 -20.15 7.02295
      vertex -7.7 -22.65 2
    endloop
  endfacet
  facet normal -1 0 -1.22465e-16
    outer loop
      vertex -7.7 -22.65 2
      vertex -7.7 -20.15 7.02295
      vertex -7.7 -20.15 6.4456
    endloop
  endfacet
  facet normal -1 0 -1.22465e-16
    outer loop
      vertex -7.7 -22.65 2
      vertex -7.7 -20.15 6.4456
      vertex -7.7 -19.65 6.4456
    endloop
  endfacet
  facet normal -1 0 -1.22465e-16
    outer loop
      vertex -7.7 -22.65 2
      vertex -7.7 -19.65 6.4456
      vertex -7.7 -19.65 2
    endloop
  endfacet
  facet normal -1.22465e-16 0 1
    outer loop
      vertex -7.7 -20.15 7.02295
      vertex -7.7 -22.65 7.02295
      vertex -5.76836 -22.65 7.02295
    endloop
  endfacet
  facet normal -1.22465e-16 0 1
    outer loop
      vertex -5.76836 -20.15 7.02295
      vertex -7.7 -20.15 7.02295
      vertex -5.76836 -22.65 7.02295
    endloop
  endfacet
  facet normal 0.793353 3.11332e-16 0.608762
    outer loop
      vertex -5.76836 -22.65 7.02295
      vertex -5.44472 -22.65 6.60117
      vertex -5.44472 -20.15 6.60117
    endloop
  endfacet
  facet normal 0.793353 3.11332e-16 0.608762
    outer loop
      vertex -5.76836 -20.15 7.02295
      vertex -5.76836 -22.65 7.02295
      vertex -5.44472 -20.15 6.60117
    endloop
  endfacet
  facet normal 0.608762 3.11332e-16 0.793353
    outer loop
      vertex -5.44472 -22.65 6.60117
      vertex -3.85 -22.65 5.3775
      vertex -3.85 -20.15 5.3775
    endloop
  endfacet
  facet normal 0.608762 3.11332e-16 0.793353
    outer loop
      vertex -5.44472 -20.15 6.60117
      vertex -5.44472 -22.65 6.60117
      vertex -3.85 -20.15 5.3775
    endloop
  endfacet
  facet normal 0.382683 2.90115e-16 0.92388
    outer loop
      vertex -3.85 -22.65 5.3775
      vertex -1.99291 -22.65 4.60827
      vertex -1.99291 -20.15 4.60827
    endloop
  endfacet
  facet normal 0.382683 2.90115e-16 0.92388
    outer loop
      vertex -3.85 -20.15 5.3775
      vertex -3.85 -22.65 5.3775
      vertex -1.99291 -20.15 4.60827
    endloop
  endfacet
  facet normal 0.130526 2.49128e-16 0.991445
    outer loop
      vertex -1.99291 -22.65 4.60827
      vertex 1.41135e-15 -22.65 4.34589
      vertex 8.5624e-16 -20.15 4.34589
    endloop
  endfacet
  facet normal 0.130526 2.49128e-16 0.991445
    outer loop
      vertex -1.99291 -20.15 4.60827
      vertex -1.99291 -22.65 4.60827
      vertex 8.5624e-16 -20.15 4.34589
    endloop
  endfacet
  facet normal -0.130526 1.91162e-16 0.991445
    outer loop
      vertex 1.41135e-15 -22.65 4.34589
      vertex 1.99291 -22.65 4.60827
      vertex 1.99291 -20.15 4.60827
    endloop
  endfacet
  facet normal -0.130526 1.91162e-16 0.991445
    outer loop
      vertex 8.5624e-16 -20.15 4.34589
      vertex 1.41135e-15 -22.65 4.34589
      vertex 1.99291 -20.15 4.60827
    endloop
  endfacet
  facet normal -0.382683 1.2017e-16 0.92388
    outer loop
      vertex 1.99291 -22.65 4.60827
      vertex 3.85 -22.65 5.3775
      vertex 3.85 -20.15 5.3775
    endloop
  endfacet
  facet normal -0.382683 1.2017e-16 0.92388
    outer loop
      vertex 1.99291 -20.15 4.60827
      vertex 1.99291 -22.65 4.60827
      vertex 3.85 -20.15 5.3775
    endloop
  endfacet
  facet normal -0.608762 4.09875e-17 0.793353
    outer loop
      vertex 3.85 -22.65 5.3775
      vertex 5.44472 -22.65 6.60117
      vertex 5.44472 -20.15 6.60117
    endloop
  endfacet
  facet normal -0.608762 4.09875e-17 0.793353
    outer loop
      vertex 3.85 -20.15 5.3775
      vertex 3.85 -22.65 5.3775
      vertex 5.44472 -20.15 6.60117
    endloop
  endfacet
  facet normal -0.793353 -4.09875e-17 0.608762
    outer loop
      vertex 5.76836 -22.65 7.02295
      vertex 5.76836 -20.15 7.02295
      vertex 5.44472 -22.65 6.60117
    endloop
  endfacet
  facet normal -0.793353 -4.09875e-17 0.608762
    outer loop
      vertex 5.44472 -22.65 6.60117
      vertex 5.76836 -20.15 7.02295
      vertex 5.44472 -20.15 6.60117
    endloop
  endfacet
  facet normal -1.22465e-16 0 1
    outer loop
      vertex 7.7 -20.15 7.02295
      vertex 5.76836 -20.15 7.02295
      vertex 5.76836 -22.65 7.02295
    endloop
  endfacet
  facet normal -1.22465e-16 0 1
    outer loop
      vertex 7.7 -22.65 7.02295
      vertex 7.7 -20.15 7.02295
      vertex 5.76836 -22.65 7.02295
    endloop
  endfacet
  facet normal 1 0 1.22465e-16
    outer loop
      vertex 7.7 -20.15 7.02295
      vertex 7.7 -22.65 7.02295
      vertex 7.7 -22.65 2
    endloop
  endfacet
  facet normal 1 0 1.22465e-16
    outer loop
      vertex 7.7 -20.15 6.4456
      vertex 7.7 -20.15 7.02295
      vertex 7.7 -22.65 2
    endloop
  endfacet
  facet normal 1 0 1.22465e-16
    outer loop
      vertex 7.7 -19.65 2
      vertex 7.7 -20.15 6.4456
      vertex 7.7 -22.65 2
    endloop
  endfacet
  facet normal 1 0 1.22465e-16
    outer loop
      vertex 7.7 -19.65 6.4456
      vertex 7.7 -20.15 6.4456
      vertex 7.7 -19.65 2
    endloop
  endfacet
  facet normal -1.22465e-16 0 1
    outer loop
      vertex 7.7 -19.65 2
      vertex 7.7 -22.65 2
      vertex 11.7 -22.65 2
    endloop
  endfacet
  facet normal -1.22465e-16 0 1
    outer loop
      vertex 8.7 -19.65 2
      vertex 7.7 -19.65 2
      vertex 11.7 -22.65 2
    endloop
  endfacet
  facet normal -1.22465e-16 0 1
    outer loop
      vertex 7.7 -7.35 2
      vertex 7.7 -10.35 2
      vertex 11.7 -7.35 2
    endloop
  endfacet
  facet normal -1.22465e-16 0 1
    outer loop
      vertex 7.7 -10.35 2
      vertex 8.7 -10.35 2
      vertex 11.7 -7.35 2
    endloop
  endfacet
  facet normal -1.22465e-16 0 1
    outer loop
      vertex 11.7 -7.35 2
      vertex 8.7 -19.65 2
      vertex 11.7 -22.65 2
    endloop
  endfacet
  facet normal -1.22465e-16 0 1
    outer loop
      vertex 8.7 -10.35 2
      vertex 8.7 -19.65 2
      vertex 11.7 -7.35 2
    endloop
  endfacet
  facet normal 1 0 1.22465e-16
    outer loop
      vertex 11.7 -7.35 2
      vertex 11.7 -22.65 2
      vertex 11.7 -22.65 1.43284e-15
    endloop
  endfacet
  facet normal 1 0 1.22465e-16
    outer loop
      vertex 11.7 -7.35 1.43284e-15
      vertex 11.7 -7.35 2
      vertex 11.7 -22.65 1.43284e-15
    endloop
  endfacet
  facet normal 1 0 1.22465e-16
    outer loop
      vertex 7.7 -7.35 7.02295
      vertex 7.7 -9.85 7.02295
      vertex 7.7 -9.85 6.4456
    endloop
  endfacet
  facet normal 1 0 1.22465e-16
    outer loop
      vertex 7.7 -10.35 2
      vertex 7.7 -7.35 7.02295
      vertex 7.7 -9.85 6.4456
    endloop
  endfacet
  facet normal 1 0 1.22465e-16
    outer loop
      vertex 7.7 -10.35 6.4456
      vertex 7.7 -10.35 2
      vertex 7.7 -9.85 6.4456
    endloop
  endfacet
  facet normal 1 0 1.22465e-16
    outer loop
      vertex 7.7 -10.35 2
      vertex 7.7 -7.35 2
      vertex 7.7 -7.35 7.02295
    endloop
  endfacet
  facet normal -1.22465e-16 0 1
    outer loop
      vertex 7.7 -7.35 7.02295
      vertex 5.76836 -7.35 7.02295
      vertex 5.76836 -9.85 7.02295
    endloop
  endfacet
  facet normal -1.22465e-16 0 1
    outer loop
      vertex 7.7 -9.85 7.02295
      vertex 7.7 -7.35 7.02295
      vertex 5.76836 -9.85 7.02295
    endloop
  endfacet
  facet normal -0.793353 -4.09875e-17 0.608762
    outer loop
      vertex 5.76836 -9.85 7.02295
      vertex 5.76836 -7.35 7.02295
      vertex 5.44472 -9.85 6.60117
    endloop
  endfacet
  facet normal -0.793353 -4.09875e-17 0.608762
    outer loop
      vertex 5.44472 -9.85 6.60117
      vertex 5.76836 -7.35 7.02295
      vertex 5.44472 -7.35 6.60117
    endloop
  endfacet
  facet normal -0.608762 4.09875e-17 0.793353
    outer loop
      vertex 3.85 -9.85 5.3775
      vertex 5.44472 -9.85 6.60117
      vertex 5.44472 -7.35 6.60117
    endloop
  endfacet
  facet normal -0.608762 4.09875e-17 0.793353
    outer loop
      vertex 3.85 -7.35 5.3775
      vertex 3.85 -9.85 5.3775
      vertex 5.44472 -7.35 6.60117
    endloop
  endfacet
  facet normal -0.382683 1.2017e-16 0.92388
    outer loop
      vertex 1.99291 -9.85 4.60827
      vertex 3.85 -9.85 5.3775
      vertex 3.85 -7.35 5.3775
    endloop
  endfacet
  facet normal -0.382683 1.2017e-16 0.92388
    outer loop
      vertex 1.99291 -7.35 4.60827
      vertex 1.99291 -9.85 4.60827
      vertex 3.85 -7.35 5.3775
    endloop
  endfacet
  facet normal -0.130526 1.91162e-16 0.991445
    outer loop
      vertex -1.43082e-15 -9.85 4.34589
      vertex 1.99291 -9.85 4.60827
      vertex 1.99291 -7.35 4.60827
    endloop
  endfacet
  facet normal -0.130526 1.91162e-16 0.991445
    outer loop
      vertex -1.98593e-15 -7.35 4.34589
      vertex -1.43082e-15 -9.85 4.34589
      vertex 1.99291 -7.35 4.60827
    endloop
  endfacet
  facet normal 0.130526 2.49128e-16 0.991445
    outer loop
      vertex -1.99291 -9.85 4.60827
      vertex -1.43082e-15 -9.85 4.34589
      vertex -1.98593e-15 -7.35 4.34589
    endloop
  endfacet
  facet normal 0.130526 2.49128e-16 0.991445
    outer loop
      vertex -1.99291 -7.35 4.60827
      vertex -1.99291 -9.85 4.60827
      vertex -1.98593e-15 -7.35 4.34589
    endloop
  endfacet
  facet normal 0.382683 2.90115e-16 0.92388
    outer loop
      vertex -3.85 -9.85 5.3775
      vertex -1.99291 -9.85 4.60827
      vertex -1.99291 -7.35 4.60827
    endloop
  endfacet
  facet normal 0.382683 2.90115e-16 0.92388
    outer loop
      vertex -3.85 -7.35 5.3775
      vertex -3.85 -9.85 5.3775
      vertex -1.99291 -7.35 4.60827
    endloop
  endfacet
  facet normal 0.608762 3.11332e-16 0.793353
    outer loop
      vertex -5.44472 -9.85 6.60117
      vertex -3.85 -9.85 5.3775
      vertex -3.85 -7.35 5.3775
    endloop
  endfacet
  facet normal 0.608762 3.11332e-16 0.793353
    outer loop
      vertex -5.44472 -7.35 6.60117
      vertex -5.44472 -9.85 6.60117
      vertex -3.85 -7.35 5.3775
    endloop
  endfacet
  facet normal 0.793353 3.11332e-16 0.608762
    outer loop
      vertex -5.76836 -9.85 7.02295
      vertex -5.44472 -9.85 6.60117
      vertex -5.44472 -7.35 6.60117
    endloop
  endfacet
  facet normal 0.793353 3.11332e-16 0.608762
    outer loop
      vertex -5.76836 -7.35 7.02295
      vertex -5.76836 -9.85 7.02295
      vertex -5.44472 -7.35 6.60117
    endloop
  endfacet
  facet normal -1.22465e-16 0 1
    outer loop
      vertex -7.7 -7.35 7.02295
      vertex -7.7 -9.85 7.02295
      vertex -5.76836 -9.85 7.02295
    endloop
  endfacet
  facet normal -1.22465e-16 0 1
    outer loop
      vertex -5.76836 -7.35 7.02295
      vertex -7.7 -7.35 7.02295
      vertex -5.76836 -9.85 7.02295
    endloop
  endfacet
  facet normal 2.22045e-16 -1 2.22045e-16
    outer loop
      vertex -7.7 -9.85 6.4456
      vertex -5.47502e-07 -9.85 2
      vertex 5.47502e-07 -9.85 2
    endloop
  endfacet
  facet normal 2.22045e-16 -1 2.22045e-16
    outer loop
      vertex -1.99291 -9.85 4.60827
      vertex -7.7 -9.85 6.4456
      vertex 5.47502e-07 -9.85 2
    endloop
  endfacet
  facet normal 2.22045e-16 -1 2.22045e-16
    outer loop
      vertex 5.44472 -9.85 6.60117
      vertex 3.85 -9.85 5.3775
      vertex 7.7 -9.85 6.4456
    endloop
  endfacet
  facet normal 2.22045e-16 -1 2.22045e-16
    outer loop
      vertex 7.7 -9.85 7.02295
      vertex 5.44472 -9.85 6.60117
      vertex 7.7 -9.85 6.4456
    endloop
  endfacet
  facet normal 2.22045e-16 -1 2.22045e-16
    outer loop
      vertex 7.7 -9.85 6.4456
      vertex 3.85 -9.85 5.3775
      vertex 5.47502e-07 -9.85 2
    endloop
  endfacet
  facet normal 2.22045e-16 -1 2.22045e-16
    outer loop
      vertex 3.85 -9.85 5.3775
      vertex 1.99291 -9.85 4.60827
      vertex 5.47502e-07 -9.85 2
    endloop
  endfacet
  facet normal 2.22045e-16 -1 2.22045e-16
    outer loop
      vertex 1.99291 -9.85 4.60827
      vertex -1.43082e-15 -9.85 4.34589
      vertex 5.47502e-07 -9.85 2
    endloop
  endfacet
  facet normal 2.22045e-16 -1 2.22045e-16
    outer loop
      vertex -1.43082e-15 -9.85 4.34589
      vertex -1.99291 -9.85 4.60827
      vertex 5.47502e-07 -9.85 2
    endloop
  endfacet
  facet normal 2.22045e-16 -1 2.22045e-16
    outer loop
      vertex -3.85 -9.85 5.3775
      vertex -7.7 -9.85 6.4456
      vertex -1.99291 -9.85 4.60827
    endloop
  endfacet
  facet normal 2.22045e-16 -1 2.22045e-16
    outer loop
      vertex -5.76836 -9.85 7.02295
      vertex -7.7 -9.85 6.4456
      vertex -5.44472 -9.85 6.60117
    endloop
  endfacet
  facet normal 2.22045e-16 -1 2.22045e-16
    outer loop
      vertex -7.7 -9.85 7.02295
      vertex -7.7 -9.85 6.4456
      vertex -5.76836 -9.85 7.02295
    endloop
  endfacet
  facet normal 2.22045e-16 -1 2.22045e-16
    outer loop
      vertex 5.76836 -9.85 7.02295
      vertex 5.44472 -9.85 6.60117
      vertex 7.7 -9.85 7.02295
    endloop
  endfacet
  facet normal 2.22045e-16 -1 2.22045e-16
    outer loop
      vertex -3.85 -9.85 5.3775
      vertex -5.44472 -9.85 6.60117
      vertex -7.7 -9.85 6.4456
    endloop
  endfacet
  facet normal 0.5 3.03319e-16 0.866025
    outer loop
      vertex -5.47502e-07 -20.15 2
      vertex -7.7 -19.65 6.4456
      vertex -7.7 -20.15 6.4456
    endloop
  endfacet
  facet normal 0.5 3.03319e-16 0.866025
    outer loop
      vertex -5.47502e-07 -9.85 2
      vertex -7.7 -19.65 6.4456
      vertex -5.47502e-07 -20.15 2
    endloop
  endfacet
  facet normal 0.5 3.03319e-16 0.866025
    outer loop
      vertex -8.7 -19.65 7.02295
      vertex -7.7 -19.65 6.4456
      vertex -5.47502e-07 -9.85 2
    endloop
  endfacet
  facet normal 0.5 3.03319e-16 0.866025
    outer loop
      vertex -7.7 -10.35 6.4456
      vertex -8.7 -19.65 7.02295
      vertex -5.47502e-07 -9.85 2
    endloop
  endfacet
  facet normal 0.5 3.03319e-16 0.866025
    outer loop
      vertex -7.7 -9.85 6.4456
      vertex -7.7 -10.35 6.4456
      vertex -5.47502e-07 -9.85 2
    endloop
  endfacet
  facet normal 0.5 3.03319e-16 0.866025
    outer loop
      vertex -7.7 -10.35 6.4456
      vertex -8.7 -10.35 7.02295
      vertex -8.7 -19.65 7.02295
    endloop
  endfacet
  facet normal 0 1 0
    outer loop
      vertex -9.7 -13.175 5
      vertex -8.7 -13.175 6.5
      vertex -8.7 -13.175 3.5
    endloop
  endfacet
  facet normal -0.83205 0 0.5547
    outer loop
      vertex -9.7 -16.825 5
      vertex -8.7 -16.825 6.5
      vertex -9.7 -13.175 5
    endloop
  endfacet
  facet normal -0.83205 0 0.5547
    outer loop
      vertex -9.7 -13.175 5
      vertex -8.7 -16.825 6.5
      vertex -8.7 -13.175 6.5
    endloop
  endfacet
  facet normal 0 -1 0
    outer loop
      vertex -8.7 -16.825 6.5
      vertex -9.7 -16.825 5
      vertex -8.7 -16.825 3.5
    endloop
  endfacet
  facet normal -2.22045e-16 1 -2.22045e-16
    outer loop
      vertex -5.44472 -20.15 6.60117
      vertex -3.85 -20.15 5.3775
      vertex 5.47502e-07 -20.15 2
    endloop
  endfacet
  facet normal -2.22045e-16 1 -2.22045e-16
    outer loop
      vertex -3.85 -20.15 5.3775
      vertex -1.99291 -20.15 4.60827
      vertex 5.47502e-07 -20.15 2
    endloop
  endfacet
  facet normal -2.22045e-16 1 -2.22045e-16
    outer loop
      vertex -1.99291 -20.15 4.60827
      vertex 8.5624e-16 -20.15 4.34589
      vertex 5.47502e-07 -20.15 2
    endloop
  endfacet
  facet normal -2.22045e-16 1 -2.22045e-16
    outer loop
      vertex 5.47502e-07 -20.15 2
      vertex 1.99291 -20.15 4.60827
      vertex 7.7 -20.15 6.4456
    endloop
  endfacet
  facet normal -2.22045e-16 1 -2.22045e-16
    outer loop
      vertex 7.7 -20.15 6.4456
      vertex 3.85 -20.15 5.3775
      vertex 7.7 -20.15 7.02295
    endloop
  endfacet
  facet normal -2.22045e-16 1 -2.22045e-16
    outer loop
      vertex 7.7 -20.15 7.02295
      vertex 5.44472 -20.15 6.60117
      vertex 5.76836 -20.15 7.02295
    endloop
  endfacet
  facet normal -2.22045e-16 1 -2.22045e-16
    outer loop
      vertex 3.85 -20.15 5.3775
      vertex 5.44472 -20.15 6.60117
      vertex 7.7 -20.15 7.02295
    endloop
  endfacet
  facet normal -2.22045e-16 1 -2.22045e-16
    outer loop
      vertex 1.99291 -20.15 4.60827
      vertex 3.85 -20.15 5.3775
      vertex 7.7 -20.15 6.4456
    endloop
  endfacet
  facet normal -2.22045e-16 1 -2.22045e-16
    outer loop
      vertex 8.5624e-16 -20.15 4.34589
      vertex 1.99291 -20.15 4.60827
      vertex 5.47502e-07 -20.15 2
    endloop
  endfacet
  facet normal -2.22045e-16 1 -2.22045e-16
    outer loop
      vertex -5.44472 -20.15 6.60117
      vertex 5.47502e-07 -20.15 2
      vertex -5.47502e-07 -20.15 2
    endloop
  endfacet
  facet normal -2.22045e-16 1 -2.22045e-16
    outer loop
      vertex -5.44472 -20.15 6.60117
      vertex -5.47502e-07 -20.15 2
      vertex -7.7 -20.15 6.4456
    endloop
  endfacet
  facet normal -2.22045e-16 1 -2.22045e-16
    outer loop
      vertex -5.44472 -20.15 6.60117
      vertex -7.7 -20.15 6.4456
      vertex -5.76836 -20.15 7.02295
    endloop
  endfacet
  facet normal -2.22045e-16 1 -2.22045e-16
    outer loop
      vertex -7.7 -20.15 6.4456
      vertex -7.7 -20.15 7.02295
      vertex -5.76836 -20.15 7.02295
    endloop
  endfacet
  facet normal -0.5 8.12739e-17 0.866025
    outer loop
      vertex 8.7 -10.35 7.02295
      vertex 7.7 -19.65 6.4456
      vertex 8.7 -19.65 7.02295
    endloop
  endfacet
  facet normal -0.5 8.12739e-17 0.866025
    outer loop
      vertex 7.7 -10.35 6.4456
      vertex 7.7 -19.65 6.4456
      vertex 8.7 -10.35 7.02295
    endloop
  endfacet
  facet normal -0.5 8.12739e-17 0.866025
    outer loop
      vertex 7.7 -20.15 6.4456
      vertex 7.7 -19.65 6.4456
      vertex 5.47502e-07 -9.85 2
    endloop
  endfacet
  facet normal -0.5 8.12739e-17 0.866025
    outer loop
      vertex 5.47502e-07 -9.85 2
      vertex 7.7 -19.65 6.4456
      vertex 7.7 -10.35 6.4456
    endloop
  endfacet
  facet normal -0.5 8.12739e-17 0.866025
    outer loop
      vertex 5.47502e-07 -9.85 2
      vertex 7.7 -10.35 6.4456
      vertex 7.7 -9.85 6.4456
    endloop
  endfacet
  facet normal -0.5 8.12739e-17 0.866025
    outer loop
      vertex 5.47502e-07 -20.15 2
      vertex 7.7 -20.15 6.4456
      vertex 5.47502e-07 -9.85 2
    endloop
  endfacet
  facet normal 0 -1 0
    outer loop
      vertex 8.7 -19.65 7.02295
      vertex 7.7 -19.65 6.4456
      vertex 7.7 -19.65 2
    endloop
  endfacet
  facet normal 0 -1 0
    outer loop
      vertex 8.7 -19.65 2
      vertex 8.7 -19.65 7.02295
      vertex 7.7 -19.65 2
    endloop
  endfacet
  facet normal 1 0 1.22465e-16
    outer loop
      vertex 8.7 -16.825 6.5
      vertex 8.7 -19.65 7.02295
      vertex 8.7 -19.65 2
    endloop
  endfacet
  facet normal 1 0 1.22465e-16
    outer loop
      vertex 8.7 -10.35 7.02295
      vertex 8.7 -19.65 7.02295
      vertex 8.7 -16.825 6.5
    endloop
  endfacet
  facet normal 1 0 1.22465e-16
    outer loop
      vertex 8.7 -13.175 6.5
      vertex 8.7 -13.175 3.5
      vertex 8.7 -10.35 7.02295
    endloop
  endfacet
  facet normal 1 0 1.22465e-16
    outer loop
      vertex 8.7 -10.35 7.02295
      vertex 8.7 -16.825 6.5
      vertex 8.7 -13.175 6.5
    endloop
  endfacet
  facet normal 1 0 1.22465e-16
    outer loop
      vertex 8.7 -10.35 2
      vertex 8.7 -13.175 3.5
      vertex 8.7 -19.65 2
    endloop
  endfacet
  facet normal 1 0 1.22465e-16
    outer loop
      vertex 8.7 -10.35 2
      vertex 8.7 -10.35 7.02295
      vertex 8.7 -13.175 3.5
    endloop
  endfacet
  facet normal 1 0 1.22465e-16
    outer loop
      vertex 8.7 -13.175 3.5
      vertex 8.7 -16.825 3.5
      vertex 8.7 -19.65 2
    endloop
  endfacet
  facet normal 1 0 1.22465e-16
    outer loop
      vertex 8.7 -16.825 3.5
      vertex 8.7 -16.825 6.5
      vertex 8.7 -19.65 2
    endloop
  endfacet
  facet normal 0 1 0
    outer loop
      vertex 7.7 -10.35 6.4456
      vertex 8.7 -10.35 7.02295
      vertex 7.7 -10.35 2
    endloop
  endfacet
  facet normal 0 1 0
    outer loop
      vertex 7.7 -10.35 2
      vertex 8.7 -10.35 7.02295
      vertex 8.7 -10.35 2
    endloop
  endfacet
  facet normal -1.22465e-16 0 1
    outer loop
      vertex 5.47502e-07 -9.85 2
      vertex -5.47502e-07 -9.85 2
      vertex -5.47502e-07 -20.15 2
    endloop
  endfacet
  facet normal -1.22465e-16 0 1
    outer loop
      vertex 5.47502e-07 -20.15 2
      vertex 5.47502e-07 -9.85 2
      vertex -5.47502e-07 -20.15 2
    endloop
  endfacet
  facet normal -0.83205 0 -0.5547
    outer loop
      vertex -9.7 -16.825 5
      vertex -9.7 -13.175 5
      vertex -8.7 -16.825 3.5
    endloop
  endfacet
  facet normal -0.83205 0 -0.5547
    outer loop
      vertex -8.7 -16.825 3.5
      vertex -9.7 -13.175 5
      vertex -8.7 -13.175 3.5
    endloop
  endfacet
  facet normal 0 -1 0
    outer loop
      vertex 9.7 -16.825 5
      vertex 8.7 -16.825 6.5
      vertex 8.7 -16.825 3.5
    endloop
  endfacet
  facet normal 0.83205 0 -0.5547
    outer loop
      vertex 9.7 -16.825 5
      vertex 8.7 -16.825 3.5
      vertex 8.7 -13.175 3.5
    endloop
  endfacet
  facet normal 0.83205 0 -0.5547
    outer loop
      vertex 9.7 -13.175 5
      vertex 9.7 -16.825 5
      vertex 8.7 -13.175 3.5
    endloop
  endfacet
  facet normal 0 1 0
    outer loop
      vertex 8.7 -13.175 3.5
      vertex 8.7 -13.175 6.5
      vertex 9.7 -13.175 5
    endloop
  endfacet
  facet normal 0.83205 0 0.5547
    outer loop
      vertex 8.7 -13.175 6.5
      vertex 8.7 -16.825 6.5
      vertex 9.7 -16.825 5
    endloop
  endfacet
  facet normal 0.83205 0 0.5547
    outer loop
      vertex 9.7 -13.175 5
      vertex 8.7 -13.175 6.5
      vertex 9.7 -16.825 5
    endloop
  endfacet
  facet normal -1 0 -1.22465e-16
    outer loop
      vertex -11.7 7.35 2
      vertex -11.7 22.65 2
      vertex -11.7 7.35 -1.43284e-15
    endloop
  endfacet
  facet normal -1 0 -1.22465e-16
    outer loop
      vertex -11.7 7.35 -1.43284e-15
      vertex -11.7 22.65 2
      vertex -11.7 22.65 -1.43284e-15
    endloop
  endfacet
  facet normal -1.22465e-16 0 1
    outer loop
      vertex -8.7 10.35 2
      vertex -11.7 7.35 2
      vertex -7.7 7.35 2
    endloop
  endfacet
  facet normal -1.22465e-16 0 1
    outer loop
      vertex -8.7 10.35 2
      vertex -8.7 19.65 2
      vertex -11.7 22.65 2
    endloop
  endfacet
  facet normal -1.22465e-16 0 1
    outer loop
      vertex -11.7 22.65 2
      vertex -11.7 7.35 2
      vertex -8.7 10.35 2
    endloop
  endfacet
  facet normal -1.22465e-16 0 1
    outer loop
      vertex -7.7 19.65 2
      vertex -11.7 22.65 2
      vertex -8.7 19.65 2
    endloop
  endfacet
  facet normal -1.22465e-16 0 1
    outer loop
      vertex -7.7 22.65 2
      vertex -11.7 22.65 2
      vertex -7.7 19.65 2
    endloop
  endfacet
  facet normal -1.22465e-16 0 1
    outer loop
      vertex -7.7 10.35 2
      vertex -8.7 10.35 2
      vertex -7.7 7.35 2
    endloop
  endfacet
  facet normal 0 -1 0
    outer loop
      vertex -7.7 7.35 2
      vertex -11.7 7.35 2
      vertex -11.7 7.35 -1.43284e-15
    endloop
  endfacet
  facet normal 0 -1 0
    outer loop
      vertex 7.7 7.35 2
      vertex -7.7 7.35 2
      vertex 11.7 7.35 1.43284e-15
    endloop
  endfacet
  facet normal 0 -1 0
    outer loop
      vertex 11.7 7.35 1.43284e-15
      vertex -7.7 7.35 2
      vertex -11.7 7.35 -1.43284e-15
    endloop
  endfacet
  facet normal 0 -1 0
    outer loop
      vertex 1.41135e-15 7.35 4.34589
      vertex -1.99291 7.35 4.60827
      vertex -7.7 7.35 2
    endloop
  endfacet
  facet normal 0 -1 0
    outer loop
      vertex 1.99291 7.35 4.60827
      vertex -7.7 7.35 2
      vertex 7.7 7.35 2
    endloop
  endfacet
  facet normal 0 -1 0
    outer loop
      vertex 11.7 7.35 2
      vertex 7.7 7.35 2
      vertex 11.7 7.35 1.43284e-15
    endloop
  endfacet
  facet normal 0 -1 0
    outer loop
      vertex 5.44472 7.35 6.60117
      vertex 3.85 7.35 5.3775
      vertex 7.7 7.35 7.02295
    endloop
  endfacet
  facet normal 0 -1 0
    outer loop
      vertex 7.7 7.35 7.02295
      vertex 5.76836 7.35 7.02295
      vertex 5.44472 7.35 6.60117
    endloop
  endfacet
  facet normal 0 -1 0
    outer loop
      vertex 7.7 7.35 7.02295
      vertex 3.85 7.35 5.3775
      vertex 7.7 7.35 2
    endloop
  endfacet
  facet normal 0 -1 0
    outer loop
      vertex 3.85 7.35 5.3775
      vertex 1.99291 7.35 4.60827
      vertex 7.7 7.35 2
    endloop
  endfacet
  facet normal 0 -1 0
    outer loop
      vertex 1.99291 7.35 4.60827
      vertex 1.41135e-15 7.35 4.34589
      vertex -7.7 7.35 2
    endloop
  endfacet
  facet normal 0 -1 0
    outer loop
      vertex -7.7 7.35 7.02295
      vertex -5.44472 7.35 6.60117
      vertex -5.76836 7.35 7.02295
    endloop
  endfacet
  facet normal 0 -1 0
    outer loop
      vertex -7.7 7.35 7.02295
      vertex -3.85 7.35 5.3775
      vertex -5.44472 7.35 6.60117
    endloop
  endfacet
  facet normal 0 -1 0
    outer loop
      vertex -3.85 7.35 5.3775
      vertex -7.7 7.35 2
      vertex -1.99291 7.35 4.60827
    endloop
  endfacet
  facet normal 0 -1 0
    outer loop
      vertex -7.7 7.35 7.02295
      vertex -7.7 7.35 2
      vertex -3.85 7.35 5.3775
    endloop
  endfacet
  facet normal 1.22465e-16 0 -1
    outer loop
      vertex -11.7 7.35 -1.43284e-15
      vertex -11.7 22.65 -1.43284e-15
      vertex 11.7 7.35 1.43284e-15
    endloop
  endfacet
  facet normal 1.22465e-16 0 -1
    outer loop
      vertex 11.7 7.35 1.43284e-15
      vertex -11.7 22.65 -1.43284e-15
      vertex 11.7 22.65 1.43284e-15
    endloop
  endfacet
  facet normal 0 1 0
    outer loop
      vertex -11.7 22.65 2
      vertex -7.7 22.65 2
      vertex -11.7 22.65 -1.43284e-15
    endloop
  endfacet
  facet normal 0 1 0
    outer loop
      vertex -5.76836 22.65 7.02295
      vertex -7.7 22.65 2
      vertex -7.7 22.65 7.02295
    endloop
  endfacet
  facet normal 0 1 0
    outer loop
      vertex -5.44472 22.65 6.60117
      vertex -7.7 22.65 2
      vertex -5.76836 22.65 7.02295
    endloop
  endfacet
  facet normal 0 1 0
    outer loop
      vertex -1.99291 22.65 4.60827
      vertex -7.7 22.65 2
      vertex -3.85 22.65 5.3775
    endloop
  endfacet
  facet normal 0 1 0
    outer loop
      vertex -7.7 22.65 2
      vertex -5.44472 22.65 6.60117
      vertex -3.85 22.65 5.3775
    endloop
  endfacet
  facet normal 0 1 0
    outer loop
      vertex -11.7 22.65 -1.43284e-15
      vertex -7.7 22.65 2
      vertex -1.99291 22.65 4.60827
    endloop
  endfacet
  facet normal 0 1 0
    outer loop
      vertex -11.7 22.65 -1.43284e-15
      vertex -1.99291 22.65 4.60827
      vertex -1.98593e-15 22.65 4.34589
    endloop
  endfacet
  facet normal 0 1 0
    outer loop
      vertex -1.98593e-15 22.65 4.34589
      vertex 1.99291 22.65 4.60827
      vertex -11.7 22.65 -1.43284e-15
    endloop
  endfacet
  facet normal 0 1 0
    outer loop
      vertex 1.99291 22.65 4.60827
      vertex 7.7 22.65 2
      vertex -11.7 22.65 -1.43284e-15
    endloop
  endfacet
  facet normal 0 1 0
    outer loop
      vertex 5.44472 22.65 6.60117
      vertex 5.76836 22.65 7.02295
      vertex 7.7 22.65 7.02295
    endloop
  endfacet
  facet normal 0 1 0
    outer loop
      vertex 5.44472 22.65 6.60117
      vertex 7.7 22.65 7.02295
      vertex 3.85 22.65 5.3775
    endloop
  endfacet
  facet normal 0 1 0
    outer loop
      vertex 3.85 22.65 5.3775
      vertex 7.7 22.65 7.02295
      vertex 7.7 22.65 2
    endloop
  endfacet
  facet normal 0 1 0
    outer loop
      vertex 3.85 22.65 5.3775
      vertex 7.7 22.65 2
      vertex 1.99291 22.65 4.60827
    endloop
  endfacet
  facet normal 0 1 0
    outer loop
      vertex 7.7 22.65 2
      vertex 11.7 22.65 2
      vertex -11.7 22.65 -1.43284e-15
    endloop
  endfacet
  facet normal 0 1 0
    outer loop
      vertex -11.7 22.65 -1.43284e-15
      vertex 11.7 22.65 2
      vertex 11.7 22.65 1.43284e-15
    endloop
  endfacet
  facet normal -1 0 -1.22465e-16
    outer loop
      vertex -7.7 20.15 7.02295
      vertex -7.7 22.65 7.02295
      vertex -7.7 20.15 6.4456
    endloop
  endfacet
  facet normal -1 0 -1.22465e-16
    outer loop
      vertex -7.7 20.15 6.4456
      vertex -7.7 22.65 7.02295
      vertex -7.7 22.65 2
    endloop
  endfacet
  facet normal -1 0 -1.22465e-16
    outer loop
      vertex -7.7 20.15 6.4456
      vertex -7.7 22.65 2
      vertex -7.7 19.65 2
    endloop
  endfacet
  facet normal -1 0 -1.22465e-16
    outer loop
      vertex -7.7 20.15 6.4456
      vertex -7.7 19.65 2
      vertex -7.7 19.65 6.4456
    endloop
  endfacet
  facet normal 0 1 0
    outer loop
      vertex -8.7 19.65 2
      vertex -8.7 19.65 7.02295
      vertex -7.7 19.65 6.4456
    endloop
  endfacet
  facet normal 0 1 0
    outer loop
      vertex -8.7 19.65 2
      vertex -7.7 19.65 6.4456
      vertex -7.7 19.65 2
    endloop
  endfacet
  facet normal -1 0 -1.22465e-16
    outer loop
      vertex -8.7 13.175 3.5
      vertex -8.7 10.35 2
      vertex -8.7 13.175 6.5
    endloop
  endfacet
  facet normal -1 0 -1.22465e-16
    outer loop
      vertex -8.7 16.825 3.5
      vertex -8.7 19.65 7.02295
      vertex -8.7 19.65 2
    endloop
  endfacet
  facet normal -1 0 -1.22465e-16
    outer loop
      vertex -8.7 10.35 7.02295
      vertex -8.7 19.65 7.02295
      vertex -8.7 16.825 6.5
    endloop
  endfacet
  facet normal -1 0 -1.22465e-16
    outer loop
      vertex -8.7 10.35 7.02295
      vertex -8.7 16.825 6.5
      vertex -8.7 13.175 6.5
    endloop
  endfacet
  facet normal -1 0 -1.22465e-16
    outer loop
      vertex -8.7 10.35 7.02295
      vertex -8.7 13.175 6.5
      vertex -8.7 10.35 2
    endloop
  endfacet
  facet normal -1 0 -1.22465e-16
    outer loop
      vertex -8.7 10.35 2
      vertex -8.7 13.175 3.5
      vertex -8.7 19.65 2
    endloop
  endfacet
  facet normal -1 0 -1.22465e-16
    outer loop
      vertex -8.7 13.175 3.5
      vertex -8.7 16.825 3.5
      vertex -8.7 19.65 2
    endloop
  endfacet
  facet normal -1 0 -1.22465e-16
    outer loop
      vertex -8.7 16.825 6.5
      vertex -8.7 19.65 7.02295
      vertex -8.7 16.825 3.5
    endloop
  endfacet
  facet normal 0 -1 0
    outer loop
      vertex -7.7 10.35 6.4456
      vertex -8.7 10.35 7.02295
      vertex -7.7 10.35 2
    endloop
  endfacet
  facet normal 0 -1 0
    outer loop
      vertex -7.7 10.35 2
      vertex -8.7 10.35 7.02295
      vertex -8.7 10.35 2
    endloop
  endfacet
  facet normal -1 0 -1.22465e-16
    outer loop
      vertex -7.7 7.35 7.02295
      vertex -7.7 9.85 7.02295
      vertex -7.7 7.35 2
    endloop
  endfacet
  facet normal -1 0 -1.22465e-16
    outer loop
      vertex -7.7 7.35 2
      vertex -7.7 9.85 7.02295
      vertex -7.7 9.85 6.4456
    endloop
  endfacet
  facet normal -1 0 -1.22465e-16
    outer loop
      vertex -7.7 7.35 2
      vertex -7.7 9.85 6.4456
      vertex -7.7 10.35 6.4456
    endloop
  endfacet
  facet normal -1 0 -1.22465e-16
    outer loop
      vertex -7.7 7.35 2
      vertex -7.7 10.35 6.4456
      vertex -7.7 10.35 2
    endloop
  endfacet
  facet normal -1.22465e-16 0 1
    outer loop
      vertex -7.7 9.85 7.02295
      vertex -7.7 7.35 7.02295
      vertex -5.76836 7.35 7.02295
    endloop
  endfacet
  facet normal -1.22465e-16 0 1
    outer loop
      vertex -5.76836 9.85 7.02295
      vertex -7.7 9.85 7.02295
      vertex -5.76836 7.35 7.02295
    endloop
  endfacet
  facet normal 0.793353 3.11332e-16 0.608762
    outer loop
      vertex -5.76836 7.35 7.02295
      vertex -5.44472 7.35 6.60117
      vertex -5.44472 9.85 6.60117
    endloop
  endfacet
  facet normal 0.793353 3.11332e-16 0.608762
    outer loop
      vertex -5.76836 9.85 7.02295
      vertex -5.76836 7.35 7.02295
      vertex -5.44472 9.85 6.60117
    endloop
  endfacet
  facet normal 0.608762 3.11332e-16 0.793353
    outer loop
      vertex -5.44472 7.35 6.60117
      vertex -3.85 7.35 5.3775
      vertex -3.85 9.85 5.3775
    endloop
  endfacet
  facet normal 0.608762 3.11332e-16 0.793353
    outer loop
      vertex -5.44472 9.85 6.60117
      vertex -5.44472 7.35 6.60117
      vertex -3.85 9.85 5.3775
    endloop
  endfacet
  facet normal 0.382683 2.90115e-16 0.92388
    outer loop
      vertex -3.85 7.35 5.3775
      vertex -1.99291 7.35 4.60827
      vertex -1.99291 9.85 4.60827
    endloop
  endfacet
  facet normal 0.382683 2.90115e-16 0.92388
    outer loop
      vertex -3.85 9.85 5.3775
      vertex -3.85 7.35 5.3775
      vertex -1.99291 9.85 4.60827
    endloop
  endfacet
  facet normal 0.130526 2.49128e-16 0.991445
    outer loop
      vertex -1.99291 7.35 4.60827
      vertex 1.41135e-15 7.35 4.34589
      vertex 8.5624e-16 9.85 4.34589
    endloop
  endfacet
  facet normal 0.130526 2.49128e-16 0.991445
    outer loop
      vertex -1.99291 9.85 4.60827
      vertex -1.99291 7.35 4.60827
      vertex 8.5624e-16 9.85 4.34589
    endloop
  endfacet
  facet normal -0.130526 1.91162e-16 0.991445
    outer loop
      vertex 1.41135e-15 7.35 4.34589
      vertex 1.99291 7.35 4.60827
      vertex 1.99291 9.85 4.60827
    endloop
  endfacet
  facet normal -0.130526 1.91162e-16 0.991445
    outer loop
      vertex 8.5624e-16 9.85 4.34589
      vertex 1.41135e-15 7.35 4.34589
      vertex 1.99291 9.85 4.60827
    endloop
  endfacet
  facet normal -0.382683 1.2017e-16 0.92388
    outer loop
      vertex 1.99291 7.35 4.60827
      vertex 3.85 7.35 5.3775
      vertex 3.85 9.85 5.3775
    endloop
  endfacet
  facet normal -0.382683 1.2017e-16 0.92388
    outer loop
      vertex 1.99291 9.85 4.60827
      vertex 1.99291 7.35 4.60827
      vertex 3.85 9.85 5.3775
    endloop
  endfacet
  facet normal -0.608762 4.09875e-17 0.793353
    outer loop
      vertex 3.85 7.35 5.3775
      vertex 5.44472 7.35 6.60117
      vertex 5.44472 9.85 6.60117
    endloop
  endfacet
  facet normal -0.608762 4.09875e-17 0.793353
    outer loop
      vertex 3.85 9.85 5.3775
      vertex 3.85 7.35 5.3775
      vertex 5.44472 9.85 6.60117
    endloop
  endfacet
  facet normal -0.793353 -4.09875e-17 0.608762
    outer loop
      vertex 5.76836 7.35 7.02295
      vertex 5.76836 9.85 7.02295
      vertex 5.44472 7.35 6.60117
    endloop
  endfacet
  facet normal -0.793353 -4.09875e-17 0.608762
    outer loop
      vertex 5.44472 7.35 6.60117
      vertex 5.76836 9.85 7.02295
      vertex 5.44472 9.85 6.60117
    endloop
  endfacet
  facet normal -1.22465e-16 0 1
    outer loop
      vertex 7.7 9.85 7.02295
      vertex 5.76836 9.85 7.02295
      vertex 5.76836 7.35 7.02295
    endloop
  endfacet
  facet normal -1.22465e-16 0 1
    outer loop
      vertex 7.7 7.35 7.02295
      vertex 7.7 9.85 7.02295
      vertex 5.76836 7.35 7.02295
    endloop
  endfacet
  facet normal 1 0 1.22465e-16
    outer loop
      vertex 7.7 9.85 7.02295
      vertex 7.7 7.35 7.02295
      vertex 7.7 7.35 2
    endloop
  endfacet
  facet normal 1 0 1.22465e-16
    outer loop
      vertex 7.7 9.85 6.4456
      vertex 7.7 9.85 7.02295
      vertex 7.7 7.35 2
    endloop
  endfacet
  facet normal 1 0 1.22465e-16
    outer loop
      vertex 7.7 10.35 2
      vertex 7.7 9.85 6.4456
      vertex 7.7 7.35 2
    endloop
  endfacet
  facet normal 1 0 1.22465e-16
    outer loop
      vertex 7.7 10.35 6.4456
      vertex 7.7 9.85 6.4456
      vertex 7.7 10.35 2
    endloop
  endfacet
  facet normal -1.22465e-16 0 1
    outer loop
      vertex 7.7 10.35 2
      vertex 7.7 7.35 2
      vertex 11.7 7.35 2
    endloop
  endfacet
  facet normal -1.22465e-16 0 1
    outer loop
      vertex 8.7 10.35 2
      vertex 7.7 10.35 2
      vertex 11.7 7.35 2
    endloop
  endfacet
  facet normal -1.22465e-16 0 1
    outer loop
      vertex 7.7 22.65 2
      vertex 7.7 19.65 2
      vertex 11.7 22.65 2
    endloop
  endfacet
  facet normal -1.22465e-16 0 1
    outer loop
      vertex 7.7 19.65 2
      vertex 8.7 19.65 2
      vertex 11.7 22.65 2
    endloop
  endfacet
  facet normal -1.22465e-16 0 1
    outer loop
      vertex 11.7 22.65 2
      vertex 8.7 10.35 2
      vertex 11.7 7.35 2
    endloop
  endfacet
  facet normal -1.22465e-16 0 1
    outer loop
      vertex 8.7 19.65 2
      vertex 8.7 10.35 2
      vertex 11.7 22.65 2
    endloop
  endfacet
  facet normal 1 0 1.22465e-16
    outer loop
      vertex 11.7 22.65 2
      vertex 11.7 7.35 2
      vertex 11.7 7.35 1.43284e-15
    endloop
  endfacet
  facet normal 1 0 1.22465e-16
    outer loop
      vertex 11.7 22.65 1.43284e-15
      vertex 11.7 22.65 2
      vertex 11.7 7.35 1.43284e-15
    endloop
  endfacet
  facet normal 1 0 1.22465e-16
    outer loop
      vertex 7.7 22.65 7.02295
      vertex 7.7 20.15 7.02295
      vertex 7.7 20.15 6.4456
    endloop
  endfacet
  facet normal 1 0 1.22465e-16
    outer loop
      vertex 7.7 19.65 2
      vertex 7.7 22.65 7.02295
      vertex 7.7 20.15 6.4456
    endloop
  endfacet
  facet normal 1 0 1.22465e-16
    outer loop
      vertex 7.7 19.65 6.4456
      vertex 7.7 19.65 2
      vertex 7.7 20.15 6.4456
    endloop
  endfacet
  facet normal 1 0 1.22465e-16
    outer loop
      vertex 7.7 19.65 2
      vertex 7.7 22.65 2
      vertex 7.7 22.65 7.02295
    endloop
  endfacet
  facet normal -1.22465e-16 0 1
    outer loop
      vertex 7.7 22.65 7.02295
      vertex 5.76836 22.65 7.02295
      vertex 5.76836 20.15 7.02295
    endloop
  endfacet
  facet normal -1.22465e-16 0 1
    outer loop
      vertex 7.7 20.15 7.02295
      vertex 7.7 22.65 7.02295
      vertex 5.76836 20.15 7.02295
    endloop
  endfacet
  facet normal -0.793353 -4.09875e-17 0.608762
    outer loop
      vertex 5.76836 20.15 7.02295
      vertex 5.76836 22.65 7.02295
      vertex 5.44472 20.15 6.60117
    endloop
  endfacet
  facet normal -0.793353 -4.09875e-17 0.608762
    outer loop
      vertex 5.44472 20.15 6.60117
      vertex 5.76836 22.65 7.02295
      vertex 5.44472 22.65 6.60117
    endloop
  endfacet
  facet normal -0.608762 4.09875e-17 0.793353
    outer loop
      vertex 3.85 20.15 5.3775
      vertex 5.44472 20.15 6.60117
      vertex 5.44472 22.65 6.60117
    endloop
  endfacet
  facet normal -0.608762 4.09875e-17 0.793353
    outer loop
      vertex 3.85 22.65 5.3775
      vertex 3.85 20.15 5.3775
      vertex 5.44472 22.65 6.60117
    endloop
  endfacet
  facet normal -0.382683 1.2017e-16 0.92388
    outer loop
      vertex 1.99291 20.15 4.60827
      vertex 3.85 20.15 5.3775
      vertex 3.85 22.65 5.3775
    endloop
  endfacet
  facet normal -0.382683 1.2017e-16 0.92388
    outer loop
      vertex 1.99291 22.65 4.60827
      vertex 1.99291 20.15 4.60827
      vertex 3.85 22.65 5.3775
    endloop
  endfacet
  facet normal -0.130526 1.91162e-16 0.991445
    outer loop
      vertex -1.43082e-15 20.15 4.34589
      vertex 1.99291 20.15 4.60827
      vertex 1.99291 22.65 4.60827
    endloop
  endfacet
  facet normal -0.130526 1.91162e-16 0.991445
    outer loop
      vertex -1.98593e-15 22.65 4.34589
      vertex -1.43082e-15 20.15 4.34589
      vertex 1.99291 22.65 4.60827
    endloop
  endfacet
  facet normal 0.130526 2.49128e-16 0.991445
    outer loop
      vertex -1.99291 20.15 4.60827
      vertex -1.43082e-15 20.15 4.34589
      vertex -1.98593e-15 22.65 4.34589
    endloop
  endfacet
  facet normal 0.130526 2.49128e-16 0.991445
    outer loop
      vertex -1.99291 22.65 4.60827
      vertex -1.99291 20.15 4.60827
      vertex -1.98593e-15 22.65 4.34589
    endloop
  endfacet
  facet normal 0.382683 2.90115e-16 0.92388
    outer loop
      vertex -3.85 20.15 5.3775
      vertex -1.99291 20.15 4.60827
      vertex -1.99291 22.65 4.60827
    endloop
  endfacet
  facet normal 0.382683 2.90115e-16 0.92388
    outer loop
      vertex -3.85 22.65 5.3775
      vertex -3.85 20.15 5.3775
      vertex -1.99291 22.65 4.60827
    endloop
  endfacet
  facet normal 0.608762 3.11332e-16 0.793353
    outer loop
      vertex -5.44472 20.15 6.60117
      vertex -3.85 20.15 5.3775
      vertex -3.85 22.65 5.3775
    endloop
  endfacet
  facet normal 0.608762 3.11332e-16 0.793353
    outer loop
      vertex -5.44472 22.65 6.60117
      vertex -5.44472 20.15 6.60117
      vertex -3.85 22.65 5.3775
    endloop
  endfacet
  facet normal 0.793353 3.11332e-16 0.608762
    outer loop
      vertex -5.76836 20.15 7.02295
      vertex -5.44472 20.15 6.60117
      vertex -5.44472 22.65 6.60117
    endloop
  endfacet
  facet normal 0.793353 3.11332e-16 0.608762
    outer loop
      vertex -5.76836 22.65 7.02295
      vertex -5.76836 20.15 7.02295
      vertex -5.44472 22.65 6.60117
    endloop
  endfacet
  facet normal -1.22465e-16 0 1
    outer loop
      vertex -7.7 22.65 7.02295
      vertex -7.7 20.15 7.02295
      vertex -5.76836 20.15 7.02295
    endloop
  endfacet
  facet normal -1.22465e-16 0 1
    outer loop
      vertex -5.76836 22.65 7.02295
      vertex -7.7 22.65 7.02295
      vertex -5.76836 20.15 7.02295
    endloop
  endfacet
  facet normal 2.22045e-16 -1 2.22045e-16
    outer loop
      vertex -7.7 20.15 6.4456
      vertex -5.47502e-07 20.15 2
      vertex 5.47502e-07 20.15 2
    endloop
  endfacet
  facet normal 2.22045e-16 -1 2.22045e-16
    outer loop
      vertex -1.99291 20.15 4.60827
      vertex -7.7 20.15 6.4456
      vertex 5.47502e-07 20.15 2
    endloop
  endfacet
  facet normal 2.22045e-16 -1 2.22045e-16
    outer loop
      vertex 5.44472 20.15 6.60117
      vertex 3.85 20.15 5.3775
      vertex 7.7 20.15 6.4456
    endloop
  endfacet
  facet normal 2.22045e-16 -1 2.22045e-16
    outer loop
      vertex 7.7 20.15 7.02295
      vertex 5.44472 20.15 6.60117
      vertex 7.7 20.15 6.4456
    endloop
  endfacet
  facet normal 2.22045e-16 -1 2.22045e-16
    outer loop
      vertex 7.7 20.15 6.4456
      vertex 3.85 20.15 5.3775
      vertex 5.47502e-07 20.15 2
    endloop
  endfacet
  facet normal 2.22045e-16 -1 2.22045e-16
    outer loop
      vertex 3.85 20.15 5.3775
      vertex 1.99291 20.15 4.60827
      vertex 5.47502e-07 20.15 2
    endloop
  endfacet
  facet normal 2.22045e-16 -1 2.22045e-16
    outer loop
      vertex 1.99291 20.15 4.60827
      vertex -1.43082e-15 20.15 4.34589
      vertex 5.47502e-07 20.15 2
    endloop
  endfacet
  facet normal 2.22045e-16 -1 2.22045e-16
    outer loop
      vertex -1.43082e-15 20.15 4.34589
      vertex -1.99291 20.15 4.60827
      vertex 5.47502e-07 20.15 2
    endloop
  endfacet
  facet normal 2.22045e-16 -1 2.22045e-16
    outer loop
      vertex -3.85 20.15 5.3775
      vertex -7.7 20.15 6.4456
      vertex -1.99291 20.15 4.60827
    endloop
  endfacet
  facet normal 2.22045e-16 -1 2.22045e-16
    outer loop
      vertex -5.76836 20.15 7.02295
      vertex -7.7 20.15 6.4456
      vertex -5.44472 20.15 6.60117
    endloop
  endfacet
  facet normal 2.22045e-16 -1 2.22045e-16
    outer loop
      vertex -7.7 20.15 7.02295
      vertex -7.7 20.15 6.4456
      vertex -5.76836 20.15 7.02295
    endloop
  endfacet
  facet normal 2.22045e-16 -1 2.22045e-16
    outer loop
      vertex 5.76836 20.15 7.02295
      vertex 5.44472 20.15 6.60117
      vertex 7.7 20.15 7.02295
    endloop
  endfacet
  facet normal 2.22045e-16 -1 2.22045e-16
    outer loop
      vertex -3.85 20.15 5.3775
      vertex -5.44472 20.15 6.60117
      vertex -7.7 20.15 6.4456
    endloop
  endfacet
  facet normal 0.5 3.03319e-16 0.866025
    outer loop
      vertex -5.47502e-07 9.85 2
      vertex -7.7 10.35 6.4456
      vertex -7.7 9.85 6.4456
    endloop
  endfacet
  facet normal 0.5 3.03319e-16 0.866025
    outer loop
      vertex -5.47502e-07 20.15 2
      vertex -7.7 10.35 6.4456
      vertex -5.47502e-07 9.85 2
    endloop
  endfacet
  facet normal 0.5 3.03319e-16 0.866025
    outer loop
      vertex -8.7 10.35 7.02295
      vertex -7.7 10.35 6.4456
      vertex -5.47502e-07 20.15 2
    endloop
  endfacet
  facet normal 0.5 3.03319e-16 0.866025
    outer loop
      vertex -7.7 19.65 6.4456
      vertex -8.7 10.35 7.02295
      vertex -5.47502e-07 20.15 2
    endloop
  endfacet
  facet normal 0.5 3.03319e-16 0.866025
    outer loop
      vertex -7.7 20.15 6.4456
      vertex -7.7 19.65 6.4456
      vertex -5.47502e-07 20.15 2
    endloop
  endfacet
  facet normal 0.5 3.03319e-16 0.866025
    outer loop
      vertex -7.7 19.65 6.4456
      vertex -8.7 19.65 7.02295
      vertex -8.7 10.35 7.02295
    endloop
  endfacet
  facet normal 0 1 0
    outer loop
      vertex -9.7 16.825 5
      vertex -8.7 16.825 6.5
      vertex -8.7 16.825 3.5
    endloop
  endfacet
  facet normal -0.83205 0 0.5547
    outer loop
      vertex -9.7 13.175 5
      vertex -8.7 13.175 6.5
      vertex -9.7 16.825 5
    endloop
  endfacet
  facet normal -0.83205 0 0.5547
    outer loop
      vertex -9.7 16.825 5
      vertex -8.7 13.175 6.5
      vertex -8.7 16.825 6.5
    endloop
  endfacet
  facet normal 0 -1 0
    outer loop
      vertex -8.7 13.175 6.5
      vertex -9.7 13.175 5
      vertex -8.7 13.175 3.5
    endloop
  endfacet
  facet normal -2.22045e-16 1 -2.22045e-16
    outer loop
      vertex -5.44472 9.85 6.60117
      vertex -3.85 9.85 5.3775
      vertex 5.47502e-07 9.85 2
    endloop
  endfacet
  facet normal -2.22045e-16 1 -2.22045e-16
    outer loop
      vertex -3.85 9.85 5.3775
      vertex -1.99291 9.85 4.60827
      vertex 5.47502e-07 9.85 2
    endloop
  endfacet
  facet normal -2.22045e-16 1 -2.22045e-16
    outer loop
      vertex -1.99291 9.85 4.60827
      vertex 8.5624e-16 9.85 4.34589
      vertex 5.47502e-07 9.85 2
    endloop
  endfacet
  facet normal -2.22045e-16 1 -2.22045e-16
    outer loop
      vertex 5.47502e-07 9.85 2
      vertex 1.99291 9.85 4.60827
      vertex 7.7 9.85 6.4456
    endloop
  endfacet
  facet normal -2.22045e-16 1 -2.22045e-16
    outer loop
      vertex 7.7 9.85 6.4456
      vertex 3.85 9.85 5.3775
      vertex 7.7 9.85 7.02295
    endloop
  endfacet
  facet normal -2.22045e-16 1 -2.22045e-16
    outer loop
      vertex 7.7 9.85 7.02295
      vertex 5.44472 9.85 6.60117
      vertex 5.76836 9.85 7.02295
    endloop
  endfacet
  facet normal -2.22045e-16 1 -2.22045e-16
    outer loop
      vertex 3.85 9.85 5.3775
      vertex 5.44472 9.85 6.60117
      vertex 7.7 9.85 7.02295
    endloop
  endfacet
  facet normal -2.22045e-16 1 -2.22045e-16
    outer loop
      vertex 1.99291 9.85 4.60827
      vertex 3.85 9.85 5.3775
      vertex 7.7 9.85 6.4456
    endloop
  endfacet
  facet normal -2.22045e-16 1 -2.22045e-16
    outer loop
      vertex 8.5624e-16 9.85 4.34589
      vertex 1.99291 9.85 4.60827
      vertex 5.47502e-07 9.85 2
    endloop
  endfacet
  facet normal -2.22045e-16 1 -2.22045e-16
    outer loop
      vertex -5.44472 9.85 6.60117
      vertex 5.47502e-07 9.85 2
      vertex -5.47502e-07 9.85 2
    endloop
  endfacet
  facet normal -2.22045e-16 1 -2.22045e-16
    outer loop
      vertex -5.44472 9.85 6.60117
      vertex -5.47502e-07 9.85 2
      vertex -7.7 9.85 6.4456
    endloop
  endfacet
  facet normal -2.22045e-16 1 -2.22045e-16
    outer loop
      vertex -5.44472 9.85 6.60117
      vertex -7.7 9.85 6.4456
      vertex -5.76836 9.85 7.02295
    endloop
  endfacet
  facet normal -2.22045e-16 1 -2.22045e-16
    outer loop
      vertex -7.7 9.85 6.4456
      vertex -7.7 9.85 7.02295
      vertex -5.76836 9.85 7.02295
    endloop
  endfacet
  facet normal -0.5 8.12739e-17 0.866025
    outer loop
      vertex 8.7 19.65 7.02295
      vertex 7.7 10.35 6.4456
      vertex 8.7 10.35 7.02295
    endloop
  endfacet
  facet normal -0.5 8.12739e-17 0.866025
    outer loop
      vertex 7.7 19.65 6.4456
      vertex 7.7 10.35 6.4456
      vertex 8.7 19.65 7.02295
    endloop
  endfacet
  facet normal -0.5 8.12739e-17 0.866025
    outer loop
      vertex 7.7 9.85 6.4456
      vertex 7.7 10.35 6.4456
      vertex 5.47502e-07 20.15 2
    endloop
  endfacet
  facet normal -0.5 8.12739e-17 0.866025
    outer loop
      vertex 5.47502e-07 20.15 2
      vertex 7.7 10.35 6.4456
      vertex 7.7 19.65 6.4456
    endloop
  endfacet
  facet normal -0.5 8.12739e-17 0.866025
    outer loop
      vertex 5.47502e-07 20.15 2
      vertex 7.7 19.65 6.4456
      vertex 7.7 20.15 6.4456
    endloop
  endfacet
  facet normal -0.5 8.12739e-17 0.866025
    outer loop
      vertex 5.47502e-07 9.85 2
      vertex 7.7 9.85 6.4456
      vertex 5.47502e-07 20.15 2
    endloop
  endfacet
  facet normal 0 -1 0
    outer loop
      vertex 8.7 10.35 7.02295
      vertex 7.7 10.35 6.4456
      vertex 7.7 10.35 2
    endloop
  endfacet
  facet normal 0 -1 0
    outer loop
      vertex 8.7 10.35 2
      vertex 8.7 10.35 7.02295
      vertex 7.7 10.35 2
    endloop
  endfacet
  facet normal 1 0 1.22465e-16
    outer loop
      vertex 8.7 13.175 6.5
      vertex 8.7 10.35 7.02295
      vertex 8.7 10.35 2
    endloop
  endfacet
  facet normal 1 0 1.22465e-16
    outer loop
      vertex 8.7 19.65 7.02295
      vertex 8.7 10.35 7.02295
      vertex 8.7 13.175 6.5
    endloop
  endfacet
  facet normal 1 0 1.22465e-16
    outer loop
      vertex 8.7 16.825 6.5
      vertex 8.7 16.825 3.5
      vertex 8.7 19.65 7.02295
    endloop
  endfacet
  facet normal 1 0 1.22465e-16
    outer loop
      vertex 8.7 19.65 7.02295
      vertex 8.7 13.175 6.5
      vertex 8.7 16.825 6.5
    endloop
  endfacet
  facet normal 1 0 1.22465e-16
    outer loop
      vertex 8.7 19.65 2
      vertex 8.7 16.825 3.5
      vertex 8.7 10.35 2
    endloop
  endfacet
  facet normal 1 0 1.22465e-16
    outer loop
      vertex 8.7 19.65 2
      vertex 8.7 19.65 7.02295
      vertex 8.7 16.825 3.5
    endloop
  endfacet
  facet normal 1 0 1.22465e-16
    outer loop
      vertex 8.7 16.825 3.5
      vertex 8.7 13.175 3.5
      vertex 8.7 10.35 2
    endloop
  endfacet
  facet normal 1 0 1.22465e-16
    outer loop
      vertex 8.7 13.175 3.5
      vertex 8.7 13.175 6.5
      vertex 8.7 10.35 2
    endloop
  endfacet
  facet normal 0 1 0
    outer loop
      vertex 7.7 19.65 6.4456
      vertex 8.7 19.65 7.02295
      vertex 7.7 19.65 2
    endloop
  endfacet
  facet normal 0 1 0
    outer loop
      vertex 7.7 19.65 2
      vertex 8.7 19.65 7.02295
      vertex 8.7 19.65 2
    endloop
  endfacet
  facet normal -1.22465e-16 0 1
    outer loop
      vertex 5.47502e-07 20.15 2
      vertex -5.47502e-07 20.15 2
      vertex -5.47502e-07 9.85 2
    endloop
  endfacet
  facet normal -1.22465e-16 0 1
    outer loop
      vertex 5.47502e-07 9.85 2
      vertex 5.47502e-07 20.15 2
      vertex -5.47502e-07 9.85 2
    endloop
  endfacet
  facet normal -0.83205 0 -0.5547
    outer loop
      vertex -9.7 13.175 5
      vertex -9.7 16.825 5
      vertex -8.7 13.175 3.5
    endloop
  endfacet
  facet normal -0.83205 0 -0.5547
    outer loop
      vertex -8.7 13.175 3.5
      vertex -9.7 16.825 5
      vertex -8.7 16.825 3.5
    endloop
  endfacet
  facet normal 0 -1 0
    outer loop
      vertex 9.7 13.175 5
      vertex 8.7 13.175 6.5
      vertex 8.7 13.175 3.5
    endloop
  endfacet
  facet normal 0.83205 0 -0.5547
    outer loop
      vertex 9.7 13.175 5
      vertex 8.7 13.175 3.5
      vertex 8.7 16.825 3.5
    endloop
  endfacet
  facet normal 0.83205 0 -0.5547
    outer loop
      vertex 9.7 16.825 5
      vertex 9.7 13.175 5
      vertex 8.7 16.825 3.5
    endloop
  endfacet
  facet normal 0 1 0
    outer loop
      vertex 8.7 16.825 3.5
      vertex 8.7 16.825 6.5
      vertex 9.7 16.825 5
    endloop
  endfacet
  facet normal 0.83205 0 0.5547
    outer loop
      vertex 8.7 16.825 6.5
      vertex 8.7 13.175 6.5
      vertex 9.7 13.175 5
    endloop
  endfacet
  facet normal 0.83205 0 0.5547
    outer loop
      vertex 9.7 16.825 5
      vertex 8.7 16.825 6.5
      vertex 9.7 13.175 5
    endloop
  endfacet
endsolid OpenSCAD_Model
