solid Model
  facet normal 0 0 -1
    outer loop
      vertex -40 -60 0
      vertex -0.0144 -56.675 0
      vertex 0 -60 0
    endloop
  endfacet
  facet normal 0 0 -1
    outer loop
      vertex 0 -60 0
      vertex -0.0144 -56.675 0
      vertex 0 -56.675 0
    endloop
  endfacet
  facet normal 0 0 -1
    outer loop
      vertex -40 -60 0
      vertex -40 -55 0
      vertex -0.0144 -56.675 0
    endloop
  endfacet
  facet normal 0 0 -1
    outer loop
      vertex -0.0144 -56.675 0
      vertex -40 -55 0
      vertex -0.0144 -53.325 0
    endloop
  endfacet
  facet normal 0 0 -1
    outer loop
      vertex -40 -55 0
      vertex -0.0289 -50 0
      vertex -0.0144 -53.325 0
    endloop
  endfacet
  facet normal 0 0 -1
    outer loop
      vertex -40 -55 0
      vertex -0.0289 -47.5 0
      vertex -0.0289 -50 0
    endloop
  endfacet
  facet normal 0 0 -1
    outer loop
      vertex -40 -55 0
      vertex -40 0 0
      vertex -0.0289 -47.5 0
    endloop
  endfacet
  facet normal 0 0 -1
    outer loop
      vertex -0.0144 -53.325 0
      vertex 0 -50 0
      vertex 0 -53.325 0
    endloop
  endfacet
  facet normal 0 0 -1
    outer loop
      vertex -0.0144 -53.325 0
      vertex -0.0289 -50 0
      vertex 0 -50 0
    endloop
  endfacet
  facet normal 0 0 -1
    outer loop
      vertex -0.0289 -47.5 0
      vertex 0 47.5 0
      vertex 0 -47.5 0
    endloop
  endfacet
  facet normal 0 0 -1
    outer loop
      vertex -0.0289 -47.5 0
      vertex -40 0 0
      vertex -0.0289 47.5 0
    endloop
  endfacet
  facet normal 0 0 -1
    outer loop
      vertex -0.0289 -47.5 0
      vertex -0.0289 47.5 0
      vertex 0 47.5 0
    endloop
  endfacet
  facet normal 0 0 -1
    outer loop
      vertex -40 0 0
      vertex -40 50 0
      vertex -0.0289 47.5 0
    endloop
  endfacet
  facet normal 0 0 -1
    outer loop
      vertex -0.0289 47.5 0
      vertex -40 50 0
      vertex -0.0289 50 0
    endloop
  endfacet
  facet normal 0 -1 0
    outer loop
      vertex -40 50 0
      vertex -40 50 0
      vertex -0.0289 50 0
    endloop
  endfacet
  facet normal 0 -1 0
    outer loop
      vertex -40 50 0
      vertex -0.0029 50 0
      vertex -0.0289 50 0
    endloop
  endfacet
  facet normal 0 0 -1
    outer loop
      vertex -40 50 0
      vertex -0.0029 53.5833 0
      vertex -0.0029 50 0
    endloop
  endfacet
  facet normal -1 0 0
    outer loop
      vertex -40 50 0
      vertex -40 60 0
      vertex -40 50 0
    endloop
  endfacet
  facet normal 0 0 -1
    outer loop
      vertex -40 50 0
      vertex -0.0029 56.4167 0
      vertex -0.0029 53.5833 0
    endloop
  endfacet
  facet normal 0 0 -1
    outer loop
      vertex -40 50 0
      vertex -40 60 0
      vertex -0.0029 56.4167 0
    endloop
  endfacet
  facet normal -1 0 0
    outer loop
      vertex -40 50 0
      vertex -40 60 0
      vertex -40 60 0
    endloop
  endfacet
  facet normal 0 0 -1
    outer loop
      vertex -0.0029 53.5833 0
      vertex 0 56.4167 0
      vertex 0 53.5833 0
    endloop
  endfacet
  facet normal 0 0 -1
    outer loop
      vertex -0.0029 53.5833 0
      vertex -0.0029 56.4167 0
      vertex 0 56.4167 0
    endloop
  endfacet
  facet normal 0 0 -1
    outer loop
      vertex -0.0029 56.4167 0
      vertex -40 60 0
      vertex -0.0029 60 0
    endloop
  endfacet
  facet normal 0 1 0
    outer loop
      vertex -0.0289 60 0
      vertex -40 60 0
      vertex -40 60 0
    endloop
  endfacet
  facet normal 0 1 0
    outer loop
      vertex -40 60 0
      vertex -0.0289 60 0
      vertex -0.0029 60 0
    endloop
  endfacet
  facet normal 0 1 0
    outer loop
      vertex -0.0144 -56.675 0
      vertex 0 -56.675 5.2687
      vertex 0 -56.675 0
    endloop
  endfacet
  facet normal 0 -1 0
    outer loop
      vertex -0.0144 -53.325 0
      vertex 0 -53.325 0
      vertex 0 -53.325 5.2687
    endloop
  endfacet
  facet normal 0 -1 0
    outer loop
      vertex -0.0029 53.5833 0
      vertex 0 53.5833 0
      vertex 0 53.5833 5.2831
    endloop
  endfacet
  facet normal 0 1 0
    outer loop
      vertex -0.0029 56.4167 0
      vertex 0 56.4167 5.2831
      vertex 0 56.4167 0
    endloop
  endfacet
  facet normal 0 1 0
    outer loop
      vertex -0.0289 -50 0
      vertex -4.0703 -50 7
      vertex 0 -50 0
    endloop
  endfacet
  facet normal 0.866 0 0.5
    outer loop
      vertex -0.0289 -50 0
      vertex -0.0289 -47.5 0
      vertex -4.0703 -50 7
    endloop
  endfacet
  facet normal 0 -1 0
    outer loop
      vertex -0.0289 -47.5 0
      vertex 0 -47.5 0
      vertex 0 -47.5 7
    endloop
  endfacet
  facet normal 1 0 0
    outer loop
      vertex 0 -47.5 0
      vertex 0 47.5 0
      vertex 0 -47.5 7
    endloop
  endfacet
  facet normal -1 0 0
    outer loop
      vertex -40 0 0
      vertex -40 50 7
      vertex -40 50 0
    endloop
  endfacet
  facet normal 0 1 0
    outer loop
      vertex -0.0289 47.5 0
      vertex 0 47.5 7
      vertex 0 47.5 0
    endloop
  endfacet
  facet normal 0.866 0 0.5
    outer loop
      vertex -0.0289 47.5 0
      vertex -0.0289 50 0
      vertex -4.0703 47.5 7
    endloop
  endfacet
  facet normal 0 -1 0
    outer loop
      vertex -0.0289 50 0
      vertex -0.0029 50 0
      vertex -4.0703 50 7
    endloop
  endfacet
  facet normal -1 0 0
    outer loop
      vertex -40 50 0
      vertex -40 50 7
      vertex -40 60 0
    endloop
  endfacet
  facet normal 0 1 0
    outer loop
      vertex -40 60 0
      vertex -4.0703 60 7
      vertex -0.0289 60 0
    endloop
  endfacet
  facet normal 0 1 0
    outer loop
      vertex -0.0289 60 0
      vertex -4.0703 60 7
      vertex -0.0029 60 0
    endloop
  endfacet
  facet normal 0.866 0 0.5
    outer loop
      vertex -0.0144 -56.675 0
      vertex -0.0144 -53.325 0
      vertex -5.2972 -56.675 9.15
    endloop
  endfacet
  facet normal 0.866 0 -0.5
    outer loop
      vertex 0 -53.325 0
      vertex 0 -50 0
      vertex 5.2828 -53.325 9.15
    endloop
  endfacet
  facet normal 0.866 0 -0.5
    outer loop
      vertex 0 -60 0
      vertex 0 -56.675 0
      vertex 5.2924 -60 9.1667
    endloop
  endfacet
  facet normal 0.866 0 0.5
    outer loop
      vertex -0.0029 50 0
      vertex -0.0029 53.5833 0
      vertex -5.2953 50 9.1667
    endloop
  endfacet
  facet normal 0.866 0 -0.5
    outer loop
      vertex 0 53.5833 0
      vertex 0 56.4167 0
      vertex 5.2924 53.5833 9.1667
    endloop
  endfacet
  facet normal 0.866 0 0.5
    outer loop
      vertex -0.0029 56.4167 0
      vertex -0.0029 60 0
      vertex -5.2953 56.4167 9.1667
    endloop
  endfacet
  facet normal -1 0 0
    outer loop
      vertex -40 -60 0
      vertex -40 -55 10
      vertex -40 -55 0
    endloop
  endfacet
  facet normal -1 0 0
    outer loop
      vertex -40 -55 0
      vertex -40 -45 10
      vertex -40 0 0
    endloop
  endfacet
  facet normal 0 -1 0
    outer loop
      vertex -40 -60 0
      vertex 0 -60 0
      vertex -0.0029 -60 25
    endloop
  endfacet
  facet normal 0 1 0
    outer loop
      vertex -0.0144 -56.675 0
      vertex -0.8375 -56.675 5.2687
      vertex 0 -56.675 5.2687
    endloop
  endfacet
  facet normal 0 1 0
    outer loop
      vertex 0 -56.675 0
      vertex 0 -56.675 5.2687
      vertex 0.8375 -56.675 5.2687
    endloop
  endfacet
  facet normal 0 -1 0
    outer loop
      vertex -0.0144 -53.325 0
      vertex 0 -53.325 5.2687
      vertex -0.8375 -53.325 5.2687
    endloop
  endfacet
  facet normal 0 -1 0
    outer loop
      vertex 0 -53.325 0
      vertex 0.8375 -53.325 5.2687
      vertex 0 -53.325 5.2687
    endloop
  endfacet
  facet normal 0 1 0
    outer loop
      vertex -0.0144 -56.675 0
      vertex -5.2972 -56.675 9.15
      vertex -0.8375 -56.675 5.2687
    endloop
  endfacet
  facet normal 0 1 0
    outer loop
      vertex 0 -56.675 0
      vertex 0.8375 -56.675 5.2687
      vertex 5.2828 -56.675 9.15
    endloop
  endfacet
  facet normal 0 -1 0
    outer loop
      vertex -0.0144 -53.325 0
      vertex -0.8375 -53.325 5.2687
      vertex -5.2972 -53.325 9.15
    endloop
  endfacet
  facet normal 0 -1 0
    outer loop
      vertex 0 -53.325 0
      vertex 5.2828 -53.325 9.15
      vertex 0.8375 -53.325 5.2687
    endloop
  endfacet
  facet normal 0 -1 0
    outer loop
      vertex -0.0029 53.5833 0
      vertex 0 53.5833 5.2831
      vertex -0.8333 53.5833 5.2831
    endloop
  endfacet
  facet normal 0 -1 0
    outer loop
      vertex 0 53.5833 0
      vertex 0.8333 53.5833 5.2831
      vertex 0 53.5833 5.2831
    endloop
  endfacet
  facet normal 0 1 0
    outer loop
      vertex -0.0029 56.4167 0
      vertex -0.8333 56.4167 5.2831
      vertex 0 56.4167 5.2831
    endloop
  endfacet
  facet normal 0 1 0
    outer loop
      vertex 0 56.4167 0
      vertex 0 56.4167 5.2831
      vertex 0.8333 56.4167 5.2831
    endloop
  endfacet
  facet normal 0 -1 0
    outer loop
      vertex -0.0029 53.5833 0
      vertex -0.8333 53.5833 5.2831
      vertex -5.2953 53.5833 9.1667
    endloop
  endfacet
  facet normal 0 -1 0
    outer loop
      vertex 0 53.5833 0
      vertex 5.2924 53.5833 9.1667
      vertex 0.8333 53.5833 5.2831
    endloop
  endfacet
  facet normal 0 1 0
    outer loop
      vertex -0.0029 56.4167 0
      vertex -5.2953 56.4167 9.1667
      vertex -0.8333 56.4167 5.2831
    endloop
  endfacet
  facet normal 0 1 0
    outer loop
      vertex 0 56.4167 0
      vertex 0.8333 56.4167 5.2831
      vertex 5.2924 56.4167 9.1667
    endloop
  endfacet
  facet normal 0.866 0 0.5
    outer loop
      vertex -0.0289 -47.5 0
      vertex -4.0703 -47.5 7
      vertex -4.0703 -50 7
    endloop
  endfacet
  facet normal 0 -1 0
    outer loop
      vertex -0.0289 -47.5 0
      vertex 0 -47.5 7
      vertex -4.0703 -47.5 7
    endloop
  endfacet
  facet normal 1 0 0
    outer loop
      vertex 0 47.5 0
      vertex 0 47.5 7
      vertex 0 -47.5 7
    endloop
  endfacet
  facet normal -1 0 0
    outer loop
      vertex -40 0 0
      vertex -40 0 7
      vertex -40 50 7
    endloop
  endfacet
  facet normal 0 1 0
    outer loop
      vertex -0.0289 47.5 0
      vertex -4.0703 47.5 7
      vertex 0 47.5 7
    endloop
  endfacet
  facet normal 0.866 0 0.5
    outer loop
      vertex -0.0289 50 0
      vertex -4.0703 50 7
      vertex -4.0703 47.5 7
    endloop
  endfacet
  facet normal -1 0 0
    outer loop
      vertex -40 60 0
      vertex -40 50 7
      vertex -40 60 7
    endloop
  endfacet
  facet normal 0 1 0
    outer loop
      vertex -40 60 0
      vertex -40 60 7
      vertex -4.0703 60 7
    endloop
  endfacet
  facet normal 0 1 0
    outer loop
      vertex 0 -50 0
      vertex -4.0703 -50 7
      vertex 5.2924 -50 9.1667
    endloop
  endfacet
  facet normal 0 -1 0
    outer loop
      vertex -0.0029 50 0
      vertex -5.2953 50 9.1667
      vertex -4.0703 50 7
    endloop
  endfacet
  facet normal 0 1 0
    outer loop
      vertex -0.0029 60 0
      vertex -4.0703 60 7
      vertex -5.2953 60 9.1667
    endloop
  endfacet
  facet normal -1 0 0
    outer loop
      vertex -40 0 0
      vertex -40 -45 10
      vertex -40 0 7
    endloop
  endfacet
  facet normal 0.866 0 0.5
    outer loop
      vertex -0.0144 -53.325 0
      vertex -5.2972 -53.325 9.15
      vertex -5.2972 -56.675 9.15
    endloop
  endfacet
  facet normal 0.866 0 -0.5
    outer loop
      vertex 0 -56.675 0
      vertex 5.2828 -56.675 9.15
      vertex 5.2924 -60 9.1667
    endloop
  endfacet
  facet normal 0.866 0 -0.5
    outer loop
      vertex 0 -50 0
      vertex 5.2924 -50 9.1667
      vertex 5.2828 -53.325 9.15
    endloop
  endfacet
  facet normal 0.866 0 0.5
    outer loop
      vertex -0.0029 53.5833 0
      vertex -5.2953 53.5833 9.1667
      vertex -5.2953 50 9.1667
    endloop
  endfacet
  facet normal 0.866 0 -0.5
    outer loop
      vertex 0 56.4167 0
      vertex 5.2924 56.4167 9.1667
      vertex 5.2924 53.5833 9.1667
    endloop
  endfacet
  facet normal 0.866 0 0.5
    outer loop
      vertex -0.0029 60 0
      vertex -5.2953 60 9.1667
      vertex -5.2953 56.4167 9.1667
    endloop
  endfacet
  facet normal 0 -1 0
    outer loop
      vertex 0 -60 0
      vertex 5.2924 -60 9.1667
      vertex 5.2924 -60 15.8333
    endloop
  endfacet
  facet normal -1 0 0
    outer loop
      vertex -40 -55 0
      vertex -40 -55 10
      vertex -40 -45 10
    endloop
  endfacet
  facet normal -1 0 0
    outer loop
      vertex -40 -60 0
      vertex -40 -60 61.995
      vertex -40 -55 10
    endloop
  endfacet
  facet normal 0 -1 0
    outer loop
      vertex 0 -60 0
      vertex 5.2924 -60 15.8333
      vertex -0.0029 -60 25
    endloop
  endfacet
  facet normal 0 -1 0
    outer loop
      vertex -40 -60 0
      vertex -0.0029 -60 25
      vertex -5.2953 -60 34.1667
    endloop
  endfacet
  facet normal 0 -1 0
    outer loop
      vertex -40 -60 0
      vertex -5.2953 -60 34.1667
      vertex -40 -60 61.995
    endloop
  endfacet
  facet normal 0 0 1
    outer loop
      vertex 0 -57.0938 5.2687
      vertex 0 -56.675 5.2687
      vertex -0.8375 -56.675 5.2687
    endloop
  endfacet
  facet normal 0 0 1
    outer loop
      vertex 0 -57.0938 5.2687
      vertex 0.8375 -56.675 5.2687
      vertex 0 -56.675 5.2687
    endloop
  endfacet
  facet normal 0 0 1
    outer loop
      vertex -0.8375 -53.325 5.2687
      vertex 0 -53.325 5.2687
      vertex 0 -52.9062 5.2687
    endloop
  endfacet
  facet normal 0 0 1
    outer loop
      vertex 0 -53.325 5.2687
      vertex 0.8375 -53.325 5.2687
      vertex 0 -52.9062 5.2687
    endloop
  endfacet
  facet normal 0.4472 0.8944 0
    outer loop
      vertex 0 -57.0938 5.2687
      vertex -0.8375 -56.675 5.2687
      vertex -0.8375 -56.675 9.15
    endloop
  endfacet
  facet normal -0.4472 0.8944 0
    outer loop
      vertex 0 -57.0938 5.2687
      vertex 0.8375 -56.675 9.15
      vertex 0.8375 -56.675 5.2687
    endloop
  endfacet
  facet normal 0.4472 -0.8944 0
    outer loop
      vertex -0.8375 -53.325 5.2687
      vertex 0 -52.9062 5.2687
      vertex -0.8375 -53.325 9.15
    endloop
  endfacet
  facet normal -0.4472 -0.8944 0
    outer loop
      vertex 0.8375 -53.325 5.2687
      vertex 0.8375 -53.325 9.15
      vertex 0 -52.9062 5.2687
    endloop
  endfacet
  facet normal 0 1 0
    outer loop
      vertex -0.8375 -56.675 5.2687
      vertex -5.2972 -56.675 9.15
      vertex -0.8375 -56.675 9.15
    endloop
  endfacet
  facet normal 0 1 0
    outer loop
      vertex 0.8375 -56.675 5.2687
      vertex 0.8375 -56.675 9.15
      vertex 5.2828 -56.675 9.15
    endloop
  endfacet
  facet normal 0 -1 0
    outer loop
      vertex -0.8375 -53.325 5.2687
      vertex -0.8375 -53.325 9.15
      vertex -5.2972 -53.325 9.15
    endloop
  endfacet
  facet normal 0 -1 0
    outer loop
      vertex 0.8375 -53.325 5.2687
      vertex 5.2828 -53.325 9.15
      vertex 0.8375 -53.325 9.15
    endloop
  endfacet
  facet normal 0.4472 0.8944 0
    outer loop
      vertex 0 -57.0938 5.2687
      vertex -0.8375 -56.675 9.15
      vertex 0 -57.0938 10.2667
    endloop
  endfacet
  facet normal -0.4472 0.8944 0
    outer loop
      vertex 0 -57.0938 5.2687
      vertex 0 -57.0938 10.2667
      vertex 0.8375 -56.675 9.15
    endloop
  endfacet
  facet normal 0.4472 -0.8944 0
    outer loop
      vertex 0 -52.9062 5.2687
      vertex 0 -52.9062 10.2667
      vertex -0.8375 -53.325 9.15
    endloop
  endfacet
  facet normal -0.4472 -0.8944 0
    outer loop
      vertex 0 -52.9062 5.2687
      vertex 0.8375 -53.325 9.15
      vertex 0 -52.9062 10.2667
    endloop
  endfacet
  facet normal 0 0 -1
    outer loop
      vertex 0 53.1667 5.2831
      vertex -0.8333 53.5833 5.2831
      vertex 0 53.5833 5.2831
    endloop
  endfacet
  facet normal 0 0 -1
    outer loop
      vertex 0 53.1667 5.2831
      vertex 0 53.5833 5.2831
      vertex 0.8333 53.5833 5.2831
    endloop
  endfacet
  facet normal 0 0 -1
    outer loop
      vertex -0.8333 56.4167 5.2831
      vertex 0 56.8333 5.2831
      vertex 0 56.4167 5.2831
    endloop
  endfacet
  facet normal 0 0 -1
    outer loop
      vertex 0 56.4167 5.2831
      vertex 0 56.8333 5.2831
      vertex 0.8333 56.4167 5.2831
    endloop
  endfacet
  facet normal -0.4472 -0.8944 0
    outer loop
      vertex 0 53.1667 5.2831
      vertex -0.8333 53.5833 9.1667
      vertex -0.8333 53.5833 5.2831
    endloop
  endfacet
  facet normal 0.4472 -0.8944 0
    outer loop
      vertex 0 53.1667 5.2831
      vertex 0.8333 53.5833 5.2831
      vertex 0.8333 53.5833 9.1667
    endloop
  endfacet
  facet normal -0.4472 0.8944 0
    outer loop
      vertex -0.8333 56.4167 5.2831
      vertex -0.8333 56.4167 9.1667
      vertex 0 56.8333 5.2831
    endloop
  endfacet
  facet normal 0.4472 0.8944 0
    outer loop
      vertex 0.8333 56.4167 5.2831
      vertex 0 56.8333 5.2831
      vertex 0.8333 56.4167 9.1667
    endloop
  endfacet
  facet normal 0 -1 0
    outer loop
      vertex -0.8333 53.5833 5.2831
      vertex -0.8333 53.5833 9.1667
      vertex -5.2953 53.5833 9.1667
    endloop
  endfacet
  facet normal 0 -1 0
    outer loop
      vertex 0.8333 53.5833 5.2831
      vertex 5.2924 53.5833 9.1667
      vertex 0.8333 53.5833 9.1667
    endloop
  endfacet
  facet normal 0 1 0
    outer loop
      vertex -0.8333 56.4167 5.2831
      vertex -5.2953 56.4167 9.1667
      vertex -0.8333 56.4167 9.1667
    endloop
  endfacet
  facet normal 0 1 0
    outer loop
      vertex 0.8333 56.4167 5.2831
      vertex 0.8333 56.4167 9.1667
      vertex 5.2924 56.4167 9.1667
    endloop
  endfacet
  facet normal -0.4472 -0.8944 0
    outer loop
      vertex 0 53.1667 5.2831
      vertex 0 53.1667 10.2778
      vertex -0.8333 53.5833 9.1667
    endloop
  endfacet
  facet normal 0.4472 -0.8944 0
    outer loop
      vertex 0 53.1667 5.2831
      vertex 0.8333 53.5833 9.1667
      vertex 0 53.1667 10.2778
    endloop
  endfacet
  facet normal -0.4472 0.8944 0
    outer loop
      vertex 0 56.8333 5.2831
      vertex -0.8333 56.4167 9.1667
      vertex 0 56.8333 10.2778
    endloop
  endfacet
  facet normal 0.4472 0.8944 0
    outer loop
      vertex 0 56.8333 5.2831
      vertex 0 56.8333 10.2778
      vertex 0.8333 56.4167 9.1667
    endloop
  endfacet
  facet normal 0 0 1
    outer loop
      vertex -33 -50 7
      vertex -4.0703 -50 7
      vertex -4.0703 -47.5 7
    endloop
  endfacet
  facet normal 0 0 1
    outer loop
      vertex -33 -50 7
      vertex -4.0703 -47.5 7
      vertex -33 50 7
    endloop
  endfacet
  facet normal 0 0 1
    outer loop
      vertex -4.0703 -47.5 7
      vertex 0 -47.5 7
      vertex -4.0703 47.5 7
    endloop
  endfacet
  facet normal 0 0 1
    outer loop
      vertex 0 -47.5 7
      vertex 0 47.5 7
      vertex -4.0703 47.5 7
    endloop
  endfacet
  facet normal 0 0 1
    outer loop
      vertex -4.0703 -47.5 7
      vertex -4.0703 47.5 7
      vertex -33 50 7
    endloop
  endfacet
  facet normal 0 0 1
    outer loop
      vertex -4.0703 47.5 7
      vertex -4.0703 50 7
      vertex -33 50 7
    endloop
  endfacet
  facet normal 0 -1 0
    outer loop
      vertex -33 50 7
      vertex -4.0703 50 7
      vertex -5.2953 50 9.1667
    endloop
  endfacet
  facet normal 0 1 0
    outer loop
      vertex -40 60 7
      vertex -5.2953 60 9.1667
      vertex -4.0703 60 7
    endloop
  endfacet
  facet normal 1 0 0
    outer loop
      vertex -33 -50 7
      vertex -33 50 7
      vertex -33 -45 10
    endloop
  endfacet
  facet normal -1 0 0
    outer loop
      vertex -40 0 7
      vertex -40 45 10
      vertex -40 50 7
    endloop
  endfacet
  facet normal 0 1 0
    outer loop
      vertex -33 -50 7
      vertex -0.0029 -50 25
      vertex -4.0703 -50 7
    endloop
  endfacet
  facet normal -1 0 0
    outer loop
      vertex -40 50 7
      vertex -40 60 50
      vertex -40 60 7
    endloop
  endfacet
  facet normal 0 1 0
    outer loop
      vertex -4.0703 -50 7
      vertex 5.2924 -50 15.8333
      vertex 5.2924 -50 9.1667
    endloop
  endfacet
  facet normal 0 -1 0
    outer loop
      vertex -33 50 7
      vertex -5.2953 50 9.1667
      vertex -5.2953 50 15.8333
    endloop
  endfacet
  facet normal 0 1 0
    outer loop
      vertex -40 60 7
      vertex -5.2953 60 15.8333
      vertex -5.2953 60 9.1667
    endloop
  endfacet
  facet normal -1 0 0
    outer loop
      vertex -40 0 7
      vertex -40 -45 10
      vertex -40 45 10
    endloop
  endfacet
  facet normal 1 0 0
    outer loop
      vertex -33 50 7
      vertex -33 45 10
      vertex -33 -45 10
    endloop
  endfacet
  facet normal -1 0 0
    outer loop
      vertex -40 50 7
      vertex -40 45 10
      vertex -40 50 49.985
    endloop
  endfacet
  facet normal 1 0 0
    outer loop
      vertex -33 50 7
      vertex -33 50 49.985
      vertex -33 45 10
    endloop
  endfacet
  facet normal 1 0 0
    outer loop
      vertex -33 -50 7
      vertex -33 -45 10
      vertex -33 -45 52
    endloop
  endfacet
  facet normal 0 1 0
    outer loop
      vertex -4.0703 -50 7
      vertex -0.0029 -50 25
      vertex 5.2924 -50 15.8333
    endloop
  endfacet
  facet normal 0 -1 0
    outer loop
      vertex -33 50 7
      vertex -5.2953 50 15.8333
      vertex -33 50 49.985
    endloop
  endfacet
  facet normal 0 1 0
    outer loop
      vertex -40 60 7
      vertex -40 60 50
      vertex -5.2953 60 15.8333
    endloop
  endfacet
  facet normal 0 1 0
    outer loop
      vertex -33 -50 7
      vertex -5.2953 -50 34.1667
      vertex -0.0029 -50 25
    endloop
  endfacet
  facet normal 0 1 0
    outer loop
      vertex -33 -50 7
      vertex -33 -50 61.995
      vertex -5.2953 -50 34.1667
    endloop
  endfacet
  facet normal -1 0 0
    outer loop
      vertex -40 50 7
      vertex -40 50 49.985
      vertex -40 60 50
    endloop
  endfacet
  facet normal 1 0 0
    outer loop
      vertex -33 -50 7
      vertex -33 -45 52
      vertex -33 -50 61.995
    endloop
  endfacet
  facet normal 0 0.9363 0.3511
    outer loop
      vertex 0.8375 -56.675 9.15
      vertex 5.2924 -56.6812 9.1667
      vertex 5.2828 -56.675 9.15
    endloop
  endfacet
  facet normal 0 -0.9363 0.3511
    outer loop
      vertex 0.8375 -53.325 9.15
      vertex 5.2828 -53.325 9.15
      vertex 5.2924 -53.3188 9.1667
    endloop
  endfacet
  facet normal 0 0.9363 0.3511
    outer loop
      vertex -5.2972 -56.675 9.15
      vertex -5.2972 -57.9312 12.5
      vertex -0.8375 -56.675 9.15
    endloop
  endfacet
  facet normal 1 0 0
    outer loop
      vertex -5.2972 -56.675 9.15
      vertex -5.2972 -53.325 9.15
      vertex -5.2972 -55.4188 12.5
    endloop
  endfacet
  facet normal 0 -0.9363 0.3511
    outer loop
      vertex -5.2972 -53.325 9.15
      vertex -0.8375 -53.325 9.15
      vertex -5.2972 -52.0688 12.5
    endloop
  endfacet
  facet normal 0.866 0 -0.5
    outer loop
      vertex 5.2828 -56.675 9.15
      vertex 5.2924 -56.6812 9.1667
      vertex 5.2924 -60 9.1667
    endloop
  endfacet
  facet normal 0.866 0 -0.5
    outer loop
      vertex 5.2828 -53.325 9.15
      vertex 5.2924 -50 9.1667
      vertex 5.2924 -53.3188 9.1667
    endloop
  endfacet
  facet normal 0 0.9363 0.3511
    outer loop
      vertex 0.8375 -56.675 9.15
      vertex 5.2924 -57.9312 12.5
      vertex 5.2924 -56.6812 9.1667
    endloop
  endfacet
  facet normal 0 -0.9363 0.3511
    outer loop
      vertex 0.8375 -53.325 9.15
      vertex 5.2924 -53.3188 9.1667
      vertex 5.2924 -52.0688 12.5
    endloop
  endfacet
  facet normal 0 0.9363 0.3511
    outer loop
      vertex -0.8375 -56.675 9.15
      vertex -5.2972 -57.9312 12.5
      vertex 0 -57.0938 10.2667
    endloop
  endfacet
  facet normal 0 0.9363 0.3511
    outer loop
      vertex 0.8375 -56.675 9.15
      vertex 0 -57.0938 10.2667
      vertex 5.2924 -57.9312 12.5
    endloop
  endfacet
  facet normal 0 -0.9363 0.3511
    outer loop
      vertex -0.8375 -53.325 9.15
      vertex 0 -52.9062 10.2667
      vertex -5.2972 -52.0688 12.5
    endloop
  endfacet
  facet normal 0 -0.9363 0.3511
    outer loop
      vertex 0.8375 -53.325 9.15
      vertex 5.2924 -52.0688 12.5
      vertex 0 -52.9062 10.2667
    endloop
  endfacet
  facet normal 1 0 0
    outer loop
      vertex -5.2972 -53.325 9.15
      vertex -5.2972 -54.5812 12.5
      vertex -5.2972 -55.4188 12.5
    endloop
  endfacet
  facet normal 1 0 0
    outer loop
      vertex -5.2972 -53.325 9.15
      vertex -5.2972 -52.0688 12.5
      vertex -5.2972 -54.5812 12.5
    endloop
  endfacet
  facet normal 1 0 0
    outer loop
      vertex -5.2972 -56.675 9.15
      vertex -5.2972 -56.675 15.85
      vertex -5.2972 -57.9312 12.5
    endloop
  endfacet
  facet normal 1 0 0
    outer loop
      vertex -5.2972 -56.675 9.15
      vertex -5.2972 -55.4188 12.5
      vertex -5.2972 -56.675 15.85
    endloop
  endfacet
  facet normal 1 0 0
    outer loop
      vertex 5.2924 -60 9.1667
      vertex 5.2924 -56.6812 9.1667
      vertex 5.2924 -57.9312 12.5
    endloop
  endfacet
  facet normal 1 0 0
    outer loop
      vertex 5.2924 -53.3188 9.1667
      vertex 5.2924 -50 9.1667
      vertex 5.2924 -52.0688 12.5
    endloop
  endfacet
  facet normal 1 0 0
    outer loop
      vertex -5.2953 50 9.1667
      vertex -5.2953 53.5833 9.1667
      vertex -5.2953 52.3333 12.5
    endloop
  endfacet
  facet normal 0 -0.9363 -0.3511
    outer loop
      vertex -5.2953 53.5833 9.1667
      vertex -0.8333 53.5833 9.1667
      vertex -5.2953 52.3333 12.5
    endloop
  endfacet
  facet normal 0 -0.9363 -0.3511
    outer loop
      vertex 0.8333 53.5833 9.1667
      vertex 5.2924 53.5833 9.1667
      vertex 5.2924 52.3333 12.5
    endloop
  endfacet
  facet normal 1 0 0
    outer loop
      vertex 5.2924 53.5833 9.1667
      vertex 5.2924 56.4167 9.1667
      vertex 5.2924 54.8333 12.5
    endloop
  endfacet
  facet normal 0 0.9363 -0.3511
    outer loop
      vertex -5.2953 56.4167 9.1667
      vertex -5.2953 57.6667 12.5
      vertex -0.8333 56.4167 9.1667
    endloop
  endfacet
  facet normal 0 0.9363 -0.3511
    outer loop
      vertex 0.8333 56.4167 9.1667
      vertex 5.2924 57.6667 12.5
      vertex 5.2924 56.4167 9.1667
    endloop
  endfacet
  facet normal 1 0 0
    outer loop
      vertex -5.2953 56.4167 9.1667
      vertex -5.2953 60 9.1667
      vertex -5.2953 57.6667 12.5
    endloop
  endfacet
  facet normal 0 -0.9363 -0.3511
    outer loop
      vertex -0.8333 53.5833 9.1667
      vertex 0 53.1667 10.2778
      vertex -5.2953 52.3333 12.5
    endloop
  endfacet
  facet normal 0 -0.9363 -0.3511
    outer loop
      vertex 0.8333 53.5833 9.1667
      vertex 5.2924 52.3333 12.5
      vertex 0 53.1667 10.2778
    endloop
  endfacet
  facet normal 0 0.9363 -0.3511
    outer loop
      vertex -0.8333 56.4167 9.1667
      vertex -5.2953 57.6667 12.5
      vertex 0 56.8333 10.2778
    endloop
  endfacet
  facet normal 0 0.9363 -0.3511
    outer loop
      vertex 0.8333 56.4167 9.1667
      vertex 0 56.8333 10.2778
      vertex 5.2924 57.6667 12.5
    endloop
  endfacet
  facet normal 1 0 0
    outer loop
      vertex 5.2924 53.5833 9.1667
      vertex 5.2924 54.8333 12.5
      vertex 5.2924 52.3333 12.5
    endloop
  endfacet
  facet normal 1 0 0
    outer loop
      vertex 5.2924 56.4167 9.1667
      vertex 5.2924 55.1667 12.5
      vertex 5.2924 54.8333 12.5
    endloop
  endfacet
  facet normal 1 0 0
    outer loop
      vertex 5.2924 56.4167 9.1667
      vertex 5.2924 57.6667 12.5
      vertex 5.2924 55.1667 12.5
    endloop
  endfacet
  facet normal 1 0 0
    outer loop
      vertex 5.2924 -60 9.1667
      vertex 5.2924 -57.9312 12.5
      vertex 5.2924 -60 15.8333
    endloop
  endfacet
  facet normal 1 0 0
    outer loop
      vertex 5.2924 -50 9.1667
      vertex 5.2924 -50 15.8333
      vertex 5.2924 -52.0688 12.5
    endloop
  endfacet
  facet normal 1 0 0
    outer loop
      vertex -5.2953 50 9.1667
      vertex -5.2953 52.3333 12.5
      vertex -5.2953 50 15.8333
    endloop
  endfacet
  facet normal 1 0 0
    outer loop
      vertex -5.2953 60 9.1667
      vertex -5.2953 60 15.8333
      vertex -5.2953 57.6667 12.5
    endloop
  endfacet
  facet normal -0.866 0 0.5
    outer loop
      vertex -40 -45 10
      vertex -38 -41.5359 13.4641
      vertex -40 45 10
    endloop
  endfacet
  facet normal 0.866 0 0.5
    outer loop
      vertex -33 -45 10
      vertex -33 45 10
      vertex -35 -41.5359 13.4641
    endloop
  endfacet
  facet normal -1 0 0
    outer loop
      vertex -40 -55 10
      vertex -40 -45 52
      vertex -40 -45 10
    endloop
  endfacet
  facet normal -0.866 0 0.5
    outer loop
      vertex -40 45 10
      vertex -38 -41.5359 13.4641
      vertex -38 41.5359 13.4641
    endloop
  endfacet
  facet normal 0.866 0 0.5
    outer loop
      vertex -33 45 10
      vertex -35 41.5359 13.4641
      vertex -35 -41.5359 13.4641
    endloop
  endfacet
  facet normal -0.866 0.5 0
    outer loop
      vertex -40 -45 10
      vertex -38 -41.5359 48.5359
      vertex -38 -41.5359 13.4641
    endloop
  endfacet
  facet normal 0.866 -0.5 0
    outer loop
      vertex -33 45 10
      vertex -35 41.5359 48.5359
      vertex -35 41.5359 13.4641
    endloop
  endfacet
  facet normal 0.866 0.5 0
    outer loop
      vertex -33 -45 10
      vertex -35 -41.5359 13.4641
      vertex -33 -45 52
    endloop
  endfacet
  facet normal -0.866 -0.5 0
    outer loop
      vertex -40 45 10
      vertex -38 41.5359 13.4641
      vertex -40 45 52
    endloop
  endfacet
  facet normal -0.866 0.5 0
    outer loop
      vertex -40 -45 10
      vertex -40 -45 52
      vertex -38 -41.5359 48.5359
    endloop
  endfacet
  facet normal 0.866 -0.5 0
    outer loop
      vertex -33 45 10
      vertex -33 45 52
      vertex -35 41.5359 48.5359
    endloop
  endfacet
  facet normal -1 0 0
    outer loop
      vertex -40 45 10
      vertex -40 45 52
      vertex -40 50 49.985
    endloop
  endfacet
  facet normal 1 0 0
    outer loop
      vertex -33 45 10
      vertex -33 50 49.985
      vertex -33 45 52
    endloop
  endfacet
  facet normal -1 0 0
    outer loop
      vertex -40 -55 10
      vertex -40 -55 61.95
      vertex -40 -45 52
    endloop
  endfacet
  facet normal -1 0 0
    outer loop
      vertex -40 -55 10
      vertex -40 -60 61.995
      vertex -40 -55 61.95
    endloop
  endfacet
  facet normal 0 0.9363 0.3511
    outer loop
      vertex 0 -57.0938 10.2667
      vertex -5.2972 -57.9312 12.5
      vertex 5.2924 -57.9312 12.5
    endloop
  endfacet
  facet normal 0 -0.9363 0.3511
    outer loop
      vertex 0 -52.9062 10.2667
      vertex 5.2924 -52.0688 12.5
      vertex -5.2972 -52.0688 12.5
    endloop
  endfacet
  facet normal 0 -0.9363 -0.3511
    outer loop
      vertex 0 53.1667 10.2778
      vertex 5.2924 52.3333 12.5
      vertex -5.2953 52.3333 12.5
    endloop
  endfacet
  facet normal 0 0.9363 -0.3511
    outer loop
      vertex 0 56.8333 10.2778
      vertex -5.2953 57.6667 12.5
      vertex 5.2924 57.6667 12.5
    endloop
  endfacet
  facet normal 0 -0.9363 0.3511
    outer loop
      vertex -5.2953 52.3333 12.5
      vertex 5.2924 52.3333 12.5
      vertex 0 53.1667 14.7222
    endloop
  endfacet
  facet normal 0 0.9363 0.3511
    outer loop
      vertex -5.2953 57.6667 12.5
      vertex 0 56.8333 14.7222
      vertex 5.2924 57.6667 12.5
    endloop
  endfacet
  facet normal 0 0.9363 -0.3511
    outer loop
      vertex -5.2972 -57.9312 12.5
      vertex 0 -57.0938 14.7333
      vertex 5.2924 -57.9312 12.5
    endloop
  endfacet
  facet normal 0 -0.9363 -0.3511
    outer loop
      vertex -5.2972 -52.0688 12.5
      vertex 5.2924 -52.0688 12.5
      vertex 0 -52.9062 14.7333
    endloop
  endfacet
  facet normal 1 0 0
    outer loop
      vertex 5.2924 52.3333 12.5
      vertex 5.2924 54.8333 12.5
      vertex 5.2924 53.5833 15.8333
    endloop
  endfacet
  facet normal 1 0 0
    outer loop
      vertex 5.2924 54.8333 12.5
      vertex 5.2924 55.1667 12.5
      vertex 5.2924 56.4167 15.8333
    endloop
  endfacet
  facet normal 1 0 0
    outer loop
      vertex 5.2924 55.1667 12.5
      vertex 5.2924 57.6667 12.5
      vertex 5.2924 56.4167 15.8333
    endloop
  endfacet
  facet normal 1 0 0
    outer loop
      vertex -5.2972 -55.4188 12.5
      vertex -5.2972 -54.5812 12.5
      vertex -5.2972 -53.325 15.85
    endloop
  endfacet
  facet normal 1 0 0
    outer loop
      vertex -5.2972 -54.5812 12.5
      vertex -5.2972 -52.0688 12.5
      vertex -5.2972 -53.325 15.85
    endloop
  endfacet
  facet normal 0 -0.9363 0.3511
    outer loop
      vertex -5.2953 52.3333 12.5
      vertex 0 53.1667 14.7222
      vertex -0.8333 53.5833 15.8333
    endloop
  endfacet
  facet normal 0 -0.9363 0.3511
    outer loop
      vertex 5.2924 52.3333 12.5
      vertex 0.8333 53.5833 15.8333
      vertex 0 53.1667 14.7222
    endloop
  endfacet
  facet normal 0 0.9363 0.3511
    outer loop
      vertex -5.2953 57.6667 12.5
      vertex -0.8333 56.4167 15.8333
      vertex 0 56.8333 14.7222
    endloop
  endfacet
  facet normal 0 0.9363 0.3511
    outer loop
      vertex 5.2924 57.6667 12.5
      vertex 0 56.8333 14.7222
      vertex 0.8333 56.4167 15.8333
    endloop
  endfacet
  facet normal 0 0.9363 -0.3511
    outer loop
      vertex -5.2972 -57.9312 12.5
      vertex -0.8375 -56.675 15.85
      vertex 0 -57.0938 14.7333
    endloop
  endfacet
  facet normal 0 0.9363 -0.3511
    outer loop
      vertex 5.2924 -57.9312 12.5
      vertex 0 -57.0938 14.7333
      vertex 0.8375 -56.675 15.85
    endloop
  endfacet
  facet normal 0 -0.9363 -0.3511
    outer loop
      vertex -5.2972 -52.0688 12.5
      vertex 0 -52.9062 14.7333
      vertex -0.8375 -53.325 15.85
    endloop
  endfacet
  facet normal 0 -0.9363 -0.3511
    outer loop
      vertex 5.2924 -52.0688 12.5
      vertex 0.8375 -53.325 15.85
      vertex 0 -52.9062 14.7333
    endloop
  endfacet
  facet normal 1 0 0
    outer loop
      vertex 5.2924 -57.9312 12.5
      vertex 5.2924 -56.6812 15.8333
      vertex 5.2924 -60 15.8333
    endloop
  endfacet
  facet normal 1 0 0
    outer loop
      vertex 5.2924 -52.0688 12.5
      vertex 5.2924 -50 15.8333
      vertex 5.2924 -53.3188 15.8333
    endloop
  endfacet
  facet normal 1 0 0
    outer loop
      vertex -5.2953 52.3333 12.5
      vertex -5.2953 53.5833 15.8333
      vertex -5.2953 50 15.8333
    endloop
  endfacet
  facet normal 0 -0.9363 0.3511
    outer loop
      vertex -5.2953 52.3333 12.5
      vertex -0.8333 53.5833 15.8333
      vertex -5.2953 53.5833 15.8333
    endloop
  endfacet
  facet normal 0 -0.9363 0.3511
    outer loop
      vertex 5.2924 52.3333 12.5
      vertex 5.2924 53.5833 15.8333
      vertex 0.8333 53.5833 15.8333
    endloop
  endfacet
  facet normal 1 0 0
    outer loop
      vertex 5.2924 54.8333 12.5
      vertex 5.2924 56.4167 15.8333
      vertex 5.2924 53.5833 15.8333
    endloop
  endfacet
  facet normal 0 0.9363 0.3511
    outer loop
      vertex -5.2953 57.6667 12.5
      vertex -5.2953 56.4167 15.8333
      vertex -0.8333 56.4167 15.8333
    endloop
  endfacet
  facet normal 0 0.9363 0.3511
    outer loop
      vertex 5.2924 57.6667 12.5
      vertex 0.8333 56.4167 15.8333
      vertex 5.2924 56.4167 15.8333
    endloop
  endfacet
  facet normal 1 0 0
    outer loop
      vertex -5.2953 57.6667 12.5
      vertex -5.2953 60 15.8333
      vertex -5.2953 56.4167 15.8333
    endloop
  endfacet
  facet normal 0 0.9363 -0.3511
    outer loop
      vertex 5.2924 -57.9312 12.5
      vertex 0.8375 -56.675 15.85
      vertex 5.2924 -56.6812 15.8333
    endloop
  endfacet
  facet normal 0 -0.9363 -0.3511
    outer loop
      vertex 5.2924 -52.0688 12.5
      vertex 5.2924 -53.3188 15.8333
      vertex 0.8375 -53.325 15.85
    endloop
  endfacet
  facet normal 0 0.9363 -0.3511
    outer loop
      vertex -5.2972 -57.9312 12.5
      vertex -5.2972 -56.675 15.85
      vertex -0.8375 -56.675 15.85
    endloop
  endfacet
  facet normal 1 0 0
    outer loop
      vertex -5.2972 -55.4188 12.5
      vertex -5.2972 -53.325 15.85
      vertex -5.2972 -56.675 15.85
    endloop
  endfacet
  facet normal 0 -0.9363 -0.3511
    outer loop
      vertex -5.2972 -52.0688 12.5
      vertex -0.8375 -53.325 15.85
      vertex -5.2972 -53.325 15.85
    endloop
  endfacet
  facet normal 1 0 0
    outer loop
      vertex -35 -41.5359 13.4641
      vertex -35 41.5359 13.4641
      vertex -35 -41.5359 48.5359
    endloop
  endfacet
  facet normal -1 0 0
    outer loop
      vertex -38 -41.5359 13.4641
      vertex -38 41.5359 48.5359
      vertex -38 41.5359 13.4641
    endloop
  endfacet
  facet normal -1 0 0
    outer loop
      vertex -38 -41.5359 13.4641
      vertex -38 -41.5359 48.5359
      vertex -38 41.5359 48.5359
    endloop
  endfacet
  facet normal 1 0 0
    outer loop
      vertex -35 41.5359 13.4641
      vertex -35 41.5359 48.5359
      vertex -35 -41.5359 48.5359
    endloop
  endfacet
  facet normal 0.866 0.5 0
    outer loop
      vertex -35 -41.5359 13.4641
      vertex -35 -41.5359 48.5359
      vertex -33 -45 52
    endloop
  endfacet
  facet normal -0.866 -0.5 0
    outer loop
      vertex -38 41.5359 13.4641
      vertex -38 41.5359 48.5359
      vertex -40 45 52
    endloop
  endfacet
  facet normal -0.4472 -0.8944 0
    outer loop
      vertex 0 53.1667 14.7222
      vertex 0 53.1667 19.7169
      vertex -0.8333 53.5833 15.8333
    endloop
  endfacet
  facet normal 0.4472 -0.8944 0
    outer loop
      vertex 0 53.1667 14.7222
      vertex 0.8333 53.5833 15.8333
      vertex 0 53.1667 19.7169
    endloop
  endfacet
  facet normal -0.4472 0.8944 0
    outer loop
      vertex 0 56.8333 14.7222
      vertex -0.8333 56.4167 15.8333
      vertex 0 56.8333 19.7169
    endloop
  endfacet
  facet normal 0.4472 0.8944 0
    outer loop
      vertex 0 56.8333 14.7222
      vertex 0 56.8333 19.7169
      vertex 0.8333 56.4167 15.8333
    endloop
  endfacet
  facet normal 0.4472 0.8944 0
    outer loop
      vertex 0 -57.0938 14.7333
      vertex -0.8375 -56.675 15.85
      vertex 0 -57.0938 19.7313
    endloop
  endfacet
  facet normal -0.4472 0.8944 0
    outer loop
      vertex 0 -57.0938 14.7333
      vertex 0 -57.0938 19.7313
      vertex 0.8375 -56.675 15.85
    endloop
  endfacet
  facet normal 0.4472 -0.8944 0
    outer loop
      vertex 0 -52.9062 14.7333
      vertex 0 -52.9062 19.7313
      vertex -0.8375 -53.325 15.85
    endloop
  endfacet
  facet normal -0.4472 -0.8944 0
    outer loop
      vertex 0 -52.9062 14.7333
      vertex 0.8375 -53.325 15.85
      vertex 0 -52.9062 19.7313
    endloop
  endfacet
  facet normal 0.866 0 0.5
    outer loop
      vertex 5.2924 -60 15.8333
      vertex 5.2924 -56.6812 15.8333
      vertex 5.2828 -56.675 15.85
    endloop
  endfacet
  facet normal 0.866 0 0.5
    outer loop
      vertex 5.2924 -53.3188 15.8333
      vertex 5.2924 -50 15.8333
      vertex 5.2828 -53.325 15.85
    endloop
  endfacet
  facet normal 0 -1 0
    outer loop
      vertex -5.2953 53.5833 15.8333
      vertex -0.8333 53.5833 15.8333
      vertex -0.8333 53.5833 19.7169
    endloop
  endfacet
  facet normal 0 -1 0
    outer loop
      vertex 0.8333 53.5833 15.8333
      vertex 5.2924 53.5833 15.8333
      vertex 0.8333 53.5833 19.7169
    endloop
  endfacet
  facet normal 0 1 0
    outer loop
      vertex -5.2953 56.4167 15.8333
      vertex -0.8333 56.4167 19.7169
      vertex -0.8333 56.4167 15.8333
    endloop
  endfacet
  facet normal 0 1 0
    outer loop
      vertex 0.8333 56.4167 15.8333
      vertex 0.8333 56.4167 19.7169
      vertex 5.2924 56.4167 15.8333
    endloop
  endfacet
  facet normal 0.866 0 -0.5
    outer loop
      vertex -5.2953 50 15.8333
      vertex -5.2953 53.5833 15.8333
      vertex -0.0029 53.325 25
    endloop
  endfacet
  facet normal 0.866 0 0.5
    outer loop
      vertex 5.2924 53.5833 15.8333
      vertex 5.2924 56.4167 15.8333
      vertex 0 53.5833 25
    endloop
  endfacet
  facet normal 0.866 0 -0.5
    outer loop
      vertex -5.2953 56.4167 15.8333
      vertex -5.2953 60 15.8333
      vertex -0.0029 56.675 25
    endloop
  endfacet
  facet normal 0 0.9363 -0.3511
    outer loop
      vertex 5.2924 -56.6812 15.8333
      vertex 0.8375 -56.675 15.85
      vertex 5.2828 -56.675 15.85
    endloop
  endfacet
  facet normal 0 -0.9363 -0.3511
    outer loop
      vertex 5.2924 -53.3188 15.8333
      vertex 5.2828 -53.325 15.85
      vertex 0.8375 -53.325 15.85
    endloop
  endfacet
  facet normal 0.866 0 0.5
    outer loop
      vertex 5.2924 -60 15.8333
      vertex 5.2828 -56.675 15.85
      vertex 0 -60 25
    endloop
  endfacet
  facet normal 0.866 0 0.5
    outer loop
      vertex 5.2924 -50 15.8333
      vertex 0 -50 25
      vertex 5.2828 -53.325 15.85
    endloop
  endfacet
  facet normal -0.4472 -0.8944 0
    outer loop
      vertex -0.8333 53.5833 15.8333
      vertex 0 53.1667 19.7169
      vertex -0.8333 53.5833 19.7169
    endloop
  endfacet
  facet normal 0.4472 -0.8944 0
    outer loop
      vertex 0.8333 53.5833 15.8333
      vertex 0.8333 53.5833 19.7169
      vertex 0 53.1667 19.7169
    endloop
  endfacet
  facet normal -0.4472 0.8944 0
    outer loop
      vertex -0.8333 56.4167 15.8333
      vertex -0.8333 56.4167 19.7169
      vertex 0 56.8333 19.7169
    endloop
  endfacet
  facet normal 0.4472 0.8944 0
    outer loop
      vertex 0.8333 56.4167 15.8333
      vertex 0 56.8333 19.7169
      vertex 0.8333 56.4167 19.7169
    endloop
  endfacet
  facet normal 0 -1 0
    outer loop
      vertex -5.2953 53.5833 15.8333
      vertex -0.8333 53.5833 19.7169
      vertex -0.0029 53.5833 25
    endloop
  endfacet
  facet normal 0 -1 0
    outer loop
      vertex 5.2924 53.5833 15.8333
      vertex 0 53.5833 25
      vertex 0.8333 53.5833 19.7169
    endloop
  endfacet
  facet normal 0 1 0
    outer loop
      vertex -5.2953 56.4167 15.8333
      vertex -0.0029 56.4167 25
      vertex -0.8333 56.4167 19.7169
    endloop
  endfacet
  facet normal 0 1 0
    outer loop
      vertex 5.2924 56.4167 15.8333
      vertex 0.8333 56.4167 19.7169
      vertex 0 56.4167 25
    endloop
  endfacet
  facet normal 0 -1 0
    outer loop
      vertex 5.2924 -60 15.8333
      vertex 0 -60 25
      vertex -0.0029 -60 25
    endloop
  endfacet
  facet normal 0 1 0
    outer loop
      vertex 5.2924 -50 15.8333
      vertex -0.0029 -50 25
      vertex 0 -50 25
    endloop
  endfacet
  facet normal 0.866 0 -0.5
    outer loop
      vertex -5.2953 50 15.8333
      vertex -0.0029 53.325 25
      vertex -0.0029 50 25
    endloop
  endfacet
  facet normal 0.866 0 -0.5
    outer loop
      vertex -5.2953 53.5833 15.8333
      vertex -0.0029 53.5833 25
      vertex -0.0029 53.325 25
    endloop
  endfacet
  facet normal 0.866 0 0.5
    outer loop
      vertex 5.2924 56.4167 15.8333
      vertex 0 56.4167 25
      vertex 0 53.5833 25
    endloop
  endfacet
  facet normal 0.866 0 -0.5
    outer loop
      vertex -5.2953 56.4167 15.8333
      vertex -0.0029 56.675 25
      vertex -0.0029 56.4167 25
    endloop
  endfacet
  facet normal 0.866 0 -0.5
    outer loop
      vertex -5.2953 60 15.8333
      vertex -0.0029 60 25
      vertex -0.0029 56.675 25
    endloop
  endfacet
  facet normal 0 -1 0
    outer loop
      vertex -5.2953 50 15.8333
      vertex -0.0029 50 25
      vertex -33 50 49.985
    endloop
  endfacet
  facet normal 0 1 0
    outer loop
      vertex -5.2953 60 15.8333
      vertex -40 60 50
      vertex -0.0029 60 25
    endloop
  endfacet
  facet normal 0 1 0
    outer loop
      vertex -5.2972 -56.675 15.85
      vertex -0.8375 -56.675 19.7313
      vertex -0.8375 -56.675 15.85
    endloop
  endfacet
  facet normal 0 1 0
    outer loop
      vertex 0.8375 -56.675 15.85
      vertex 0.8375 -56.675 19.7313
      vertex 5.2828 -56.675 15.85
    endloop
  endfacet
  facet normal 0 -1 0
    outer loop
      vertex -5.2972 -53.325 15.85
      vertex -0.8375 -53.325 15.85
      vertex -0.8375 -53.325 19.7313
    endloop
  endfacet
  facet normal 0 -1 0
    outer loop
      vertex 0.8375 -53.325 15.85
      vertex 5.2828 -53.325 15.85
      vertex 0.8375 -53.325 19.7313
    endloop
  endfacet
  facet normal 0.866 0 -0.5
    outer loop
      vertex -5.2972 -56.675 15.85
      vertex -5.2972 -53.325 15.85
      vertex -0.0144 -56.675 25
    endloop
  endfacet
  facet normal 0.4472 0.8944 0
    outer loop
      vertex -0.8375 -56.675 15.85
      vertex -0.8375 -56.675 19.7313
      vertex 0 -57.0938 19.7313
    endloop
  endfacet
  facet normal -0.4472 0.8944 0
    outer loop
      vertex 0.8375 -56.675 15.85
      vertex 0 -57.0938 19.7313
      vertex 0.8375 -56.675 19.7313
    endloop
  endfacet
  facet normal 0.4472 -0.8944 0
    outer loop
      vertex -0.8375 -53.325 15.85
      vertex 0 -52.9062 19.7313
      vertex -0.8375 -53.325 19.7313
    endloop
  endfacet
  facet normal -0.4472 -0.8944 0
    outer loop
      vertex 0.8375 -53.325 15.85
      vertex 0.8375 -53.325 19.7313
      vertex 0 -52.9062 19.7313
    endloop
  endfacet
  facet normal 0 1 0
    outer loop
      vertex -5.2972 -56.675 15.85
      vertex -0.0144 -56.675 25
      vertex -0.8375 -56.675 19.7313
    endloop
  endfacet
  facet normal 0 1 0
    outer loop
      vertex 5.2828 -56.675 15.85
      vertex 0.8375 -56.675 19.7313
      vertex 0 -56.675 25
    endloop
  endfacet
  facet normal 0 -1 0
    outer loop
      vertex -5.2972 -53.325 15.85
      vertex -0.8375 -53.325 19.7313
      vertex -0.0144 -53.325 25
    endloop
  endfacet
  facet normal 0 -1 0
    outer loop
      vertex 5.2828 -53.325 15.85
      vertex 0 -53.325 25
      vertex 0.8375 -53.325 19.7313
    endloop
  endfacet
  facet normal 0.866 0 0.5
    outer loop
      vertex 5.2828 -56.675 15.85
      vertex 0 -56.675 25
      vertex 0 -60 25
    endloop
  endfacet
  facet normal 0.866 0 -0.5
    outer loop
      vertex -5.2972 -53.325 15.85
      vertex -0.0144 -53.325 25
      vertex -0.0144 -56.675 25
    endloop
  endfacet
  facet normal 0.866 0 0.5
    outer loop
      vertex 5.2828 -53.325 15.85
      vertex 0 -50 25
      vertex 0 -53.325 25
    endloop
  endfacet
  facet normal 0 0 1
    outer loop
      vertex 0 53.1667 19.7169
      vertex 0 53.5833 19.7169
      vertex -0.8333 53.5833 19.7169
    endloop
  endfacet
  facet normal 0 0 1
    outer loop
      vertex 0 53.1667 19.7169
      vertex 0.8333 53.5833 19.7169
      vertex 0 53.5833 19.7169
    endloop
  endfacet
  facet normal 0 0 1
    outer loop
      vertex -0.8333 56.4167 19.7169
      vertex 0 56.4167 19.7169
      vertex 0 56.8333 19.7169
    endloop
  endfacet
  facet normal 0 0 1
    outer loop
      vertex 0 56.4167 19.7169
      vertex 0.8333 56.4167 19.7169
      vertex 0 56.8333 19.7169
    endloop
  endfacet
  facet normal 0 -1 0
    outer loop
      vertex -0.8333 53.5833 19.7169
      vertex 0 53.5833 19.7169
      vertex -0.0029 53.5833 25
    endloop
  endfacet
  facet normal 0 -1 0
    outer loop
      vertex 0 53.5833 19.7169
      vertex 0.8333 53.5833 19.7169
      vertex 0 53.5833 25
    endloop
  endfacet
  facet normal 0 1 0
    outer loop
      vertex -0.8333 56.4167 19.7169
      vertex -0.0029 56.4167 25
      vertex 0 56.4167 19.7169
    endloop
  endfacet
  facet normal 0 1 0
    outer loop
      vertex 0 56.4167 19.7169
      vertex 0 56.4167 25
      vertex 0.8333 56.4167 19.7169
    endloop
  endfacet
  facet normal 0 -1 0
    outer loop
      vertex 0 53.5833 19.7169
      vertex 0 53.5833 25
      vertex -0.0029 53.5833 25
    endloop
  endfacet
  facet normal 0 1 0
    outer loop
      vertex 0 56.4167 19.7169
      vertex -0.0029 56.4167 25
      vertex 0 56.4167 25
    endloop
  endfacet
  facet normal 0 0 -1
    outer loop
      vertex 0 -57.0938 19.7313
      vertex -0.8375 -56.675 19.7313
      vertex 0 -56.675 19.7313
    endloop
  endfacet
  facet normal 0 0 -1
    outer loop
      vertex 0 -57.0938 19.7313
      vertex 0 -56.675 19.7313
      vertex 0.8375 -56.675 19.7313
    endloop
  endfacet
  facet normal 0 0 -1
    outer loop
      vertex -0.8375 -53.325 19.7313
      vertex 0 -52.9062 19.7313
      vertex 0 -53.325 19.7313
    endloop
  endfacet
  facet normal 0 0 -1
    outer loop
      vertex 0 -53.325 19.7313
      vertex 0 -52.9062 19.7313
      vertex 0.8375 -53.325 19.7313
    endloop
  endfacet
  facet normal 0 1 0
    outer loop
      vertex -0.8375 -56.675 19.7313
      vertex -0.0144 -56.675 25
      vertex 0 -56.675 19.7313
    endloop
  endfacet
  facet normal 0 1 0
    outer loop
      vertex 0 -56.675 19.7313
      vertex 0 -56.675 25
      vertex 0.8375 -56.675 19.7313
    endloop
  endfacet
  facet normal 0 -1 0
    outer loop
      vertex -0.8375 -53.325 19.7313
      vertex 0 -53.325 19.7313
      vertex -0.0144 -53.325 25
    endloop
  endfacet
  facet normal 0 -1 0
    outer loop
      vertex 0 -53.325 19.7313
      vertex 0.8375 -53.325 19.7313
      vertex 0 -53.325 25
    endloop
  endfacet
  facet normal 0 1 0
    outer loop
      vertex 0 -56.675 19.7313
      vertex -0.0144 -56.675 25
      vertex 0 -56.675 25
    endloop
  endfacet
  facet normal 0 -1 0
    outer loop
      vertex 0 -53.325 19.7313
      vertex 0 -53.325 25
      vertex -0.0144 -53.325 25
    endloop
  endfacet
  facet normal 0 0 1
    outer loop
      vertex -0.0029 -60 25
      vertex 0 -60 25
      vertex -0.0029 -56.675 25
    endloop
  endfacet
  facet normal 0 0 1
    outer loop
      vertex 0 -60 25
      vertex 0 -56.675 25
      vertex -0.0029 -56.675 25
    endloop
  endfacet
  facet normal 0 0 0
    outer loop
      vertex -0.0144 -56.675 25
      vertex -0.0029 -56.675 25
      vertex 0 -56.675 25
    endloop
  endfacet
  facet normal 0 0 -1
    outer loop
      vertex -0.0144 -56.675 25
      vertex -0.0029 -56.4167 25
      vertex -0.0029 -56.675 25
    endloop
  endfacet
  facet normal 0 0 -1
    outer loop
      vertex -0.0144 -56.675 25
      vertex -0.0029 -53.5833 25
      vertex -0.0029 -56.4167 25
    endloop
  endfacet
  facet normal 0 0 -1
    outer loop
      vertex -0.0144 -56.675 25
      vertex -0.0144 -53.325 25
      vertex -0.0029 -53.5833 25
    endloop
  endfacet
  facet normal 0 0 -1
    outer loop
      vertex -0.0029 -56.4167 25
      vertex 0 -53.5833 25
      vertex 0 -56.4167 25
    endloop
  endfacet
  facet normal 0 0 -1
    outer loop
      vertex -0.0029 -56.4167 25
      vertex -0.0029 -53.5833 25
      vertex 0 -53.5833 25
    endloop
  endfacet
  facet normal 0 0 -1
    outer loop
      vertex -0.0029 -53.5833 25
      vertex -0.0144 -53.325 25
      vertex -0.0029 -53.325 25
    endloop
  endfacet
  facet normal 0 0 0
    outer loop
      vertex -0.0144 -53.325 25
      vertex 0 -53.325 25
      vertex -0.0029 -53.325 25
    endloop
  endfacet
  facet normal 0 0 1
    outer loop
      vertex -0.0029 -53.325 25
      vertex 0 -53.325 25
      vertex -0.0029 -50 25
    endloop
  endfacet
  facet normal 0 0 1
    outer loop
      vertex 0 -53.325 25
      vertex 0 -50 25
      vertex -0.0029 -50 25
    endloop
  endfacet
  facet normal 0 0 -1
    outer loop
      vertex -0.0029 50 25
      vertex 0 53.325 25
      vertex 0 50 25
    endloop
  endfacet
  facet normal 0 0 -1
    outer loop
      vertex -0.0029 50 25
      vertex -0.0029 53.325 25
      vertex 0 53.325 25
    endloop
  endfacet
  facet normal 0 0 1
    outer loop
      vertex -0.0144 53.325 25
      vertex -0.0029 53.325 25
      vertex -0.0029 53.5833 25
    endloop
  endfacet
  facet normal 0 0 1
    outer loop
      vertex -0.0144 53.325 25
      vertex -0.0029 53.5833 25
      vertex -0.0144 56.675 25
    endloop
  endfacet
  facet normal 0 0 1
    outer loop
      vertex -0.0029 53.5833 25
      vertex 0 53.5833 25
      vertex -0.0029 56.4167 25
    endloop
  endfacet
  facet normal 0 0 1
    outer loop
      vertex 0 53.5833 25
      vertex 0 56.4167 25
      vertex -0.0029 56.4167 25
    endloop
  endfacet
  facet normal 0 0 1
    outer loop
      vertex -0.0029 53.5833 25
      vertex -0.0029 56.4167 25
      vertex -0.0144 56.675 25
    endloop
  endfacet
  facet normal 0 0 1
    outer loop
      vertex -0.0029 56.4167 25
      vertex -0.0029 56.675 25
      vertex -0.0144 56.675 25
    endloop
  endfacet
  facet normal 0 0 -1
    outer loop
      vertex -0.0029 56.675 25
      vertex 0 60 25
      vertex 0 56.675 25
    endloop
  endfacet
  facet normal 0 0 -1
    outer loop
      vertex -0.0029 56.675 25
      vertex -0.0029 60 25
      vertex 0 60 25
    endloop
  endfacet
  facet normal 0 1 0
    outer loop
      vertex -0.0144 53.325 25
      vertex 0 53.325 30.2687
      vertex -0.0029 53.325 25
    endloop
  endfacet
  facet normal 0 1 0
    outer loop
      vertex -0.0029 53.325 25
      vertex 0 53.325 30.2687
      vertex 0 53.325 25
    endloop
  endfacet
  facet normal 0 -1 0
    outer loop
      vertex -0.0144 56.675 25
      vertex -0.0029 56.675 25
      vertex 0 56.675 30.2687
    endloop
  endfacet
  facet normal 0 -1 0
    outer loop
      vertex -0.0029 56.675 25
      vertex 0 56.675 25
      vertex 0 56.675 30.2687
    endloop
  endfacet
  facet normal 0 -1 0
    outer loop
      vertex -0.0029 -56.4167 25
      vertex 0 -56.4167 25
      vertex 0 -56.4167 30.2831
    endloop
  endfacet
  facet normal 0 1 0
    outer loop
      vertex -0.0029 -53.5833 25
      vertex 0 -53.5833 30.2831
      vertex 0 -53.5833 25
    endloop
  endfacet
  facet normal 0.866 0 0.5
    outer loop
      vertex -0.0144 53.325 25
      vertex -0.0144 56.675 25
      vertex -5.2972 53.325 34.15
    endloop
  endfacet
  facet normal 0.866 0 -0.5
    outer loop
      vertex 0 56.675 25
      vertex 0 60 25
      vertex 5.2828 56.675 34.15
    endloop
  endfacet
  facet normal 0.866 0 0.5
    outer loop
      vertex -0.0029 -60 25
      vertex -0.0029 -56.675 25
      vertex -5.2953 -60 34.1667
    endloop
  endfacet
  facet normal 0.866 0 0.5
    outer loop
      vertex -0.0029 -56.675 25
      vertex -0.0029 -56.4167 25
      vertex -5.2953 -56.4167 34.1667
    endloop
  endfacet
  facet normal 0.866 0 -0.5
    outer loop
      vertex 0 -56.4167 25
      vertex 0 -53.5833 25
      vertex 5.2924 -56.4167 34.1667
    endloop
  endfacet
  facet normal 0.866 0 0.5
    outer loop
      vertex -0.0029 -53.5833 25
      vertex -0.0029 -53.325 25
      vertex -5.2953 -53.5833 34.1667
    endloop
  endfacet
  facet normal 0.866 0 0.5
    outer loop
      vertex -0.0029 -53.325 25
      vertex -0.0029 -50 25
      vertex -5.2953 -50 34.1667
    endloop
  endfacet
  facet normal 0 -1 0
    outer loop
      vertex -0.0029 50 25
      vertex 0 50 25
      vertex 5.2924 50 34.1667
    endloop
  endfacet
  facet normal 0.866 0 -0.5
    outer loop
      vertex 0 50 25
      vertex 0 53.325 25
      vertex 5.2924 50 34.1667
    endloop
  endfacet
  facet normal 0 1 0
    outer loop
      vertex -0.0029 60 25
      vertex 5.2924 60 34.1667
      vertex 0 60 25
    endloop
  endfacet
  facet normal 0 1 0
    outer loop
      vertex -0.0144 53.325 25
      vertex -0.8375 53.325 30.2687
      vertex 0 53.325 30.2687
    endloop
  endfacet
  facet normal 0 1 0
    outer loop
      vertex 0 53.325 25
      vertex 0 53.325 30.2687
      vertex 0.8375 53.325 30.2687
    endloop
  endfacet
  facet normal 0 -1 0
    outer loop
      vertex -0.0144 56.675 25
      vertex 0 56.675 30.2687
      vertex -0.8375 56.675 30.2687
    endloop
  endfacet
  facet normal 0 -1 0
    outer loop
      vertex 0 56.675 25
      vertex 0.8375 56.675 30.2687
      vertex 0 56.675 30.2687
    endloop
  endfacet
  facet normal 0 1 0
    outer loop
      vertex -0.0144 53.325 25
      vertex -5.2972 53.325 34.15
      vertex -0.8375 53.325 30.2687
    endloop
  endfacet
  facet normal 0 1 0
    outer loop
      vertex 0 53.325 25
      vertex 0.8375 53.325 30.2687
      vertex 5.2828 53.325 34.15
    endloop
  endfacet
  facet normal 0 -1 0
    outer loop
      vertex -0.0144 56.675 25
      vertex -0.8375 56.675 30.2687
      vertex -5.2972 56.675 34.15
    endloop
  endfacet
  facet normal 0 -1 0
    outer loop
      vertex 0 56.675 25
      vertex 5.2828 56.675 34.15
      vertex 0.8375 56.675 30.2687
    endloop
  endfacet
  facet normal 0 -1 0
    outer loop
      vertex -0.0029 -56.4167 25
      vertex 0 -56.4167 30.2831
      vertex -0.8333 -56.4167 30.2831
    endloop
  endfacet
  facet normal 0 -1 0
    outer loop
      vertex 0 -56.4167 25
      vertex 0.8333 -56.4167 30.2831
      vertex 0 -56.4167 30.2831
    endloop
  endfacet
  facet normal 0 1 0
    outer loop
      vertex -0.0029 -53.5833 25
      vertex -0.8333 -53.5833 30.2831
      vertex 0 -53.5833 30.2831
    endloop
  endfacet
  facet normal 0 1 0
    outer loop
      vertex 0 -53.5833 25
      vertex 0 -53.5833 30.2831
      vertex 0.8333 -53.5833 30.2831
    endloop
  endfacet
  facet normal 0 -1 0
    outer loop
      vertex -0.0029 -56.4167 25
      vertex -0.8333 -56.4167 30.2831
      vertex -5.2953 -56.4167 34.1667
    endloop
  endfacet
  facet normal 0 -1 0
    outer loop
      vertex 0 -56.4167 25
      vertex 5.2924 -56.4167 34.1667
      vertex 0.8333 -56.4167 30.2831
    endloop
  endfacet
  facet normal 0 1 0
    outer loop
      vertex -0.0029 -53.5833 25
      vertex -5.2953 -53.5833 34.1667
      vertex -0.8333 -53.5833 30.2831
    endloop
  endfacet
  facet normal 0 1 0
    outer loop
      vertex 0 -53.5833 25
      vertex 0.8333 -53.5833 30.2831
      vertex 5.2924 -53.5833 34.1667
    endloop
  endfacet
  facet normal 0.866 0 0.5
    outer loop
      vertex -0.0144 56.675 25
      vertex -5.2972 56.675 34.15
      vertex -5.2972 53.325 34.15
    endloop
  endfacet
  facet normal 0.866 0 -0.5
    outer loop
      vertex 0 53.325 25
      vertex 5.2828 53.325 34.15
      vertex 5.2924 50 34.1667
    endloop
  endfacet
  facet normal 0.866 0 -0.5
    outer loop
      vertex 0 60 25
      vertex 5.2924 60 34.1667
      vertex 5.2828 56.675 34.15
    endloop
  endfacet
  facet normal 0.866 0 0.5
    outer loop
      vertex -0.0029 -56.675 25
      vertex -5.2953 -56.4167 34.1667
      vertex -5.2953 -60 34.1667
    endloop
  endfacet
  facet normal 0.866 0 -0.5
    outer loop
      vertex 0 -53.5833 25
      vertex 5.2924 -53.5833 34.1667
      vertex 5.2924 -56.4167 34.1667
    endloop
  endfacet
  facet normal 0.866 0 0.5
    outer loop
      vertex -0.0029 -53.325 25
      vertex -5.2953 -50 34.1667
      vertex -5.2953 -53.5833 34.1667
    endloop
  endfacet
  facet normal 0 -1 0
    outer loop
      vertex -0.0029 50 25
      vertex 5.2924 50 34.1667
      vertex 5.2924 50 40.8333
    endloop
  endfacet
  facet normal 0 1 0
    outer loop
      vertex -0.0029 60 25
      vertex 5.2924 60 40.8333
      vertex 5.2924 60 34.1667
    endloop
  endfacet
  facet normal 0 -1 0
    outer loop
      vertex -0.0029 50 25
      vertex 5.2924 50 40.8333
      vertex 0 50 49.985
    endloop
  endfacet
  facet normal 0 1 0
    outer loop
      vertex -0.0029 60 25
      vertex 0 60 50
      vertex 5.2924 60 40.8333
    endloop
  endfacet
  facet normal 0 -1 0
    outer loop
      vertex -0.0029 50 25
      vertex 0 50 49.985
      vertex -33 50 49.985
    endloop
  endfacet
  facet normal 0 1 0
    outer loop
      vertex -0.0029 60 25
      vertex -40 60 50
      vertex 0 60 50
    endloop
  endfacet
  facet normal 0 0 1
    outer loop
      vertex 0 52.9062 30.2687
      vertex 0 53.325 30.2687
      vertex -0.8375 53.325 30.2687
    endloop
  endfacet
  facet normal 0 0 1
    outer loop
      vertex 0 52.9062 30.2687
      vertex 0.8375 53.325 30.2687
      vertex 0 53.325 30.2687
    endloop
  endfacet
  facet normal 0 0 1
    outer loop
      vertex -0.8375 56.675 30.2687
      vertex 0 56.675 30.2687
      vertex 0 57.0938 30.2687
    endloop
  endfacet
  facet normal 0 0 1
    outer loop
      vertex 0 56.675 30.2687
      vertex 0.8375 56.675 30.2687
      vertex 0 57.0938 30.2687
    endloop
  endfacet
  facet normal 0.4472 0.8944 0
    outer loop
      vertex 0 52.9062 30.2687
      vertex -0.8375 53.325 30.2687
      vertex -0.8375 53.325 34.15
    endloop
  endfacet
  facet normal -0.4472 0.8944 0
    outer loop
      vertex 0 52.9062 30.2687
      vertex 0.8375 53.325 34.15
      vertex 0.8375 53.325 30.2687
    endloop
  endfacet
  facet normal 0.4472 -0.8944 0
    outer loop
      vertex -0.8375 56.675 30.2687
      vertex 0 57.0938 30.2687
      vertex -0.8375 56.675 34.15
    endloop
  endfacet
  facet normal -0.4472 -0.8944 0
    outer loop
      vertex 0.8375 56.675 30.2687
      vertex 0.8375 56.675 34.15
      vertex 0 57.0938 30.2687
    endloop
  endfacet
  facet normal 0 1 0
    outer loop
      vertex -0.8375 53.325 30.2687
      vertex -5.2972 53.325 34.15
      vertex -0.8375 53.325 34.15
    endloop
  endfacet
  facet normal 0 1 0
    outer loop
      vertex 0.8375 53.325 30.2687
      vertex 0.8375 53.325 34.15
      vertex 5.2828 53.325 34.15
    endloop
  endfacet
  facet normal 0 -1 0
    outer loop
      vertex -0.8375 56.675 30.2687
      vertex -0.8375 56.675 34.15
      vertex -5.2972 56.675 34.15
    endloop
  endfacet
  facet normal 0 -1 0
    outer loop
      vertex 0.8375 56.675 30.2687
      vertex 5.2828 56.675 34.15
      vertex 0.8375 56.675 34.15
    endloop
  endfacet
  facet normal 0.4472 0.8944 0
    outer loop
      vertex 0 52.9062 30.2687
      vertex -0.8375 53.325 34.15
      vertex 0 52.9062 35.2667
    endloop
  endfacet
  facet normal -0.4472 0.8944 0
    outer loop
      vertex 0 52.9062 30.2687
      vertex 0 52.9062 35.2667
      vertex 0.8375 53.325 34.15
    endloop
  endfacet
  facet normal 0.4472 -0.8944 0
    outer loop
      vertex 0 57.0938 30.2687
      vertex 0 57.0938 35.2667
      vertex -0.8375 56.675 34.15
    endloop
  endfacet
  facet normal -0.4472 -0.8944 0
    outer loop
      vertex 0 57.0938 30.2687
      vertex 0.8375 56.675 34.15
      vertex 0 57.0938 35.2667
    endloop
  endfacet
  facet normal 0 0 -1
    outer loop
      vertex 0 -56.8333 30.2831
      vertex -0.8333 -56.4167 30.2831
      vertex 0 -56.4167 30.2831
    endloop
  endfacet
  facet normal 0 0 -1
    outer loop
      vertex 0 -56.8333 30.2831
      vertex 0 -56.4167 30.2831
      vertex 0.8333 -56.4167 30.2831
    endloop
  endfacet
  facet normal 0 0 -1
    outer loop
      vertex -0.8333 -53.5833 30.2831
      vertex 0 -53.1667 30.2831
      vertex 0 -53.5833 30.2831
    endloop
  endfacet
  facet normal 0 0 -1
    outer loop
      vertex 0 -53.5833 30.2831
      vertex 0 -53.1667 30.2831
      vertex 0.8333 -53.5833 30.2831
    endloop
  endfacet
  facet normal -0.4472 -0.8944 0
    outer loop
      vertex 0 -56.8333 30.2831
      vertex -0.8333 -56.4167 34.1667
      vertex -0.8333 -56.4167 30.2831
    endloop
  endfacet
  facet normal 0.4472 -0.8944 0
    outer loop
      vertex 0 -56.8333 30.2831
      vertex 0.8333 -56.4167 30.2831
      vertex 0.8333 -56.4167 34.1667
    endloop
  endfacet
  facet normal -0.4472 0.8944 0
    outer loop
      vertex -0.8333 -53.5833 30.2831
      vertex -0.8333 -53.5833 34.1667
      vertex 0 -53.1667 30.2831
    endloop
  endfacet
  facet normal 0.4472 0.8944 0
    outer loop
      vertex 0.8333 -53.5833 30.2831
      vertex 0 -53.1667 30.2831
      vertex 0.8333 -53.5833 34.1667
    endloop
  endfacet
  facet normal 0 -1 0
    outer loop
      vertex -0.8333 -56.4167 30.2831
      vertex -0.8333 -56.4167 34.1667
      vertex -5.2953 -56.4167 34.1667
    endloop
  endfacet
  facet normal 0 -1 0
    outer loop
      vertex 0.8333 -56.4167 30.2831
      vertex 5.2924 -56.4167 34.1667
      vertex 0.8333 -56.4167 34.1667
    endloop
  endfacet
  facet normal 0 1 0
    outer loop
      vertex -0.8333 -53.5833 30.2831
      vertex -5.2953 -53.5833 34.1667
      vertex -0.8333 -53.5833 34.1667
    endloop
  endfacet
  facet normal 0 1 0
    outer loop
      vertex 0.8333 -53.5833 30.2831
      vertex 0.8333 -53.5833 34.1667
      vertex 5.2924 -53.5833 34.1667
    endloop
  endfacet
  facet normal -0.4472 -0.8944 0
    outer loop
      vertex 0 -56.8333 30.2831
      vertex 0 -56.8333 35.2778
      vertex -0.8333 -56.4167 34.1667
    endloop
  endfacet
  facet normal 0.4472 -0.8944 0
    outer loop
      vertex 0 -56.8333 30.2831
      vertex 0.8333 -56.4167 34.1667
      vertex 0 -56.8333 35.2778
    endloop
  endfacet
  facet normal -0.4472 0.8944 0
    outer loop
      vertex 0 -53.1667 30.2831
      vertex -0.8333 -53.5833 34.1667
      vertex 0 -53.1667 35.2778
    endloop
  endfacet
  facet normal 0.4472 0.8944 0
    outer loop
      vertex 0 -53.1667 30.2831
      vertex 0 -53.1667 35.2778
      vertex 0.8333 -53.5833 34.1667
    endloop
  endfacet
  facet normal 0 0.9363 0.3511
    outer loop
      vertex 0.8375 53.325 34.15
      vertex 5.2924 53.3188 34.1667
      vertex 5.2828 53.325 34.15
    endloop
  endfacet
  facet normal 0 -0.9363 0.3511
    outer loop
      vertex 0.8375 56.675 34.15
      vertex 5.2828 56.675 34.15
      vertex 5.2924 56.6812 34.1667
    endloop
  endfacet
  facet normal 0 0.9363 0.3511
    outer loop
      vertex -5.2972 53.325 34.15
      vertex -5.2972 52.0688 37.5
      vertex -0.8375 53.325 34.15
    endloop
  endfacet
  facet normal 1 0 0
    outer loop
      vertex -5.2972 53.325 34.15
      vertex -5.2972 56.675 34.15
      vertex -5.2972 54.5812 37.5
    endloop
  endfacet
  facet normal 0 -0.9363 0.3511
    outer loop
      vertex -5.2972 56.675 34.15
      vertex -0.8375 56.675 34.15
      vertex -5.2972 57.9312 37.5
    endloop
  endfacet
  facet normal 0.866 0 -0.5
    outer loop
      vertex 5.2828 53.325 34.15
      vertex 5.2924 53.3188 34.1667
      vertex 5.2924 50 34.1667
    endloop
  endfacet
  facet normal 0.866 0 -0.5
    outer loop
      vertex 5.2828 56.675 34.15
      vertex 5.2924 60 34.1667
      vertex 5.2924 56.6812 34.1667
    endloop
  endfacet
  facet normal 0 0.9363 0.3511
    outer loop
      vertex 0.8375 53.325 34.15
      vertex 5.2924 52.0688 37.5
      vertex 5.2924 53.3188 34.1667
    endloop
  endfacet
  facet normal 0 -0.9363 0.3511
    outer loop
      vertex 0.8375 56.675 34.15
      vertex 5.2924 56.6812 34.1667
      vertex 5.2924 57.9312 37.5
    endloop
  endfacet
  facet normal 0 0.9363 0.3511
    outer loop
      vertex -0.8375 53.325 34.15
      vertex -5.2972 52.0688 37.5
      vertex 0 52.9062 35.2667
    endloop
  endfacet
  facet normal 0 0.9363 0.3511
    outer loop
      vertex 0.8375 53.325 34.15
      vertex 0 52.9062 35.2667
      vertex 5.2924 52.0688 37.5
    endloop
  endfacet
  facet normal 0 -0.9363 0.3511
    outer loop
      vertex -0.8375 56.675 34.15
      vertex 0 57.0938 35.2667
      vertex -5.2972 57.9312 37.5
    endloop
  endfacet
  facet normal 0 -0.9363 0.3511
    outer loop
      vertex 0.8375 56.675 34.15
      vertex 5.2924 57.9312 37.5
      vertex 0 57.0938 35.2667
    endloop
  endfacet
  facet normal 1 0 0
    outer loop
      vertex -5.2972 53.325 34.15
      vertex -5.2972 54.5812 37.5
      vertex -5.2972 52.0688 37.5
    endloop
  endfacet
  facet normal 1 0 0
    outer loop
      vertex -5.2972 56.675 34.15
      vertex -5.2972 55.4188 37.5
      vertex -5.2972 54.5812 37.5
    endloop
  endfacet
  facet normal 1 0 0
    outer loop
      vertex -5.2972 56.675 34.15
      vertex -5.2972 57.9312 37.5
      vertex -5.2972 55.4188 37.5
    endloop
  endfacet
  facet normal 1 0 0
    outer loop
      vertex -5.2953 -60 34.1667
      vertex -5.2953 -56.4167 34.1667
      vertex -5.2953 -57.6667 37.5
    endloop
  endfacet
  facet normal 0 -0.9363 -0.3511
    outer loop
      vertex -5.2953 -56.4167 34.1667
      vertex -0.8333 -56.4167 34.1667
      vertex -5.2953 -57.6667 37.5
    endloop
  endfacet
  facet normal 0 -0.9363 -0.3511
    outer loop
      vertex 0.8333 -56.4167 34.1667
      vertex 5.2924 -56.4167 34.1667
      vertex 5.2924 -57.6667 37.5
    endloop
  endfacet
  facet normal 1 0 0
    outer loop
      vertex 5.2924 -56.4167 34.1667
      vertex 5.2924 -53.5833 34.1667
      vertex 5.2924 -55.1667 37.5
    endloop
  endfacet
  facet normal 0 0.9363 -0.3511
    outer loop
      vertex -5.2953 -53.5833 34.1667
      vertex -5.2953 -52.3333 37.5
      vertex -0.8333 -53.5833 34.1667
    endloop
  endfacet
  facet normal 0 0.9363 -0.3511
    outer loop
      vertex 0.8333 -53.5833 34.1667
      vertex 5.2924 -52.3333 37.5
      vertex 5.2924 -53.5833 34.1667
    endloop
  endfacet
  facet normal 1 0 0
    outer loop
      vertex -5.2953 -53.5833 34.1667
      vertex -5.2953 -50 34.1667
      vertex -5.2953 -52.3333 37.5
    endloop
  endfacet
  facet normal 1 0 0
    outer loop
      vertex 5.2924 50 34.1667
      vertex 5.2924 53.3188 34.1667
      vertex 5.2924 52.0688 37.5
    endloop
  endfacet
  facet normal 1 0 0
    outer loop
      vertex 5.2924 56.6812 34.1667
      vertex 5.2924 60 34.1667
      vertex 5.2924 57.9312 37.5
    endloop
  endfacet
  facet normal 0 -0.9363 -0.3511
    outer loop
      vertex -0.8333 -56.4167 34.1667
      vertex 0 -56.8333 35.2778
      vertex -5.2953 -57.6667 37.5
    endloop
  endfacet
  facet normal 0 -0.9363 -0.3511
    outer loop
      vertex 0.8333 -56.4167 34.1667
      vertex 5.2924 -57.6667 37.5
      vertex 0 -56.8333 35.2778
    endloop
  endfacet
  facet normal 0 0.9363 -0.3511
    outer loop
      vertex -0.8333 -53.5833 34.1667
      vertex -5.2953 -52.3333 37.5
      vertex 0 -53.1667 35.2778
    endloop
  endfacet
  facet normal 0 0.9363 -0.3511
    outer loop
      vertex 0.8333 -53.5833 34.1667
      vertex 0 -53.1667 35.2778
      vertex 5.2924 -52.3333 37.5
    endloop
  endfacet
  facet normal 1 0 0
    outer loop
      vertex 5.2924 -56.4167 34.1667
      vertex 5.2924 -55.1667 37.5
      vertex 5.2924 -57.6667 37.5
    endloop
  endfacet
  facet normal 1 0 0
    outer loop
      vertex 5.2924 -53.5833 34.1667
      vertex 5.2924 -54.8333 37.5
      vertex 5.2924 -55.1667 37.5
    endloop
  endfacet
  facet normal 1 0 0
    outer loop
      vertex 5.2924 -53.5833 34.1667
      vertex 5.2924 -52.3333 37.5
      vertex 5.2924 -54.8333 37.5
    endloop
  endfacet
  facet normal 1 0 0
    outer loop
      vertex -5.2953 -60 34.1667
      vertex -5.2953 -57.6667 37.5
      vertex -5.2953 -60 40.8333
    endloop
  endfacet
  facet normal 1 0 0
    outer loop
      vertex -5.2953 -50 34.1667
      vertex -5.2953 -50 40.8333
      vertex -5.2953 -52.3333 37.5
    endloop
  endfacet
  facet normal 1 0 0
    outer loop
      vertex 5.2924 50 34.1667
      vertex 5.2924 52.0688 37.5
      vertex 5.2924 50 40.8333
    endloop
  endfacet
  facet normal 1 0 0
    outer loop
      vertex 5.2924 60 34.1667
      vertex 5.2924 60 40.8333
      vertex 5.2924 57.9312 37.5
    endloop
  endfacet
  facet normal 0 -1 0
    outer loop
      vertex -5.2953 -60 34.1667
      vertex -5.2953 -60 40.8333
      vertex -40 -60 61.995
    endloop
  endfacet
  facet normal 0 1 0
    outer loop
      vertex -5.2953 -50 34.1667
      vertex -33 -50 61.995
      vertex -5.2953 -50 40.8333
    endloop
  endfacet
  facet normal 0 0.9363 0.3511
    outer loop
      vertex 0 52.9062 35.2667
      vertex -5.2972 52.0688 37.5
      vertex 5.2924 52.0688 37.5
    endloop
  endfacet
  facet normal 0 -0.9363 0.3511
    outer loop
      vertex 0 57.0938 35.2667
      vertex 5.2924 57.9312 37.5
      vertex -5.2972 57.9312 37.5
    endloop
  endfacet
  facet normal 0 -0.9363 -0.3511
    outer loop
      vertex 0 -56.8333 35.2778
      vertex 5.2924 -57.6667 37.5
      vertex -5.2953 -57.6667 37.5
    endloop
  endfacet
  facet normal 0 0.9363 -0.3511
    outer loop
      vertex 0 -53.1667 35.2778
      vertex -5.2953 -52.3333 37.5
      vertex 5.2924 -52.3333 37.5
    endloop
  endfacet
  facet normal 0 -0.9363 0.3511
    outer loop
      vertex -5.2953 -57.6667 37.5
      vertex 5.2924 -57.6667 37.5
      vertex 0 -56.8333 39.7222
    endloop
  endfacet
  facet normal 0 0.9363 0.3511
    outer loop
      vertex -5.2953 -52.3333 37.5
      vertex 0 -53.1667 39.7222
      vertex 5.2924 -52.3333 37.5
    endloop
  endfacet
  facet normal 0 0.9363 -0.3511
    outer loop
      vertex -5.2972 52.0688 37.5
      vertex 0 52.9062 39.7333
      vertex 5.2924 52.0688 37.5
    endloop
  endfacet
  facet normal 0 -0.9363 -0.3511
    outer loop
      vertex -5.2972 57.9312 37.5
      vertex 5.2924 57.9312 37.5
      vertex 0 57.0938 39.7333
    endloop
  endfacet
  facet normal 1 0 0
    outer loop
      vertex 5.2924 -57.6667 37.5
      vertex 5.2924 -55.1667 37.5
      vertex 5.2924 -56.4167 40.8333
    endloop
  endfacet
  facet normal 1 0 0
    outer loop
      vertex 5.2924 -55.1667 37.5
      vertex 5.2924 -54.8333 37.5
      vertex 5.2924 -53.5833 40.8333
    endloop
  endfacet
  facet normal 1 0 0
    outer loop
      vertex 5.2924 -54.8333 37.5
      vertex 5.2924 -52.3333 37.5
      vertex 5.2924 -53.5833 40.8333
    endloop
  endfacet
  facet normal 1 0 0
    outer loop
      vertex -5.2972 52.0688 37.5
      vertex -5.2972 54.5812 37.5
      vertex -5.2972 53.325 40.85
    endloop
  endfacet
  facet normal 1 0 0
    outer loop
      vertex -5.2972 54.5812 37.5
      vertex -5.2972 55.4188 37.5
      vertex -5.2972 56.675 40.85
    endloop
  endfacet
  facet normal 1 0 0
    outer loop
      vertex -5.2972 55.4188 37.5
      vertex -5.2972 57.9312 37.5
      vertex -5.2972 56.675 40.85
    endloop
  endfacet
  facet normal 0 -0.9363 0.3511
    outer loop
      vertex -5.2953 -57.6667 37.5
      vertex 0 -56.8333 39.7222
      vertex -0.8333 -56.4167 40.8333
    endloop
  endfacet
  facet normal 0 -0.9363 0.3511
    outer loop
      vertex 5.2924 -57.6667 37.5
      vertex 0.8333 -56.4167 40.8333
      vertex 0 -56.8333 39.7222
    endloop
  endfacet
  facet normal 0 0.9363 0.3511
    outer loop
      vertex -5.2953 -52.3333 37.5
      vertex -0.8333 -53.5833 40.8333
      vertex 0 -53.1667 39.7222
    endloop
  endfacet
  facet normal 0 0.9363 0.3511
    outer loop
      vertex 5.2924 -52.3333 37.5
      vertex 0 -53.1667 39.7222
      vertex 0.8333 -53.5833 40.8333
    endloop
  endfacet
  facet normal 0 0.9363 -0.3511
    outer loop
      vertex -5.2972 52.0688 37.5
      vertex -0.8375 53.325 40.85
      vertex 0 52.9062 39.7333
    endloop
  endfacet
  facet normal 0 0.9363 -0.3511
    outer loop
      vertex 5.2924 52.0688 37.5
      vertex 0 52.9062 39.7333
      vertex 0.8375 53.325 40.85
    endloop
  endfacet
  facet normal 0 -0.9363 -0.3511
    outer loop
      vertex -5.2972 57.9312 37.5
      vertex 0 57.0938 39.7333
      vertex -0.8375 56.675 40.85
    endloop
  endfacet
  facet normal 0 -0.9363 -0.3511
    outer loop
      vertex 5.2924 57.9312 37.5
      vertex 0.8375 56.675 40.85
      vertex 0 57.0938 39.7333
    endloop
  endfacet
  facet normal 1 0 0
    outer loop
      vertex -5.2953 -57.6667 37.5
      vertex -5.2953 -56.4167 40.8333
      vertex -5.2953 -60 40.8333
    endloop
  endfacet
  facet normal 0 -0.9363 0.3511
    outer loop
      vertex -5.2953 -57.6667 37.5
      vertex -0.8333 -56.4167 40.8333
      vertex -5.2953 -56.4167 40.8333
    endloop
  endfacet
  facet normal 0 -0.9363 0.3511
    outer loop
      vertex 5.2924 -57.6667 37.5
      vertex 5.2924 -56.4167 40.8333
      vertex 0.8333 -56.4167 40.8333
    endloop
  endfacet
  facet normal 1 0 0
    outer loop
      vertex 5.2924 -55.1667 37.5
      vertex 5.2924 -53.5833 40.8333
      vertex 5.2924 -56.4167 40.8333
    endloop
  endfacet
  facet normal 0 0.9363 0.3511
    outer loop
      vertex -5.2953 -52.3333 37.5
      vertex -5.2953 -53.5833 40.8333
      vertex -0.8333 -53.5833 40.8333
    endloop
  endfacet
  facet normal 0 0.9363 0.3511
    outer loop
      vertex 5.2924 -52.3333 37.5
      vertex 0.8333 -53.5833 40.8333
      vertex 5.2924 -53.5833 40.8333
    endloop
  endfacet
  facet normal 1 0 0
    outer loop
      vertex -5.2953 -52.3333 37.5
      vertex -5.2953 -50 40.8333
      vertex -5.2953 -53.5833 40.8333
    endloop
  endfacet
  facet normal 1 0 0
    outer loop
      vertex 5.2924 52.0688 37.5
      vertex 5.2924 53.3188 40.8333
      vertex 5.2924 50 40.8333
    endloop
  endfacet
  facet normal 1 0 0
    outer loop
      vertex 5.2924 57.9312 37.5
      vertex 5.2924 60 40.8333
      vertex 5.2924 56.6812 40.8333
    endloop
  endfacet
  facet normal 0 0.9363 -0.3511
    outer loop
      vertex 5.2924 52.0688 37.5
      vertex 0.8375 53.325 40.85
      vertex 5.2924 53.3188 40.8333
    endloop
  endfacet
  facet normal 0 -0.9363 -0.3511
    outer loop
      vertex 5.2924 57.9312 37.5
      vertex 5.2924 56.6812 40.8333
      vertex 0.8375 56.675 40.85
    endloop
  endfacet
  facet normal 0 0.9363 -0.3511
    outer loop
      vertex -5.2972 52.0688 37.5
      vertex -5.2972 53.325 40.85
      vertex -0.8375 53.325 40.85
    endloop
  endfacet
  facet normal 1 0 0
    outer loop
      vertex -5.2972 54.5812 37.5
      vertex -5.2972 56.675 40.85
      vertex -5.2972 53.325 40.85
    endloop
  endfacet
  facet normal 0 -0.9363 -0.3511
    outer loop
      vertex -5.2972 57.9312 37.5
      vertex -0.8375 56.675 40.85
      vertex -5.2972 56.675 40.85
    endloop
  endfacet
  facet normal -0.4472 -0.8944 0
    outer loop
      vertex 0 -56.8333 39.7222
      vertex 0 -56.8333 44.7169
      vertex -0.8333 -56.4167 40.8333
    endloop
  endfacet
  facet normal 0.4472 -0.8944 0
    outer loop
      vertex 0 -56.8333 39.7222
      vertex 0.8333 -56.4167 40.8333
      vertex 0 -56.8333 44.7169
    endloop
  endfacet
  facet normal -0.4472 0.8944 0
    outer loop
      vertex 0 -53.1667 39.7222
      vertex -0.8333 -53.5833 40.8333
      vertex 0 -53.1667 44.7169
    endloop
  endfacet
  facet normal 0.4472 0.8944 0
    outer loop
      vertex 0 -53.1667 39.7222
      vertex 0 -53.1667 44.7169
      vertex 0.8333 -53.5833 40.8333
    endloop
  endfacet
  facet normal 0.4472 0.8944 0
    outer loop
      vertex 0 52.9062 39.7333
      vertex -0.8375 53.325 40.85
      vertex 0 52.9062 44.7313
    endloop
  endfacet
  facet normal -0.4472 0.8944 0
    outer loop
      vertex 0 52.9062 39.7333
      vertex 0 52.9062 44.7313
      vertex 0.8375 53.325 40.85
    endloop
  endfacet
  facet normal 0.4472 -0.8944 0
    outer loop
      vertex 0 57.0938 39.7333
      vertex 0 57.0938 44.7313
      vertex -0.8375 56.675 40.85
    endloop
  endfacet
  facet normal -0.4472 -0.8944 0
    outer loop
      vertex 0 57.0938 39.7333
      vertex 0.8375 56.675 40.85
      vertex 0 57.0938 44.7313
    endloop
  endfacet
  facet normal 0.866 0 0.5
    outer loop
      vertex 5.2924 50 40.8333
      vertex 5.2924 53.3188 40.8333
      vertex 5.2828 53.325 40.85
    endloop
  endfacet
  facet normal 0.866 0 0.5
    outer loop
      vertex 5.2924 56.6812 40.8333
      vertex 5.2924 60 40.8333
      vertex 5.2828 56.675 40.85
    endloop
  endfacet
  facet normal 0 -1 0
    outer loop
      vertex -5.2953 -56.4167 40.8333
      vertex -0.8333 -56.4167 40.8333
      vertex -0.8333 -56.4167 44.7169
    endloop
  endfacet
  facet normal 0 -1 0
    outer loop
      vertex 0.8333 -56.4167 40.8333
      vertex 5.2924 -56.4167 40.8333
      vertex 0.8333 -56.4167 44.7169
    endloop
  endfacet
  facet normal 0 1 0
    outer loop
      vertex -5.2953 -53.5833 40.8333
      vertex -0.8333 -53.5833 44.7169
      vertex -0.8333 -53.5833 40.8333
    endloop
  endfacet
  facet normal 0 1 0
    outer loop
      vertex 0.8333 -53.5833 40.8333
      vertex 0.8333 -53.5833 44.7169
      vertex 5.2924 -53.5833 40.8333
    endloop
  endfacet
  facet normal 0.866 0 -0.5
    outer loop
      vertex -5.2953 -60 40.8333
      vertex -5.2953 -56.4167 40.8333
      vertex -0.0115 -60 49.985
    endloop
  endfacet
  facet normal 0.866 0 -0.5
    outer loop
      vertex -5.2953 -53.5833 40.8333
      vertex -5.2953 -50 40.8333
      vertex -0.0115 -53.5833 49.985
    endloop
  endfacet
  facet normal 0.866 0 0.5
    outer loop
      vertex 5.2924 -56.4167 40.8333
      vertex 5.2924 -53.5833 40.8333
      vertex 0 -56.4167 50
    endloop
  endfacet
  facet normal 0 0.9363 -0.3511
    outer loop
      vertex 5.2924 53.3188 40.8333
      vertex 0.8375 53.325 40.85
      vertex 5.2828 53.325 40.85
    endloop
  endfacet
  facet normal 0 -0.9363 -0.3511
    outer loop
      vertex 5.2924 56.6812 40.8333
      vertex 5.2828 56.675 40.85
      vertex 0.8375 56.675 40.85
    endloop
  endfacet
  facet normal 0.866 0 0.5
    outer loop
      vertex 5.2924 50 40.8333
      vertex 5.2828 53.325 40.85
      vertex 0 50 50
    endloop
  endfacet
  facet normal 0.866 0 0.5
    outer loop
      vertex 5.2924 60 40.8333
      vertex 0 60 50
      vertex 5.2828 56.675 40.85
    endloop
  endfacet
  facet normal -0.4472 -0.8944 0
    outer loop
      vertex -0.8333 -56.4167 40.8333
      vertex 0 -56.8333 44.7169
      vertex -0.8333 -56.4167 44.7169
    endloop
  endfacet
  facet normal 0.4472 -0.8944 0
    outer loop
      vertex 0.8333 -56.4167 40.8333
      vertex 0.8333 -56.4167 44.7169
      vertex 0 -56.8333 44.7169
    endloop
  endfacet
  facet normal -0.4472 0.8944 0
    outer loop
      vertex -0.8333 -53.5833 40.8333
      vertex -0.8333 -53.5833 44.7169
      vertex 0 -53.1667 44.7169
    endloop
  endfacet
  facet normal 0.4472 0.8944 0
    outer loop
      vertex 0.8333 -53.5833 40.8333
      vertex 0 -53.1667 44.7169
      vertex 0.8333 -53.5833 44.7169
    endloop
  endfacet
  facet normal 0 -1 0
    outer loop
      vertex -5.2953 -56.4167 40.8333
      vertex -0.8333 -56.4167 44.7169
      vertex -0.0115 -56.4167 49.985
    endloop
  endfacet
  facet normal 0 1 0
    outer loop
      vertex -5.2953 -53.5833 40.8333
      vertex -0.0115 -53.5833 49.985
      vertex -0.8333 -53.5833 44.7169
    endloop
  endfacet
  facet normal 0 -1 0
    outer loop
      vertex 5.2924 -56.4167 40.8333
      vertex 0 -56.4167 50
      vertex 0.8333 -56.4167 44.7169
    endloop
  endfacet
  facet normal 0 1 0
    outer loop
      vertex 5.2924 -53.5833 40.8333
      vertex 0.8333 -53.5833 44.7169
      vertex 0 -53.5833 50
    endloop
  endfacet
  facet normal 0.866 0 -0.5
    outer loop
      vertex -5.2953 -56.4167 40.8333
      vertex -0.0115 -56.4167 49.985
      vertex -0.0115 -60 49.985
    endloop
  endfacet
  facet normal 0.866 0 -0.5
    outer loop
      vertex -5.2953 -50 40.8333
      vertex -0.0115 -50 49.985
      vertex -0.0115 -53.5833 49.985
    endloop
  endfacet
  facet normal 0 -1 0
    outer loop
      vertex 5.2924 50 40.8333
      vertex 0 50 50
      vertex 0 50 49.985
    endloop
  endfacet
  facet normal 0 -1 0
    outer loop
      vertex -5.2953 -60 40.8333
      vertex -0.0115 -60 49.985
      vertex -40 -60 61.995
    endloop
  endfacet
  facet normal 0 1 0
    outer loop
      vertex -5.2953 -50 40.8333
      vertex -33 -50 61.995
      vertex -0.0115 -50 49.985
    endloop
  endfacet
  facet normal 0.866 0 0.5
    outer loop
      vertex 5.2924 -53.5833 40.8333
      vertex 0 -53.5833 50
      vertex 0 -56.4167 50
    endloop
  endfacet
  facet normal 0 1 0
    outer loop
      vertex -5.2972 53.325 40.85
      vertex -0.8375 53.325 44.7313
      vertex -0.8375 53.325 40.85
    endloop
  endfacet
  facet normal 0 1 0
    outer loop
      vertex 0.8375 53.325 40.85
      vertex 0.8375 53.325 44.7313
      vertex 5.2828 53.325 40.85
    endloop
  endfacet
  facet normal 0 -1 0
    outer loop
      vertex -5.2972 56.675 40.85
      vertex -0.8375 56.675 40.85
      vertex -0.8375 56.675 44.7313
    endloop
  endfacet
  facet normal 0 -1 0
    outer loop
      vertex 0.8375 56.675 40.85
      vertex 5.2828 56.675 40.85
      vertex 0.8375 56.675 44.7313
    endloop
  endfacet
  facet normal 0.866 0 -0.5
    outer loop
      vertex -5.2972 53.325 40.85
      vertex -5.2972 56.675 40.85
      vertex -0.0231 53.325 49.985
    endloop
  endfacet
  facet normal 0.4472 0.8944 0
    outer loop
      vertex -0.8375 53.325 40.85
      vertex -0.8375 53.325 44.7313
      vertex 0 52.9062 44.7313
    endloop
  endfacet
  facet normal -0.4472 0.8944 0
    outer loop
      vertex 0.8375 53.325 40.85
      vertex 0 52.9062 44.7313
      vertex 0.8375 53.325 44.7313
    endloop
  endfacet
  facet normal 0.4472 -0.8944 0
    outer loop
      vertex -0.8375 56.675 40.85
      vertex 0 57.0938 44.7313
      vertex -0.8375 56.675 44.7313
    endloop
  endfacet
  facet normal -0.4472 -0.8944 0
    outer loop
      vertex 0.8375 56.675 40.85
      vertex 0.8375 56.675 44.7313
      vertex 0 57.0938 44.7313
    endloop
  endfacet
  facet normal 0 1 0
    outer loop
      vertex -5.2972 53.325 40.85
      vertex -0.0231 53.325 49.985
      vertex -0.8375 53.325 44.7313
    endloop
  endfacet
  facet normal 0 -1 0
    outer loop
      vertex -5.2972 56.675 40.85
      vertex -0.8375 56.675 44.7313
      vertex -0.0231 56.675 49.985
    endloop
  endfacet
  facet normal 0 -1 0
    outer loop
      vertex 5.2828 56.675 40.85
      vertex 0 56.675 49.985
      vertex 0.8375 56.675 44.7313
    endloop
  endfacet
  facet normal 0 1 0
    outer loop
      vertex 5.2828 53.325 40.85
      vertex 0.8375 53.325 44.7313
      vertex 0 53.325 50
    endloop
  endfacet
  facet normal 0.866 0 -0.5
    outer loop
      vertex -5.2972 56.675 40.85
      vertex -0.0231 56.675 49.985
      vertex -0.0231 53.325 49.985
    endloop
  endfacet
  facet normal 0 -1 0
    outer loop
      vertex 5.2828 56.675 40.85
      vertex 0 56.675 50
      vertex 0 56.675 49.985
    endloop
  endfacet
  facet normal 0.866 0 0.5
    outer loop
      vertex 5.2828 53.325 40.85
      vertex 0 53.325 50
      vertex 0 50 50
    endloop
  endfacet
  facet normal 0.866 0 0.5
    outer loop
      vertex 5.2828 56.675 40.85
      vertex 0 60 50
      vertex 0 56.675 50
    endloop
  endfacet
  facet normal 0 0 1
    outer loop
      vertex 0 -56.8333 44.7169
      vertex 0 -56.4167 44.7169
      vertex -0.8333 -56.4167 44.7169
    endloop
  endfacet
  facet normal 0 0 1
    outer loop
      vertex 0 -56.8333 44.7169
      vertex 0.8333 -56.4167 44.7169
      vertex 0 -56.4167 44.7169
    endloop
  endfacet
  facet normal 0 0 1
    outer loop
      vertex -0.8333 -53.5833 44.7169
      vertex 0 -53.5833 44.7169
      vertex 0 -53.1667 44.7169
    endloop
  endfacet
  facet normal 0 0 1
    outer loop
      vertex 0 -53.5833 44.7169
      vertex 0.8333 -53.5833 44.7169
      vertex 0 -53.1667 44.7169
    endloop
  endfacet
  facet normal 0 -1 0
    outer loop
      vertex -0.8333 -56.4167 44.7169
      vertex 0 -56.4167 44.7169
      vertex -0.0115 -56.4167 49.985
    endloop
  endfacet
  facet normal 0 1 0
    outer loop
      vertex -0.8333 -53.5833 44.7169
      vertex -0.0115 -53.5833 49.985
      vertex 0 -53.5833 44.7169
    endloop
  endfacet
  facet normal 0 -1 0
    outer loop
      vertex 0 -56.4167 44.7169
      vertex 0.8333 -56.4167 44.7169
      vertex 0 -56.4167 50
    endloop
  endfacet
  facet normal 0 1 0
    outer loop
      vertex 0 -53.5833 44.7169
      vertex 0 -53.5833 50
      vertex 0.8333 -53.5833 44.7169
    endloop
  endfacet
  facet normal 0 -1 0
    outer loop
      vertex 0 -56.4167 44.7169
      vertex 0 -56.4167 49.985
      vertex -0.0115 -56.4167 49.985
    endloop
  endfacet
  facet normal 0 1 0
    outer loop
      vertex 0 -53.5833 44.7169
      vertex -0.0115 -53.5833 49.985
      vertex 0 -53.5833 49.985
    endloop
  endfacet
  facet normal 1 0 0
    outer loop
      vertex 0 -56.4167 44.7169
      vertex 0 -56.4167 50
      vertex 0 -56.4167 49.985
    endloop
  endfacet
  facet normal 1 0 0
    outer loop
      vertex 0 -53.5833 44.7169
      vertex 0 -53.5833 49.985
      vertex 0 -53.5833 50
    endloop
  endfacet
  facet normal 0 0 -1
    outer loop
      vertex 0 52.9062 44.7313
      vertex -0.8375 53.325 44.7313
      vertex 0 53.325 44.7313
    endloop
  endfacet
  facet normal 0 0 -1
    outer loop
      vertex 0 52.9062 44.7313
      vertex 0 53.325 44.7313
      vertex 0.8375 53.325 44.7313
    endloop
  endfacet
  facet normal 0 0 -1
    outer loop
      vertex -0.8375 56.675 44.7313
      vertex 0 57.0938 44.7313
      vertex 0 56.675 44.7313
    endloop
  endfacet
  facet normal 0 0 -1
    outer loop
      vertex 0 56.675 44.7313
      vertex 0 57.0938 44.7313
      vertex 0.8375 56.675 44.7313
    endloop
  endfacet
  facet normal 0 1 0
    outer loop
      vertex -0.8375 53.325 44.7313
      vertex -0.0231 53.325 49.985
      vertex 0 53.325 44.7313
    endloop
  endfacet
  facet normal 0 -1 0
    outer loop
      vertex -0.8375 56.675 44.7313
      vertex 0 56.675 44.7313
      vertex -0.0231 56.675 49.985
    endloop
  endfacet
  facet normal 0 -1 0
    outer loop
      vertex 0 56.675 44.7313
      vertex 0.8375 56.675 44.7313
      vertex 0 56.675 49.985
    endloop
  endfacet
  facet normal 0 1 0
    outer loop
      vertex 0 53.325 44.7313
      vertex 0 53.325 50
      vertex 0.8375 53.325 44.7313
    endloop
  endfacet
  facet normal 0 1 0
    outer loop
      vertex 0 53.325 44.7313
      vertex -0.0231 53.325 49.985
      vertex 0 53.325 49.985
    endloop
  endfacet
  facet normal 0 -1 0
    outer loop
      vertex 0 56.675 44.7313
      vertex 0 56.675 49.985
      vertex -0.0231 56.675 49.985
    endloop
  endfacet
  facet normal 0 1 0
    outer loop
      vertex 0 53.325 44.7313
      vertex 0 53.325 49.985
      vertex 0 53.325 50
    endloop
  endfacet
  facet normal -0.866 0 -0.5
    outer loop
      vertex -38 -41.5359 48.5359
      vertex -40 45 52
      vertex -38 41.5359 48.5359
    endloop
  endfacet
  facet normal 0.866 0 -0.5
    outer loop
      vertex -35 -41.5359 48.5359
      vertex -35 41.5359 48.5359
      vertex -33 45 52
    endloop
  endfacet
  facet normal -0.866 0 -0.5
    outer loop
      vertex -38 -41.5359 48.5359
      vertex -40 -45 52
      vertex -40 45 52
    endloop
  endfacet
  facet normal 0.866 0 -0.5
    outer loop
      vertex -35 -41.5359 48.5359
      vertex -33 45 52
      vertex -33 -45 52
    endloop
  endfacet
  facet normal 0 0 -1
    outer loop
      vertex -0.0115 -60 49.985
      vertex 0 -56.4167 49.985
      vertex 0 -60 49.985
    endloop
  endfacet
  facet normal 0 0 -1
    outer loop
      vertex -0.0115 -60 49.985
      vertex -0.0115 -56.4167 49.985
      vertex 0 -56.4167 49.985
    endloop
  endfacet
  facet normal 0 0 -1
    outer loop
      vertex -0.0115 -53.5833 49.985
      vertex 0 -50 49.985
      vertex 0 -53.5833 49.985
    endloop
  endfacet
  facet normal 0 0 -1
    outer loop
      vertex -0.0115 -53.5833 49.985
      vertex -0.0115 -50 49.985
      vertex 0 -50 49.985
    endloop
  endfacet
  facet normal 0 0 -1
    outer loop
      vertex -0.0231 53.325 49.985
      vertex 0 56.675 49.985
      vertex 0 53.325 49.985
    endloop
  endfacet
  facet normal 0 0 -1
    outer loop
      vertex -0.0231 53.325 49.985
      vertex -0.0231 56.675 49.985
      vertex 0 56.675 49.985
    endloop
  endfacet
  facet normal 1 0 0
    outer loop
      vertex 0 -60 49.985
      vertex 0 -56.4167 49.985
      vertex 0 -56.4167 50
    endloop
  endfacet
  facet normal 1 0 0
    outer loop
      vertex 0 -53.5833 49.985
      vertex 0 -50 49.985
      vertex 0 -53.5833 50
    endloop
  endfacet
  facet normal 1 0 0
    outer loop
      vertex 0 53.325 49.985
      vertex 0 56.675 49.985
      vertex 0 53.325 50
    endloop
  endfacet
  facet normal 0 -1 0
    outer loop
      vertex -0.0115 -60 49.985
      vertex 0 -60 49.985
      vertex 0 -60 61.995
    endloop
  endfacet
  facet normal 0 1 0
    outer loop
      vertex -0.0115 -50 49.985
      vertex 0 -50 61.995
      vertex 0 -50 49.985
    endloop
  endfacet
  facet normal 0 -1 0
    outer loop
      vertex -33 50 49.985
      vertex 0 50 49.985
      vertex 0 50 61.995
    endloop
  endfacet
  facet normal 1 0 0
    outer loop
      vertex 0 56.675 49.985
      vertex 0 56.675 50
      vertex 0 53.325 50
    endloop
  endfacet
  facet normal 1 0 0
    outer loop
      vertex 0 -60 49.985
      vertex 0 -56.4167 50
      vertex 0 -60 61.995
    endloop
  endfacet
  facet normal 1 0 0
    outer loop
      vertex 0 -50 49.985
      vertex 0 -50 61.995
      vertex 0 -53.5833 50
    endloop
  endfacet
  facet normal 0 0 0
    outer loop
      vertex 0 50 49.985
      vertex 0 50 50
      vertex 0 50 61.995
    endloop
  endfacet
  facet normal -1 0 0
    outer loop
      vertex -40 50 49.985
      vertex -40 60 61.995
      vertex -40 60 50
    endloop
  endfacet
  facet normal -1 0 0
    outer loop
      vertex -40 50 49.985
      vertex -40 45 52
      vertex -40 50 61.995
    endloop
  endfacet
  facet normal 1 0 0
    outer loop
      vertex -33 50 49.985
      vertex -33 50 61.995
      vertex -33 45 52
    endloop
  endfacet
  facet normal 0 -1 0
    outer loop
      vertex -0.0115 -60 49.985
      vertex 0 -60 61.995
      vertex -40 -60 61.995
    endloop
  endfacet
  facet normal 0 1 0
    outer loop
      vertex -0.0115 -50 49.985
      vertex -33 -50 61.995
      vertex 0 -50 61.995
    endloop
  endfacet
  facet normal 0 -1 0
    outer loop
      vertex -33 50 49.985
      vertex 0 50 61.995
      vertex -33 50 61.995
    endloop
  endfacet
  facet normal -1 0 0
    outer loop
      vertex -40 50 49.985
      vertex -40 50 61.995
      vertex -40 60 61.995
    endloop
  endfacet
  facet normal 1 0 0
    outer loop
      vertex 0 -56.4167 50
      vertex 0 -53.5833 50
      vertex 0 -50 61.995
    endloop
  endfacet
  facet normal 1 0 0
    outer loop
      vertex 0 50 50
      vertex 0 53.325 50
      vertex 0 50 61.995
    endloop
  endfacet
  facet normal 1 0 0
    outer loop
      vertex 0 53.325 50
      vertex 0 56.675 50
      vertex 0 60 61.995
    endloop
  endfacet
  facet normal 1 0 0
    outer loop
      vertex 0 56.675 50
      vertex 0 60 50
      vertex 0 60 61.995
    endloop
  endfacet
  facet normal 0 1 0
    outer loop
      vertex -40 60 50
      vertex -40 60 61.995
      vertex 0 60 50
    endloop
  endfacet
  facet normal 1 0 0
    outer loop
      vertex 0 -56.4167 50
      vertex 0 -50 61.995
      vertex 0 -60 61.995
    endloop
  endfacet
  facet normal 1 0 0
    outer loop
      vertex 0 53.325 50
      vertex 0 60 61.995
      vertex 0 50 61.995
    endloop
  endfacet
  facet normal 0 1 0
    outer loop
      vertex 0 60 50
      vertex -40 60 61.995
      vertex 0 60 61.995
    endloop
  endfacet
  facet normal -1 0 0
    outer loop
      vertex -40 -45 52
      vertex -40 50 61.995
      vertex -40 45 52
    endloop
  endfacet
  facet normal 1 0 0
    outer loop
      vertex -33 -45 52
      vertex -33 45 52
      vertex -33 50 61.995
    endloop
  endfacet
  facet normal -1 0 0
    outer loop
      vertex -40 -45 52
      vertex -40 -55 61.95
      vertex -40 -55 62
    endloop
  endfacet
  facet normal 1 0 0
    outer loop
      vertex -33 -45 52
      vertex -33 50 61.995
      vertex -33 -50 61.995
    endloop
  endfacet
  facet normal -1 0 0
    outer loop
      vertex -40 -45 52
      vertex -40 -55 62
      vertex -40 50 61.995
    endloop
  endfacet
  facet normal -1 0 0
    outer loop
      vertex -40 -55 61.95
      vertex -40 -60 61.995
      vertex -40 -55 61.995
    endloop
  endfacet
  facet normal 0 0 0
    outer loop
      vertex -40 -55 61.95
      vertex -40 -55 61.995
      vertex -40 -55 62
    endloop
  endfacet
  facet normal 0 0 1
    outer loop
      vertex -40 -60 61.995
      vertex 0 -60 61.995
      vertex -33 -55 61.995
    endloop
  endfacet
  facet normal 0 0 1
    outer loop
      vertex -40 -60 61.995
      vertex -33 -55 61.995
      vertex -40 -55 61.995
    endloop
  endfacet
  facet normal 0 0 1
    outer loop
      vertex 0 -60 61.995
      vertex 0 -50 61.995
      vertex -33 -55 61.995
    endloop
  endfacet
  facet normal 0 0 1
    outer loop
      vertex -33 -55 61.995
      vertex 0 -50 61.995
      vertex -33 -50 61.995
    endloop
  endfacet
  facet normal 0 0 1
    outer loop
      vertex -33 50 61.995
      vertex 0 50 61.995
      vertex -33 55 61.995
    endloop
  endfacet
  facet normal 0 0 0
    outer loop
      vertex -40 50 61.995
      vertex -40 55 61.995
      vertex -40 60 61.995
    endloop
  endfacet
  facet normal 0 0 1
    outer loop
      vertex 0 50 61.995
      vertex 0 60 61.995
      vertex -33 55 61.995
    endloop
  endfacet
  facet normal 0 0 1
    outer loop
      vertex -40 55 61.995
      vertex -33 55 61.995
      vertex -40 60 61.995
    endloop
  endfacet
  facet normal 0 0 1
    outer loop
      vertex -33 55 61.995
      vertex 0 60 61.995
      vertex -40 60 61.995
    endloop
  endfacet
  facet normal 0 -1 0
    outer loop
      vertex -40 -55 61.995
      vertex -33 -55 61.995
      vertex -33 -55 62
    endloop
  endfacet
  facet normal 1 0 0
    outer loop
      vertex -33 -55 61.995
      vertex -33 -50 61.995
      vertex -33 -55 62
    endloop
  endfacet
  facet normal 1 0 0
    outer loop
      vertex -33 -50 61.995
      vertex -33 50 61.995
      vertex -33 55 62
    endloop
  endfacet
  facet normal -1 0 0
    outer loop
      vertex -40 50 61.995
      vertex -40 55 62
      vertex -40 55 61.995
    endloop
  endfacet
  facet normal 1 0 0
    outer loop
      vertex -33 50 61.995
      vertex -33 55 61.995
      vertex -33 55 62
    endloop
  endfacet
  facet normal 0 1 0
    outer loop
      vertex -40 55 61.995
      vertex -40 55 62
      vertex -33 55 61.995
    endloop
  endfacet
  facet normal 0 -1 0
    outer loop
      vertex -40 -55 61.995
      vertex -33 -55 62
      vertex -40 -55 62
    endloop
  endfacet
  facet normal 1 0 0
    outer loop
      vertex -33 -50 61.995
      vertex -33 55 62
      vertex -33 -55 62
    endloop
  endfacet
  facet normal -1 0 0
    outer loop
      vertex -40 50 61.995
      vertex -40 -55 62
      vertex -40 55 62
    endloop
  endfacet
  facet normal 0 1 0
    outer loop
      vertex -33 55 61.995
      vertex -40 55 62
      vertex -33 55 62
    endloop
  endfacet
  facet normal 0 0 1
    outer loop
      vertex -40 -55 62
      vertex -33 -55 62
      vertex -40 55 62
    endloop
  endfacet
  facet normal 0 0 1
    outer loop
      vertex -33 -55 62
      vertex -33 55 62
      vertex -40 55 62
    endloop
  endfacet
endsolid Model
