solid Model
  facet normal 0 0 -1
    outer loop
      vertex -40 -60 0
      vertex -0.014 -56.675 0
      vertex 0 -60 0
    endloop
  endfacet
  facet normal 0 0 -1
    outer loop
      vertex 0 -60 0
      vertex -0.014 -56.675 0
      vertex 0 -56.675 0
    endloop
  endfacet
  facet normal 0 0 -1
    outer loop
      vertex -40 -60 0
      vertex -0.014 -53.325 0
      vertex -0.014 -56.675 0
    endloop
  endfacet
  facet normal 0 0 -1
    outer loop
      vertex -40 -60 0
      vertex -0.029 -50 0
      vertex -0.014 -53.325 0
    endloop
  endfacet
  facet normal 0 0 -1
    outer loop
      vertex -40 -60 0
      vertex -0.029 -47.5 0
      vertex -0.029 -50 0
    endloop
  endfacet
  facet normal 0 0 -1
    outer loop
      vertex -40 -60 0
      vertex -40 50 0
      vertex -0.029 -47.5 0
    endloop
  endfacet
  facet normal 0 0 -1
    outer loop
      vertex -0.014 -53.325 0
      vertex 0 -50 0
      vertex 0 -53.325 0
    endloop
  endfacet
  facet normal 0 0 -1
    outer loop
      vertex -0.014 -53.325 0
      vertex -0.029 -50 0
      vertex 0 -50 0
    endloop
  endfacet
  facet normal 0 0 -1
    outer loop
      vertex -0.029 -47.5 0
      vertex 0 47.5 0
      vertex 0 -47.5 0
    endloop
  endfacet
  facet normal 0 0 -1
    outer loop
      vertex -0.029 -47.5 0
      vertex -0.029 47.5 0
      vertex 0 47.5 0
    endloop
  endfacet
  facet normal 0 0 -1
    outer loop
      vertex -0.029 -47.5 0
      vertex -40 50 0
      vertex -0.029 47.5 0
    endloop
  endfacet
  facet normal 0 0 -1
    outer loop
      vertex -0.029 47.5 0
      vertex -40 50 0
      vertex -0.029 50 0
    endloop
  endfacet
  facet normal 0 -1 0
    outer loop
      vertex -40 50 0
      vertex -40 50 0
      vertex -0.029 50 0
    endloop
  endfacet
  facet normal 0 -1 0
    outer loop
      vertex -40 50 0
      vertex -0.003 50 0
      vertex -0.029 50 0
    endloop
  endfacet
  facet normal 0 0 -1
    outer loop
      vertex -40 50 0
      vertex -0.003 53.583 0
      vertex -0.003 50 0
    endloop
  endfacet
  facet normal -1 0 0
    outer loop
      vertex -40 50 0
      vertex -40 60 0
      vertex -40 50 0
    endloop
  endfacet
  facet normal 0 0 -1
    outer loop
      vertex -40 50 0
      vertex -0.003 56.417 0
      vertex -0.003 53.583 0
    endloop
  endfacet
  facet normal 0 0 -1
    outer loop
      vertex -40 50 0
      vertex -40 60 0
      vertex -0.003 56.417 0
    endloop
  endfacet
  facet normal -1 0 0
    outer loop
      vertex -40 50 0
      vertex -40 60 0
      vertex -40 60 0
    endloop
  endfacet
  facet normal 0 0 -1
    outer loop
      vertex -0.003 53.583 0
      vertex 0 56.417 0
      vertex 0 53.583 0
    endloop
  endfacet
  facet normal 0 0 -1
    outer loop
      vertex -0.003 53.583 0
      vertex -0.003 56.417 0
      vertex 0 56.417 0
    endloop
  endfacet
  facet normal 0 0 -1
    outer loop
      vertex -0.003 56.417 0
      vertex -40 60 0
      vertex -0.003 60 0
    endloop
  endfacet
  facet normal 0 1 0
    outer loop
      vertex -0.029 60 0
      vertex -40 60 0
      vertex -40 60 0
    endloop
  endfacet
  facet normal 0 1 0
    outer loop
      vertex -40 60 0
      vertex -0.029 60 0
      vertex -0.003 60 0
    endloop
  endfacet
  facet normal -1 0 0
    outer loop
      vertex -40 -60 0
      vertex -40 -50 5
      vertex -40 50 0
    endloop
  endfacet
  facet normal 0 1 0
    outer loop
      vertex -0.029 -50 0
      vertex -2.916 -50 5
      vertex 0 -50 0
    endloop
  endfacet
  facet normal 0.866 0 0.5
    outer loop
      vertex -0.029 -50 0
      vertex -0.029 -47.5 0
      vertex -2.916 -50 5
    endloop
  endfacet
  facet normal 0 -1 0
    outer loop
      vertex -0.029 -47.5 0
      vertex 0 -47.5 0
      vertex 0 -47.5 5
    endloop
  endfacet
  facet normal 1 0 0
    outer loop
      vertex 0 -47.5 0
      vertex 0 47.5 0
      vertex 0 -47.5 5
    endloop
  endfacet
  facet normal 0 1 0
    outer loop
      vertex -0.029 47.5 0
      vertex 0 47.5 5
      vertex 0 47.5 0
    endloop
  endfacet
  facet normal 0.866 0 0.5
    outer loop
      vertex -0.029 47.5 0
      vertex -0.029 50 0
      vertex -2.916 47.5 5
    endloop
  endfacet
  facet normal 0 -1 0
    outer loop
      vertex -0.029 50 0
      vertex -0.003 50 0
      vertex -2.916 50 5
    endloop
  endfacet
  facet normal -1 0 0
    outer loop
      vertex -40 50 0
      vertex -40 50 5
      vertex -40 60 0
    endloop
  endfacet
  facet normal 0 1 0
    outer loop
      vertex -40 60 0
      vertex -2.916 60 5
      vertex -0.029 60 0
    endloop
  endfacet
  facet normal 0 1 0
    outer loop
      vertex -0.029 60 0
      vertex -2.916 60 5
      vertex -0.003 60 0
    endloop
  endfacet
  facet normal 0 1 0
    outer loop
      vertex -0.014 -56.675 0
      vertex 0 -56.675 5.269
      vertex 0 -56.675 0
    endloop
  endfacet
  facet normal 0 -1 0
    outer loop
      vertex -0.014 -53.325 0
      vertex 0 -53.325 0
      vertex 0 -53.325 5.269
    endloop
  endfacet
  facet normal 0 -1 0
    outer loop
      vertex -0.003 53.583 0
      vertex 0 53.583 0
      vertex 0 53.583 5.283
    endloop
  endfacet
  facet normal 0 1 0
    outer loop
      vertex -0.003 56.417 0
      vertex 0 56.417 5.283
      vertex 0 56.417 0
    endloop
  endfacet
  facet normal 0.866 0 0.5
    outer loop
      vertex -0.014 -56.675 0
      vertex -0.014 -53.325 0
      vertex -5.297 -56.675 9.15
    endloop
  endfacet
  facet normal 0.866 0 -0.5
    outer loop
      vertex 0 -53.325 0
      vertex 0 -50 0
      vertex 5.283 -53.325 9.15
    endloop
  endfacet
  facet normal 0.866 0 -0.5
    outer loop
      vertex 0 -60 0
      vertex 0 -56.675 0
      vertex 5.292 -60 9.167
    endloop
  endfacet
  facet normal 0.866 0 0.5
    outer loop
      vertex -0.003 50 0
      vertex -0.003 53.583 0
      vertex -5.295 50 9.167
    endloop
  endfacet
  facet normal 0.866 0 -0.5
    outer loop
      vertex 0 53.583 0
      vertex 0 56.417 0
      vertex 5.292 53.583 9.167
    endloop
  endfacet
  facet normal 0.866 0 0.5
    outer loop
      vertex -0.003 56.417 0
      vertex -0.003 60 0
      vertex -5.295 56.417 9.167
    endloop
  endfacet
  facet normal 0 -1 0
    outer loop
      vertex -40 -60 0
      vertex 0 -60 0
      vertex -0.003 -60 25
    endloop
  endfacet
  facet normal 0.866 0 0.5
    outer loop
      vertex -0.029 -47.5 0
      vertex -2.916 -47.5 5
      vertex -2.916 -50 5
    endloop
  endfacet
  facet normal -1 0 0
    outer loop
      vertex -40 50 0
      vertex -40 -50 5
      vertex -40 50 5
    endloop
  endfacet
  facet normal 0 -1 0
    outer loop
      vertex -0.029 -47.5 0
      vertex 0 -47.5 5
      vertex -2.916 -47.5 5
    endloop
  endfacet
  facet normal 1 0 0
    outer loop
      vertex 0 47.5 0
      vertex 0 47.5 5
      vertex 0 -47.5 5
    endloop
  endfacet
  facet normal 0 1 0
    outer loop
      vertex -0.029 47.5 0
      vertex -2.916 47.5 5
      vertex 0 47.5 5
    endloop
  endfacet
  facet normal 0.866 0 0.5
    outer loop
      vertex -0.029 50 0
      vertex -2.916 50 5
      vertex -2.916 47.5 5
    endloop
  endfacet
  facet normal -1 0 0
    outer loop
      vertex -40 60 0
      vertex -40 50 5
      vertex -40 60 5
    endloop
  endfacet
  facet normal 0 1 0
    outer loop
      vertex -40 60 0
      vertex -40 60 5
      vertex -2.916 60 5
    endloop
  endfacet
  facet normal 0 1 0
    outer loop
      vertex 0 -50 0
      vertex -2.916 -50 5
      vertex 5.292 -50 9.167
    endloop
  endfacet
  facet normal 0 -1 0
    outer loop
      vertex -0.003 50 0
      vertex -5.295 50 9.167
      vertex -2.916 50 5
    endloop
  endfacet
  facet normal 0 1 0
    outer loop
      vertex -0.003 60 0
      vertex -2.916 60 5
      vertex -5.295 60 9.167
    endloop
  endfacet
  facet normal -1 0 0
    outer loop
      vertex -40 -60 0
      vertex -40 -60 61.995
      vertex -40 -50 5
    endloop
  endfacet
  facet normal 0 1 0
    outer loop
      vertex -0.014 -56.675 0
      vertex -0.838 -56.675 5.269
      vertex 0 -56.675 5.269
    endloop
  endfacet
  facet normal 0 1 0
    outer loop
      vertex 0 -56.675 0
      vertex 0 -56.675 5.269
      vertex 0.838 -56.675 5.269
    endloop
  endfacet
  facet normal 0 -1 0
    outer loop
      vertex -0.014 -53.325 0
      vertex 0 -53.325 5.269
      vertex -0.838 -53.325 5.269
    endloop
  endfacet
  facet normal 0 -1 0
    outer loop
      vertex 0 -53.325 0
      vertex 0.838 -53.325 5.269
      vertex 0 -53.325 5.269
    endloop
  endfacet
  facet normal 0 1 0
    outer loop
      vertex -0.014 -56.675 0
      vertex -5.297 -56.675 9.15
      vertex -0.838 -56.675 5.269
    endloop
  endfacet
  facet normal 0 1 0
    outer loop
      vertex 0 -56.675 0
      vertex 0.838 -56.675 5.269
      vertex 5.283 -56.675 9.15
    endloop
  endfacet
  facet normal 0 -1 0
    outer loop
      vertex -0.014 -53.325 0
      vertex -0.838 -53.325 5.269
      vertex -5.297 -53.325 9.15
    endloop
  endfacet
  facet normal 0 -1 0
    outer loop
      vertex 0 -53.325 0
      vertex 5.283 -53.325 9.15
      vertex 0.838 -53.325 5.269
    endloop
  endfacet
  facet normal 0 -1 0
    outer loop
      vertex -0.003 53.583 0
      vertex 0 53.583 5.283
      vertex -0.833 53.583 5.283
    endloop
  endfacet
  facet normal 0 -1 0
    outer loop
      vertex 0 53.583 0
      vertex 0.833 53.583 5.283
      vertex 0 53.583 5.283
    endloop
  endfacet
  facet normal 0 1 0
    outer loop
      vertex -0.003 56.417 0
      vertex -0.833 56.417 5.283
      vertex 0 56.417 5.283
    endloop
  endfacet
  facet normal 0 1 0
    outer loop
      vertex 0 56.417 0
      vertex 0 56.417 5.283
      vertex 0.833 56.417 5.283
    endloop
  endfacet
  facet normal 0 -1 0
    outer loop
      vertex -0.003 53.583 0
      vertex -0.833 53.583 5.283
      vertex -5.295 53.583 9.167
    endloop
  endfacet
  facet normal 0 -1 0
    outer loop
      vertex 0 53.583 0
      vertex 5.292 53.583 9.167
      vertex 0.833 53.583 5.283
    endloop
  endfacet
  facet normal 0 1 0
    outer loop
      vertex -0.003 56.417 0
      vertex -5.295 56.417 9.167
      vertex -0.833 56.417 5.283
    endloop
  endfacet
  facet normal 0 1 0
    outer loop
      vertex 0 56.417 0
      vertex 0.833 56.417 5.283
      vertex 5.292 56.417 9.167
    endloop
  endfacet
  facet normal 0.866 0 0.5
    outer loop
      vertex -0.014 -53.325 0
      vertex -5.297 -53.325 9.15
      vertex -5.297 -56.675 9.15
    endloop
  endfacet
  facet normal 0.866 0 -0.5
    outer loop
      vertex 0 -56.675 0
      vertex 5.283 -56.675 9.15
      vertex 5.292 -60 9.167
    endloop
  endfacet
  facet normal 0.866 0 -0.5
    outer loop
      vertex 0 -50 0
      vertex 5.292 -50 9.167
      vertex 5.283 -53.325 9.15
    endloop
  endfacet
  facet normal 0.866 0 0.5
    outer loop
      vertex -0.003 53.583 0
      vertex -5.295 53.583 9.167
      vertex -5.295 50 9.167
    endloop
  endfacet
  facet normal 0.866 0 -0.5
    outer loop
      vertex 0 56.417 0
      vertex 5.292 56.417 9.167
      vertex 5.292 53.583 9.167
    endloop
  endfacet
  facet normal 0.866 0 0.5
    outer loop
      vertex -0.003 60 0
      vertex -5.295 60 9.167
      vertex -5.295 56.417 9.167
    endloop
  endfacet
  facet normal 0 -1 0
    outer loop
      vertex 0 -60 0
      vertex 5.292 -60 9.167
      vertex 5.292 -60 15.833
    endloop
  endfacet
  facet normal 0 -1 0
    outer loop
      vertex 0 -60 0
      vertex 5.292 -60 15.833
      vertex -0.003 -60 25
    endloop
  endfacet
  facet normal 0 -1 0
    outer loop
      vertex -40 -60 0
      vertex -0.003 -60 25
      vertex -5.295 -60 34.167
    endloop
  endfacet
  facet normal 0 -1 0
    outer loop
      vertex -40 -60 0
      vertex -5.295 -60 34.167
      vertex -40 -60 61.995
    endloop
  endfacet
  facet normal 0 0 1
    outer loop
      vertex -35 -50 5
      vertex -2.916 -50 5
      vertex -2.916 -47.5 5
    endloop
  endfacet
  facet normal 0 0 1
    outer loop
      vertex -35 -50 5
      vertex -2.916 -47.5 5
      vertex -35 5 5
    endloop
  endfacet
  facet normal 0 0 0
    outer loop
      vertex -40 -50 5
      vertex -40 -5 5
      vertex -40 50 5
    endloop
  endfacet
  facet normal 0 0 1
    outer loop
      vertex -2.916 -47.5 5
      vertex 0 -47.5 5
      vertex -2.916 47.5 5
    endloop
  endfacet
  facet normal 0 0 1
    outer loop
      vertex -2.916 -47.5 5
      vertex -2.916 47.5 5
      vertex -35 5 5
    endloop
  endfacet
  facet normal 0 0 1
    outer loop
      vertex 0 -47.5 5
      vertex 0 47.5 5
      vertex -2.916 47.5 5
    endloop
  endfacet
  facet normal 0 0 1
    outer loop
      vertex -35 5 5
      vertex -2.916 47.5 5
      vertex -35 50 5
    endloop
  endfacet
  facet normal 0 0 1
    outer loop
      vertex -2.916 47.5 5
      vertex -2.916 50 5
      vertex -35 50 5
    endloop
  endfacet
  facet normal 0 -1 0
    outer loop
      vertex -35 50 5
      vertex -2.916 50 5
      vertex -5.295 50 9.167
    endloop
  endfacet
  facet normal 0 1 0
    outer loop
      vertex -40 60 5
      vertex -5.295 60 9.167
      vertex -2.916 60 5
    endloop
  endfacet
  facet normal -1 0 0
    outer loop
      vertex -40 -50 5
      vertex -40 -45 10
      vertex -40 -5 5
    endloop
  endfacet
  facet normal 1 0 0
    outer loop
      vertex -35 -50 5
      vertex -35 5 5
      vertex -35 -45 10
    endloop
  endfacet
  facet normal -1 0 0
    outer loop
      vertex -40 -5 5
      vertex -40 45 10
      vertex -40 50 5
    endloop
  endfacet
  facet normal 1 0 0
    outer loop
      vertex -35 5 5
      vertex -35 50 5
      vertex -35 45 10
    endloop
  endfacet
  facet normal 0 1 0
    outer loop
      vertex -35 -50 5
      vertex -0.003 -50 25
      vertex -2.916 -50 5
    endloop
  endfacet
  facet normal -1 0 0
    outer loop
      vertex -40 50 5
      vertex -40 60 50
      vertex -40 60 5
    endloop
  endfacet
  facet normal 0 1 0
    outer loop
      vertex -2.916 -50 5
      vertex 5.292 -50 15.833
      vertex 5.292 -50 9.167
    endloop
  endfacet
  facet normal 0 -1 0
    outer loop
      vertex -35 50 5
      vertex -5.295 50 9.167
      vertex -5.295 50 15.833
    endloop
  endfacet
  facet normal 0 1 0
    outer loop
      vertex -40 60 5
      vertex -5.295 60 15.833
      vertex -5.295 60 9.167
    endloop
  endfacet
  facet normal -1 0 0
    outer loop
      vertex -40 -5 5
      vertex -40 -45 10
      vertex -40 45 10
    endloop
  endfacet
  facet normal 1 0 0
    outer loop
      vertex -35 5 5
      vertex -35 45 10
      vertex -35 -45 10
    endloop
  endfacet
  facet normal -1 0 0
    outer loop
      vertex -40 50 5
      vertex -40 45 10
      vertex -40 50 49.985
    endloop
  endfacet
  facet normal 1 0 0
    outer loop
      vertex -35 50 5
      vertex -35 50 49.985
      vertex -35 45 10
    endloop
  endfacet
  facet normal 1 0 0
    outer loop
      vertex -35 -50 5
      vertex -35 -45 10
      vertex -35 -50 57
    endloop
  endfacet
  facet normal -1 0 0
    outer loop
      vertex -40 -50 5
      vertex -40 -60 61.995
      vertex -40 -45 10
    endloop
  endfacet
  facet normal 0 1 0
    outer loop
      vertex -2.916 -50 5
      vertex -0.003 -50 25
      vertex 5.292 -50 15.833
    endloop
  endfacet
  facet normal 0 -1 0
    outer loop
      vertex -35 50 5
      vertex -5.295 50 15.833
      vertex -35 50 49.985
    endloop
  endfacet
  facet normal 0 1 0
    outer loop
      vertex -40 60 5
      vertex -40 60 50
      vertex -5.295 60 15.833
    endloop
  endfacet
  facet normal 0 1 0
    outer loop
      vertex -35 -50 5
      vertex -5.295 -50 34.167
      vertex -0.003 -50 25
    endloop
  endfacet
  facet normal 0 1 0
    outer loop
      vertex -35 -50 5
      vertex -35 -50 57
      vertex -5.295 -50 34.167
    endloop
  endfacet
  facet normal -1 0 0
    outer loop
      vertex -40 50 5
      vertex -40 50 49.985
      vertex -40 60 50
    endloop
  endfacet
  facet normal 0 0 1
    outer loop
      vertex 0 -57.094 5.269
      vertex 0 -56.675 5.269
      vertex -0.838 -56.675 5.269
    endloop
  endfacet
  facet normal 0 0 1
    outer loop
      vertex 0 -57.094 5.269
      vertex 0.838 -56.675 5.269
      vertex 0 -56.675 5.269
    endloop
  endfacet
  facet normal 0 0 1
    outer loop
      vertex -0.838 -53.325 5.269
      vertex 0 -53.325 5.269
      vertex 0 -52.906 5.269
    endloop
  endfacet
  facet normal 0 0 1
    outer loop
      vertex 0 -53.325 5.269
      vertex 0.838 -53.325 5.269
      vertex 0 -52.906 5.269
    endloop
  endfacet
  facet normal 0.447 0.894 0
    outer loop
      vertex 0 -57.094 5.269
      vertex -0.838 -56.675 5.269
      vertex -0.838 -56.675 9.15
    endloop
  endfacet
  facet normal -0.447 0.894 0
    outer loop
      vertex 0 -57.094 5.269
      vertex 0.838 -56.675 9.15
      vertex 0.838 -56.675 5.269
    endloop
  endfacet
  facet normal 0.447 -0.894 0
    outer loop
      vertex -0.838 -53.325 5.269
      vertex 0 -52.906 5.269
      vertex -0.838 -53.325 9.15
    endloop
  endfacet
  facet normal -0.447 -0.894 0
    outer loop
      vertex 0.838 -53.325 5.269
      vertex 0.838 -53.325 9.15
      vertex 0 -52.906 5.269
    endloop
  endfacet
  facet normal 0 1 0
    outer loop
      vertex -0.838 -56.675 5.269
      vertex -5.297 -56.675 9.15
      vertex -0.838 -56.675 9.15
    endloop
  endfacet
  facet normal 0 1 0
    outer loop
      vertex 0.838 -56.675 5.269
      vertex 0.838 -56.675 9.15
      vertex 5.283 -56.675 9.15
    endloop
  endfacet
  facet normal 0 -1 0
    outer loop
      vertex -0.838 -53.325 5.269
      vertex -0.838 -53.325 9.15
      vertex -5.297 -53.325 9.15
    endloop
  endfacet
  facet normal 0 -1 0
    outer loop
      vertex 0.838 -53.325 5.269
      vertex 5.283 -53.325 9.15
      vertex 0.838 -53.325 9.15
    endloop
  endfacet
  facet normal 0.447 0.894 0
    outer loop
      vertex 0 -57.094 5.269
      vertex -0.838 -56.675 9.15
      vertex 0 -57.094 10.267
    endloop
  endfacet
  facet normal -0.447 0.894 0
    outer loop
      vertex 0 -57.094 5.269
      vertex 0 -57.094 10.267
      vertex 0.838 -56.675 9.15
    endloop
  endfacet
  facet normal 0.447 -0.894 0
    outer loop
      vertex 0 -52.906 5.269
      vertex 0 -52.906 10.267
      vertex -0.838 -53.325 9.15
    endloop
  endfacet
  facet normal -0.447 -0.894 0
    outer loop
      vertex 0 -52.906 5.269
      vertex 0.838 -53.325 9.15
      vertex 0 -52.906 10.267
    endloop
  endfacet
  facet normal 0 0 -1
    outer loop
      vertex 0 53.167 5.283
      vertex -0.833 53.583 5.283
      vertex 0 53.583 5.283
    endloop
  endfacet
  facet normal 0 0 -1
    outer loop
      vertex 0 53.167 5.283
      vertex 0 53.583 5.283
      vertex 0.833 53.583 5.283
    endloop
  endfacet
  facet normal 0 0 -1
    outer loop
      vertex -0.833 56.417 5.283
      vertex 0 56.833 5.283
      vertex 0 56.417 5.283
    endloop
  endfacet
  facet normal 0 0 -1
    outer loop
      vertex 0 56.417 5.283
      vertex 0 56.833 5.283
      vertex 0.833 56.417 5.283
    endloop
  endfacet
  facet normal -0.447 -0.894 0
    outer loop
      vertex 0 53.167 5.283
      vertex -0.833 53.583 9.167
      vertex -0.833 53.583 5.283
    endloop
  endfacet
  facet normal 0.447 -0.894 0
    outer loop
      vertex 0 53.167 5.283
      vertex 0.833 53.583 5.283
      vertex 0.833 53.583 9.167
    endloop
  endfacet
  facet normal -0.447 0.894 0
    outer loop
      vertex -0.833 56.417 5.283
      vertex -0.833 56.417 9.167
      vertex 0 56.833 5.283
    endloop
  endfacet
  facet normal 0.447 0.894 0
    outer loop
      vertex 0.833 56.417 5.283
      vertex 0 56.833 5.283
      vertex 0.833 56.417 9.167
    endloop
  endfacet
  facet normal 0 -1 0
    outer loop
      vertex -0.833 53.583 5.283
      vertex -0.833 53.583 9.167
      vertex -5.295 53.583 9.167
    endloop
  endfacet
  facet normal 0 -1 0
    outer loop
      vertex 0.833 53.583 5.283
      vertex 5.292 53.583 9.167
      vertex 0.833 53.583 9.167
    endloop
  endfacet
  facet normal 0 1 0
    outer loop
      vertex -0.833 56.417 5.283
      vertex -5.295 56.417 9.167
      vertex -0.833 56.417 9.167
    endloop
  endfacet
  facet normal 0 1 0
    outer loop
      vertex 0.833 56.417 5.283
      vertex 0.833 56.417 9.167
      vertex 5.292 56.417 9.167
    endloop
  endfacet
  facet normal -0.447 -0.894 0
    outer loop
      vertex 0 53.167 5.283
      vertex 0 53.167 10.278
      vertex -0.833 53.583 9.167
    endloop
  endfacet
  facet normal 0.447 -0.894 0
    outer loop
      vertex 0 53.167 5.283
      vertex 0.833 53.583 9.167
      vertex 0 53.167 10.278
    endloop
  endfacet
  facet normal -0.447 0.894 0
    outer loop
      vertex 0 56.833 5.283
      vertex -0.833 56.417 9.167
      vertex 0 56.833 10.278
    endloop
  endfacet
  facet normal 0.447 0.894 0
    outer loop
      vertex 0 56.833 5.283
      vertex 0 56.833 10.278
      vertex 0.833 56.417 9.167
    endloop
  endfacet
  facet normal 0 0.936 0.351
    outer loop
      vertex 0.838 -56.675 9.15
      vertex 5.292 -56.681 9.167
      vertex 5.283 -56.675 9.15
    endloop
  endfacet
  facet normal 0 -0.936 0.351
    outer loop
      vertex 0.838 -53.325 9.15
      vertex 5.283 -53.325 9.15
      vertex 5.292 -53.319 9.167
    endloop
  endfacet
  facet normal 0 0.936 0.351
    outer loop
      vertex -5.297 -56.675 9.15
      vertex -5.297 -57.931 12.5
      vertex -0.838 -56.675 9.15
    endloop
  endfacet
  facet normal 1 0 0
    outer loop
      vertex -5.297 -56.675 9.15
      vertex -5.297 -53.325 9.15
      vertex -5.297 -55.419 12.5
    endloop
  endfacet
  facet normal 0 -0.936 0.351
    outer loop
      vertex -5.297 -53.325 9.15
      vertex -0.838 -53.325 9.15
      vertex -5.297 -52.069 12.5
    endloop
  endfacet
  facet normal 0.866 0 -0.5
    outer loop
      vertex 5.283 -56.675 9.15
      vertex 5.292 -56.681 9.167
      vertex 5.292 -60 9.167
    endloop
  endfacet
  facet normal 0.866 0 -0.5
    outer loop
      vertex 5.283 -53.325 9.15
      vertex 5.292 -50 9.167
      vertex 5.292 -53.319 9.167
    endloop
  endfacet
  facet normal 0 0.936 0.351
    outer loop
      vertex 0.838 -56.675 9.15
      vertex 5.292 -57.931 12.5
      vertex 5.292 -56.681 9.167
    endloop
  endfacet
  facet normal 0 -0.936 0.351
    outer loop
      vertex 0.838 -53.325 9.15
      vertex 5.292 -53.319 9.167
      vertex 5.292 -52.069 12.5
    endloop
  endfacet
  facet normal 0 0.936 0.351
    outer loop
      vertex -0.838 -56.675 9.15
      vertex -5.297 -57.931 12.5
      vertex 0 -57.094 10.267
    endloop
  endfacet
  facet normal 0 0.936 0.351
    outer loop
      vertex 0.838 -56.675 9.15
      vertex 0 -57.094 10.267
      vertex 5.292 -57.931 12.5
    endloop
  endfacet
  facet normal 0 -0.936 0.351
    outer loop
      vertex -0.838 -53.325 9.15
      vertex 0 -52.906 10.267
      vertex -5.297 -52.069 12.5
    endloop
  endfacet
  facet normal 0 -0.936 0.351
    outer loop
      vertex 0.838 -53.325 9.15
      vertex 5.292 -52.069 12.5
      vertex 0 -52.906 10.267
    endloop
  endfacet
  facet normal 1 0 0
    outer loop
      vertex -5.297 -53.325 9.15
      vertex -5.297 -54.581 12.5
      vertex -5.297 -55.419 12.5
    endloop
  endfacet
  facet normal 1 0 0
    outer loop
      vertex -5.297 -53.325 9.15
      vertex -5.297 -52.069 12.5
      vertex -5.297 -54.581 12.5
    endloop
  endfacet
  facet normal 1 0 0
    outer loop
      vertex -5.297 -56.675 9.15
      vertex -5.297 -56.675 15.85
      vertex -5.297 -57.931 12.5
    endloop
  endfacet
  facet normal 1 0 0
    outer loop
      vertex -5.297 -56.675 9.15
      vertex -5.297 -55.419 12.5
      vertex -5.297 -56.675 15.85
    endloop
  endfacet
  facet normal 1 0 0
    outer loop
      vertex 5.292 -60 9.167
      vertex 5.292 -56.681 9.167
      vertex 5.292 -57.931 12.5
    endloop
  endfacet
  facet normal 1 0 0
    outer loop
      vertex 5.292 -53.319 9.167
      vertex 5.292 -50 9.167
      vertex 5.292 -52.069 12.5
    endloop
  endfacet
  facet normal 1 0 0
    outer loop
      vertex -5.295 50 9.167
      vertex -5.295 53.583 9.167
      vertex -5.295 52.333 12.5
    endloop
  endfacet
  facet normal 0 -0.936 -0.351
    outer loop
      vertex -5.295 53.583 9.167
      vertex -0.833 53.583 9.167
      vertex -5.295 52.333 12.5
    endloop
  endfacet
  facet normal 0 -0.936 -0.351
    outer loop
      vertex 0.833 53.583 9.167
      vertex 5.292 53.583 9.167
      vertex 5.292 52.333 12.5
    endloop
  endfacet
  facet normal 1 0 0
    outer loop
      vertex 5.292 53.583 9.167
      vertex 5.292 56.417 9.167
      vertex 5.292 54.833 12.5
    endloop
  endfacet
  facet normal 0 0.936 -0.351
    outer loop
      vertex -5.295 56.417 9.167
      vertex -5.295 57.667 12.5
      vertex -0.833 56.417 9.167
    endloop
  endfacet
  facet normal 0 0.936 -0.351
    outer loop
      vertex 0.833 56.417 9.167
      vertex 5.292 57.667 12.5
      vertex 5.292 56.417 9.167
    endloop
  endfacet
  facet normal 1 0 0
    outer loop
      vertex -5.295 56.417 9.167
      vertex -5.295 60 9.167
      vertex -5.295 57.667 12.5
    endloop
  endfacet
  facet normal 0 -0.936 -0.351
    outer loop
      vertex -0.833 53.583 9.167
      vertex 0 53.167 10.278
      vertex -5.295 52.333 12.5
    endloop
  endfacet
  facet normal 0 -0.936 -0.351
    outer loop
      vertex 0.833 53.583 9.167
      vertex 5.292 52.333 12.5
      vertex 0 53.167 10.278
    endloop
  endfacet
  facet normal 0 0.936 -0.351
    outer loop
      vertex -0.833 56.417 9.167
      vertex -5.295 57.667 12.5
      vertex 0 56.833 10.278
    endloop
  endfacet
  facet normal 0 0.936 -0.351
    outer loop
      vertex 0.833 56.417 9.167
      vertex 0 56.833 10.278
      vertex 5.292 57.667 12.5
    endloop
  endfacet
  facet normal 1 0 0
    outer loop
      vertex 5.292 53.583 9.167
      vertex 5.292 54.833 12.5
      vertex 5.292 52.333 12.5
    endloop
  endfacet
  facet normal 1 0 0
    outer loop
      vertex 5.292 56.417 9.167
      vertex 5.292 55.167 12.5
      vertex 5.292 54.833 12.5
    endloop
  endfacet
  facet normal 1 0 0
    outer loop
      vertex 5.292 56.417 9.167
      vertex 5.292 57.667 12.5
      vertex 5.292 55.167 12.5
    endloop
  endfacet
  facet normal 1 0 0
    outer loop
      vertex 5.292 -60 9.167
      vertex 5.292 -57.931 12.5
      vertex 5.292 -60 15.833
    endloop
  endfacet
  facet normal 1 0 0
    outer loop
      vertex 5.292 -50 9.167
      vertex 5.292 -50 15.833
      vertex 5.292 -52.069 12.5
    endloop
  endfacet
  facet normal 1 0 0
    outer loop
      vertex -5.295 50 9.167
      vertex -5.295 52.333 12.5
      vertex -5.295 50 15.833
    endloop
  endfacet
  facet normal 1 0 0
    outer loop
      vertex -5.295 60 9.167
      vertex -5.295 60 15.833
      vertex -5.295 57.667 12.5
    endloop
  endfacet
  facet normal 0.894 0 0.447
    outer loop
      vertex -35 -45 10
      vertex -35 45 10
      vertex -36.299 -42.402 12.598
    endloop
  endfacet
  facet normal -0.894 0 0.447
    outer loop
      vertex -40 -45 10
      vertex -38.701 42.402 12.598
      vertex -40 45 10
    endloop
  endfacet
  facet normal -0.894 0 0.447
    outer loop
      vertex -40 -45 10
      vertex -38.701 -42.402 12.598
      vertex -38.701 42.402 12.598
    endloop
  endfacet
  facet normal 0.894 0 0.447
    outer loop
      vertex -35 45 10
      vertex -36.299 42.402 12.598
      vertex -36.299 -42.402 12.598
    endloop
  endfacet
  facet normal -0.894 0.447 0
    outer loop
      vertex -40 -45 10
      vertex -38.701 -42.402 49.402
      vertex -38.701 -42.402 12.598
    endloop
  endfacet
  facet normal 0.894 -0.447 0
    outer loop
      vertex -35 45 10
      vertex -36.299 42.402 49.402
      vertex -36.299 42.402 12.598
    endloop
  endfacet
  facet normal 0.894 0.447 0
    outer loop
      vertex -35 -45 10
      vertex -36.299 -42.402 12.598
      vertex -35 -45 52
    endloop
  endfacet
  facet normal -0.894 -0.447 0
    outer loop
      vertex -40 45 10
      vertex -38.701 42.402 12.598
      vertex -40 45 52
    endloop
  endfacet
  facet normal -0.894 0.447 0
    outer loop
      vertex -40 -45 10
      vertex -40 -45 52
      vertex -38.701 -42.402 49.402
    endloop
  endfacet
  facet normal 0.894 -0.447 0
    outer loop
      vertex -35 45 10
      vertex -35 45 52
      vertex -36.299 42.402 49.402
    endloop
  endfacet
  facet normal -1 0 0
    outer loop
      vertex -40 45 10
      vertex -40 45 52
      vertex -40 50 49.985
    endloop
  endfacet
  facet normal 1 0 0
    outer loop
      vertex -35 45 10
      vertex -35 50 49.985
      vertex -35 45 52
    endloop
  endfacet
  facet normal 1 0 0
    outer loop
      vertex -35 -45 10
      vertex -35 -45 52
      vertex -35 -50 57
    endloop
  endfacet
  facet normal -1 0 0
    outer loop
      vertex -40 -45 10
      vertex -40 -60 61.995
      vertex -40 -45 52
    endloop
  endfacet
  facet normal 0 0.936 0.351
    outer loop
      vertex 0 -57.094 10.267
      vertex -5.297 -57.931 12.5
      vertex 5.292 -57.931 12.5
    endloop
  endfacet
  facet normal 0 -0.936 0.351
    outer loop
      vertex 0 -52.906 10.267
      vertex 5.292 -52.069 12.5
      vertex -5.297 -52.069 12.5
    endloop
  endfacet
  facet normal 0 -0.936 -0.351
    outer loop
      vertex 0 53.167 10.278
      vertex 5.292 52.333 12.5
      vertex -5.295 52.333 12.5
    endloop
  endfacet
  facet normal 0 0.936 -0.351
    outer loop
      vertex 0 56.833 10.278
      vertex -5.295 57.667 12.5
      vertex 5.292 57.667 12.5
    endloop
  endfacet
  facet normal 0 -0.936 0.351
    outer loop
      vertex -5.295 52.333 12.5
      vertex 5.292 52.333 12.5
      vertex 0 53.167 14.722
    endloop
  endfacet
  facet normal 0 0.936 0.351
    outer loop
      vertex -5.295 57.667 12.5
      vertex 0 56.833 14.722
      vertex 5.292 57.667 12.5
    endloop
  endfacet
  facet normal 0 0.936 -0.351
    outer loop
      vertex -5.297 -57.931 12.5
      vertex 0 -57.094 14.733
      vertex 5.292 -57.931 12.5
    endloop
  endfacet
  facet normal 0 -0.936 -0.351
    outer loop
      vertex -5.297 -52.069 12.5
      vertex 5.292 -52.069 12.5
      vertex 0 -52.906 14.733
    endloop
  endfacet
  facet normal 1 0 0
    outer loop
      vertex 5.292 52.333 12.5
      vertex 5.292 54.833 12.5
      vertex 5.292 53.583 15.833
    endloop
  endfacet
  facet normal 1 0 0
    outer loop
      vertex 5.292 54.833 12.5
      vertex 5.292 55.167 12.5
      vertex 5.292 56.417 15.833
    endloop
  endfacet
  facet normal 1 0 0
    outer loop
      vertex 5.292 55.167 12.5
      vertex 5.292 57.667 12.5
      vertex 5.292 56.417 15.833
    endloop
  endfacet
  facet normal 1 0 0
    outer loop
      vertex -5.297 -55.419 12.5
      vertex -5.297 -54.581 12.5
      vertex -5.297 -53.325 15.85
    endloop
  endfacet
  facet normal 1 0 0
    outer loop
      vertex -5.297 -54.581 12.5
      vertex -5.297 -52.069 12.5
      vertex -5.297 -53.325 15.85
    endloop
  endfacet
  facet normal 0 -0.936 0.351
    outer loop
      vertex -5.295 52.333 12.5
      vertex 0 53.167 14.722
      vertex -0.833 53.583 15.833
    endloop
  endfacet
  facet normal 0 -0.936 0.351
    outer loop
      vertex 5.292 52.333 12.5
      vertex 0.833 53.583 15.833
      vertex 0 53.167 14.722
    endloop
  endfacet
  facet normal 0 0.936 0.351
    outer loop
      vertex -5.295 57.667 12.5
      vertex -0.833 56.417 15.833
      vertex 0 56.833 14.722
    endloop
  endfacet
  facet normal 0 0.936 0.351
    outer loop
      vertex 5.292 57.667 12.5
      vertex 0 56.833 14.722
      vertex 0.833 56.417 15.833
    endloop
  endfacet
  facet normal 0 0.936 -0.351
    outer loop
      vertex -5.297 -57.931 12.5
      vertex -0.838 -56.675 15.85
      vertex 0 -57.094 14.733
    endloop
  endfacet
  facet normal 0 0.936 -0.351
    outer loop
      vertex 5.292 -57.931 12.5
      vertex 0 -57.094 14.733
      vertex 0.838 -56.675 15.85
    endloop
  endfacet
  facet normal 0 -0.936 -0.351
    outer loop
      vertex -5.297 -52.069 12.5
      vertex 0 -52.906 14.733
      vertex -0.838 -53.325 15.85
    endloop
  endfacet
  facet normal 0 -0.936 -0.351
    outer loop
      vertex 5.292 -52.069 12.5
      vertex 0.838 -53.325 15.85
      vertex 0 -52.906 14.733
    endloop
  endfacet
  facet normal 1 0 0
    outer loop
      vertex 5.292 -57.931 12.5
      vertex 5.292 -56.681 15.833
      vertex 5.292 -60 15.833
    endloop
  endfacet
  facet normal 1 0 0
    outer loop
      vertex 5.292 -52.069 12.5
      vertex 5.292 -50 15.833
      vertex 5.292 -53.319 15.833
    endloop
  endfacet
  facet normal 1 0 0
    outer loop
      vertex -5.295 52.333 12.5
      vertex -5.295 53.583 15.833
      vertex -5.295 50 15.833
    endloop
  endfacet
  facet normal 0 -0.936 0.351
    outer loop
      vertex -5.295 52.333 12.5
      vertex -0.833 53.583 15.833
      vertex -5.295 53.583 15.833
    endloop
  endfacet
  facet normal 0 -0.936 0.351
    outer loop
      vertex 5.292 52.333 12.5
      vertex 5.292 53.583 15.833
      vertex 0.833 53.583 15.833
    endloop
  endfacet
  facet normal 1 0 0
    outer loop
      vertex 5.292 54.833 12.5
      vertex 5.292 56.417 15.833
      vertex 5.292 53.583 15.833
    endloop
  endfacet
  facet normal 0 0.936 0.351
    outer loop
      vertex -5.295 57.667 12.5
      vertex -5.295 56.417 15.833
      vertex -0.833 56.417 15.833
    endloop
  endfacet
  facet normal 0 0.936 0.351
    outer loop
      vertex 5.292 57.667 12.5
      vertex 0.833 56.417 15.833
      vertex 5.292 56.417 15.833
    endloop
  endfacet
  facet normal 1 0 0
    outer loop
      vertex -5.295 57.667 12.5
      vertex -5.295 60 15.833
      vertex -5.295 56.417 15.833
    endloop
  endfacet
  facet normal 0 0.936 -0.351
    outer loop
      vertex 5.292 -57.931 12.5
      vertex 0.838 -56.675 15.85
      vertex 5.292 -56.681 15.833
    endloop
  endfacet
  facet normal 0 -0.936 -0.351
    outer loop
      vertex 5.292 -52.069 12.5
      vertex 5.292 -53.319 15.833
      vertex 0.838 -53.325 15.85
    endloop
  endfacet
  facet normal 0 0.936 -0.351
    outer loop
      vertex -5.297 -57.931 12.5
      vertex -5.297 -56.675 15.85
      vertex -0.838 -56.675 15.85
    endloop
  endfacet
  facet normal 1 0 0
    outer loop
      vertex -5.297 -55.419 12.5
      vertex -5.297 -53.325 15.85
      vertex -5.297 -56.675 15.85
    endloop
  endfacet
  facet normal 0 -0.936 -0.351
    outer loop
      vertex -5.297 -52.069 12.5
      vertex -0.838 -53.325 15.85
      vertex -5.297 -53.325 15.85
    endloop
  endfacet
  facet normal 1 0 0
    outer loop
      vertex -36.299 -42.402 12.598
      vertex -36.299 42.402 12.598
      vertex -36.299 -42.402 49.402
    endloop
  endfacet
  facet normal -1 0 0
    outer loop
      vertex -38.701 -42.402 12.598
      vertex -38.701 42.402 49.402
      vertex -38.701 42.402 12.598
    endloop
  endfacet
  facet normal -1 0 0
    outer loop
      vertex -38.701 -42.402 12.598
      vertex -38.701 -42.402 49.402
      vertex -38.701 42.402 49.402
    endloop
  endfacet
  facet normal 1 0 0
    outer loop
      vertex -36.299 42.402 12.598
      vertex -36.299 42.402 49.402
      vertex -36.299 -42.402 49.402
    endloop
  endfacet
  facet normal 0.894 0.447 0
    outer loop
      vertex -36.299 -42.402 12.598
      vertex -36.299 -42.402 49.402
      vertex -35 -45 52
    endloop
  endfacet
  facet normal -0.894 -0.447 0
    outer loop
      vertex -38.701 42.402 12.598
      vertex -38.701 42.402 49.402
      vertex -40 45 52
    endloop
  endfacet
  facet normal -0.447 -0.894 0
    outer loop
      vertex 0 53.167 14.722
      vertex 0 53.167 19.717
      vertex -0.833 53.583 15.833
    endloop
  endfacet
  facet normal 0.447 -0.894 0
    outer loop
      vertex 0 53.167 14.722
      vertex 0.833 53.583 15.833
      vertex 0 53.167 19.717
    endloop
  endfacet
  facet normal -0.447 0.894 0
    outer loop
      vertex 0 56.833 14.722
      vertex -0.833 56.417 15.833
      vertex 0 56.833 19.717
    endloop
  endfacet
  facet normal 0.447 0.894 0
    outer loop
      vertex 0 56.833 14.722
      vertex 0 56.833 19.717
      vertex 0.833 56.417 15.833
    endloop
  endfacet
  facet normal 0.447 0.894 0
    outer loop
      vertex 0 -57.094 14.733
      vertex -0.838 -56.675 15.85
      vertex 0 -57.094 19.731
    endloop
  endfacet
  facet normal -0.447 0.894 0
    outer loop
      vertex 0 -57.094 14.733
      vertex 0 -57.094 19.731
      vertex 0.838 -56.675 15.85
    endloop
  endfacet
  facet normal 0.447 -0.894 0
    outer loop
      vertex 0 -52.906 14.733
      vertex 0 -52.906 19.731
      vertex -0.838 -53.325 15.85
    endloop
  endfacet
  facet normal -0.447 -0.894 0
    outer loop
      vertex 0 -52.906 14.733
      vertex 0.838 -53.325 15.85
      vertex 0 -52.906 19.731
    endloop
  endfacet
  facet normal 0.866 0 0.5
    outer loop
      vertex 5.292 -60 15.833
      vertex 5.292 -56.681 15.833
      vertex 5.283 -56.675 15.85
    endloop
  endfacet
  facet normal 0.866 0 0.5
    outer loop
      vertex 5.292 -53.319 15.833
      vertex 5.292 -50 15.833
      vertex 5.283 -53.325 15.85
    endloop
  endfacet
  facet normal 0 -1 0
    outer loop
      vertex -5.295 53.583 15.833
      vertex -0.833 53.583 15.833
      vertex -0.833 53.583 19.717
    endloop
  endfacet
  facet normal 0 -1 0
    outer loop
      vertex 0.833 53.583 15.833
      vertex 5.292 53.583 15.833
      vertex 0.833 53.583 19.717
    endloop
  endfacet
  facet normal 0 1 0
    outer loop
      vertex -5.295 56.417 15.833
      vertex -0.833 56.417 19.717
      vertex -0.833 56.417 15.833
    endloop
  endfacet
  facet normal 0 1 0
    outer loop
      vertex 0.833 56.417 15.833
      vertex 0.833 56.417 19.717
      vertex 5.292 56.417 15.833
    endloop
  endfacet
  facet normal 0.866 0 -0.5
    outer loop
      vertex -5.295 50 15.833
      vertex -5.295 53.583 15.833
      vertex -0.003 53.325 25
    endloop
  endfacet
  facet normal 0.866 0 0.5
    outer loop
      vertex 5.292 53.583 15.833
      vertex 5.292 56.417 15.833
      vertex 0 53.583 25
    endloop
  endfacet
  facet normal 0.866 0 -0.5
    outer loop
      vertex -5.295 56.417 15.833
      vertex -5.295 60 15.833
      vertex -0.003 56.675 25
    endloop
  endfacet
  facet normal 0 0.936 -0.351
    outer loop
      vertex 5.292 -56.681 15.833
      vertex 0.838 -56.675 15.85
      vertex 5.283 -56.675 15.85
    endloop
  endfacet
  facet normal 0 -0.936 -0.351
    outer loop
      vertex 5.292 -53.319 15.833
      vertex 5.283 -53.325 15.85
      vertex 0.838 -53.325 15.85
    endloop
  endfacet
  facet normal 0.866 0 0.5
    outer loop
      vertex 5.292 -60 15.833
      vertex 5.283 -56.675 15.85
      vertex 0 -60 25
    endloop
  endfacet
  facet normal 0.866 0 0.5
    outer loop
      vertex 5.292 -50 15.833
      vertex 0 -50 25
      vertex 5.283 -53.325 15.85
    endloop
  endfacet
  facet normal -0.447 -0.894 0
    outer loop
      vertex -0.833 53.583 15.833
      vertex 0 53.167 19.717
      vertex -0.833 53.583 19.717
    endloop
  endfacet
  facet normal 0.447 -0.894 0
    outer loop
      vertex 0.833 53.583 15.833
      vertex 0.833 53.583 19.717
      vertex 0 53.167 19.717
    endloop
  endfacet
  facet normal -0.447 0.894 0
    outer loop
      vertex -0.833 56.417 15.833
      vertex -0.833 56.417 19.717
      vertex 0 56.833 19.717
    endloop
  endfacet
  facet normal 0.447 0.894 0
    outer loop
      vertex 0.833 56.417 15.833
      vertex 0 56.833 19.717
      vertex 0.833 56.417 19.717
    endloop
  endfacet
  facet normal 0 -1 0
    outer loop
      vertex -5.295 53.583 15.833
      vertex -0.833 53.583 19.717
      vertex -0.003 53.583 25
    endloop
  endfacet
  facet normal 0 -1 0
    outer loop
      vertex 5.292 53.583 15.833
      vertex 0 53.583 25
      vertex 0.833 53.583 19.717
    endloop
  endfacet
  facet normal 0 1 0
    outer loop
      vertex -5.295 56.417 15.833
      vertex -0.003 56.417 25
      vertex -0.833 56.417 19.717
    endloop
  endfacet
  facet normal 0 1 0
    outer loop
      vertex 5.292 56.417 15.833
      vertex 0.833 56.417 19.717
      vertex 0 56.417 25
    endloop
  endfacet
  facet normal 0 -1 0
    outer loop
      vertex 5.292 -60 15.833
      vertex 0 -60 25
      vertex -0.003 -60 25
    endloop
  endfacet
  facet normal 0 1 0
    outer loop
      vertex 5.292 -50 15.833
      vertex -0.003 -50 25
      vertex 0 -50 25
    endloop
  endfacet
  facet normal 0.866 0 -0.5
    outer loop
      vertex -5.295 50 15.833
      vertex -0.003 53.325 25
      vertex -0.003 50 25
    endloop
  endfacet
  facet normal 0.866 0 -0.5
    outer loop
      vertex -5.295 53.583 15.833
      vertex -0.003 53.583 25
      vertex -0.003 53.325 25
    endloop
  endfacet
  facet normal 0.866 0 0.5
    outer loop
      vertex 5.292 56.417 15.833
      vertex 0 56.417 25
      vertex 0 53.583 25
    endloop
  endfacet
  facet normal 0.866 0 -0.5
    outer loop
      vertex -5.295 56.417 15.833
      vertex -0.003 56.675 25
      vertex -0.003 56.417 25
    endloop
  endfacet
  facet normal 0.866 0 -0.5
    outer loop
      vertex -5.295 60 15.833
      vertex -0.003 60 25
      vertex -0.003 56.675 25
    endloop
  endfacet
  facet normal 0 -1 0
    outer loop
      vertex -5.295 50 15.833
      vertex -0.003 50 25
      vertex -35 50 49.985
    endloop
  endfacet
  facet normal 0 1 0
    outer loop
      vertex -5.295 60 15.833
      vertex -40 60 50
      vertex -0.003 60 25
    endloop
  endfacet
  facet normal 0 1 0
    outer loop
      vertex -5.297 -56.675 15.85
      vertex -0.838 -56.675 19.731
      vertex -0.838 -56.675 15.85
    endloop
  endfacet
  facet normal 0 1 0
    outer loop
      vertex 0.838 -56.675 15.85
      vertex 0.838 -56.675 19.731
      vertex 5.283 -56.675 15.85
    endloop
  endfacet
  facet normal 0 -1 0
    outer loop
      vertex -5.297 -53.325 15.85
      vertex -0.838 -53.325 15.85
      vertex -0.838 -53.325 19.731
    endloop
  endfacet
  facet normal 0 -1 0
    outer loop
      vertex 0.838 -53.325 15.85
      vertex 5.283 -53.325 15.85
      vertex 0.838 -53.325 19.731
    endloop
  endfacet
  facet normal 0.866 0 -0.5
    outer loop
      vertex -5.297 -56.675 15.85
      vertex -5.297 -53.325 15.85
      vertex -0.014 -56.675 25
    endloop
  endfacet
  facet normal 0.447 0.894 0
    outer loop
      vertex -0.838 -56.675 15.85
      vertex -0.838 -56.675 19.731
      vertex 0 -57.094 19.731
    endloop
  endfacet
  facet normal -0.447 0.894 0
    outer loop
      vertex 0.838 -56.675 15.85
      vertex 0 -57.094 19.731
      vertex 0.838 -56.675 19.731
    endloop
  endfacet
  facet normal 0.447 -0.894 0
    outer loop
      vertex -0.838 -53.325 15.85
      vertex 0 -52.906 19.731
      vertex -0.838 -53.325 19.731
    endloop
  endfacet
  facet normal -0.447 -0.894 0
    outer loop
      vertex 0.838 -53.325 15.85
      vertex 0.838 -53.325 19.731
      vertex 0 -52.906 19.731
    endloop
  endfacet
  facet normal 0 1 0
    outer loop
      vertex -5.297 -56.675 15.85
      vertex -0.014 -56.675 25
      vertex -0.838 -56.675 19.731
    endloop
  endfacet
  facet normal 0 1 0
    outer loop
      vertex 5.283 -56.675 15.85
      vertex 0.838 -56.675 19.731
      vertex 0 -56.675 25
    endloop
  endfacet
  facet normal 0 -1 0
    outer loop
      vertex -5.297 -53.325 15.85
      vertex -0.838 -53.325 19.731
      vertex -0.014 -53.325 25
    endloop
  endfacet
  facet normal 0 -1 0
    outer loop
      vertex 5.283 -53.325 15.85
      vertex 0 -53.325 25
      vertex 0.838 -53.325 19.731
    endloop
  endfacet
  facet normal 0.866 0 0.5
    outer loop
      vertex 5.283 -56.675 15.85
      vertex 0 -56.675 25
      vertex 0 -60 25
    endloop
  endfacet
  facet normal 0.866 0 -0.5
    outer loop
      vertex -5.297 -53.325 15.85
      vertex -0.014 -53.325 25
      vertex -0.014 -56.675 25
    endloop
  endfacet
  facet normal 0.866 0 0.5
    outer loop
      vertex 5.283 -53.325 15.85
      vertex 0 -50 25
      vertex 0 -53.325 25
    endloop
  endfacet
  facet normal 0 0 1
    outer loop
      vertex 0 53.167 19.717
      vertex 0 53.583 19.717
      vertex -0.833 53.583 19.717
    endloop
  endfacet
  facet normal 0 0 1
    outer loop
      vertex 0 53.167 19.717
      vertex 0.833 53.583 19.717
      vertex 0 53.583 19.717
    endloop
  endfacet
  facet normal 0 0 1
    outer loop
      vertex -0.833 56.417 19.717
      vertex 0 56.417 19.717
      vertex 0 56.833 19.717
    endloop
  endfacet
  facet normal 0 0 1
    outer loop
      vertex 0 56.417 19.717
      vertex 0.833 56.417 19.717
      vertex 0 56.833 19.717
    endloop
  endfacet
  facet normal 0 -1 0
    outer loop
      vertex -0.833 53.583 19.717
      vertex 0 53.583 19.717
      vertex -0.003 53.583 25
    endloop
  endfacet
  facet normal 0 -1 0
    outer loop
      vertex 0 53.583 19.717
      vertex 0.833 53.583 19.717
      vertex 0 53.583 25
    endloop
  endfacet
  facet normal 0 1 0
    outer loop
      vertex -0.833 56.417 19.717
      vertex -0.003 56.417 25
      vertex 0 56.417 19.717
    endloop
  endfacet
  facet normal 0 1 0
    outer loop
      vertex 0 56.417 19.717
      vertex 0 56.417 25
      vertex 0.833 56.417 19.717
    endloop
  endfacet
  facet normal 0 -1 0
    outer loop
      vertex 0 53.583 19.717
      vertex 0 53.583 25
      vertex -0.003 53.583 25
    endloop
  endfacet
  facet normal 0 1 0
    outer loop
      vertex 0 56.417 19.717
      vertex -0.003 56.417 25
      vertex 0 56.417 25
    endloop
  endfacet
  facet normal 0 0 -1
    outer loop
      vertex 0 -57.094 19.731
      vertex -0.838 -56.675 19.731
      vertex 0 -56.675 19.731
    endloop
  endfacet
  facet normal 0 0 -1
    outer loop
      vertex 0 -57.094 19.731
      vertex 0 -56.675 19.731
      vertex 0.838 -56.675 19.731
    endloop
  endfacet
  facet normal 0 0 -1
    outer loop
      vertex -0.838 -53.325 19.731
      vertex 0 -52.906 19.731
      vertex 0 -53.325 19.731
    endloop
  endfacet
  facet normal 0 0 -1
    outer loop
      vertex 0 -53.325 19.731
      vertex 0 -52.906 19.731
      vertex 0.838 -53.325 19.731
    endloop
  endfacet
  facet normal 0 1 0
    outer loop
      vertex -0.838 -56.675 19.731
      vertex -0.014 -56.675 25
      vertex 0 -56.675 19.731
    endloop
  endfacet
  facet normal 0 1 0
    outer loop
      vertex 0 -56.675 19.731
      vertex 0 -56.675 25
      vertex 0.838 -56.675 19.731
    endloop
  endfacet
  facet normal 0 -1 0
    outer loop
      vertex -0.838 -53.325 19.731
      vertex 0 -53.325 19.731
      vertex -0.014 -53.325 25
    endloop
  endfacet
  facet normal 0 -1 0
    outer loop
      vertex 0 -53.325 19.731
      vertex 0.838 -53.325 19.731
      vertex 0 -53.325 25
    endloop
  endfacet
  facet normal 0 1 0
    outer loop
      vertex 0 -56.675 19.731
      vertex -0.014 -56.675 25
      vertex 0 -56.675 25
    endloop
  endfacet
  facet normal 0 -1 0
    outer loop
      vertex 0 -53.325 19.731
      vertex 0 -53.325 25
      vertex -0.014 -53.325 25
    endloop
  endfacet
  facet normal 0 0 1
    outer loop
      vertex -0.003 -60 25
      vertex 0 -60 25
      vertex -0.003 -56.675 25
    endloop
  endfacet
  facet normal 0 0 1
    outer loop
      vertex 0 -60 25
      vertex 0 -56.675 25
      vertex -0.003 -56.675 25
    endloop
  endfacet
  facet normal 0 0 0
    outer loop
      vertex -0.014 -56.675 25
      vertex -0.003 -56.675 25
      vertex 0 -56.675 25
    endloop
  endfacet
  facet normal 0 0 -1
    outer loop
      vertex -0.014 -56.675 25
      vertex -0.003 -56.417 25
      vertex -0.003 -56.675 25
    endloop
  endfacet
  facet normal 0 0 -1
    outer loop
      vertex -0.014 -56.675 25
      vertex -0.003 -53.583 25
      vertex -0.003 -56.417 25
    endloop
  endfacet
  facet normal 0 0 -1
    outer loop
      vertex -0.014 -56.675 25
      vertex -0.014 -53.325 25
      vertex -0.003 -53.583 25
    endloop
  endfacet
  facet normal 0 0 -1
    outer loop
      vertex -0.003 -56.417 25
      vertex 0 -53.583 25
      vertex 0 -56.417 25
    endloop
  endfacet
  facet normal 0 0 -1
    outer loop
      vertex -0.003 -56.417 25
      vertex -0.003 -53.583 25
      vertex 0 -53.583 25
    endloop
  endfacet
  facet normal 0 0 -1
    outer loop
      vertex -0.003 -53.583 25
      vertex -0.014 -53.325 25
      vertex -0.003 -53.325 25
    endloop
  endfacet
  facet normal 0 0 0
    outer loop
      vertex -0.014 -53.325 25
      vertex 0 -53.325 25
      vertex -0.003 -53.325 25
    endloop
  endfacet
  facet normal 0 0 1
    outer loop
      vertex -0.003 -53.325 25
      vertex 0 -53.325 25
      vertex -0.003 -50 25
    endloop
  endfacet
  facet normal 0 0 1
    outer loop
      vertex 0 -53.325 25
      vertex 0 -50 25
      vertex -0.003 -50 25
    endloop
  endfacet
  facet normal 0 0 -1
    outer loop
      vertex -0.003 50 25
      vertex 0 53.325 25
      vertex 0 50 25
    endloop
  endfacet
  facet normal 0 0 -1
    outer loop
      vertex -0.003 50 25
      vertex -0.003 53.325 25
      vertex 0 53.325 25
    endloop
  endfacet
  facet normal 0 0 1
    outer loop
      vertex -0.014 53.325 25
      vertex -0.003 53.325 25
      vertex -0.003 53.583 25
    endloop
  endfacet
  facet normal 0 0 1
    outer loop
      vertex -0.014 53.325 25
      vertex -0.003 53.583 25
      vertex -0.014 56.675 25
    endloop
  endfacet
  facet normal 0 0 1
    outer loop
      vertex -0.003 53.583 25
      vertex 0 53.583 25
      vertex -0.003 56.417 25
    endloop
  endfacet
  facet normal 0 0 1
    outer loop
      vertex 0 53.583 25
      vertex 0 56.417 25
      vertex -0.003 56.417 25
    endloop
  endfacet
  facet normal 0 0 1
    outer loop
      vertex -0.003 53.583 25
      vertex -0.003 56.417 25
      vertex -0.014 56.675 25
    endloop
  endfacet
  facet normal 0 0 1
    outer loop
      vertex -0.003 56.417 25
      vertex -0.003 56.675 25
      vertex -0.014 56.675 25
    endloop
  endfacet
  facet normal 0 0 -1
    outer loop
      vertex -0.003 56.675 25
      vertex 0 60 25
      vertex 0 56.675 25
    endloop
  endfacet
  facet normal 0 0 -1
    outer loop
      vertex -0.003 56.675 25
      vertex -0.003 60 25
      vertex 0 60 25
    endloop
  endfacet
  facet normal 0 1 0
    outer loop
      vertex -0.014 53.325 25
      vertex 0 53.325 30.269
      vertex -0.003 53.325 25
    endloop
  endfacet
  facet normal 0 1 0
    outer loop
      vertex -0.003 53.325 25
      vertex 0 53.325 30.269
      vertex 0 53.325 25
    endloop
  endfacet
  facet normal 0 -1 0
    outer loop
      vertex -0.014 56.675 25
      vertex -0.003 56.675 25
      vertex 0 56.675 30.269
    endloop
  endfacet
  facet normal 0 -1 0
    outer loop
      vertex -0.003 56.675 25
      vertex 0 56.675 25
      vertex 0 56.675 30.269
    endloop
  endfacet
  facet normal 0 -1 0
    outer loop
      vertex -0.003 -56.417 25
      vertex 0 -56.417 25
      vertex 0 -56.417 30.283
    endloop
  endfacet
  facet normal 0 1 0
    outer loop
      vertex -0.003 -53.583 25
      vertex 0 -53.583 30.283
      vertex 0 -53.583 25
    endloop
  endfacet
  facet normal 0.866 0 0.5
    outer loop
      vertex -0.014 53.325 25
      vertex -0.014 56.675 25
      vertex -5.297 53.325 34.15
    endloop
  endfacet
  facet normal 0.866 0 -0.5
    outer loop
      vertex 0 56.675 25
      vertex 0 60 25
      vertex 5.283 56.675 34.15
    endloop
  endfacet
  facet normal 0.866 0 0.5
    outer loop
      vertex -0.003 -60 25
      vertex -0.003 -56.675 25
      vertex -5.295 -60 34.167
    endloop
  endfacet
  facet normal 0.866 0 0.5
    outer loop
      vertex -0.003 -56.675 25
      vertex -0.003 -56.417 25
      vertex -5.295 -56.417 34.167
    endloop
  endfacet
  facet normal 0.866 0 -0.5
    outer loop
      vertex 0 -56.417 25
      vertex 0 -53.583 25
      vertex 5.292 -56.417 34.167
    endloop
  endfacet
  facet normal 0.866 0 0.5
    outer loop
      vertex -0.003 -53.583 25
      vertex -0.003 -53.325 25
      vertex -5.295 -53.583 34.167
    endloop
  endfacet
  facet normal 0.866 0 0.5
    outer loop
      vertex -0.003 -53.325 25
      vertex -0.003 -50 25
      vertex -5.295 -50 34.167
    endloop
  endfacet
  facet normal 0 -1 0
    outer loop
      vertex -0.003 50 25
      vertex 0 50 25
      vertex 5.292 50 34.167
    endloop
  endfacet
  facet normal 0.866 0 -0.5
    outer loop
      vertex 0 50 25
      vertex 0 53.325 25
      vertex 5.292 50 34.167
    endloop
  endfacet
  facet normal 0 1 0
    outer loop
      vertex -0.003 60 25
      vertex 5.292 60 34.167
      vertex 0 60 25
    endloop
  endfacet
  facet normal 0 1 0
    outer loop
      vertex -0.014 53.325 25
      vertex -0.838 53.325 30.269
      vertex 0 53.325 30.269
    endloop
  endfacet
  facet normal 0 1 0
    outer loop
      vertex 0 53.325 25
      vertex 0 53.325 30.269
      vertex 0.838 53.325 30.269
    endloop
  endfacet
  facet normal 0 -1 0
    outer loop
      vertex -0.014 56.675 25
      vertex 0 56.675 30.269
      vertex -0.838 56.675 30.269
    endloop
  endfacet
  facet normal 0 -1 0
    outer loop
      vertex 0 56.675 25
      vertex 0.838 56.675 30.269
      vertex 0 56.675 30.269
    endloop
  endfacet
  facet normal 0 1 0
    outer loop
      vertex -0.014 53.325 25
      vertex -5.297 53.325 34.15
      vertex -0.838 53.325 30.269
    endloop
  endfacet
  facet normal 0 1 0
    outer loop
      vertex 0 53.325 25
      vertex 0.838 53.325 30.269
      vertex 5.283 53.325 34.15
    endloop
  endfacet
  facet normal 0 -1 0
    outer loop
      vertex -0.014 56.675 25
      vertex -0.838 56.675 30.269
      vertex -5.297 56.675 34.15
    endloop
  endfacet
  facet normal 0 -1 0
    outer loop
      vertex 0 56.675 25
      vertex 5.283 56.675 34.15
      vertex 0.838 56.675 30.269
    endloop
  endfacet
  facet normal 0 -1 0
    outer loop
      vertex -0.003 -56.417 25
      vertex 0 -56.417 30.283
      vertex -0.833 -56.417 30.283
    endloop
  endfacet
  facet normal 0 -1 0
    outer loop
      vertex 0 -56.417 25
      vertex 0.833 -56.417 30.283
      vertex 0 -56.417 30.283
    endloop
  endfacet
  facet normal 0 1 0
    outer loop
      vertex -0.003 -53.583 25
      vertex -0.833 -53.583 30.283
      vertex 0 -53.583 30.283
    endloop
  endfacet
  facet normal 0 1 0
    outer loop
      vertex 0 -53.583 25
      vertex 0 -53.583 30.283
      vertex 0.833 -53.583 30.283
    endloop
  endfacet
  facet normal 0 -1 0
    outer loop
      vertex -0.003 -56.417 25
      vertex -0.833 -56.417 30.283
      vertex -5.295 -56.417 34.167
    endloop
  endfacet
  facet normal 0 -1 0
    outer loop
      vertex 0 -56.417 25
      vertex 5.292 -56.417 34.167
      vertex 0.833 -56.417 30.283
    endloop
  endfacet
  facet normal 0 1 0
    outer loop
      vertex -0.003 -53.583 25
      vertex -5.295 -53.583 34.167
      vertex -0.833 -53.583 30.283
    endloop
  endfacet
  facet normal 0 1 0
    outer loop
      vertex 0 -53.583 25
      vertex 0.833 -53.583 30.283
      vertex 5.292 -53.583 34.167
    endloop
  endfacet
  facet normal 0.866 0 0.5
    outer loop
      vertex -0.014 56.675 25
      vertex -5.297 56.675 34.15
      vertex -5.297 53.325 34.15
    endloop
  endfacet
  facet normal 0.866 0 -0.5
    outer loop
      vertex 0 53.325 25
      vertex 5.283 53.325 34.15
      vertex 5.292 50 34.167
    endloop
  endfacet
  facet normal 0.866 0 -0.5
    outer loop
      vertex 0 60 25
      vertex 5.292 60 34.167
      vertex 5.283 56.675 34.15
    endloop
  endfacet
  facet normal 0.866 0 0.5
    outer loop
      vertex -0.003 -56.675 25
      vertex -5.295 -56.417 34.167
      vertex -5.295 -60 34.167
    endloop
  endfacet
  facet normal 0.866 0 -0.5
    outer loop
      vertex 0 -53.583 25
      vertex 5.292 -53.583 34.167
      vertex 5.292 -56.417 34.167
    endloop
  endfacet
  facet normal 0.866 0 0.5
    outer loop
      vertex -0.003 -53.325 25
      vertex -5.295 -50 34.167
      vertex -5.295 -53.583 34.167
    endloop
  endfacet
  facet normal 0 -1 0
    outer loop
      vertex -0.003 50 25
      vertex 5.292 50 34.167
      vertex 5.292 50 40.833
    endloop
  endfacet
  facet normal 0 1 0
    outer loop
      vertex -0.003 60 25
      vertex 5.292 60 40.833
      vertex 5.292 60 34.167
    endloop
  endfacet
  facet normal 0 -1 0
    outer loop
      vertex -0.003 50 25
      vertex 5.292 50 40.833
      vertex 0 50 49.985
    endloop
  endfacet
  facet normal 0 1 0
    outer loop
      vertex -0.003 60 25
      vertex 0 60 50
      vertex 5.292 60 40.833
    endloop
  endfacet
  facet normal 0 -1 0
    outer loop
      vertex -0.003 50 25
      vertex 0 50 49.985
      vertex -35 50 49.985
    endloop
  endfacet
  facet normal 0 1 0
    outer loop
      vertex -0.003 60 25
      vertex -40 60 50
      vertex 0 60 50
    endloop
  endfacet
  facet normal 0 0 1
    outer loop
      vertex 0 52.906 30.269
      vertex 0 53.325 30.269
      vertex -0.838 53.325 30.269
    endloop
  endfacet
  facet normal 0 0 1
    outer loop
      vertex 0 52.906 30.269
      vertex 0.838 53.325 30.269
      vertex 0 53.325 30.269
    endloop
  endfacet
  facet normal 0 0 1
    outer loop
      vertex -0.838 56.675 30.269
      vertex 0 56.675 30.269
      vertex 0 57.094 30.269
    endloop
  endfacet
  facet normal 0 0 1
    outer loop
      vertex 0 56.675 30.269
      vertex 0.838 56.675 30.269
      vertex 0 57.094 30.269
    endloop
  endfacet
  facet normal 0.447 0.894 0
    outer loop
      vertex 0 52.906 30.269
      vertex -0.838 53.325 30.269
      vertex -0.838 53.325 34.15
    endloop
  endfacet
  facet normal -0.447 0.894 0
    outer loop
      vertex 0 52.906 30.269
      vertex 0.838 53.325 34.15
      vertex 0.838 53.325 30.269
    endloop
  endfacet
  facet normal 0.447 -0.894 0
    outer loop
      vertex -0.838 56.675 30.269
      vertex 0 57.094 30.269
      vertex -0.838 56.675 34.15
    endloop
  endfacet
  facet normal -0.447 -0.894 0
    outer loop
      vertex 0.838 56.675 30.269
      vertex 0.838 56.675 34.15
      vertex 0 57.094 30.269
    endloop
  endfacet
  facet normal 0 1 0
    outer loop
      vertex -0.838 53.325 30.269
      vertex -5.297 53.325 34.15
      vertex -0.838 53.325 34.15
    endloop
  endfacet
  facet normal 0 1 0
    outer loop
      vertex 0.838 53.325 30.269
      vertex 0.838 53.325 34.15
      vertex 5.283 53.325 34.15
    endloop
  endfacet
  facet normal 0 -1 0
    outer loop
      vertex -0.838 56.675 30.269
      vertex -0.838 56.675 34.15
      vertex -5.297 56.675 34.15
    endloop
  endfacet
  facet normal 0 -1 0
    outer loop
      vertex 0.838 56.675 30.269
      vertex 5.283 56.675 34.15
      vertex 0.838 56.675 34.15
    endloop
  endfacet
  facet normal 0.447 0.894 0
    outer loop
      vertex 0 52.906 30.269
      vertex -0.838 53.325 34.15
      vertex 0 52.906 35.267
    endloop
  endfacet
  facet normal -0.447 0.894 0
    outer loop
      vertex 0 52.906 30.269
      vertex 0 52.906 35.267
      vertex 0.838 53.325 34.15
    endloop
  endfacet
  facet normal 0.447 -0.894 0
    outer loop
      vertex 0 57.094 30.269
      vertex 0 57.094 35.267
      vertex -0.838 56.675 34.15
    endloop
  endfacet
  facet normal -0.447 -0.894 0
    outer loop
      vertex 0 57.094 30.269
      vertex 0.838 56.675 34.15
      vertex 0 57.094 35.267
    endloop
  endfacet
  facet normal 0 0 -1
    outer loop
      vertex 0 -56.833 30.283
      vertex -0.833 -56.417 30.283
      vertex 0 -56.417 30.283
    endloop
  endfacet
  facet normal 0 0 -1
    outer loop
      vertex 0 -56.833 30.283
      vertex 0 -56.417 30.283
      vertex 0.833 -56.417 30.283
    endloop
  endfacet
  facet normal 0 0 -1
    outer loop
      vertex -0.833 -53.583 30.283
      vertex 0 -53.167 30.283
      vertex 0 -53.583 30.283
    endloop
  endfacet
  facet normal 0 0 -1
    outer loop
      vertex 0 -53.583 30.283
      vertex 0 -53.167 30.283
      vertex 0.833 -53.583 30.283
    endloop
  endfacet
  facet normal -0.447 -0.894 0
    outer loop
      vertex 0 -56.833 30.283
      vertex -0.833 -56.417 34.167
      vertex -0.833 -56.417 30.283
    endloop
  endfacet
  facet normal 0.447 -0.894 0
    outer loop
      vertex 0 -56.833 30.283
      vertex 0.833 -56.417 30.283
      vertex 0.833 -56.417 34.167
    endloop
  endfacet
  facet normal -0.447 0.894 0
    outer loop
      vertex -0.833 -53.583 30.283
      vertex -0.833 -53.583 34.167
      vertex 0 -53.167 30.283
    endloop
  endfacet
  facet normal 0.447 0.894 0
    outer loop
      vertex 0.833 -53.583 30.283
      vertex 0 -53.167 30.283
      vertex 0.833 -53.583 34.167
    endloop
  endfacet
  facet normal 0 -1 0
    outer loop
      vertex -0.833 -56.417 30.283
      vertex -0.833 -56.417 34.167
      vertex -5.295 -56.417 34.167
    endloop
  endfacet
  facet normal 0 -1 0
    outer loop
      vertex 0.833 -56.417 30.283
      vertex 5.292 -56.417 34.167
      vertex 0.833 -56.417 34.167
    endloop
  endfacet
  facet normal 0 1 0
    outer loop
      vertex -0.833 -53.583 30.283
      vertex -5.295 -53.583 34.167
      vertex -0.833 -53.583 34.167
    endloop
  endfacet
  facet normal 0 1 0
    outer loop
      vertex 0.833 -53.583 30.283
      vertex 0.833 -53.583 34.167
      vertex 5.292 -53.583 34.167
    endloop
  endfacet
  facet normal -0.447 -0.894 0
    outer loop
      vertex 0 -56.833 30.283
      vertex 0 -56.833 35.278
      vertex -0.833 -56.417 34.167
    endloop
  endfacet
  facet normal 0.447 -0.894 0
    outer loop
      vertex 0 -56.833 30.283
      vertex 0.833 -56.417 34.167
      vertex 0 -56.833 35.278
    endloop
  endfacet
  facet normal -0.447 0.894 0
    outer loop
      vertex 0 -53.167 30.283
      vertex -0.833 -53.583 34.167
      vertex 0 -53.167 35.278
    endloop
  endfacet
  facet normal 0.447 0.894 0
    outer loop
      vertex 0 -53.167 30.283
      vertex 0 -53.167 35.278
      vertex 0.833 -53.583 34.167
    endloop
  endfacet
  facet normal 0 0.936 0.351
    outer loop
      vertex 0.838 53.325 34.15
      vertex 5.292 53.319 34.167
      vertex 5.283 53.325 34.15
    endloop
  endfacet
  facet normal 0 -0.936 0.351
    outer loop
      vertex 0.838 56.675 34.15
      vertex 5.283 56.675 34.15
      vertex 5.292 56.681 34.167
    endloop
  endfacet
  facet normal 0 0.936 0.351
    outer loop
      vertex -5.297 53.325 34.15
      vertex -5.297 52.069 37.5
      vertex -0.838 53.325 34.15
    endloop
  endfacet
  facet normal 1 0 0
    outer loop
      vertex -5.297 53.325 34.15
      vertex -5.297 56.675 34.15
      vertex -5.297 54.581 37.5
    endloop
  endfacet
  facet normal 0 -0.936 0.351
    outer loop
      vertex -5.297 56.675 34.15
      vertex -0.838 56.675 34.15
      vertex -5.297 57.931 37.5
    endloop
  endfacet
  facet normal 0.866 0 -0.5
    outer loop
      vertex 5.283 53.325 34.15
      vertex 5.292 53.319 34.167
      vertex 5.292 50 34.167
    endloop
  endfacet
  facet normal 0.866 0 -0.5
    outer loop
      vertex 5.283 56.675 34.15
      vertex 5.292 60 34.167
      vertex 5.292 56.681 34.167
    endloop
  endfacet
  facet normal 0 0.936 0.351
    outer loop
      vertex 0.838 53.325 34.15
      vertex 5.292 52.069 37.5
      vertex 5.292 53.319 34.167
    endloop
  endfacet
  facet normal 0 -0.936 0.351
    outer loop
      vertex 0.838 56.675 34.15
      vertex 5.292 56.681 34.167
      vertex 5.292 57.931 37.5
    endloop
  endfacet
  facet normal 0 0.936 0.351
    outer loop
      vertex -0.838 53.325 34.15
      vertex -5.297 52.069 37.5
      vertex 0 52.906 35.267
    endloop
  endfacet
  facet normal 0 0.936 0.351
    outer loop
      vertex 0.838 53.325 34.15
      vertex 0 52.906 35.267
      vertex 5.292 52.069 37.5
    endloop
  endfacet
  facet normal 0 -0.936 0.351
    outer loop
      vertex -0.838 56.675 34.15
      vertex 0 57.094 35.267
      vertex -5.297 57.931 37.5
    endloop
  endfacet
  facet normal 0 -0.936 0.351
    outer loop
      vertex 0.838 56.675 34.15
      vertex 5.292 57.931 37.5
      vertex 0 57.094 35.267
    endloop
  endfacet
  facet normal 1 0 0
    outer loop
      vertex -5.297 53.325 34.15
      vertex -5.297 54.581 37.5
      vertex -5.297 52.069 37.5
    endloop
  endfacet
  facet normal 1 0 0
    outer loop
      vertex -5.297 56.675 34.15
      vertex -5.297 55.419 37.5
      vertex -5.297 54.581 37.5
    endloop
  endfacet
  facet normal 1 0 0
    outer loop
      vertex -5.297 56.675 34.15
      vertex -5.297 57.931 37.5
      vertex -5.297 55.419 37.5
    endloop
  endfacet
  facet normal 1 0 0
    outer loop
      vertex -5.295 -60 34.167
      vertex -5.295 -56.417 34.167
      vertex -5.295 -57.667 37.5
    endloop
  endfacet
  facet normal 0 -0.936 -0.351
    outer loop
      vertex -5.295 -56.417 34.167
      vertex -0.833 -56.417 34.167
      vertex -5.295 -57.667 37.5
    endloop
  endfacet
  facet normal 0 -0.936 -0.351
    outer loop
      vertex 0.833 -56.417 34.167
      vertex 5.292 -56.417 34.167
      vertex 5.292 -57.667 37.5
    endloop
  endfacet
  facet normal 1 0 0
    outer loop
      vertex 5.292 -56.417 34.167
      vertex 5.292 -53.583 34.167
      vertex 5.292 -55.167 37.5
    endloop
  endfacet
  facet normal 0 0.936 -0.351
    outer loop
      vertex -5.295 -53.583 34.167
      vertex -5.295 -52.333 37.5
      vertex -0.833 -53.583 34.167
    endloop
  endfacet
  facet normal 0 0.936 -0.351
    outer loop
      vertex 0.833 -53.583 34.167
      vertex 5.292 -52.333 37.5
      vertex 5.292 -53.583 34.167
    endloop
  endfacet
  facet normal 1 0 0
    outer loop
      vertex -5.295 -53.583 34.167
      vertex -5.295 -50 34.167
      vertex -5.295 -52.333 37.5
    endloop
  endfacet
  facet normal 1 0 0
    outer loop
      vertex 5.292 50 34.167
      vertex 5.292 53.319 34.167
      vertex 5.292 52.069 37.5
    endloop
  endfacet
  facet normal 1 0 0
    outer loop
      vertex 5.292 56.681 34.167
      vertex 5.292 60 34.167
      vertex 5.292 57.931 37.5
    endloop
  endfacet
  facet normal 0 -0.936 -0.351
    outer loop
      vertex -0.833 -56.417 34.167
      vertex 0 -56.833 35.278
      vertex -5.295 -57.667 37.5
    endloop
  endfacet
  facet normal 0 -0.936 -0.351
    outer loop
      vertex 0.833 -56.417 34.167
      vertex 5.292 -57.667 37.5
      vertex 0 -56.833 35.278
    endloop
  endfacet
  facet normal 0 0.936 -0.351
    outer loop
      vertex -0.833 -53.583 34.167
      vertex -5.295 -52.333 37.5
      vertex 0 -53.167 35.278
    endloop
  endfacet
  facet normal 0 0.936 -0.351
    outer loop
      vertex 0.833 -53.583 34.167
      vertex 0 -53.167 35.278
      vertex 5.292 -52.333 37.5
    endloop
  endfacet
  facet normal 1 0 0
    outer loop
      vertex 5.292 -56.417 34.167
      vertex 5.292 -55.167 37.5
      vertex 5.292 -57.667 37.5
    endloop
  endfacet
  facet normal 1 0 0
    outer loop
      vertex 5.292 -53.583 34.167
      vertex 5.292 -54.833 37.5
      vertex 5.292 -55.167 37.5
    endloop
  endfacet
  facet normal 1 0 0
    outer loop
      vertex 5.292 -53.583 34.167
      vertex 5.292 -52.333 37.5
      vertex 5.292 -54.833 37.5
    endloop
  endfacet
  facet normal 1 0 0
    outer loop
      vertex -5.295 -60 34.167
      vertex -5.295 -57.667 37.5
      vertex -5.295 -60 40.833
    endloop
  endfacet
  facet normal 1 0 0
    outer loop
      vertex -5.295 -50 34.167
      vertex -5.295 -50 40.833
      vertex -5.295 -52.333 37.5
    endloop
  endfacet
  facet normal 1 0 0
    outer loop
      vertex 5.292 50 34.167
      vertex 5.292 52.069 37.5
      vertex 5.292 50 40.833
    endloop
  endfacet
  facet normal 1 0 0
    outer loop
      vertex 5.292 60 34.167
      vertex 5.292 60 40.833
      vertex 5.292 57.931 37.5
    endloop
  endfacet
  facet normal 0 1 0
    outer loop
      vertex -5.295 -50 34.167
      vertex -35 -50 57
      vertex -5.295 -50 40.833
    endloop
  endfacet
  facet normal 0 -1 0
    outer loop
      vertex -5.295 -60 34.167
      vertex -5.295 -60 40.833
      vertex -40 -60 61.995
    endloop
  endfacet
  facet normal 0 0.936 0.351
    outer loop
      vertex 0 52.906 35.267
      vertex -5.297 52.069 37.5
      vertex 5.292 52.069 37.5
    endloop
  endfacet
  facet normal 0 -0.936 0.351
    outer loop
      vertex 0 57.094 35.267
      vertex 5.292 57.931 37.5
      vertex -5.297 57.931 37.5
    endloop
  endfacet
  facet normal 0 -0.936 -0.351
    outer loop
      vertex 0 -56.833 35.278
      vertex 5.292 -57.667 37.5
      vertex -5.295 -57.667 37.5
    endloop
  endfacet
  facet normal 0 0.936 -0.351
    outer loop
      vertex 0 -53.167 35.278
      vertex -5.295 -52.333 37.5
      vertex 5.292 -52.333 37.5
    endloop
  endfacet
  facet normal 0 -0.936 0.351
    outer loop
      vertex -5.295 -57.667 37.5
      vertex 5.292 -57.667 37.5
      vertex 0 -56.833 39.722
    endloop
  endfacet
  facet normal 0 0.936 0.351
    outer loop
      vertex -5.295 -52.333 37.5
      vertex 0 -53.167 39.722
      vertex 5.292 -52.333 37.5
    endloop
  endfacet
  facet normal 0 0.936 -0.351
    outer loop
      vertex -5.297 52.069 37.5
      vertex 0 52.906 39.733
      vertex 5.292 52.069 37.5
    endloop
  endfacet
  facet normal 0 -0.936 -0.351
    outer loop
      vertex -5.297 57.931 37.5
      vertex 5.292 57.931 37.5
      vertex 0 57.094 39.733
    endloop
  endfacet
  facet normal 1 0 0
    outer loop
      vertex 5.292 -57.667 37.5
      vertex 5.292 -55.167 37.5
      vertex 5.292 -56.417 40.833
    endloop
  endfacet
  facet normal 1 0 0
    outer loop
      vertex 5.292 -55.167 37.5
      vertex 5.292 -54.833 37.5
      vertex 5.292 -53.583 40.833
    endloop
  endfacet
  facet normal 1 0 0
    outer loop
      vertex 5.292 -54.833 37.5
      vertex 5.292 -52.333 37.5
      vertex 5.292 -53.583 40.833
    endloop
  endfacet
  facet normal 1 0 0
    outer loop
      vertex -5.297 52.069 37.5
      vertex -5.297 54.581 37.5
      vertex -5.297 53.325 40.85
    endloop
  endfacet
  facet normal 1 0 0
    outer loop
      vertex -5.297 54.581 37.5
      vertex -5.297 55.419 37.5
      vertex -5.297 56.675 40.85
    endloop
  endfacet
  facet normal 1 0 0
    outer loop
      vertex -5.297 55.419 37.5
      vertex -5.297 57.931 37.5
      vertex -5.297 56.675 40.85
    endloop
  endfacet
  facet normal 0 -0.936 0.351
    outer loop
      vertex -5.295 -57.667 37.5
      vertex 0 -56.833 39.722
      vertex -0.833 -56.417 40.833
    endloop
  endfacet
  facet normal 0 -0.936 0.351
    outer loop
      vertex 5.292 -57.667 37.5
      vertex 0.833 -56.417 40.833
      vertex 0 -56.833 39.722
    endloop
  endfacet
  facet normal 0 0.936 0.351
    outer loop
      vertex -5.295 -52.333 37.5
      vertex -0.833 -53.583 40.833
      vertex 0 -53.167 39.722
    endloop
  endfacet
  facet normal 0 0.936 0.351
    outer loop
      vertex 5.292 -52.333 37.5
      vertex 0 -53.167 39.722
      vertex 0.833 -53.583 40.833
    endloop
  endfacet
  facet normal 0 0.936 -0.351
    outer loop
      vertex -5.297 52.069 37.5
      vertex -0.838 53.325 40.85
      vertex 0 52.906 39.733
    endloop
  endfacet
  facet normal 0 0.936 -0.351
    outer loop
      vertex 5.292 52.069 37.5
      vertex 0 52.906 39.733
      vertex 0.838 53.325 40.85
    endloop
  endfacet
  facet normal 0 -0.936 -0.351
    outer loop
      vertex -5.297 57.931 37.5
      vertex 0 57.094 39.733
      vertex -0.838 56.675 40.85
    endloop
  endfacet
  facet normal 0 -0.936 -0.351
    outer loop
      vertex 5.292 57.931 37.5
      vertex 0.838 56.675 40.85
      vertex 0 57.094 39.733
    endloop
  endfacet
  facet normal 1 0 0
    outer loop
      vertex -5.295 -57.667 37.5
      vertex -5.295 -56.417 40.833
      vertex -5.295 -60 40.833
    endloop
  endfacet
  facet normal 0 -0.936 0.351
    outer loop
      vertex -5.295 -57.667 37.5
      vertex -0.833 -56.417 40.833
      vertex -5.295 -56.417 40.833
    endloop
  endfacet
  facet normal 0 -0.936 0.351
    outer loop
      vertex 5.292 -57.667 37.5
      vertex 5.292 -56.417 40.833
      vertex 0.833 -56.417 40.833
    endloop
  endfacet
  facet normal 1 0 0
    outer loop
      vertex 5.292 -55.167 37.5
      vertex 5.292 -53.583 40.833
      vertex 5.292 -56.417 40.833
    endloop
  endfacet
  facet normal 0 0.936 0.351
    outer loop
      vertex -5.295 -52.333 37.5
      vertex -5.295 -53.583 40.833
      vertex -0.833 -53.583 40.833
    endloop
  endfacet
  facet normal 0 0.936 0.351
    outer loop
      vertex 5.292 -52.333 37.5
      vertex 0.833 -53.583 40.833
      vertex 5.292 -53.583 40.833
    endloop
  endfacet
  facet normal 1 0 0
    outer loop
      vertex -5.295 -52.333 37.5
      vertex -5.295 -50 40.833
      vertex -5.295 -53.583 40.833
    endloop
  endfacet
  facet normal 1 0 0
    outer loop
      vertex 5.292 52.069 37.5
      vertex 5.292 53.319 40.833
      vertex 5.292 50 40.833
    endloop
  endfacet
  facet normal 1 0 0
    outer loop
      vertex 5.292 57.931 37.5
      vertex 5.292 60 40.833
      vertex 5.292 56.681 40.833
    endloop
  endfacet
  facet normal 0 0.936 -0.351
    outer loop
      vertex 5.292 52.069 37.5
      vertex 0.838 53.325 40.85
      vertex 5.292 53.319 40.833
    endloop
  endfacet
  facet normal 0 -0.936 -0.351
    outer loop
      vertex 5.292 57.931 37.5
      vertex 5.292 56.681 40.833
      vertex 0.838 56.675 40.85
    endloop
  endfacet
  facet normal 0 0.936 -0.351
    outer loop
      vertex -5.297 52.069 37.5
      vertex -5.297 53.325 40.85
      vertex -0.838 53.325 40.85
    endloop
  endfacet
  facet normal 1 0 0
    outer loop
      vertex -5.297 54.581 37.5
      vertex -5.297 56.675 40.85
      vertex -5.297 53.325 40.85
    endloop
  endfacet
  facet normal 0 -0.936 -0.351
    outer loop
      vertex -5.297 57.931 37.5
      vertex -0.838 56.675 40.85
      vertex -5.297 56.675 40.85
    endloop
  endfacet
  facet normal -0.447 -0.894 0
    outer loop
      vertex 0 -56.833 39.722
      vertex 0 -56.833 44.717
      vertex -0.833 -56.417 40.833
    endloop
  endfacet
  facet normal 0.447 -0.894 0
    outer loop
      vertex 0 -56.833 39.722
      vertex 0.833 -56.417 40.833
      vertex 0 -56.833 44.717
    endloop
  endfacet
  facet normal -0.447 0.894 0
    outer loop
      vertex 0 -53.167 39.722
      vertex -0.833 -53.583 40.833
      vertex 0 -53.167 44.717
    endloop
  endfacet
  facet normal 0.447 0.894 0
    outer loop
      vertex 0 -53.167 39.722
      vertex 0 -53.167 44.717
      vertex 0.833 -53.583 40.833
    endloop
  endfacet
  facet normal 0.447 0.894 0
    outer loop
      vertex 0 52.906 39.733
      vertex -0.838 53.325 40.85
      vertex 0 52.906 44.731
    endloop
  endfacet
  facet normal -0.447 0.894 0
    outer loop
      vertex 0 52.906 39.733
      vertex 0 52.906 44.731
      vertex 0.838 53.325 40.85
    endloop
  endfacet
  facet normal 0.447 -0.894 0
    outer loop
      vertex 0 57.094 39.733
      vertex 0 57.094 44.731
      vertex -0.838 56.675 40.85
    endloop
  endfacet
  facet normal -0.447 -0.894 0
    outer loop
      vertex 0 57.094 39.733
      vertex 0.838 56.675 40.85
      vertex 0 57.094 44.731
    endloop
  endfacet
  facet normal 0.866 0 0.5
    outer loop
      vertex 5.292 50 40.833
      vertex 5.292 53.319 40.833
      vertex 5.283 53.325 40.85
    endloop
  endfacet
  facet normal 0.866 0 0.5
    outer loop
      vertex 5.292 56.681 40.833
      vertex 5.292 60 40.833
      vertex 5.283 56.675 40.85
    endloop
  endfacet
  facet normal 0 -1 0
    outer loop
      vertex -5.295 -56.417 40.833
      vertex -0.833 -56.417 40.833
      vertex -0.833 -56.417 44.717
    endloop
  endfacet
  facet normal 0 -1 0
    outer loop
      vertex 0.833 -56.417 40.833
      vertex 5.292 -56.417 40.833
      vertex 0.833 -56.417 44.717
    endloop
  endfacet
  facet normal 0 1 0
    outer loop
      vertex -5.295 -53.583 40.833
      vertex -0.833 -53.583 44.717
      vertex -0.833 -53.583 40.833
    endloop
  endfacet
  facet normal 0 1 0
    outer loop
      vertex 0.833 -53.583 40.833
      vertex 0.833 -53.583 44.717
      vertex 5.292 -53.583 40.833
    endloop
  endfacet
  facet normal 0.866 0 -0.5
    outer loop
      vertex -5.295 -60 40.833
      vertex -5.295 -56.417 40.833
      vertex -0.011 -60 49.985
    endloop
  endfacet
  facet normal 0.866 0 -0.5
    outer loop
      vertex -5.295 -53.583 40.833
      vertex -5.295 -50 40.833
      vertex -0.011 -53.583 49.985
    endloop
  endfacet
  facet normal 0.866 0 0.5
    outer loop
      vertex 5.292 -56.417 40.833
      vertex 5.292 -53.583 40.833
      vertex 0 -56.417 50
    endloop
  endfacet
  facet normal 0 0.936 -0.351
    outer loop
      vertex 5.292 53.319 40.833
      vertex 0.838 53.325 40.85
      vertex 5.283 53.325 40.85
    endloop
  endfacet
  facet normal 0 -0.936 -0.351
    outer loop
      vertex 5.292 56.681 40.833
      vertex 5.283 56.675 40.85
      vertex 0.838 56.675 40.85
    endloop
  endfacet
  facet normal 0.866 0 0.5
    outer loop
      vertex 5.292 50 40.833
      vertex 5.283 53.325 40.85
      vertex 0 50 50
    endloop
  endfacet
  facet normal 0.866 0 0.5
    outer loop
      vertex 5.292 60 40.833
      vertex 0 60 50
      vertex 5.283 56.675 40.85
    endloop
  endfacet
  facet normal -0.447 -0.894 0
    outer loop
      vertex -0.833 -56.417 40.833
      vertex 0 -56.833 44.717
      vertex -0.833 -56.417 44.717
    endloop
  endfacet
  facet normal 0.447 -0.894 0
    outer loop
      vertex 0.833 -56.417 40.833
      vertex 0.833 -56.417 44.717
      vertex 0 -56.833 44.717
    endloop
  endfacet
  facet normal -0.447 0.894 0
    outer loop
      vertex -0.833 -53.583 40.833
      vertex -0.833 -53.583 44.717
      vertex 0 -53.167 44.717
    endloop
  endfacet
  facet normal 0.447 0.894 0
    outer loop
      vertex 0.833 -53.583 40.833
      vertex 0 -53.167 44.717
      vertex 0.833 -53.583 44.717
    endloop
  endfacet
  facet normal 0 -1 0
    outer loop
      vertex -5.295 -56.417 40.833
      vertex -0.833 -56.417 44.717
      vertex -0.011 -56.417 49.985
    endloop
  endfacet
  facet normal 0 1 0
    outer loop
      vertex -5.295 -53.583 40.833
      vertex -0.011 -53.583 49.985
      vertex -0.833 -53.583 44.717
    endloop
  endfacet
  facet normal 0 -1 0
    outer loop
      vertex 5.292 -56.417 40.833
      vertex 0 -56.417 50
      vertex 0.833 -56.417 44.717
    endloop
  endfacet
  facet normal 0 1 0
    outer loop
      vertex 5.292 -53.583 40.833
      vertex 0.833 -53.583 44.717
      vertex 0 -53.583 50
    endloop
  endfacet
  facet normal 0.866 0 -0.5
    outer loop
      vertex -5.295 -56.417 40.833
      vertex -0.011 -56.417 49.985
      vertex -0.011 -60 49.985
    endloop
  endfacet
  facet normal 0.866 0 -0.5
    outer loop
      vertex -5.295 -50 40.833
      vertex -0.011 -50 49.985
      vertex -0.011 -53.583 49.985
    endloop
  endfacet
  facet normal 0 -1 0
    outer loop
      vertex 5.292 50 40.833
      vertex 0 50 50
      vertex 0 50 49.985
    endloop
  endfacet
  facet normal 0 1 0
    outer loop
      vertex -5.295 -50 40.833
      vertex -35 -50 57
      vertex -0.011 -50 49.985
    endloop
  endfacet
  facet normal 0 -1 0
    outer loop
      vertex -5.295 -60 40.833
      vertex -0.011 -60 49.985
      vertex -40 -60 61.995
    endloop
  endfacet
  facet normal 0.866 0 0.5
    outer loop
      vertex 5.292 -53.583 40.833
      vertex 0 -53.583 50
      vertex 0 -56.417 50
    endloop
  endfacet
  facet normal 0 1 0
    outer loop
      vertex -5.297 53.325 40.85
      vertex -0.838 53.325 44.731
      vertex -0.838 53.325 40.85
    endloop
  endfacet
  facet normal 0 1 0
    outer loop
      vertex 0.838 53.325 40.85
      vertex 0.838 53.325 44.731
      vertex 5.283 53.325 40.85
    endloop
  endfacet
  facet normal 0 -1 0
    outer loop
      vertex -5.297 56.675 40.85
      vertex -0.838 56.675 40.85
      vertex -0.838 56.675 44.731
    endloop
  endfacet
  facet normal 0 -1 0
    outer loop
      vertex 0.838 56.675 40.85
      vertex 5.283 56.675 40.85
      vertex 0.838 56.675 44.731
    endloop
  endfacet
  facet normal 0.866 0 -0.5
    outer loop
      vertex -5.297 53.325 40.85
      vertex -5.297 56.675 40.85
      vertex -0.023 53.325 49.985
    endloop
  endfacet
  facet normal 0.447 0.894 0
    outer loop
      vertex -0.838 53.325 40.85
      vertex -0.838 53.325 44.731
      vertex 0 52.906 44.731
    endloop
  endfacet
  facet normal -0.447 0.894 0
    outer loop
      vertex 0.838 53.325 40.85
      vertex 0 52.906 44.731
      vertex 0.838 53.325 44.731
    endloop
  endfacet
  facet normal 0.447 -0.894 0
    outer loop
      vertex -0.838 56.675 40.85
      vertex 0 57.094 44.731
      vertex -0.838 56.675 44.731
    endloop
  endfacet
  facet normal -0.447 -0.894 0
    outer loop
      vertex 0.838 56.675 40.85
      vertex 0.838 56.675 44.731
      vertex 0 57.094 44.731
    endloop
  endfacet
  facet normal 0 1 0
    outer loop
      vertex -5.297 53.325 40.85
      vertex -0.023 53.325 49.985
      vertex -0.838 53.325 44.731
    endloop
  endfacet
  facet normal 0 -1 0
    outer loop
      vertex -5.297 56.675 40.85
      vertex -0.838 56.675 44.731
      vertex -0.023 56.675 49.985
    endloop
  endfacet
  facet normal 0 -1 0
    outer loop
      vertex 5.283 56.675 40.85
      vertex 0 56.675 49.985
      vertex 0.838 56.675 44.731
    endloop
  endfacet
  facet normal 0 1 0
    outer loop
      vertex 5.283 53.325 40.85
      vertex 0.838 53.325 44.731
      vertex 0 53.325 50
    endloop
  endfacet
  facet normal 0.866 0 -0.5
    outer loop
      vertex -5.297 56.675 40.85
      vertex -0.023 56.675 49.985
      vertex -0.023 53.325 49.985
    endloop
  endfacet
  facet normal 0 -1 0
    outer loop
      vertex 5.283 56.675 40.85
      vertex 0 56.675 50
      vertex 0 56.675 49.985
    endloop
  endfacet
  facet normal 0.866 0 0.5
    outer loop
      vertex 5.283 53.325 40.85
      vertex 0 53.325 50
      vertex 0 50 50
    endloop
  endfacet
  facet normal 0.866 0 0.5
    outer loop
      vertex 5.283 56.675 40.85
      vertex 0 60 50
      vertex 0 56.675 50
    endloop
  endfacet
  facet normal 0 0 1
    outer loop
      vertex 0 -56.833 44.717
      vertex 0 -56.417 44.717
      vertex -0.833 -56.417 44.717
    endloop
  endfacet
  facet normal 0 0 1
    outer loop
      vertex 0 -56.833 44.717
      vertex 0.833 -56.417 44.717
      vertex 0 -56.417 44.717
    endloop
  endfacet
  facet normal 0 0 1
    outer loop
      vertex -0.833 -53.583 44.717
      vertex 0 -53.583 44.717
      vertex 0 -53.167 44.717
    endloop
  endfacet
  facet normal 0 0 1
    outer loop
      vertex 0 -53.583 44.717
      vertex 0.833 -53.583 44.717
      vertex 0 -53.167 44.717
    endloop
  endfacet
  facet normal 0 -1 0
    outer loop
      vertex -0.833 -56.417 44.717
      vertex 0 -56.417 44.717
      vertex -0.011 -56.417 49.985
    endloop
  endfacet
  facet normal 0 1 0
    outer loop
      vertex -0.833 -53.583 44.717
      vertex -0.011 -53.583 49.985
      vertex 0 -53.583 44.717
    endloop
  endfacet
  facet normal 0 -1 0
    outer loop
      vertex 0 -56.417 44.717
      vertex 0.833 -56.417 44.717
      vertex 0 -56.417 50
    endloop
  endfacet
  facet normal 0 1 0
    outer loop
      vertex 0 -53.583 44.717
      vertex 0 -53.583 50
      vertex 0.833 -53.583 44.717
    endloop
  endfacet
  facet normal 0 -1 0
    outer loop
      vertex 0 -56.417 44.717
      vertex 0 -56.417 49.985
      vertex -0.011 -56.417 49.985
    endloop
  endfacet
  facet normal 0 1 0
    outer loop
      vertex 0 -53.583 44.717
      vertex -0.011 -53.583 49.985
      vertex 0 -53.583 49.985
    endloop
  endfacet
  facet normal 1 0 0
    outer loop
      vertex 0 -56.417 44.717
      vertex 0 -56.417 50
      vertex 0 -56.417 49.985
    endloop
  endfacet
  facet normal 1 0 0
    outer loop
      vertex 0 -53.583 44.717
      vertex 0 -53.583 49.985
      vertex 0 -53.583 50
    endloop
  endfacet
  facet normal 0 0 -1
    outer loop
      vertex 0 52.906 44.731
      vertex -0.838 53.325 44.731
      vertex 0 53.325 44.731
    endloop
  endfacet
  facet normal 0 0 -1
    outer loop
      vertex 0 52.906 44.731
      vertex 0 53.325 44.731
      vertex 0.838 53.325 44.731
    endloop
  endfacet
  facet normal 0 0 -1
    outer loop
      vertex -0.838 56.675 44.731
      vertex 0 57.094 44.731
      vertex 0 56.675 44.731
    endloop
  endfacet
  facet normal 0 0 -1
    outer loop
      vertex 0 56.675 44.731
      vertex 0 57.094 44.731
      vertex 0.838 56.675 44.731
    endloop
  endfacet
  facet normal 0 1 0
    outer loop
      vertex -0.838 53.325 44.731
      vertex -0.023 53.325 49.985
      vertex 0 53.325 44.731
    endloop
  endfacet
  facet normal 0 -1 0
    outer loop
      vertex -0.838 56.675 44.731
      vertex 0 56.675 44.731
      vertex -0.023 56.675 49.985
    endloop
  endfacet
  facet normal 0 -1 0
    outer loop
      vertex 0 56.675 44.731
      vertex 0.838 56.675 44.731
      vertex 0 56.675 49.985
    endloop
  endfacet
  facet normal 0 1 0
    outer loop
      vertex 0 53.325 44.731
      vertex 0 53.325 50
      vertex 0.838 53.325 44.731
    endloop
  endfacet
  facet normal 0 1 0
    outer loop
      vertex 0 53.325 44.731
      vertex -0.023 53.325 49.985
      vertex 0 53.325 49.985
    endloop
  endfacet
  facet normal 0 -1 0
    outer loop
      vertex 0 56.675 44.731
      vertex 0 56.675 49.985
      vertex -0.023 56.675 49.985
    endloop
  endfacet
  facet normal 0 1 0
    outer loop
      vertex 0 53.325 44.731
      vertex 0 53.325 49.985
      vertex 0 53.325 50
    endloop
  endfacet
  facet normal 0.894 0 -0.447
    outer loop
      vertex -36.299 -42.402 49.402
      vertex -36.299 42.402 49.402
      vertex -35 -45 52
    endloop
  endfacet
  facet normal -0.894 0 -0.447
    outer loop
      vertex -38.701 -42.402 49.402
      vertex -40 45 52
      vertex -38.701 42.402 49.402
    endloop
  endfacet
  facet normal -0.894 0 -0.447
    outer loop
      vertex -38.701 -42.402 49.402
      vertex -40 -45 52
      vertex -40 45 52
    endloop
  endfacet
  facet normal 0.894 0 -0.447
    outer loop
      vertex -36.299 42.402 49.402
      vertex -35 45 52
      vertex -35 -45 52
    endloop
  endfacet
  facet normal 0 0 -1
    outer loop
      vertex -0.011 -60 49.985
      vertex 0 -56.417 49.985
      vertex 0 -60 49.985
    endloop
  endfacet
  facet normal 0 0 -1
    outer loop
      vertex -0.011 -60 49.985
      vertex -0.011 -56.417 49.985
      vertex 0 -56.417 49.985
    endloop
  endfacet
  facet normal 0 0 -1
    outer loop
      vertex -0.011 -53.583 49.985
      vertex 0 -50 49.985
      vertex 0 -53.583 49.985
    endloop
  endfacet
  facet normal 0 0 -1
    outer loop
      vertex -0.011 -53.583 49.985
      vertex -0.011 -50 49.985
      vertex 0 -50 49.985
    endloop
  endfacet
  facet normal 0 0 -1
    outer loop
      vertex -0.023 53.325 49.985
      vertex 0 56.675 49.985
      vertex 0 53.325 49.985
    endloop
  endfacet
  facet normal 0 0 -1
    outer loop
      vertex -0.023 53.325 49.985
      vertex -0.023 56.675 49.985
      vertex 0 56.675 49.985
    endloop
  endfacet
  facet normal 1 0 0
    outer loop
      vertex 0 -60 49.985
      vertex 0 -56.417 49.985
      vertex 0 -56.417 50
    endloop
  endfacet
  facet normal 1 0 0
    outer loop
      vertex 0 -53.583 49.985
      vertex 0 -50 49.985
      vertex 0 -53.583 50
    endloop
  endfacet
  facet normal 1 0 0
    outer loop
      vertex 0 53.325 49.985
      vertex 0 56.675 49.985
      vertex 0 53.325 50
    endloop
  endfacet
  facet normal 0 -1 0
    outer loop
      vertex -35 50 49.985
      vertex 0 50 49.985
      vertex -35 50 57
    endloop
  endfacet
  facet normal 0 -1 0
    outer loop
      vertex -0.011 -60 49.985
      vertex 0 -60 49.985
      vertex 0 -60 61.995
    endloop
  endfacet
  facet normal 0 1 0
    outer loop
      vertex -0.011 -50 49.985
      vertex 0 -50 61.995
      vertex 0 -50 49.985
    endloop
  endfacet
  facet normal 1 0 0
    outer loop
      vertex 0 56.675 49.985
      vertex 0 56.675 50
      vertex 0 53.325 50
    endloop
  endfacet
  facet normal 1 0 0
    outer loop
      vertex 0 -60 49.985
      vertex 0 -56.417 50
      vertex 0 -60 61.995
    endloop
  endfacet
  facet normal 1 0 0
    outer loop
      vertex 0 -50 49.985
      vertex 0 -50 61.995
      vertex 0 -53.583 50
    endloop
  endfacet
  facet normal 0 0 0
    outer loop
      vertex 0 50 49.985
      vertex 0 50 50
      vertex 0 50 61.995
    endloop
  endfacet
  facet normal -1 0 0
    outer loop
      vertex -40 50 49.985
      vertex -40 60 61.995
      vertex -40 60 50
    endloop
  endfacet
  facet normal -1 0 0
    outer loop
      vertex -40 50 49.985
      vertex -40 45 52
      vertex -40 50 57
    endloop
  endfacet
  facet normal 1 0 0
    outer loop
      vertex -35 50 49.985
      vertex -35 50 57
      vertex -35 45 52
    endloop
  endfacet
  facet normal 0 0 0
    outer loop
      vertex -40 50 49.985
      vertex -40 50 57
      vertex -40 50 61.5
    endloop
  endfacet
  facet normal 0 1 0
    outer loop
      vertex -0.011 -50 49.985
      vertex -35 -50 57
      vertex 0 -50 61.995
    endloop
  endfacet
  facet normal 0 -1 0
    outer loop
      vertex 0 50 49.985
      vertex 0 50 61.995
      vertex -35 50 57
    endloop
  endfacet
  facet normal 0 0 0
    outer loop
      vertex -40 50 49.985
      vertex -40 50 61.5
      vertex -40 50 61.995
    endloop
  endfacet
  facet normal 0 -1 0
    outer loop
      vertex -0.011 -60 49.985
      vertex 0 -60 61.995
      vertex -40 -60 61.995
    endloop
  endfacet
  facet normal -1 0 0
    outer loop
      vertex -40 50 49.985
      vertex -40 50 61.995
      vertex -40 60 61.995
    endloop
  endfacet
  facet normal 1 0 0
    outer loop
      vertex 0 -56.417 50
      vertex 0 -53.583 50
      vertex 0 -50 61.995
    endloop
  endfacet
  facet normal 1 0 0
    outer loop
      vertex 0 50 50
      vertex 0 53.325 50
      vertex 0 50 61.995
    endloop
  endfacet
  facet normal 1 0 0
    outer loop
      vertex 0 53.325 50
      vertex 0 56.675 50
      vertex 0 60 61.995
    endloop
  endfacet
  facet normal 1 0 0
    outer loop
      vertex 0 56.675 50
      vertex 0 60 50
      vertex 0 60 61.995
    endloop
  endfacet
  facet normal 0 1 0
    outer loop
      vertex -40 60 50
      vertex -40 60 61.995
      vertex 0 60 50
    endloop
  endfacet
  facet normal 1 0 0
    outer loop
      vertex 0 -56.417 50
      vertex 0 -50 61.995
      vertex 0 -60 61.995
    endloop
  endfacet
  facet normal 1 0 0
    outer loop
      vertex 0 53.325 50
      vertex 0 60 61.995
      vertex 0 50 61.995
    endloop
  endfacet
  facet normal 0 1 0
    outer loop
      vertex 0 60 50
      vertex -40 60 61.995
      vertex 0 60 61.995
    endloop
  endfacet
  facet normal 1 0 0
    outer loop
      vertex -35 -45 52
      vertex -35 45 52
      vertex -35 -50 61.5
    endloop
  endfacet
  facet normal -1 0 0
    outer loop
      vertex -40 -45 52
      vertex -40 50 61.5
      vertex -40 45 52
    endloop
  endfacet
  facet normal 1 0 0
    outer loop
      vertex -35 -45 52
      vertex -35 -50 61.5
      vertex -35 -50 57
    endloop
  endfacet
  facet normal -1 0 0
    outer loop
      vertex -40 45 52
      vertex -40 50 61.5
      vertex -40 50 57
    endloop
  endfacet
  facet normal -1 0 0
    outer loop
      vertex -40 -45 52
      vertex -40 -60 61.995
      vertex -40 -50 57
    endloop
  endfacet
  facet normal -1 0 0
    outer loop
      vertex -40 -45 52
      vertex -40 -50 57
      vertex -40 -50 61.995
    endloop
  endfacet
  facet normal 1 0 0
    outer loop
      vertex -35 45 52
      vertex -35 50 57
      vertex -35 50 61.995
    endloop
  endfacet
  facet normal 1 0 0
    outer loop
      vertex -35 45 52
      vertex -35 -50 61.995
      vertex -35 -50 61.5
    endloop
  endfacet
  facet normal -1 0 0
    outer loop
      vertex -40 -45 52
      vertex -40 50 61.995
      vertex -40 50 61.5
    endloop
  endfacet
  facet normal -1 0 0
    outer loop
      vertex -40 -45 52
      vertex -40 -50 61.995
      vertex -40 50 61.995
    endloop
  endfacet
  facet normal 1 0 0
    outer loop
      vertex -35 45 52
      vertex -35 50 61.995
      vertex -35 -50 61.995
    endloop
  endfacet
  facet normal 0 1 0
    outer loop
      vertex -35 -50 57
      vertex -35 -50 61.5
      vertex 0 -50 61.995
    endloop
  endfacet
  facet normal -1 0 0
    outer loop
      vertex -40 -50 57
      vertex -40 -60 61.995
      vertex -40 -55 61.995
    endloop
  endfacet
  facet normal -1 0 0
    outer loop
      vertex -40 -50 57
      vertex -40 -55 61.995
      vertex -40 -54.995 61.995
    endloop
  endfacet
  facet normal -1 0 0
    outer loop
      vertex -40 -50 57
      vertex -40 -54.995 61.995
      vertex -40 -50 61.995
    endloop
  endfacet
  facet normal 0 -1 0
    outer loop
      vertex -35 50 57
      vertex 0 50 61.995
      vertex -35 50 61.995
    endloop
  endfacet
  facet normal 0 1 0
    outer loop
      vertex -35 -50 61.5
      vertex -35 -50 61.995
      vertex 0 -50 61.995
    endloop
  endfacet
  facet normal 0 0 1
    outer loop
      vertex -40 -60 61.995
      vertex 0 -60 61.995
      vertex -35 -55 61.995
    endloop
  endfacet
  facet normal 0 0 1
    outer loop
      vertex -40 -60 61.995
      vertex -35 -55 61.995
      vertex -40 -55 61.995
    endloop
  endfacet
  facet normal 0 0 1
    outer loop
      vertex 0 -60 61.995
      vertex -35 -54.995 61.995
      vertex -35 -55 61.995
    endloop
  endfacet
  facet normal 0 0 1
    outer loop
      vertex 0 -60 61.995
      vertex -35 -54.95 61.995
      vertex -35 -54.995 61.995
    endloop
  endfacet
  facet normal 0 0 1
    outer loop
      vertex 0 -60 61.995
      vertex 0 -50 61.995
      vertex -35 -54.95 61.995
    endloop
  endfacet
  facet normal 0 0 1
    outer loop
      vertex -35 -54.95 61.995
      vertex 0 -50 61.995
      vertex -35 -50 61.995
    endloop
  endfacet
  facet normal 0 0 1
    outer loop
      vertex -35 50 61.995
      vertex 0 50 61.995
      vertex -35 54.995 61.995
    endloop
  endfacet
  facet normal 0 0 0
    outer loop
      vertex -40 50 61.995
      vertex -40 54.95 61.995
      vertex -40 55 61.995
    endloop
  endfacet
  facet normal 0 0 1
    outer loop
      vertex 0 50 61.995
      vertex -35 55 61.995
      vertex -35 54.995 61.995
    endloop
  endfacet
  facet normal 0 0 0
    outer loop
      vertex -40 50 61.995
      vertex -40 55 61.995
      vertex -40 60 61.995
    endloop
  endfacet
  facet normal 0 0 1
    outer loop
      vertex 0 50 61.995
      vertex 0 60 61.995
      vertex -35 55 61.995
    endloop
  endfacet
  facet normal 0 0 0
    outer loop
      vertex -40 54.95 61.995
      vertex -40 54.995 61.995
      vertex -40 55 61.995
    endloop
  endfacet
  facet normal 0 0 1
    outer loop
      vertex -40 55 61.995
      vertex -35 55 61.995
      vertex -40 60 61.995
    endloop
  endfacet
  facet normal 0 0 1
    outer loop
      vertex -35 55 61.995
      vertex 0 60 61.995
      vertex -40 60 61.995
    endloop
  endfacet
  facet normal 0 -1 0
    outer loop
      vertex -40 -55 61.995
      vertex -35 -55 61.995
      vertex -35 -55 62
    endloop
  endfacet
  facet normal -1 0 0
    outer loop
      vertex -40 -55 61.995
      vertex -40 -55 62
      vertex -40 -54.995 61.995
    endloop
  endfacet
  facet normal 1 0 0
    outer loop
      vertex -35 -55 61.995
      vertex -35 -54.995 61.995
      vertex -35 -55 62
    endloop
  endfacet
  facet normal 1 0 0
    outer loop
      vertex -35 -54.995 61.995
      vertex -35 -54.95 61.995
      vertex -35 -55 62
    endloop
  endfacet
  facet normal -1 0 0
    outer loop
      vertex -40 -54.995 61.995
      vertex -40 -55 62
      vertex -40 -50 61.995
    endloop
  endfacet
  facet normal 1 0 0
    outer loop
      vertex -35 -54.95 61.995
      vertex -35 -50 61.995
      vertex -35 -55 62
    endloop
  endfacet
  facet normal -1 0 0
    outer loop
      vertex -40 -50 61.995
      vertex -40 55 62
      vertex -40 50 61.995
    endloop
  endfacet
  facet normal 1 0 0
    outer loop
      vertex -35 -50 61.995
      vertex -35 50 61.995
      vertex -35 55 62
    endloop
  endfacet
  facet normal -1 0 0
    outer loop
      vertex -40 50 61.995
      vertex -40 55 62
      vertex -40 54.95 61.995
    endloop
  endfacet
  facet normal 1 0 0
    outer loop
      vertex -35 50 61.995
      vertex -35 54.995 61.995
      vertex -35 55 62
    endloop
  endfacet
  facet normal -1 0 0
    outer loop
      vertex -40 54.95 61.995
      vertex -40 55 62
      vertex -40 54.995 61.995
    endloop
  endfacet
  facet normal -1 0 0
    outer loop
      vertex -40 54.995 61.995
      vertex -40 55 62
      vertex -40 55 61.995
    endloop
  endfacet
  facet normal 1 0 0
    outer loop
      vertex -35 54.995 61.995
      vertex -35 55 61.995
      vertex -35 55 62
    endloop
  endfacet
  facet normal 0 1 0
    outer loop
      vertex -40 55 61.995
      vertex -40 55 62
      vertex -35 55 61.995
    endloop
  endfacet
  facet normal 0 -1 0
    outer loop
      vertex -40 -55 61.995
      vertex -35 -55 62
      vertex -40 -55 62
    endloop
  endfacet
  facet normal -1 0 0
    outer loop
      vertex -40 -50 61.995
      vertex -40 -55 62
      vertex -40 55 62
    endloop
  endfacet
  facet normal 1 0 0
    outer loop
      vertex -35 -50 61.995
      vertex -35 55 62
      vertex -35 -55 62
    endloop
  endfacet
  facet normal 0 1 0
    outer loop
      vertex -35 55 61.995
      vertex -40 55 62
      vertex -35 55 62
    endloop
  endfacet
  facet normal 0 0 1
    outer loop
      vertex -40 -55 62
      vertex -35 -55 62
      vertex -40 55 62
    endloop
  endfacet
  facet normal 0 0 1
    outer loop
      vertex -35 -55 62
      vertex -35 55 62
      vertex -40 55 62
    endloop
  endfacet
endsolid Model
