solid OpenSCAD_Model
  facet normal -1 0 0
    outer loop
      vertex -34 -50 0
      vertex -34 -50 30
      vertex -34 -45 0
    endloop
  endfacet
  facet normal -1 0 0
    outer loop
      vertex -34 -45 0
      vertex -34 -50 30
      vertex -34 -45 30
    endloop
  endfacet
  facet normal 0 -1 0
    outer loop
      vertex -34 -50 30
      vertex -34 -50 0
      vertex 34 -50 0
    endloop
  endfacet
  facet normal 0 -1 0
    outer loop
      vertex 34 -50 30
      vertex -34 -50 30
      vertex 34 -50 0
    endloop
  endfacet
  facet normal 0 0 -1
    outer loop
      vertex -34 -50 0
      vertex -34 -45 0
      vertex 34 -50 0
    endloop
  endfacet
  facet normal 0 0 -1
    outer loop
      vertex 34 -50 0
      vertex -34 -45 0
      vertex -28 -45 0
    endloop
  endfacet
  facet normal 0 0 -1
    outer loop
      vertex -22 -45 0
      vertex -28 -45 0
      vertex -28 50 0
    endloop
  endfacet
  facet normal 0 0 -1
    outer loop
      vertex 34 -50 0
      vertex -28 -45 0
      vertex -22 -45 0
    endloop
  endfacet
  facet normal 0 0 -1
    outer loop
      vertex 34 -45 0
      vertex 34 -50 0
      vertex 28 -45 0
    endloop
  endfacet
  facet normal 0 0 -1
    outer loop
      vertex 34 -50 0
      vertex -22 -45 0
      vertex 22 -45 0
    endloop
  endfacet
  facet normal 0 0 -1
    outer loop
      vertex 22 50 0
      vertex 28 -45 0
      vertex 22 -45 0
    endloop
  endfacet
  facet normal 0 0 -1
    outer loop
      vertex 28 -45 0
      vertex 22 50 0
      vertex 28 50 0
    endloop
  endfacet
  facet normal 0 0 -1
    outer loop
      vertex 34 -50 0
      vertex 22 -45 0
      vertex 28 -45 0
    endloop
  endfacet
  facet normal 0 0 -1
    outer loop
      vertex -22 -45 0
      vertex -28 50 0
      vertex -22 50 0
    endloop
  endfacet
  facet normal 0 1 0
    outer loop
      vertex -34 -45 0
      vertex -34 -45 30
      vertex -28 -45 0
    endloop
  endfacet
  facet normal 0 1 0
    outer loop
      vertex 28 -45 29
      vertex -34 -45 30
      vertex 34 -45 30
    endloop
  endfacet
  facet normal 0 1 0
    outer loop
      vertex 28 -45 0
      vertex 34 -45 30
      vertex 34 -45 0
    endloop
  endfacet
  facet normal 0 1 0
    outer loop
      vertex 22 -45 29
      vertex -34 -45 30
      vertex 28 -45 29
    endloop
  endfacet
  facet normal 0 1 0
    outer loop
      vertex -22 -45 29
      vertex -34 -45 30
      vertex 22 -45 29
    endloop
  endfacet
  facet normal 0 1 0
    outer loop
      vertex 22 -45 0
      vertex -22 -45 0
      vertex 22 -45 29
    endloop
  endfacet
  facet normal 0 1 0
    outer loop
      vertex -28 -45 29
      vertex -34 -45 30
      vertex -22 -45 29
    endloop
  endfacet
  facet normal 0 1 0
    outer loop
      vertex -28 -45 0
      vertex -34 -45 30
      vertex -28 -45 29
    endloop
  endfacet
  facet normal 0 1 0
    outer loop
      vertex 28 -45 29
      vertex 34 -45 30
      vertex 28 -45 0
    endloop
  endfacet
  facet normal 0 1 0
    outer loop
      vertex -22 -45 29
      vertex 22 -45 29
      vertex -22 -45 0
    endloop
  endfacet
  facet normal 0 0 1
    outer loop
      vertex -34 -45 30
      vertex -34 -50 30
      vertex 34 -50 30
    endloop
  endfacet
  facet normal 0 0 1
    outer loop
      vertex 34 -45 30
      vertex -34 -45 30
      vertex 34 -50 30
    endloop
  endfacet
  facet normal 1 0 0
    outer loop
      vertex 34 -50 30
      vertex 34 -50 0
      vertex 34 -45 0
    endloop
  endfacet
  facet normal 1 0 0
    outer loop
      vertex 34 -45 30
      vertex 34 -50 30
      vertex 34 -45 0
    endloop
  endfacet
  facet normal 1 0 0
    outer loop
      vertex 28 -45 29
      vertex 28 -45 0
      vertex 28 50 0
    endloop
  endfacet
  facet normal 1 0 0
    outer loop
      vertex 28 50 10
      vertex 28 -45 29
      vertex 28 50 0
    endloop
  endfacet
  facet normal 0 1 0
    outer loop
      vertex 22 50 0
      vertex 22 50 10
      vertex 28 50 0
    endloop
  endfacet
  facet normal 0 1 0
    outer loop
      vertex 28 50 0
      vertex 22 50 10
      vertex 28 50 10
    endloop
  endfacet
  facet normal -1 0 0
    outer loop
      vertex 22 -45 0
      vertex 22 -45 29
      vertex 22 50 0
    endloop
  endfacet
  facet normal -1 0 0
    outer loop
      vertex 22 50 0
      vertex 22 -45 29
      vertex 22 50 10
    endloop
  endfacet
  facet normal 1 0 0
    outer loop
      vertex -22 -45 29
      vertex -22 -45 0
      vertex -22 50 0
    endloop
  endfacet
  facet normal 1 0 0
    outer loop
      vertex -22 50 10
      vertex -22 -45 29
      vertex -22 50 0
    endloop
  endfacet
  facet normal 0 1 0
    outer loop
      vertex -28 50 0
      vertex -28 50 10
      vertex -22 50 0
    endloop
  endfacet
  facet normal 0 1 0
    outer loop
      vertex -22 50 0
      vertex -28 50 10
      vertex -22 50 10
    endloop
  endfacet
  facet normal -1 0 0
    outer loop
      vertex -28 -45 0
      vertex -28 -45 29
      vertex -28 50 0
    endloop
  endfacet
  facet normal -1 0 0
    outer loop
      vertex -28 50 0
      vertex -28 -45 29
      vertex -28 50 10
    endloop
  endfacet
  facet normal 0 0.196116 0.980581
    outer loop
      vertex -22 -45 29
      vertex -22 50 10
      vertex -28 50 10
    endloop
  endfacet
  facet normal 0 0.196116 0.980581
    outer loop
      vertex -28 -45 29
      vertex -22 -45 29
      vertex -28 50 10
    endloop
  endfacet
  facet normal 0 0.196116 0.980581
    outer loop
      vertex 28 -45 29
      vertex 28 50 10
      vertex 22 50 10
    endloop
  endfacet
  facet normal 0 0.196116 0.980581
    outer loop
      vertex 22 -45 29
      vertex 28 -45 29
      vertex 22 50 10
    endloop
  endfacet
  facet normal -1 0 0
    outer loop
      vertex -31 -56 -0.025
      vertex -31 -56 0.160599
      vertex -31 -53 -0.025
    endloop
  endfacet
  facet normal -1 0 0
    outer loop
      vertex -31 -53 -0.025
      vertex -31 -56 0.160599
      vertex -31 -53 0.160599
    endloop
  endfacet
  facet normal 0 -1 0
    outer loop
      vertex -31 -56 0.160599
      vertex -31 -56 -0.025
      vertex -19 -56 -0.025
    endloop
  endfacet
  facet normal 0 -1 0
    outer loop
      vertex -20.4392 -56 27.025
      vertex -31 -56 0.160599
      vertex -19 -56 0.160599
    endloop
  endfacet
  facet normal 0 -1 0
    outer loop
      vertex -19 -56 0.160599
      vertex -31 -56 0.160599
      vertex -19 -56 -0.025
    endloop
  endfacet
  facet normal 0 -1 0
    outer loop
      vertex -29.5608 -56 27.025
      vertex -31 -56 0.160599
      vertex -20.4392 -56 27.025
    endloop
  endfacet
  facet normal 0 0 -1
    outer loop
      vertex -31 -56 -0.025
      vertex -31 -53 -0.025
      vertex -19 -56 -0.025
    endloop
  endfacet
  facet normal 0 0 -1
    outer loop
      vertex -19 -56 -0.025
      vertex -31 -53 -0.025
      vertex -26.5 -53 -0.025
    endloop
  endfacet
  facet normal 0 0 -1
    outer loop
      vertex -23.5 -53 -0.025
      vertex -26.5 -53 -0.025
      vertex -26.5 -50 -0.025
    endloop
  endfacet
  facet normal 0 0 -1
    outer loop
      vertex -19 -56 -0.025
      vertex -26.5 -53 -0.025
      vertex -23.5 -53 -0.025
    endloop
  endfacet
  facet normal 0 0 -1
    outer loop
      vertex -19 -53 -0.025
      vertex -19 -56 -0.025
      vertex -23.5 -53 -0.025
    endloop
  endfacet
  facet normal 0 0 -1
    outer loop
      vertex -23.5 -53 -0.025
      vertex -26.5 -50 -0.025
      vertex -23.5 -50 -0.025
    endloop
  endfacet
  facet normal 0 1 0
    outer loop
      vertex -31 -53 -0.025
      vertex -31 -53 0.160599
      vertex -26.5 -53 -0.025
    endloop
  endfacet
  facet normal 0 1 0
    outer loop
      vertex -26.5 -53 -0.025
      vertex -31 -53 0.160599
      vertex -29.5608 -53 27.025
    endloop
  endfacet
  facet normal 0 1 0
    outer loop
      vertex -26.5 -53 -0.025
      vertex -29.5608 -53 27.025
      vertex -26.5 -53 27.025
    endloop
  endfacet
  facet normal -0.998568 0 0.0534947
    outer loop
      vertex -31 -56 0.160599
      vertex -29.5608 -56 27.025
      vertex -31 -53 0.160599
    endloop
  endfacet
  facet normal -0.998568 0 0.0534947
    outer loop
      vertex -31 -53 0.160599
      vertex -29.5608 -56 27.025
      vertex -29.5608 -53 27.025
    endloop
  endfacet
  facet normal 0 0 1
    outer loop
      vertex -29.5608 -53 27.025
      vertex -29.5608 -56 27.025
      vertex -20.4392 -56 27.025
    endloop
  endfacet
  facet normal 0 0 1
    outer loop
      vertex -26.5 -53 27.025
      vertex -29.5608 -53 27.025
      vertex -20.4392 -56 27.025
    endloop
  endfacet
  facet normal 0 0 1
    outer loop
      vertex -23.5 -53 27.025
      vertex -26.5 -53 27.025
      vertex -20.4392 -56 27.025
    endloop
  endfacet
  facet normal 0 0 1
    outer loop
      vertex -20.4392 -53 27.025
      vertex -23.5 -53 27.025
      vertex -20.4392 -56 27.025
    endloop
  endfacet
  facet normal 0 0 1
    outer loop
      vertex -23.5 -50 27.025
      vertex -26.5 -53 27.025
      vertex -23.5 -53 27.025
    endloop
  endfacet
  facet normal 0 0 1
    outer loop
      vertex -26.5 -50 27.025
      vertex -26.5 -53 27.025
      vertex -23.5 -50 27.025
    endloop
  endfacet
  facet normal 0.998568 0 0.0534947
    outer loop
      vertex -20.4392 -53 27.025
      vertex -20.4392 -56 27.025
      vertex -19 -56 0.160599
    endloop
  endfacet
  facet normal 0.998568 0 0.0534947
    outer loop
      vertex -19 -53 0.160599
      vertex -20.4392 -53 27.025
      vertex -19 -56 0.160599
    endloop
  endfacet
  facet normal 1 0 0
    outer loop
      vertex -19 -56 0.160599
      vertex -19 -56 -0.025
      vertex -19 -53 -0.025
    endloop
  endfacet
  facet normal 1 0 0
    outer loop
      vertex -19 -53 0.160599
      vertex -19 -56 0.160599
      vertex -19 -53 -0.025
    endloop
  endfacet
  facet normal 0 1 0
    outer loop
      vertex -23.5 -53 -0.025
      vertex -23.5 -53 27.025
      vertex -19 -53 -0.025
    endloop
  endfacet
  facet normal 0 1 0
    outer loop
      vertex -19 -53 -0.025
      vertex -23.5 -53 27.025
      vertex -20.4392 -53 27.025
    endloop
  endfacet
  facet normal 0 1 0
    outer loop
      vertex -19 -53 -0.025
      vertex -20.4392 -53 27.025
      vertex -19 -53 0.160599
    endloop
  endfacet
  facet normal 1 0 0
    outer loop
      vertex -23.5 -53 27.025
      vertex -23.5 -53 -0.025
      vertex -23.5 -50 -0.025
    endloop
  endfacet
  facet normal 1 0 0
    outer loop
      vertex -23.5 -50 27.025
      vertex -23.5 -53 27.025
      vertex -23.5 -50 -0.025
    endloop
  endfacet
  facet normal 0 1 0
    outer loop
      vertex -26.5 -50 -0.025
      vertex -26.5 -50 27.025
      vertex -23.5 -50 -0.025
    endloop
  endfacet
  facet normal 0 1 0
    outer loop
      vertex -23.5 -50 -0.025
      vertex -26.5 -50 27.025
      vertex -23.5 -50 27.025
    endloop
  endfacet
  facet normal -1 0 0
    outer loop
      vertex -26.5 -53 -0.025
      vertex -26.5 -53 27.025
      vertex -26.5 -50 -0.025
    endloop
  endfacet
  facet normal -1 0 0
    outer loop
      vertex -26.5 -50 -0.025
      vertex -26.5 -53 27.025
      vertex -26.5 -50 27.025
    endloop
  endfacet
  facet normal -1 0 0
    outer loop
      vertex 19 -56 -0.025
      vertex 19 -56 0.160599
      vertex 19 -53 -0.025
    endloop
  endfacet
  facet normal -1 0 0
    outer loop
      vertex 19 -53 -0.025
      vertex 19 -56 0.160599
      vertex 19 -53 0.160599
    endloop
  endfacet
  facet normal 0 -1 0
    outer loop
      vertex 19 -56 0.160599
      vertex 19 -56 -0.025
      vertex 31 -56 -0.025
    endloop
  endfacet
  facet normal 0 -1 0
    outer loop
      vertex 29.5608 -56 27.025
      vertex 19 -56 0.160599
      vertex 31 -56 0.160599
    endloop
  endfacet
  facet normal 0 -1 0
    outer loop
      vertex 31 -56 0.160599
      vertex 19 -56 0.160599
      vertex 31 -56 -0.025
    endloop
  endfacet
  facet normal 0 -1 0
    outer loop
      vertex 20.4392 -56 27.025
      vertex 19 -56 0.160599
      vertex 29.5608 -56 27.025
    endloop
  endfacet
  facet normal 0 0 -1
    outer loop
      vertex 19 -56 -0.025
      vertex 19 -53 -0.025
      vertex 31 -56 -0.025
    endloop
  endfacet
  facet normal 0 0 -1
    outer loop
      vertex 31 -56 -0.025
      vertex 19 -53 -0.025
      vertex 23.5 -53 -0.025
    endloop
  endfacet
  facet normal 0 0 -1
    outer loop
      vertex 26.5 -53 -0.025
      vertex 23.5 -53 -0.025
      vertex 23.5 -50 -0.025
    endloop
  endfacet
  facet normal 0 0 -1
    outer loop
      vertex 31 -56 -0.025
      vertex 23.5 -53 -0.025
      vertex 26.5 -53 -0.025
    endloop
  endfacet
  facet normal 0 0 -1
    outer loop
      vertex 31 -53 -0.025
      vertex 31 -56 -0.025
      vertex 26.5 -53 -0.025
    endloop
  endfacet
  facet normal 0 0 -1
    outer loop
      vertex 26.5 -53 -0.025
      vertex 23.5 -50 -0.025
      vertex 26.5 -50 -0.025
    endloop
  endfacet
  facet normal 0 1 0
    outer loop
      vertex 19 -53 -0.025
      vertex 19 -53 0.160599
      vertex 23.5 -53 -0.025
    endloop
  endfacet
  facet normal 0 1 0
    outer loop
      vertex 23.5 -53 -0.025
      vertex 19 -53 0.160599
      vertex 20.4392 -53 27.025
    endloop
  endfacet
  facet normal 0 1 0
    outer loop
      vertex 23.5 -53 -0.025
      vertex 20.4392 -53 27.025
      vertex 23.5 -53 27.025
    endloop
  endfacet
  facet normal -0.998568 0 0.0534947
    outer loop
      vertex 19 -56 0.160599
      vertex 20.4392 -56 27.025
      vertex 19 -53 0.160599
    endloop
  endfacet
  facet normal -0.998568 0 0.0534947
    outer loop
      vertex 19 -53 0.160599
      vertex 20.4392 -56 27.025
      vertex 20.4392 -53 27.025
    endloop
  endfacet
  facet normal 0 0 1
    outer loop
      vertex 20.4392 -53 27.025
      vertex 20.4392 -56 27.025
      vertex 29.5608 -56 27.025
    endloop
  endfacet
  facet normal 0 0 1
    outer loop
      vertex 23.5 -53 27.025
      vertex 20.4392 -53 27.025
      vertex 29.5608 -56 27.025
    endloop
  endfacet
  facet normal 0 0 1
    outer loop
      vertex 26.5 -53 27.025
      vertex 23.5 -53 27.025
      vertex 29.5608 -56 27.025
    endloop
  endfacet
  facet normal 0 0 1
    outer loop
      vertex 29.5608 -53 27.025
      vertex 26.5 -53 27.025
      vertex 29.5608 -56 27.025
    endloop
  endfacet
  facet normal 0 0 1
    outer loop
      vertex 26.5 -50 27.025
      vertex 23.5 -53 27.025
      vertex 26.5 -53 27.025
    endloop
  endfacet
  facet normal 0 0 1
    outer loop
      vertex 23.5 -50 27.025
      vertex 23.5 -53 27.025
      vertex 26.5 -50 27.025
    endloop
  endfacet
  facet normal 0.998568 0 0.0534947
    outer loop
      vertex 29.5608 -53 27.025
      vertex 29.5608 -56 27.025
      vertex 31 -56 0.160599
    endloop
  endfacet
  facet normal 0.998568 0 0.0534947
    outer loop
      vertex 31 -53 0.160599
      vertex 29.5608 -53 27.025
      vertex 31 -56 0.160599
    endloop
  endfacet
  facet normal 1 0 0
    outer loop
      vertex 31 -56 0.160599
      vertex 31 -56 -0.025
      vertex 31 -53 -0.025
    endloop
  endfacet
  facet normal 1 0 0
    outer loop
      vertex 31 -53 0.160599
      vertex 31 -56 0.160599
      vertex 31 -53 -0.025
    endloop
  endfacet
  facet normal 0 1 0
    outer loop
      vertex 26.5 -53 -0.025
      vertex 26.5 -53 27.025
      vertex 31 -53 -0.025
    endloop
  endfacet
  facet normal 0 1 0
    outer loop
      vertex 31 -53 -0.025
      vertex 26.5 -53 27.025
      vertex 29.5608 -53 27.025
    endloop
  endfacet
  facet normal 0 1 0
    outer loop
      vertex 31 -53 -0.025
      vertex 29.5608 -53 27.025
      vertex 31 -53 0.160599
    endloop
  endfacet
  facet normal 1 0 0
    outer loop
      vertex 26.5 -53 27.025
      vertex 26.5 -53 -0.025
      vertex 26.5 -50 -0.025
    endloop
  endfacet
  facet normal 1 0 0
    outer loop
      vertex 26.5 -50 27.025
      vertex 26.5 -53 27.025
      vertex 26.5 -50 -0.025
    endloop
  endfacet
  facet normal 0 1 0
    outer loop
      vertex 23.5 -50 -0.025
      vertex 23.5 -50 27.025
      vertex 26.5 -50 -0.025
    endloop
  endfacet
  facet normal 0 1 0
    outer loop
      vertex 26.5 -50 -0.025
      vertex 23.5 -50 27.025
      vertex 26.5 -50 27.025
    endloop
  endfacet
  facet normal -1 0 0
    outer loop
      vertex 23.5 -53 -0.025
      vertex 23.5 -53 27.025
      vertex 23.5 -50 -0.025
    endloop
  endfacet
  facet normal -1 0 0
    outer loop
      vertex 23.5 -50 -0.025
      vertex 23.5 -53 27.025
      vertex 23.5 -50 27.025
    endloop
  endfacet
endsolid OpenSCAD_Model
