solid OpenSCAD_Model
  facet normal -1 0 0
    outer loop
      vertex -36.5 -50 0
      vertex -36.5 -50 30
      vertex -36.5 -45 0
    endloop
  endfacet
  facet normal -1 0 0
    outer loop
      vertex -36.5 -45 0
      vertex -36.5 -50 30
      vertex -36.5 -45 30
    endloop
  endfacet
  facet normal 0 -1 0
    outer loop
      vertex -36.5 -50 30
      vertex -36.5 -50 0
      vertex 36.5 -50 0
    endloop
  endfacet
  facet normal 0 -1 0
    outer loop
      vertex 36.5 -50 30
      vertex -36.5 -50 30
      vertex 36.5 -50 0
    endloop
  endfacet
  facet normal 0 0 -1
    outer loop
      vertex -36.5 -50 0
      vertex -36.5 -45 0
      vertex 36.5 -50 0
    endloop
  endfacet
  facet normal 0 0 -1
    outer loop
      vertex 36.5 -50 0
      vertex -36.5 -45 0
      vertex -30.5 -45 0
    endloop
  endfacet
  facet normal 0 0 -1
    outer loop
      vertex -24.5 -45 0
      vertex -30.5 -45 0
      vertex -30.5 50 0
    endloop
  endfacet
  facet normal 0 0 -1
    outer loop
      vertex 36.5 -50 0
      vertex -30.5 -45 0
      vertex -24.5 -45 0
    endloop
  endfacet
  facet normal 0 0 -1
    outer loop
      vertex 36.5 -45 0
      vertex 36.5 -50 0
      vertex 30.5 -45 0
    endloop
  endfacet
  facet normal 0 0 -1
    outer loop
      vertex 36.5 -50 0
      vertex -24.5 -45 0
      vertex 24.5 -45 0
    endloop
  endfacet
  facet normal 0 0 -1
    outer loop
      vertex 24.5 50 0
      vertex 30.5 -45 0
      vertex 24.5 -45 0
    endloop
  endfacet
  facet normal 0 0 -1
    outer loop
      vertex 30.5 -45 0
      vertex 24.5 50 0
      vertex 30.5 50 0
    endloop
  endfacet
  facet normal 0 0 -1
    outer loop
      vertex 36.5 -50 0
      vertex 24.5 -45 0
      vertex 30.5 -45 0
    endloop
  endfacet
  facet normal 0 0 -1
    outer loop
      vertex -24.5 -45 0
      vertex -30.5 50 0
      vertex -24.5 50 0
    endloop
  endfacet
  facet normal 0 1 0
    outer loop
      vertex -36.5 -45 0
      vertex -36.5 -45 30
      vertex -30.5 -45 0
    endloop
  endfacet
  facet normal 0 1 0
    outer loop
      vertex 30.5 -45 29
      vertex -36.5 -45 30
      vertex 36.5 -45 30
    endloop
  endfacet
  facet normal 0 1 0
    outer loop
      vertex 30.5 -45 0
      vertex 36.5 -45 30
      vertex 36.5 -45 0
    endloop
  endfacet
  facet normal 0 1 0
    outer loop
      vertex 24.5 -45 29
      vertex -36.5 -45 30
      vertex 30.5 -45 29
    endloop
  endfacet
  facet normal 0 1 0
    outer loop
      vertex -24.5 -45 29
      vertex -36.5 -45 30
      vertex 24.5 -45 29
    endloop
  endfacet
  facet normal 0 1 0
    outer loop
      vertex 24.5 -45 0
      vertex -24.5 -45 0
      vertex 24.5 -45 29
    endloop
  endfacet
  facet normal 0 1 0
    outer loop
      vertex -30.5 -45 29
      vertex -36.5 -45 30
      vertex -24.5 -45 29
    endloop
  endfacet
  facet normal 0 1 0
    outer loop
      vertex -30.5 -45 0
      vertex -36.5 -45 30
      vertex -30.5 -45 29
    endloop
  endfacet
  facet normal 0 1 0
    outer loop
      vertex 30.5 -45 29
      vertex 36.5 -45 30
      vertex 30.5 -45 0
    endloop
  endfacet
  facet normal 0 1 0
    outer loop
      vertex -24.5 -45 29
      vertex 24.5 -45 29
      vertex -24.5 -45 0
    endloop
  endfacet
  facet normal 0 0 1
    outer loop
      vertex -36.5 -45 30
      vertex -36.5 -50 30
      vertex 36.5 -50 30
    endloop
  endfacet
  facet normal 0 0 1
    outer loop
      vertex 36.5 -45 30
      vertex -36.5 -45 30
      vertex 36.5 -50 30
    endloop
  endfacet
  facet normal 1 0 0
    outer loop
      vertex 36.5 -50 30
      vertex 36.5 -50 0
      vertex 36.5 -45 0
    endloop
  endfacet
  facet normal 1 0 0
    outer loop
      vertex 36.5 -45 30
      vertex 36.5 -50 30
      vertex 36.5 -45 0
    endloop
  endfacet
  facet normal 1 0 0
    outer loop
      vertex 30.5 -45 29
      vertex 30.5 -45 0
      vertex 30.5 50 0
    endloop
  endfacet
  facet normal 1 0 0
    outer loop
      vertex 30.5 50 10
      vertex 30.5 -45 29
      vertex 30.5 50 0
    endloop
  endfacet
  facet normal 0 1 0
    outer loop
      vertex 24.5 50 0
      vertex 24.5 50 10
      vertex 30.5 50 0
    endloop
  endfacet
  facet normal 0 1 0
    outer loop
      vertex 30.5 50 0
      vertex 24.5 50 10
      vertex 30.5 50 10
    endloop
  endfacet
  facet normal -1 0 0
    outer loop
      vertex 24.5 -45 0
      vertex 24.5 -45 29
      vertex 24.5 50 0
    endloop
  endfacet
  facet normal -1 0 0
    outer loop
      vertex 24.5 50 0
      vertex 24.5 -45 29
      vertex 24.5 50 10
    endloop
  endfacet
  facet normal 1 0 0
    outer loop
      vertex -24.5 -45 29
      vertex -24.5 -45 0
      vertex -24.5 50 0
    endloop
  endfacet
  facet normal 1 0 0
    outer loop
      vertex -24.5 50 10
      vertex -24.5 -45 29
      vertex -24.5 50 0
    endloop
  endfacet
  facet normal 0 1 0
    outer loop
      vertex -30.5 50 0
      vertex -30.5 50 10
      vertex -24.5 50 0
    endloop
  endfacet
  facet normal 0 1 0
    outer loop
      vertex -24.5 50 0
      vertex -30.5 50 10
      vertex -24.5 50 10
    endloop
  endfacet
  facet normal -1 0 0
    outer loop
      vertex -30.5 -45 0
      vertex -30.5 -45 29
      vertex -30.5 50 0
    endloop
  endfacet
  facet normal -1 0 0
    outer loop
      vertex -30.5 50 0
      vertex -30.5 -45 29
      vertex -30.5 50 10
    endloop
  endfacet
  facet normal 0 0.196116 0.980581
    outer loop
      vertex -24.5 -45 29
      vertex -24.5 50 10
      vertex -30.5 50 10
    endloop
  endfacet
  facet normal 0 0.196116 0.980581
    outer loop
      vertex -30.5 -45 29
      vertex -24.5 -45 29
      vertex -30.5 50 10
    endloop
  endfacet
  facet normal 0 0.196116 0.980581
    outer loop
      vertex 30.5 -45 29
      vertex 30.5 50 10
      vertex 24.5 50 10
    endloop
  endfacet
  facet normal 0 0.196116 0.980581
    outer loop
      vertex 24.5 -45 29
      vertex 30.5 -45 29
      vertex 24.5 50 10
    endloop
  endfacet
  facet normal -1 0 0
    outer loop
      vertex -33.5 -56 -0.025
      vertex -33.5 -56 0.160599
      vertex -33.5 -53 -0.025
    endloop
  endfacet
  facet normal -1 0 0
    outer loop
      vertex -33.5 -53 -0.025
      vertex -33.5 -56 0.160599
      vertex -33.5 -53 0.160599
    endloop
  endfacet
  facet normal 0 -1 0
    outer loop
      vertex -33.5 -56 0.160599
      vertex -33.5 -56 -0.025
      vertex -21.5 -56 -0.025
    endloop
  endfacet
  facet normal 0 -1 0
    outer loop
      vertex -22.9392 -56 27.025
      vertex -33.5 -56 0.160599
      vertex -21.5 -56 0.160599
    endloop
  endfacet
  facet normal 0 -1 0
    outer loop
      vertex -21.5 -56 0.160599
      vertex -33.5 -56 0.160599
      vertex -21.5 -56 -0.025
    endloop
  endfacet
  facet normal 0 -1 0
    outer loop
      vertex -32.0608 -56 27.025
      vertex -33.5 -56 0.160599
      vertex -22.9392 -56 27.025
    endloop
  endfacet
  facet normal 0 0 -1
    outer loop
      vertex -33.5 -56 -0.025
      vertex -33.5 -53 -0.025
      vertex -21.5 -56 -0.025
    endloop
  endfacet
  facet normal 0 0 -1
    outer loop
      vertex -21.5 -56 -0.025
      vertex -33.5 -53 -0.025
      vertex -29 -53 -0.025
    endloop
  endfacet
  facet normal 0 0 -1
    outer loop
      vertex -26 -53 -0.025
      vertex -29 -53 -0.025
      vertex -29 -50 -0.025
    endloop
  endfacet
  facet normal 0 0 -1
    outer loop
      vertex -21.5 -56 -0.025
      vertex -29 -53 -0.025
      vertex -26 -53 -0.025
    endloop
  endfacet
  facet normal 0 0 -1
    outer loop
      vertex -21.5 -53 -0.025
      vertex -21.5 -56 -0.025
      vertex -26 -53 -0.025
    endloop
  endfacet
  facet normal 0 0 -1
    outer loop
      vertex -26 -53 -0.025
      vertex -29 -50 -0.025
      vertex -26 -50 -0.025
    endloop
  endfacet
  facet normal 0 1 0
    outer loop
      vertex -33.5 -53 -0.025
      vertex -33.5 -53 0.160599
      vertex -29 -53 -0.025
    endloop
  endfacet
  facet normal 0 1 0
    outer loop
      vertex -29 -53 -0.025
      vertex -33.5 -53 0.160599
      vertex -32.0608 -53 27.025
    endloop
  endfacet
  facet normal 0 1 0
    outer loop
      vertex -29 -53 -0.025
      vertex -32.0608 -53 27.025
      vertex -29 -53 27.025
    endloop
  endfacet
  facet normal -0.998568 0 0.0534947
    outer loop
      vertex -33.5 -56 0.160599
      vertex -32.0608 -56 27.025
      vertex -33.5 -53 0.160599
    endloop
  endfacet
  facet normal -0.998568 0 0.0534947
    outer loop
      vertex -33.5 -53 0.160599
      vertex -32.0608 -56 27.025
      vertex -32.0608 -53 27.025
    endloop
  endfacet
  facet normal 0 0 1
    outer loop
      vertex -32.0608 -53 27.025
      vertex -32.0608 -56 27.025
      vertex -22.9392 -56 27.025
    endloop
  endfacet
  facet normal 0 0 1
    outer loop
      vertex -29 -53 27.025
      vertex -32.0608 -53 27.025
      vertex -22.9392 -56 27.025
    endloop
  endfacet
  facet normal 0 0 1
    outer loop
      vertex -26 -53 27.025
      vertex -29 -53 27.025
      vertex -22.9392 -56 27.025
    endloop
  endfacet
  facet normal 0 0 1
    outer loop
      vertex -22.9392 -53 27.025
      vertex -26 -53 27.025
      vertex -22.9392 -56 27.025
    endloop
  endfacet
  facet normal 0 0 1
    outer loop
      vertex -26 -50 27.025
      vertex -29 -53 27.025
      vertex -26 -53 27.025
    endloop
  endfacet
  facet normal 0 0 1
    outer loop
      vertex -29 -50 27.025
      vertex -29 -53 27.025
      vertex -26 -50 27.025
    endloop
  endfacet
  facet normal 0.998568 0 0.0534947
    outer loop
      vertex -22.9392 -53 27.025
      vertex -22.9392 -56 27.025
      vertex -21.5 -56 0.160599
    endloop
  endfacet
  facet normal 0.998568 0 0.0534947
    outer loop
      vertex -21.5 -53 0.160599
      vertex -22.9392 -53 27.025
      vertex -21.5 -56 0.160599
    endloop
  endfacet
  facet normal 1 0 0
    outer loop
      vertex -21.5 -56 0.160599
      vertex -21.5 -56 -0.025
      vertex -21.5 -53 -0.025
    endloop
  endfacet
  facet normal 1 0 0
    outer loop
      vertex -21.5 -53 0.160599
      vertex -21.5 -56 0.160599
      vertex -21.5 -53 -0.025
    endloop
  endfacet
  facet normal 0 1 0
    outer loop
      vertex -26 -53 -0.025
      vertex -26 -53 27.025
      vertex -21.5 -53 -0.025
    endloop
  endfacet
  facet normal 0 1 0
    outer loop
      vertex -21.5 -53 -0.025
      vertex -26 -53 27.025
      vertex -22.9392 -53 27.025
    endloop
  endfacet
  facet normal 0 1 0
    outer loop
      vertex -21.5 -53 -0.025
      vertex -22.9392 -53 27.025
      vertex -21.5 -53 0.160599
    endloop
  endfacet
  facet normal 1 0 0
    outer loop
      vertex -26 -53 27.025
      vertex -26 -53 -0.025
      vertex -26 -50 -0.025
    endloop
  endfacet
  facet normal 1 0 0
    outer loop
      vertex -26 -50 27.025
      vertex -26 -53 27.025
      vertex -26 -50 -0.025
    endloop
  endfacet
  facet normal 0 1 0
    outer loop
      vertex -29 -50 -0.025
      vertex -29 -50 27.025
      vertex -26 -50 -0.025
    endloop
  endfacet
  facet normal 0 1 0
    outer loop
      vertex -26 -50 -0.025
      vertex -29 -50 27.025
      vertex -26 -50 27.025
    endloop
  endfacet
  facet normal -1 0 0
    outer loop
      vertex -29 -53 -0.025
      vertex -29 -53 27.025
      vertex -29 -50 -0.025
    endloop
  endfacet
  facet normal -1 0 0
    outer loop
      vertex -29 -50 -0.025
      vertex -29 -53 27.025
      vertex -29 -50 27.025
    endloop
  endfacet
  facet normal -1 0 0
    outer loop
      vertex 21.5 -56 -0.025
      vertex 21.5 -56 0.160599
      vertex 21.5 -53 -0.025
    endloop
  endfacet
  facet normal -1 0 0
    outer loop
      vertex 21.5 -53 -0.025
      vertex 21.5 -56 0.160599
      vertex 21.5 -53 0.160599
    endloop
  endfacet
  facet normal 0 -1 0
    outer loop
      vertex 21.5 -56 0.160599
      vertex 21.5 -56 -0.025
      vertex 33.5 -56 -0.025
    endloop
  endfacet
  facet normal 0 -1 0
    outer loop
      vertex 32.0608 -56 27.025
      vertex 21.5 -56 0.160599
      vertex 33.5 -56 0.160599
    endloop
  endfacet
  facet normal 0 -1 0
    outer loop
      vertex 33.5 -56 0.160599
      vertex 21.5 -56 0.160599
      vertex 33.5 -56 -0.025
    endloop
  endfacet
  facet normal 0 -1 0
    outer loop
      vertex 22.9392 -56 27.025
      vertex 21.5 -56 0.160599
      vertex 32.0608 -56 27.025
    endloop
  endfacet
  facet normal 0 0 -1
    outer loop
      vertex 21.5 -56 -0.025
      vertex 21.5 -53 -0.025
      vertex 33.5 -56 -0.025
    endloop
  endfacet
  facet normal 0 0 -1
    outer loop
      vertex 33.5 -56 -0.025
      vertex 21.5 -53 -0.025
      vertex 26 -53 -0.025
    endloop
  endfacet
  facet normal 0 0 -1
    outer loop
      vertex 29 -53 -0.025
      vertex 26 -53 -0.025
      vertex 26 -50 -0.025
    endloop
  endfacet
  facet normal 0 0 -1
    outer loop
      vertex 33.5 -56 -0.025
      vertex 26 -53 -0.025
      vertex 29 -53 -0.025
    endloop
  endfacet
  facet normal 0 0 -1
    outer loop
      vertex 33.5 -53 -0.025
      vertex 33.5 -56 -0.025
      vertex 29 -53 -0.025
    endloop
  endfacet
  facet normal 0 0 -1
    outer loop
      vertex 29 -53 -0.025
      vertex 26 -50 -0.025
      vertex 29 -50 -0.025
    endloop
  endfacet
  facet normal 0 1 0
    outer loop
      vertex 21.5 -53 -0.025
      vertex 21.5 -53 0.160599
      vertex 26 -53 -0.025
    endloop
  endfacet
  facet normal 0 1 0
    outer loop
      vertex 26 -53 -0.025
      vertex 21.5 -53 0.160599
      vertex 22.9392 -53 27.025
    endloop
  endfacet
  facet normal 0 1 0
    outer loop
      vertex 26 -53 -0.025
      vertex 22.9392 -53 27.025
      vertex 26 -53 27.025
    endloop
  endfacet
  facet normal -0.998568 0 0.0534947
    outer loop
      vertex 21.5 -56 0.160599
      vertex 22.9392 -56 27.025
      vertex 21.5 -53 0.160599
    endloop
  endfacet
  facet normal -0.998568 0 0.0534947
    outer loop
      vertex 21.5 -53 0.160599
      vertex 22.9392 -56 27.025
      vertex 22.9392 -53 27.025
    endloop
  endfacet
  facet normal 0 0 1
    outer loop
      vertex 22.9392 -53 27.025
      vertex 22.9392 -56 27.025
      vertex 32.0608 -56 27.025
    endloop
  endfacet
  facet normal 0 0 1
    outer loop
      vertex 26 -53 27.025
      vertex 22.9392 -53 27.025
      vertex 32.0608 -56 27.025
    endloop
  endfacet
  facet normal 0 0 1
    outer loop
      vertex 29 -53 27.025
      vertex 26 -53 27.025
      vertex 32.0608 -56 27.025
    endloop
  endfacet
  facet normal 0 0 1
    outer loop
      vertex 32.0608 -53 27.025
      vertex 29 -53 27.025
      vertex 32.0608 -56 27.025
    endloop
  endfacet
  facet normal 0 0 1
    outer loop
      vertex 29 -50 27.025
      vertex 26 -53 27.025
      vertex 29 -53 27.025
    endloop
  endfacet
  facet normal 0 0 1
    outer loop
      vertex 26 -50 27.025
      vertex 26 -53 27.025
      vertex 29 -50 27.025
    endloop
  endfacet
  facet normal 0.998568 0 0.0534947
    outer loop
      vertex 32.0608 -53 27.025
      vertex 32.0608 -56 27.025
      vertex 33.5 -56 0.160599
    endloop
  endfacet
  facet normal 0.998568 0 0.0534947
    outer loop
      vertex 33.5 -53 0.160599
      vertex 32.0608 -53 27.025
      vertex 33.5 -56 0.160599
    endloop
  endfacet
  facet normal 1 0 0
    outer loop
      vertex 33.5 -56 0.160599
      vertex 33.5 -56 -0.025
      vertex 33.5 -53 -0.025
    endloop
  endfacet
  facet normal 1 0 0
    outer loop
      vertex 33.5 -53 0.160599
      vertex 33.5 -56 0.160599
      vertex 33.5 -53 -0.025
    endloop
  endfacet
  facet normal 0 1 0
    outer loop
      vertex 29 -53 -0.025
      vertex 29 -53 27.025
      vertex 33.5 -53 -0.025
    endloop
  endfacet
  facet normal 0 1 0
    outer loop
      vertex 33.5 -53 -0.025
      vertex 29 -53 27.025
      vertex 32.0608 -53 27.025
    endloop
  endfacet
  facet normal 0 1 0
    outer loop
      vertex 33.5 -53 -0.025
      vertex 32.0608 -53 27.025
      vertex 33.5 -53 0.160599
    endloop
  endfacet
  facet normal 1 0 0
    outer loop
      vertex 29 -53 27.025
      vertex 29 -53 -0.025
      vertex 29 -50 -0.025
    endloop
  endfacet
  facet normal 1 0 0
    outer loop
      vertex 29 -50 27.025
      vertex 29 -53 27.025
      vertex 29 -50 -0.025
    endloop
  endfacet
  facet normal 0 1 0
    outer loop
      vertex 26 -50 -0.025
      vertex 26 -50 27.025
      vertex 29 -50 -0.025
    endloop
  endfacet
  facet normal 0 1 0
    outer loop
      vertex 29 -50 -0.025
      vertex 26 -50 27.025
      vertex 29 -50 27.025
    endloop
  endfacet
  facet normal -1 0 0
    outer loop
      vertex 26 -53 -0.025
      vertex 26 -53 27.025
      vertex 26 -50 -0.025
    endloop
  endfacet
  facet normal -1 0 0
    outer loop
      vertex 26 -50 -0.025
      vertex 26 -53 27.025
      vertex 26 -50 27.025
    endloop
  endfacet
endsolid OpenSCAD_Model
