solid OpenSCAD_Model
  facet normal -1.22465e-16 2.99952e-32 1
    outer loop
      vertex -35 50 15
      vertex -25 -50 15
      vertex -25 50 15
    endloop
  endfacet
  facet normal -1.22465e-16 2.99952e-32 1
    outer loop
      vertex -35 50 15
      vertex -35 -50 15
      vertex -25 -50 15
    endloop
  endfacet
  facet normal -2.44929e-16 -1 0
    outer loop
      vertex -35 -50 -6.12323e-16
      vertex -25 -50 15
      vertex -32.1132 -50 10
    endloop
  endfacet
  facet normal -2.44929e-16 -1 0
    outer loop
      vertex -35 -50 -6.12323e-16
      vertex -32.1132 -50 10
      vertex -35 -50 9.2265
    endloop
  endfacet
  facet normal -2.44929e-16 -1 0
    outer loop
      vertex -27.8868 -50 10
      vertex -25 -50 15
      vertex -35 -50 -6.12323e-16
    endloop
  endfacet
  facet normal -2.44929e-16 -1 0
    outer loop
      vertex -30 -50 1.34978e-30
      vertex -30 -50 3
      vertex -35 -50 -6.12323e-16
    endloop
  endfacet
  facet normal -2.44929e-16 -1 0
    outer loop
      vertex -25 -50 9.2265
      vertex -27.8868 -50 10
      vertex -30 -50 3
    endloop
  endfacet
  facet normal -2.44929e-16 -1 0
    outer loop
      vertex -30 -50 3
      vertex -27.8868 -50 10
      vertex -35 -50 -6.12323e-16
    endloop
  endfacet
  facet normal -2.44929e-16 -1 0
    outer loop
      vertex -35 -50 15
      vertex -32.1132 -50 10
      vertex -25 -50 15
    endloop
  endfacet
  facet normal -2.44929e-16 -1 0
    outer loop
      vertex -30 -50 3
      vertex -25 -50 3
      vertex -25 -50 9.2265
    endloop
  endfacet
  facet normal -0.866025 2.12115e-16 -0.5
    outer loop
      vertex -32.1132 50 10
      vertex -32.1132 -50 10
      vertex -35 50 15
    endloop
  endfacet
  facet normal -0.866025 2.12115e-16 -0.5
    outer loop
      vertex -35 50 15
      vertex -32.1132 -50 10
      vertex -35 -50 15
    endloop
  endfacet
  facet normal 2.44929e-16 1 0
    outer loop
      vertex -25 50 9.2265
      vertex -25 50 3
      vertex -27.8868 50 10
    endloop
  endfacet
  facet normal 2.44929e-16 1 0
    outer loop
      vertex -35 50 9.2265
      vertex -25 50 6.12323e-16
      vertex -35 50 -6.12323e-16
    endloop
  endfacet
  facet normal 2.44929e-16 1 0
    outer loop
      vertex -32.1132 50 10
      vertex -25 50 6.12323e-16
      vertex -35 50 9.2265
    endloop
  endfacet
  facet normal 2.44929e-16 1 0
    outer loop
      vertex -35 50 15
      vertex -25 50 15
      vertex -27.8868 50 10
    endloop
  endfacet
  facet normal 2.44929e-16 1 0
    outer loop
      vertex -35 50 15
      vertex -27.8868 50 10
      vertex -25 50 3
    endloop
  endfacet
  facet normal 2.44929e-16 1 0
    outer loop
      vertex -35 50 15
      vertex -25 50 3
      vertex -25 50 6.12323e-16
    endloop
  endfacet
  facet normal 2.44929e-16 1 0
    outer loop
      vertex -35 50 15
      vertex -25 50 6.12323e-16
      vertex -32.1132 50 10
    endloop
  endfacet
  facet normal 0.866025 -2.12115e-16 -0.5
    outer loop
      vertex -25 50 15
      vertex -25 -50 15
      vertex -27.8868 50 10
    endloop
  endfacet
  facet normal 0.866025 -2.12115e-16 -0.5
    outer loop
      vertex -25 -50 15
      vertex -27.8868 -50 10
      vertex -27.8868 50 10
    endloop
  endfacet
  facet normal 0.258819 -6.33924e-17 0.965926
    outer loop
      vertex -25 -50 9.2265
      vertex -25 50 9.2265
      vertex -27.8868 50 10
    endloop
  endfacet
  facet normal 0.258819 -6.33924e-17 0.965926
    outer loop
      vertex -27.8868 -50 10
      vertex -25 -50 9.2265
      vertex -27.8868 50 10
    endloop
  endfacet
  facet normal 1 -2.44929e-16 1.22465e-16
    outer loop
      vertex -25 -50 5
      vertex -25 -50 9.2265
      vertex -25 -50 3
    endloop
  endfacet
  facet normal 1 -2.44929e-16 1.22465e-16
    outer loop
      vertex -25 -50 5
      vertex -25 50 9.2265
      vertex -25 -50 9.2265
    endloop
  endfacet
  facet normal 1 -2.44929e-16 1.22465e-16
    outer loop
      vertex -25 -50 5
      vertex -25 50 5
      vertex -25 50 9.2265
    endloop
  endfacet
  facet normal 1 -2.44929e-16 1.22465e-16
    outer loop
      vertex -25 50 3
      vertex -25 50 9.2265
      vertex -25 50 5
    endloop
  endfacet
  facet normal 1 -2.44929e-16 1.22465e-16
    outer loop
      vertex -25 50 5
      vertex -25 -50 3
      vertex -25 50 3
    endloop
  endfacet
  facet normal 1 -2.44929e-16 1.22465e-16
    outer loop
      vertex -25 50 5
      vertex -25 -50 5
      vertex -25 -50 3
    endloop
  endfacet
  facet normal 0 0 1
    outer loop
      vertex -25 -50 3
      vertex -30 -50 3
      vertex -10 -50 3
    endloop
  endfacet
  facet normal 0 0 1
    outer loop
      vertex -25 50 3
      vertex -15 -50 3
      vertex -15 50 3
    endloop
  endfacet
  facet normal 0 0 1
    outer loop
      vertex -15 -50 3
      vertex -25 -50 3
      vertex -10 -50 3
    endloop
  endfacet
  facet normal 0 0 1
    outer loop
      vertex -25 50 3
      vertex -25 -50 3
      vertex -15 -50 3
    endloop
  endfacet
  facet normal -1 0 0
    outer loop
      vertex -30 -50 0
      vertex -30 -50 3
      vertex -30 -50 1.34978e-30
    endloop
  endfacet
  facet normal -1 0 0
    outer loop
      vertex -30 -50 0
      vertex -30 -50 1.34978e-30
      vertex -30 -5 0
    endloop
  endfacet
  facet normal 1.22465e-16 -2.99952e-32 -1
    outer loop
      vertex -35 -50 -6.12323e-16
      vertex -35 50 -6.12323e-16
      vertex -30 -50 1.34978e-30
    endloop
  endfacet
  facet normal 1.22465e-16 -2.99952e-32 -1
    outer loop
      vertex -30 50 0
      vertex -35 50 -6.12323e-16
      vertex -25 50 6.12323e-16
    endloop
  endfacet
  facet normal 1.22465e-16 -2.99952e-32 -1
    outer loop
      vertex -30 -5 0
      vertex -35 50 -6.12323e-16
      vertex -30 50 0
    endloop
  endfacet
  facet normal 1.22465e-16 -2.99952e-32 -1
    outer loop
      vertex -30 -50 1.34978e-30
      vertex -35 50 -6.12323e-16
      vertex -30 -5 0
    endloop
  endfacet
  facet normal -1 2.44929e-16 -1.22465e-16
    outer loop
      vertex -35 50 5
      vertex -35 50 9.2265
      vertex -35 50 -6.12323e-16
    endloop
  endfacet
  facet normal -1 2.44929e-16 -1.22465e-16
    outer loop
      vertex -35 -50 9.2265
      vertex -35 -50 5
      vertex -35 -50 -6.12323e-16
    endloop
  endfacet
  facet normal -1 2.44929e-16 -1.22465e-16
    outer loop
      vertex -35 -50 -6.12323e-16
      vertex -35 50 5
      vertex -35 50 -6.12323e-16
    endloop
  endfacet
  facet normal -1 2.44929e-16 -1.22465e-16
    outer loop
      vertex -35 -50 5
      vertex -35 50 9.2265
      vertex -35 50 5
    endloop
  endfacet
  facet normal -1 2.44929e-16 -1.22465e-16
    outer loop
      vertex -35 -50 5
      vertex -35 -50 9.2265
      vertex -35 50 9.2265
    endloop
  endfacet
  facet normal -1 2.44929e-16 -1.22465e-16
    outer loop
      vertex -35 50 5
      vertex -35 -50 -6.12323e-16
      vertex -35 -50 5
    endloop
  endfacet
  facet normal -0.258819 6.33924e-17 0.965926
    outer loop
      vertex -32.1132 -50 10
      vertex -32.1132 50 10
      vertex -35 50 9.2265
    endloop
  endfacet
  facet normal -0.258819 6.33924e-17 0.965926
    outer loop
      vertex -35 -50 9.2265
      vertex -32.1132 -50 10
      vertex -35 50 9.2265
    endloop
  endfacet
  facet normal 0 1 0
    outer loop
      vertex -30 50 0
      vertex -25 50 6.12323e-16
      vertex -10 50 0
    endloop
  endfacet
  facet normal 0 1 0
    outer loop
      vertex -15 50 6.12323e-16
      vertex -25 50 6.12323e-16
      vertex -25 50 3
    endloop
  endfacet
  facet normal 0 1 0
    outer loop
      vertex -10 50 0
      vertex -25 50 6.12323e-16
      vertex -15 50 6.12323e-16
    endloop
  endfacet
  facet normal 0 1 0
    outer loop
      vertex -10 50 5.99904e-31
      vertex -10 50 0
      vertex -15 50 6.12323e-16
    endloop
  endfacet
  facet normal 0 1 0
    outer loop
      vertex -15 50 6.12323e-16
      vertex -25 50 3
      vertex -15 50 3
    endloop
  endfacet
  facet normal -1 1.22465e-16 1.22465e-16
    outer loop
      vertex -15 50 5
      vertex -15 50 3
      vertex -15 -50 3
    endloop
  endfacet
  facet normal -1 1.22465e-16 1.22465e-16
    outer loop
      vertex -15 50 3
      vertex -15 50 9.2265
      vertex -15 50 6.12323e-16
    endloop
  endfacet
  facet normal -1 1.22465e-16 1.22465e-16
    outer loop
      vertex -15 -50 5
      vertex -15 -50 9.2265
      vertex -15 50 9.2265
    endloop
  endfacet
  facet normal -1 1.22465e-16 1.22465e-16
    outer loop
      vertex -15 -50 5
      vertex -15 50 9.2265
      vertex -15 50 5
    endloop
  endfacet
  facet normal -1 1.22465e-16 1.22465e-16
    outer loop
      vertex -15 -50 3
      vertex -15 -50 9.2265
      vertex -15 -50 5
    endloop
  endfacet
  facet normal -1 1.22465e-16 1.22465e-16
    outer loop
      vertex -15 50 5
      vertex -15 -50 3
      vertex -15 -50 5
    endloop
  endfacet
  facet normal -1 1.22465e-16 1.22465e-16
    outer loop
      vertex -15 50 3
      vertex -15 50 5
      vertex -15 50 9.2265
    endloop
  endfacet
  facet normal -1.22465e-16 -1 0
    outer loop
      vertex -10 -50 0
      vertex -5 -50 -6.12323e-16
      vertex -10 -50 3
    endloop
  endfacet
  facet normal -1.22465e-16 -1 0
    outer loop
      vertex -15 -50 9.2265
      vertex -15 -50 3
      vertex -10 -50 3
    endloop
  endfacet
  facet normal -1.22465e-16 -1 0
    outer loop
      vertex -5 -50 -6.12323e-16
      vertex -15 -50 9.2265
      vertex -10 -50 3
    endloop
  endfacet
  facet normal -1.22465e-16 -1 0
    outer loop
      vertex -7.88675 -50 10
      vertex -5 -50 15
      vertex -12.1132 -50 10
    endloop
  endfacet
  facet normal -1.22465e-16 -1 0
    outer loop
      vertex -5 -50 -6.12323e-16
      vertex -5 -50 9.2265
      vertex -15 -50 9.2265
    endloop
  endfacet
  facet normal -1.22465e-16 -1 0
    outer loop
      vertex -15 -50 15
      vertex -12.1132 -50 10
      vertex -5 -50 15
    endloop
  endfacet
  facet normal -1.22465e-16 -1 0
    outer loop
      vertex -12.1132 -50 10
      vertex -5 -50 9.2265
      vertex -7.88675 -50 10
    endloop
  endfacet
  facet normal -1.22465e-16 -1 0
    outer loop
      vertex -12.1132 -50 10
      vertex -15 -50 9.2265
      vertex -5 -50 9.2265
    endloop
  endfacet
  facet normal 0 -1 0
    outer loop
      vertex -30 -50 3
      vertex -30 -50 0
      vertex -10 -50 0
    endloop
  endfacet
  facet normal 0 -1 0
    outer loop
      vertex -10 -50 3
      vertex -30 -50 3
      vertex -10 -50 0
    endloop
  endfacet
  facet normal 0 0 -1
    outer loop
      vertex -30 -50 0
      vertex -30 -5 0
      vertex -10 -50 0
    endloop
  endfacet
  facet normal 0 0 -1
    outer loop
      vertex -10 -50 0
      vertex -30 -5 0
      vertex -30 50 0
    endloop
  endfacet
  facet normal 0 0 -1
    outer loop
      vertex -10 -50 0
      vertex -30 50 0
      vertex -10 50 0
    endloop
  endfacet
  facet normal 0 0 -1
    outer loop
      vertex -10 -50 0
      vertex -10 50 0
      vertex -10 10 0
    endloop
  endfacet
  facet normal 1 0 0
    outer loop
      vertex -10 50 5.99904e-31
      vertex -10 10 0
      vertex -10 50 0
    endloop
  endfacet
  facet normal -1.22465e-16 1.49976e-32 -1
    outer loop
      vertex -10 10 0
      vertex -5 -50 -6.12323e-16
      vertex -10 -50 0
    endloop
  endfacet
  facet normal -1.22465e-16 1.49976e-32 -1
    outer loop
      vertex -10 50 5.99904e-31
      vertex -15 50 6.12323e-16
      vertex -5 50 -6.12323e-16
    endloop
  endfacet
  facet normal -1.22465e-16 1.49976e-32 -1
    outer loop
      vertex -5 50 -6.12323e-16
      vertex -5 -50 -6.12323e-16
      vertex -10 10 0
    endloop
  endfacet
  facet normal -1.22465e-16 1.49976e-32 -1
    outer loop
      vertex -10 50 5.99904e-31
      vertex -5 50 -6.12323e-16
      vertex -10 10 0
    endloop
  endfacet
  facet normal 1.22465e-16 1 0
    outer loop
      vertex -15 50 6.12323e-16
      vertex -15 50 9.2265
      vertex -5 50 -6.12323e-16
    endloop
  endfacet
  facet normal 1.22465e-16 1 0
    outer loop
      vertex -5 50 -6.12323e-16
      vertex -15 50 9.2265
      vertex -12.1132 50 10
    endloop
  endfacet
  facet normal 1.22465e-16 1 0
    outer loop
      vertex -12.1132 50 10
      vertex -15 50 15
      vertex -5 50 -6.12323e-16
    endloop
  endfacet
  facet normal 1.22465e-16 1 0
    outer loop
      vertex -5 50 9.2265
      vertex -5 50 -6.12323e-16
      vertex -7.88675 50 10
    endloop
  endfacet
  facet normal 1.22465e-16 1 0
    outer loop
      vertex -5 50 -6.12323e-16
      vertex -15 50 15
      vertex -7.88675 50 10
    endloop
  endfacet
  facet normal 1.22465e-16 1 0
    outer loop
      vertex -7.88675 50 10
      vertex -15 50 15
      vertex -5 50 15
    endloop
  endfacet
  facet normal -0.258819 3.16962e-17 0.965926
    outer loop
      vertex -12.1132 -50 10
      vertex -12.1132 50 10
      vertex -15 50 9.2265
    endloop
  endfacet
  facet normal -0.258819 3.16962e-17 0.965926
    outer loop
      vertex -15 -50 9.2265
      vertex -12.1132 -50 10
      vertex -15 50 9.2265
    endloop
  endfacet
  facet normal 1.22465e-16 -1.49976e-32 1
    outer loop
      vertex -15 50 15
      vertex -5 -50 15
      vertex -5 50 15
    endloop
  endfacet
  facet normal 1.22465e-16 -1.49976e-32 1
    outer loop
      vertex -15 50 15
      vertex -15 -50 15
      vertex -5 -50 15
    endloop
  endfacet
  facet normal 0.258819 -3.16962e-17 0.965926
    outer loop
      vertex -5 -50 9.2265
      vertex -5 50 9.2265
      vertex -7.88675 50 10
    endloop
  endfacet
  facet normal 0.258819 -3.16962e-17 0.965926
    outer loop
      vertex -7.88675 -50 10
      vertex -5 -50 9.2265
      vertex -7.88675 50 10
    endloop
  endfacet
  facet normal 1 -1.22465e-16 -1.22465e-16
    outer loop
      vertex -5 -50 5
      vertex -5 -50 -6.12323e-16
      vertex -5 50 -6.12323e-16
    endloop
  endfacet
  facet normal 1 -1.22465e-16 -1.22465e-16
    outer loop
      vertex -5 -50 9.2265
      vertex -5 -50 -6.12323e-16
      vertex -5 -50 5
    endloop
  endfacet
  facet normal 1 -1.22465e-16 -1.22465e-16
    outer loop
      vertex -5 -50 5
      vertex -5 50 5
      vertex -5 -50 9.2265
    endloop
  endfacet
  facet normal 1 -1.22465e-16 -1.22465e-16
    outer loop
      vertex -5 50 9.2265
      vertex -5 -50 9.2265
      vertex -5 50 5
    endloop
  endfacet
  facet normal 1 -1.22465e-16 -1.22465e-16
    outer loop
      vertex -5 50 9.2265
      vertex -5 50 5
      vertex -5 50 -6.12323e-16
    endloop
  endfacet
  facet normal 1 -1.22465e-16 -1.22465e-16
    outer loop
      vertex -5 50 5
      vertex -5 -50 5
      vertex -5 50 -6.12323e-16
    endloop
  endfacet
  facet normal -0.866025 1.06058e-16 -0.5
    outer loop
      vertex -12.1132 50 10
      vertex -12.1132 -50 10
      vertex -15 50 15
    endloop
  endfacet
  facet normal -0.866025 1.06058e-16 -0.5
    outer loop
      vertex -15 50 15
      vertex -12.1132 -50 10
      vertex -15 -50 15
    endloop
  endfacet
  facet normal 0.866025 -1.06058e-16 -0.5
    outer loop
      vertex -5 -50 15
      vertex -7.88675 50 10
      vertex -5 50 15
    endloop
  endfacet
  facet normal 0.866025 -1.06058e-16 -0.5
    outer loop
      vertex -7.88675 -50 10
      vertex -7.88675 50 10
      vertex -5 -50 15
    endloop
  endfacet
  facet normal -1.22465e-16 -1 0
    outer loop
      vertex 4.75 -50 3.625
      vertex 1 -50 3.45948e-07
      vertex 10 -50 3.45948e-07
    endloop
  endfacet
  facet normal -1.22465e-16 -1 0
    outer loop
      vertex 4.75 -50 5
      vertex 6.87793 -50 8.68569
      vertex 1 -50 9.7735
    endloop
  endfacet
  facet normal -1.22465e-16 -1 0
    outer loop
      vertex 19 -50 9.7735
      vertex 15.25 -50 9.7735
      vertex 19 -50 3
    endloop
  endfacet
  facet normal -1.22465e-16 -1 0
    outer loop
      vertex 15.25 -50 9.7735
      vertex 15.25 -50 9.25587
      vertex 19 -50 3
    endloop
  endfacet
  facet normal -1.22465e-16 -1 0
    outer loop
      vertex 15.25 -50 9.25587
      vertex 13.1221 -50 8.68569
      vertex 19 -50 3
    endloop
  endfacet
  facet normal -1.22465e-16 -1 0
    outer loop
      vertex 13.1221 -50 8.68569
      vertex 15.25 -50 5
      vertex 19 -50 3
    endloop
  endfacet
  facet normal -1.22465e-16 -1 0
    outer loop
      vertex 19 -50 3
      vertex 15.25 -50 3.625
      vertex 10 -50 3
    endloop
  endfacet
  facet normal -1.22465e-16 -1 0
    outer loop
      vertex 4.75 -50 9.25587
      vertex 4.75 -50 9.7735
      vertex 1 -50 9.7735
    endloop
  endfacet
  facet normal -1.22465e-16 -1 0
    outer loop
      vertex 1 -50 9.7735
      vertex 1 -50 3.45948e-07
      vertex 4.75 -50 3.625
    endloop
  endfacet
  facet normal -1.22465e-16 -1 0
    outer loop
      vertex 1 -50 9.7735
      vertex 4.75 -50 3.625
      vertex 4.75 -50 5
    endloop
  endfacet
  facet normal -1.22465e-16 -1 0
    outer loop
      vertex 4.75 -50 9.25587
      vertex 1 -50 9.7735
      vertex 6.87793 -50 8.68569
    endloop
  endfacet
  facet normal -1.22465e-16 -1 0
    outer loop
      vertex 15.25 -50 5
      vertex 15.25 -50 3.625
      vertex 19 -50 3
    endloop
  endfacet
  facet normal -1.22465e-16 -1 0
    outer loop
      vertex 10 -50 3
      vertex 4.75 -50 3.625
      vertex 10 -50 3.45948e-07
    endloop
  endfacet
  facet normal -1.22465e-16 -1 0
    outer loop
      vertex 15.25 -50 3.625
      vertex 4.75 -50 3.625
      vertex 10 -50 3
    endloop
  endfacet
  facet normal 0 0 -1
    outer loop
      vertex 1 -50 3.45948e-07
      vertex 1 50 3.45948e-07
      vertex 10 -50 3.45948e-07
    endloop
  endfacet
  facet normal 0 0 -1
    outer loop
      vertex 10 50 3.45948e-07
      vertex 1 50 3.45948e-07
      vertex 19 50 3.45948e-07
    endloop
  endfacet
  facet normal 0 0 -1
    outer loop
      vertex 10 -50 3.45948e-07
      vertex 1 50 3.45948e-07
      vertex 10 50 3.45948e-07
    endloop
  endfacet
  facet normal -1 1.22465e-16 0
    outer loop
      vertex 1 -50 3.45948e-07
      vertex 1 -50 9.7735
      vertex 1 50 3.45948e-07
    endloop
  endfacet
  facet normal -1 1.22465e-16 0
    outer loop
      vertex 1 50 3.45948e-07
      vertex 1 -50 9.7735
      vertex 1 50 9.7735
    endloop
  endfacet
  facet normal 0 0 1
    outer loop
      vertex 1 50 9.7735
      vertex 1 -50 9.7735
      vertex 4.75 -50 9.7735
    endloop
  endfacet
  facet normal 0 0 1
    outer loop
      vertex 4.75 -49.5 9.7735
      vertex 1 50 9.7735
      vertex 4.75 -50 9.7735
    endloop
  endfacet
  facet normal 0 0 1
    outer loop
      vertex 4.75 50 9.7735
      vertex 1 50 9.7735
      vertex 4.75 49.5 9.7735
    endloop
  endfacet
  facet normal 0 0 1
    outer loop
      vertex 4.75 -49.5 9.7735
      vertex 4.75 49.5 9.7735
      vertex 1 50 9.7735
    endloop
  endfacet
  facet normal 1 -1.22465e-16 0
    outer loop
      vertex 4.75 -50 9.25587
      vertex 4.75 -49.75 9.51468
      vertex 4.75 -50 9.7735
    endloop
  endfacet
  facet normal 1 -1.22465e-16 0
    outer loop
      vertex 4.75 -50 9.7735
      vertex 4.75 -49.75 9.51468
      vertex 4.75 -49.5 9.7735
    endloop
  endfacet
  facet normal 0.183013 -0.707107 0.683013
    outer loop
      vertex 4.75 -50 9.25587
      vertex 4.75 -49.5 9.7735
      vertex 4.75 -49.75 9.51468
    endloop
  endfacet
  facet normal 0.183013 -0.707107 0.683013
    outer loop
      vertex 6.87793 -50 8.68569
      vertex 4.75 -49.5 9.7735
      vertex 4.75 -50 9.25587
    endloop
  endfacet
  facet normal 0.183013 -0.707107 0.683013
    outer loop
      vertex 7.63675 -49.5 9
      vertex 4.75 -49.5 9.7735
      vertex 6.87793 -50 8.68569
    endloop
  endfacet
  facet normal 0.612372 -0.707107 -0.353553
    outer loop
      vertex 4.75 -50 5
      vertex 4.75 -49.75 4.5
      vertex 4.75 -49.5 4
    endloop
  endfacet
  facet normal 0.612372 -0.707107 -0.353553
    outer loop
      vertex 6.87793 -50 8.68569
      vertex 4.75 -50 5
      vertex 7.63675 -49.5 9
    endloop
  endfacet
  facet normal 0.612372 -0.707107 -0.353553
    outer loop
      vertex 7.63675 -49.5 9
      vertex 4.75 -50 5
      vertex 4.75 -49.5 4
    endloop
  endfacet
  facet normal 1 -1.22465e-16 0
    outer loop
      vertex 4.75 49.5 4
      vertex 4.75 50 3.625
      vertex 4.75 49.75 4.5
    endloop
  endfacet
  facet normal 1 -1.22465e-16 0
    outer loop
      vertex 4.75 49.75 4.5
      vertex 4.75 50 3.625
      vertex 4.75 50 5
    endloop
  endfacet
  facet normal 1 -1.22465e-16 0
    outer loop
      vertex 4.75 -49.5 4
      vertex 4.75 50 3.625
      vertex 4.75 49.5 4
    endloop
  endfacet
  facet normal 1 -1.22465e-16 0
    outer loop
      vertex 4.75 -50 3.625
      vertex 4.75 50 3.625
      vertex 4.75 -49.5 4
    endloop
  endfacet
  facet normal 1 -1.22465e-16 0
    outer loop
      vertex 4.75 -50 5
      vertex 4.75 -49.5 4
      vertex 4.75 -49.75 4.5
    endloop
  endfacet
  facet normal 1 -1.22465e-16 0
    outer loop
      vertex 4.75 -50 3.625
      vertex 4.75 -49.5 4
      vertex 4.75 -50 5
    endloop
  endfacet
  facet normal 0 0 1
    outer loop
      vertex 15.25 -50 3.625
      vertex 15.25 50 3.625
      vertex 4.75 50 3.625
    endloop
  endfacet
  facet normal 0 0 1
    outer loop
      vertex 4.75 -50 3.625
      vertex 15.25 -50 3.625
      vertex 4.75 50 3.625
    endloop
  endfacet
  facet normal -1 1.22465e-16 0
    outer loop
      vertex 15.25 -50 5
      vertex 15.25 -49.75 4.5
      vertex 15.25 -49.5 4
    endloop
  endfacet
  facet normal -1 1.22465e-16 0
    outer loop
      vertex 15.25 49.75 4.5
      vertex 15.25 50 5
      vertex 15.25 49.5 4
    endloop
  endfacet
  facet normal -1 1.22465e-16 0
    outer loop
      vertex 15.25 49.5 4
      vertex 15.25 50 5
      vertex 15.25 50 3.625
    endloop
  endfacet
  facet normal -1 1.22465e-16 0
    outer loop
      vertex 15.25 49.5 4
      vertex 15.25 50 3.625
      vertex 15.25 -49.5 4
    endloop
  endfacet
  facet normal -1 1.22465e-16 0
    outer loop
      vertex 15.25 -49.5 4
      vertex 15.25 50 3.625
      vertex 15.25 -50 3.625
    endloop
  endfacet
  facet normal -1 1.22465e-16 0
    outer loop
      vertex 15.25 -49.5 4
      vertex 15.25 -50 3.625
      vertex 15.25 -50 5
    endloop
  endfacet
  facet normal -1 1.22465e-16 0
    outer loop
      vertex 15.25 -49.5 9.7735
      vertex 15.25 -49.75 9.51468
      vertex 15.25 -50 9.7735
    endloop
  endfacet
  facet normal -1 1.22465e-16 0
    outer loop
      vertex 15.25 -50 9.7735
      vertex 15.25 -49.75 9.51468
      vertex 15.25 -50 9.25587
    endloop
  endfacet
  facet normal 0 0 1
    outer loop
      vertex 15.25 -49.5 9.7735
      vertex 15.25 -50 9.7735
      vertex 19 -50 9.7735
    endloop
  endfacet
  facet normal 0 0 1
    outer loop
      vertex 15.25 49.5 9.7735
      vertex 15.25 -49.5 9.7735
      vertex 19 50 9.7735
    endloop
  endfacet
  facet normal 0 0 1
    outer loop
      vertex 15.25 50 9.7735
      vertex 15.25 49.5 9.7735
      vertex 19 50 9.7735
    endloop
  endfacet
  facet normal 0 0 1
    outer loop
      vertex 19 50 9.7735
      vertex 15.25 -49.5 9.7735
      vertex 19 -50 9.7735
    endloop
  endfacet
  facet normal 1 -1.22465e-16 0
    outer loop
      vertex 19 -50 9.7735
      vertex 19 -50 3
      vertex 19 50 3
    endloop
  endfacet
  facet normal 1 -1.22465e-16 0
    outer loop
      vertex 19 50 9.7735
      vertex 19 -50 9.7735
      vertex 19 50 3
    endloop
  endfacet
  facet normal 1 -1.22465e-16 0
    outer loop
      vertex 19 50 3.45948e-07
      vertex 19 50 9.7735
      vertex 19 50 3
    endloop
  endfacet
  facet normal 0 0 1
    outer loop
      vertex 19 -50 3
      vertex 10 -50 3
      vertex 21 -50 3
    endloop
  endfacet
  facet normal 0 0 1
    outer loop
      vertex 19 50 3
      vertex 21 -50 3
      vertex 21 50 3
    endloop
  endfacet
  facet normal 0 0 1
    outer loop
      vertex 19 50 3
      vertex 19 -50 3
      vertex 21 -50 3
    endloop
  endfacet
  facet normal -1 0 0
    outer loop
      vertex 10 50 3.45948e-07
      vertex 10 50 0
      vertex 10 -50 3.45948e-07
    endloop
  endfacet
  facet normal -1 0 0
    outer loop
      vertex 10 -50 0
      vertex 10 -50 3
      vertex 10 -50 3.45948e-07
    endloop
  endfacet
  facet normal -1 0 0
    outer loop
      vertex 10 -50 0
      vertex 10 -50 3.45948e-07
      vertex 10 50 0
    endloop
  endfacet
  facet normal 0 1 0
    outer loop
      vertex 10 50 0
      vertex 10 50 3.45948e-07
      vertex 30 50 0
    endloop
  endfacet
  facet normal 0 1 0
    outer loop
      vertex 30 50 0
      vertex 10 50 3.45948e-07
      vertex 19 50 3.45948e-07
    endloop
  endfacet
  facet normal 0 1 0
    outer loop
      vertex 30 50 0
      vertex 19 50 3.45948e-07
      vertex 19 50 3
    endloop
  endfacet
  facet normal 0 1 0
    outer loop
      vertex 30 50 0
      vertex 19 50 3
      vertex 21 50 3
    endloop
  endfacet
  facet normal 0 1 0
    outer loop
      vertex 24.75 50 5
      vertex 21 50 3
      vertex 21 50 9.7735
    endloop
  endfacet
  facet normal 0 1 0
    outer loop
      vertex 24.75 50 9.25587
      vertex 21 50 9.7735
      vertex 24.75 50 9.7735
    endloop
  endfacet
  facet normal 0 1 0
    outer loop
      vertex 35.25 50 3.625
      vertex 30 50 3.45948e-07
      vertex 24.75 50 3.625
    endloop
  endfacet
  facet normal 0 1 0
    outer loop
      vertex 24.75 50 5
      vertex 24.75 50 9.25587
      vertex 26.8779 50 8.68569
    endloop
  endfacet
  facet normal 0 1 0
    outer loop
      vertex 24.75 50 5
      vertex 21 50 9.7735
      vertex 24.75 50 9.25587
    endloop
  endfacet
  facet normal 0 1 0
    outer loop
      vertex 24.75 50 3.625
      vertex 21 50 3
      vertex 24.75 50 5
    endloop
  endfacet
  facet normal 0 1 0
    outer loop
      vertex 30 50 3.45948e-07
      vertex 30 50 0
      vertex 24.75 50 3.625
    endloop
  endfacet
  facet normal 0 1 0
    outer loop
      vertex 30 50 0
      vertex 21 50 3
      vertex 24.75 50 3.625
    endloop
  endfacet
  facet normal 0 1 0
    outer loop
      vertex 30 50 3.45948e-07
      vertex 35.25 50 3.625
      vertex 39 50 3.45948e-07
    endloop
  endfacet
  facet normal 0 1 0
    outer loop
      vertex 35.25 50 5
      vertex 33.1221 50 8.68569
      vertex 35.25 50 9.25587
    endloop
  endfacet
  facet normal 0 1 0
    outer loop
      vertex 35.25 50 5
      vertex 39 50 9.7735
      vertex 35.25 50 3.625
    endloop
  endfacet
  facet normal 0 1 0
    outer loop
      vertex 35.25 50 9.25587
      vertex 35.25 50 9.7735
      vertex 39 50 9.7735
    endloop
  endfacet
  facet normal 0 1 0
    outer loop
      vertex 35.25 50 9.25587
      vertex 39 50 9.7735
      vertex 35.25 50 5
    endloop
  endfacet
  facet normal 0 1 0
    outer loop
      vertex 35.25 50 3.625
      vertex 39 50 9.7735
      vertex 39 50 3.45948e-07
    endloop
  endfacet
  facet normal 1.22465e-16 1 0
    outer loop
      vertex 15.25 50 3.625
      vertex 19 50 3.45948e-07
      vertex 4.75 50 3.625
    endloop
  endfacet
  facet normal 1.22465e-16 1 0
    outer loop
      vertex 4.75 50 9.25587
      vertex 1 50 9.7735
      vertex 4.75 50 9.7735
    endloop
  endfacet
  facet normal 1.22465e-16 1 0
    outer loop
      vertex 4.75 50 5
      vertex 4.75 50 9.25587
      vertex 6.87793 50 8.68569
    endloop
  endfacet
  facet normal 1.22465e-16 1 0
    outer loop
      vertex 4.75 50 5
      vertex 1 50 9.7735
      vertex 4.75 50 9.25587
    endloop
  endfacet
  facet normal 1.22465e-16 1 0
    outer loop
      vertex 1 50 3.45948e-07
      vertex 1 50 9.7735
      vertex 4.75 50 5
    endloop
  endfacet
  facet normal 1.22465e-16 1 0
    outer loop
      vertex 1 50 3.45948e-07
      vertex 4.75 50 5
      vertex 4.75 50 3.625
    endloop
  endfacet
  facet normal 1.22465e-16 1 0
    outer loop
      vertex 1 50 3.45948e-07
      vertex 4.75 50 3.625
      vertex 19 50 3.45948e-07
    endloop
  endfacet
  facet normal 1.22465e-16 1 0
    outer loop
      vertex 19 50 3.45948e-07
      vertex 15.25 50 3.625
      vertex 15.25 50 5
    endloop
  endfacet
  facet normal 1.22465e-16 1 0
    outer loop
      vertex 15.25 50 5
      vertex 13.1221 50 8.68569
      vertex 19 50 3.45948e-07
    endloop
  endfacet
  facet normal 1.22465e-16 1 0
    outer loop
      vertex 19 50 3.45948e-07
      vertex 13.1221 50 8.68569
      vertex 15.25 50 9.25587
    endloop
  endfacet
  facet normal 1.22465e-16 1 0
    outer loop
      vertex 15.25 50 9.25587
      vertex 15.25 50 9.7735
      vertex 19 50 3.45948e-07
    endloop
  endfacet
  facet normal 1.22465e-16 1 0
    outer loop
      vertex 19 50 3.45948e-07
      vertex 15.25 50 9.7735
      vertex 19 50 9.7735
    endloop
  endfacet
  facet normal 1 -1.22465e-16 0
    outer loop
      vertex 4.75 49.5 9.7735
      vertex 4.75 49.75 9.51468
      vertex 4.75 50 9.7735
    endloop
  endfacet
  facet normal 1 -1.22465e-16 0
    outer loop
      vertex 4.75 50 9.7735
      vertex 4.75 49.75 9.51468
      vertex 4.75 50 9.25587
    endloop
  endfacet
  facet normal 0.258819 -3.16962e-17 0.965926
    outer loop
      vertex 7.63675 49.5 9
      vertex 4.75 49.5 9.7735
      vertex 7.63675 -49.5 9
    endloop
  endfacet
  facet normal 0.258819 -3.16962e-17 0.965926
    outer loop
      vertex 7.63675 -49.5 9
      vertex 4.75 49.5 9.7735
      vertex 4.75 -49.5 9.7735
    endloop
  endfacet
  facet normal 0.612372 0.707107 -0.353553
    outer loop
      vertex 6.87793 50 8.68569
      vertex 7.63675 49.5 9
      vertex 4.75 50 5
    endloop
  endfacet
  facet normal 0.612372 0.707107 -0.353553
    outer loop
      vertex 4.75 50 5
      vertex 7.63675 49.5 9
      vertex 4.75 49.5 4
    endloop
  endfacet
  facet normal 0.612372 0.707107 -0.353553
    outer loop
      vertex 4.75 50 5
      vertex 4.75 49.5 4
      vertex 4.75 49.75 4.5
    endloop
  endfacet
  facet normal -0.612372 0.707107 -0.353553
    outer loop
      vertex 13.1221 50 8.68569
      vertex 15.25 50 5
      vertex 15.25 49.75 4.5
    endloop
  endfacet
  facet normal -0.612372 0.707107 -0.353553
    outer loop
      vertex 13.1221 50 8.68569
      vertex 15.25 49.75 4.5
      vertex 15.25 49.5 4
    endloop
  endfacet
  facet normal -0.612372 0.707107 -0.353553
    outer loop
      vertex 13.1221 50 8.68569
      vertex 15.25 49.5 4
      vertex 12.3632 49.5 9
    endloop
  endfacet
  facet normal -0.866025 1.06058e-16 -0.5
    outer loop
      vertex 12.3632 -49.5 9
      vertex 12.3632 49.5 9
      vertex 15.25 49.5 4
    endloop
  endfacet
  facet normal -0.866025 1.06058e-16 -0.5
    outer loop
      vertex 12.3632 -49.5 9
      vertex 15.25 49.5 4
      vertex 15.25 -49.5 4
    endloop
  endfacet
  facet normal -0.612372 -0.707107 -0.353553
    outer loop
      vertex 15.25 -49.5 4
      vertex 15.25 -49.75 4.5
      vertex 15.25 -50 5
    endloop
  endfacet
  facet normal -0.612372 -0.707107 -0.353553
    outer loop
      vertex 12.3632 -49.5 9
      vertex 15.25 -49.5 4
      vertex 13.1221 -50 8.68569
    endloop
  endfacet
  facet normal -0.612372 -0.707107 -0.353553
    outer loop
      vertex 13.1221 -50 8.68569
      vertex 15.25 -49.5 4
      vertex 15.25 -50 5
    endloop
  endfacet
  facet normal -0.183013 -0.707107 0.683013
    outer loop
      vertex 13.1221 -50 8.68569
      vertex 15.25 -50 9.25587
      vertex 15.25 -49.75 9.51468
    endloop
  endfacet
  facet normal -0.183013 -0.707107 0.683013
    outer loop
      vertex 15.25 -49.5 9.7735
      vertex 13.1221 -50 8.68569
      vertex 15.25 -49.75 9.51468
    endloop
  endfacet
  facet normal -0.183013 -0.707107 0.683013
    outer loop
      vertex 12.3632 -49.5 9
      vertex 13.1221 -50 8.68569
      vertex 15.25 -49.5 9.7735
    endloop
  endfacet
  facet normal -0.183013 0.707107 0.683013
    outer loop
      vertex 15.25 50 9.25587
      vertex 12.3632 49.5 9
      vertex 15.25 49.75 9.51468
    endloop
  endfacet
  facet normal -0.183013 0.707107 0.683013
    outer loop
      vertex 13.1221 50 8.68569
      vertex 12.3632 49.5 9
      vertex 15.25 50 9.25587
    endloop
  endfacet
  facet normal -0.183013 0.707107 0.683013
    outer loop
      vertex 15.25 49.75 9.51468
      vertex 12.3632 49.5 9
      vertex 15.25 49.5 9.7735
    endloop
  endfacet
  facet normal -1 1.22465e-16 0
    outer loop
      vertex 15.25 50 9.7735
      vertex 15.25 50 9.25587
      vertex 15.25 49.75 9.51468
    endloop
  endfacet
  facet normal -1 1.22465e-16 0
    outer loop
      vertex 15.25 50 9.7735
      vertex 15.25 49.75 9.51468
      vertex 15.25 49.5 9.7735
    endloop
  endfacet
  facet normal -1 0 0
    outer loop
      vertex 21 -50 3
      vertex 21 -50 9.7735
      vertex 21 50 3
    endloop
  endfacet
  facet normal -1 0 0
    outer loop
      vertex 21 50 3
      vertex 21 -50 9.7735
      vertex 21 50 9.7735
    endloop
  endfacet
  facet normal 0 -1 0
    outer loop
      vertex 10 -50 3
      vertex 10 -50 0
      vertex 30 -50 0
    endloop
  endfacet
  facet normal 0 -1 0
    outer loop
      vertex 39 -50 3.45948e-07
      vertex 10 -50 3
      vertex 30 -50 3.45948e-07
    endloop
  endfacet
  facet normal 0 -1 0
    outer loop
      vertex 30 -50 3.45948e-07
      vertex 10 -50 3
      vertex 30 -50 0
    endloop
  endfacet
  facet normal 0 -1 0
    outer loop
      vertex 21 -50 3
      vertex 10 -50 3
      vertex 39 -50 3.45948e-07
    endloop
  endfacet
  facet normal 0 -1 0
    outer loop
      vertex 35.25 -50 9.7735
      vertex 35.25 -50 9.25587
      vertex 39 -50 9.7735
    endloop
  endfacet
  facet normal 0 -1 0
    outer loop
      vertex 21 -50 9.7735
      vertex 24.75 -50 9.25587
      vertex 24.75 -50 9.7735
    endloop
  endfacet
  facet normal 0 -1 0
    outer loop
      vertex 35.25 -50 9.25587
      vertex 33.1221 -50 8.68569
      vertex 39 -50 9.7735
    endloop
  endfacet
  facet normal 0 -1 0
    outer loop
      vertex 21 -50 9.7735
      vertex 26.8779 -50 8.68569
      vertex 24.75 -50 9.25587
    endloop
  endfacet
  facet normal 0 -1 0
    outer loop
      vertex 39 -50 9.7735
      vertex 35.25 -50 5
      vertex 39 -50 3.45948e-07
    endloop
  endfacet
  facet normal 0 -1 0
    outer loop
      vertex 35.25 -50 5
      vertex 35.25 -50 3.625
      vertex 39 -50 3.45948e-07
    endloop
  endfacet
  facet normal 0 -1 0
    outer loop
      vertex 35.25 -50 3.625
      vertex 21 -50 3
      vertex 39 -50 3.45948e-07
    endloop
  endfacet
  facet normal 0 -1 0
    outer loop
      vertex 21 -50 9.7735
      vertex 24.75 -50 5
      vertex 26.8779 -50 8.68569
    endloop
  endfacet
  facet normal 0 -1 0
    outer loop
      vertex 33.1221 -50 8.68569
      vertex 35.25 -50 5
      vertex 39 -50 9.7735
    endloop
  endfacet
  facet normal 0 -1 0
    outer loop
      vertex 21 -50 9.7735
      vertex 24.75 -50 3.625
      vertex 24.75 -50 5
    endloop
  endfacet
  facet normal 0 -1 0
    outer loop
      vertex 24.75 -50 3.625
      vertex 21 -50 3
      vertex 35.25 -50 3.625
    endloop
  endfacet
  facet normal 0 -1 0
    outer loop
      vertex 21 -50 9.7735
      vertex 21 -50 3
      vertex 24.75 -50 3.625
    endloop
  endfacet
  facet normal 0 0 -1
    outer loop
      vertex 10 -50 0
      vertex 10 50 0
      vertex 30 -50 0
    endloop
  endfacet
  facet normal 0 0 -1
    outer loop
      vertex 30 -50 0
      vertex 10 50 0
      vertex 30 50 0
    endloop
  endfacet
  facet normal 1 0 0
    outer loop
      vertex 30 -50 3.45948e-07
      vertex 30 -50 0
      vertex 30 50 0
    endloop
  endfacet
  facet normal 1 0 0
    outer loop
      vertex 30 50 3.45948e-07
      vertex 30 -50 3.45948e-07
      vertex 30 50 0
    endloop
  endfacet
  facet normal 0 0 -1
    outer loop
      vertex 30 -50 3.45948e-07
      vertex 30 50 3.45948e-07
      vertex 39 -50 3.45948e-07
    endloop
  endfacet
  facet normal 0 0 -1
    outer loop
      vertex 39 -50 3.45948e-07
      vertex 30 50 3.45948e-07
      vertex 39 50 3.45948e-07
    endloop
  endfacet
  facet normal 1 0 0
    outer loop
      vertex 39 -50 9.7735
      vertex 39 -50 3.45948e-07
      vertex 39 50 3.45948e-07
    endloop
  endfacet
  facet normal 1 0 0
    outer loop
      vertex 39 50 9.7735
      vertex 39 -50 9.7735
      vertex 39 50 3.45948e-07
    endloop
  endfacet
  facet normal 0 0 1
    outer loop
      vertex 35.25 -49.5 9.7735
      vertex 35.25 -50 9.7735
      vertex 39 -50 9.7735
    endloop
  endfacet
  facet normal 0 0 1
    outer loop
      vertex 35.25 49.5 9.7735
      vertex 35.25 -49.5 9.7735
      vertex 39 50 9.7735
    endloop
  endfacet
  facet normal 0 0 1
    outer loop
      vertex 35.25 50 9.7735
      vertex 35.25 49.5 9.7735
      vertex 39 50 9.7735
    endloop
  endfacet
  facet normal 0 0 1
    outer loop
      vertex 39 50 9.7735
      vertex 35.25 -49.5 9.7735
      vertex 39 -50 9.7735
    endloop
  endfacet
  facet normal -1 0 0
    outer loop
      vertex 35.25 50 9.7735
      vertex 35.25 50 9.25587
      vertex 35.25 49.75 9.51468
    endloop
  endfacet
  facet normal -1 0 0
    outer loop
      vertex 35.25 50 9.7735
      vertex 35.25 49.75 9.51468
      vertex 35.25 49.5 9.7735
    endloop
  endfacet
  facet normal -0.183013 0.707107 0.683013
    outer loop
      vertex 35.25 50 9.25587
      vertex 32.3632 49.5 9
      vertex 35.25 49.75 9.51468
    endloop
  endfacet
  facet normal -0.183013 0.707107 0.683013
    outer loop
      vertex 33.1221 50 8.68569
      vertex 32.3632 49.5 9
      vertex 35.25 50 9.25587
    endloop
  endfacet
  facet normal -0.183013 0.707107 0.683013
    outer loop
      vertex 35.25 49.75 9.51468
      vertex 32.3632 49.5 9
      vertex 35.25 49.5 9.7735
    endloop
  endfacet
  facet normal -0.612372 0.707107 -0.353553
    outer loop
      vertex 33.1221 50 8.68569
      vertex 35.25 50 5
      vertex 35.25 49.75 4.5
    endloop
  endfacet
  facet normal -0.612372 0.707107 -0.353553
    outer loop
      vertex 33.1221 50 8.68569
      vertex 35.25 49.75 4.5
      vertex 35.25 49.5 4
    endloop
  endfacet
  facet normal -0.612372 0.707107 -0.353553
    outer loop
      vertex 33.1221 50 8.68569
      vertex 35.25 49.5 4
      vertex 32.3632 49.5 9
    endloop
  endfacet
  facet normal -1 0 0
    outer loop
      vertex 35.25 -50 5
      vertex 35.25 -49.75 4.5
      vertex 35.25 -49.5 4
    endloop
  endfacet
  facet normal -1 0 0
    outer loop
      vertex 35.25 49.75 4.5
      vertex 35.25 50 5
      vertex 35.25 49.5 4
    endloop
  endfacet
  facet normal -1 0 0
    outer loop
      vertex 35.25 49.5 4
      vertex 35.25 50 5
      vertex 35.25 50 3.625
    endloop
  endfacet
  facet normal -1 0 0
    outer loop
      vertex 35.25 49.5 4
      vertex 35.25 50 3.625
      vertex 35.25 -49.5 4
    endloop
  endfacet
  facet normal -1 0 0
    outer loop
      vertex 35.25 -49.5 4
      vertex 35.25 50 3.625
      vertex 35.25 -50 3.625
    endloop
  endfacet
  facet normal -1 0 0
    outer loop
      vertex 35.25 -49.5 4
      vertex 35.25 -50 3.625
      vertex 35.25 -50 5
    endloop
  endfacet
  facet normal 0 0 1
    outer loop
      vertex 35.25 -50 3.625
      vertex 35.25 50 3.625
      vertex 24.75 50 3.625
    endloop
  endfacet
  facet normal 0 0 1
    outer loop
      vertex 24.75 -50 3.625
      vertex 35.25 -50 3.625
      vertex 24.75 50 3.625
    endloop
  endfacet
  facet normal 1 0 0
    outer loop
      vertex 24.75 49.5 4
      vertex 24.75 50 3.625
      vertex 24.75 49.75 4.5
    endloop
  endfacet
  facet normal 1 0 0
    outer loop
      vertex 24.75 49.75 4.5
      vertex 24.75 50 3.625
      vertex 24.75 50 5
    endloop
  endfacet
  facet normal 1 0 0
    outer loop
      vertex 24.75 -49.5 4
      vertex 24.75 50 3.625
      vertex 24.75 49.5 4
    endloop
  endfacet
  facet normal 1 0 0
    outer loop
      vertex 24.75 -50 3.625
      vertex 24.75 50 3.625
      vertex 24.75 -49.5 4
    endloop
  endfacet
  facet normal 1 0 0
    outer loop
      vertex 24.75 -50 5
      vertex 24.75 -49.5 4
      vertex 24.75 -49.75 4.5
    endloop
  endfacet
  facet normal 1 0 0
    outer loop
      vertex 24.75 -50 3.625
      vertex 24.75 -49.5 4
      vertex 24.75 -50 5
    endloop
  endfacet
  facet normal 1 0 0
    outer loop
      vertex 24.75 49.5 9.7735
      vertex 24.75 49.75 9.51468
      vertex 24.75 50 9.7735
    endloop
  endfacet
  facet normal 1 0 0
    outer loop
      vertex 24.75 50 9.7735
      vertex 24.75 49.75 9.51468
      vertex 24.75 50 9.25587
    endloop
  endfacet
  facet normal 0 0 1
    outer loop
      vertex 21 50 9.7735
      vertex 21 -50 9.7735
      vertex 24.75 -50 9.7735
    endloop
  endfacet
  facet normal 0 0 1
    outer loop
      vertex 24.75 -49.5 9.7735
      vertex 21 50 9.7735
      vertex 24.75 -50 9.7735
    endloop
  endfacet
  facet normal 0 0 1
    outer loop
      vertex 24.75 50 9.7735
      vertex 21 50 9.7735
      vertex 24.75 49.5 9.7735
    endloop
  endfacet
  facet normal 0 0 1
    outer loop
      vertex 24.75 -49.5 9.7735
      vertex 24.75 49.5 9.7735
      vertex 21 50 9.7735
    endloop
  endfacet
  facet normal 0.183013 0.707107 0.683013
    outer loop
      vertex 4.75 49.5 9.7735
      vertex 7.63675 49.5 9
      vertex 6.87793 50 8.68569
    endloop
  endfacet
  facet normal 0.183013 0.707107 0.683013
    outer loop
      vertex 4.75 49.5 9.7735
      vertex 6.87793 50 8.68569
      vertex 4.75 50 9.25587
    endloop
  endfacet
  facet normal 0.183013 0.707107 0.683013
    outer loop
      vertex 4.75 49.5 9.7735
      vertex 4.75 50 9.25587
      vertex 4.75 49.75 9.51468
    endloop
  endfacet
  facet normal 0.866025 -1.06058e-16 -0.5
    outer loop
      vertex 7.63675 49.5 9
      vertex 4.75 -49.5 4
      vertex 4.75 49.5 4
    endloop
  endfacet
  facet normal 0.866025 -1.06058e-16 -0.5
    outer loop
      vertex 7.63675 -49.5 9
      vertex 4.75 -49.5 4
      vertex 7.63675 49.5 9
    endloop
  endfacet
  facet normal -0.258819 3.16962e-17 0.965926
    outer loop
      vertex 12.3632 49.5 9
      vertex 12.3632 -49.5 9
      vertex 15.25 -49.5 9.7735
    endloop
  endfacet
  facet normal -0.258819 3.16962e-17 0.965926
    outer loop
      vertex 15.25 49.5 9.7735
      vertex 12.3632 49.5 9
      vertex 15.25 -49.5 9.7735
    endloop
  endfacet
  facet normal 1 0 0
    outer loop
      vertex 24.75 -50 9.25587
      vertex 24.75 -49.75 9.51468
      vertex 24.75 -50 9.7735
    endloop
  endfacet
  facet normal 1 0 0
    outer loop
      vertex 24.75 -50 9.7735
      vertex 24.75 -49.75 9.51468
      vertex 24.75 -49.5 9.7735
    endloop
  endfacet
  facet normal 0.183013 -0.707107 0.683013
    outer loop
      vertex 24.75 -50 9.25587
      vertex 24.75 -49.5 9.7735
      vertex 24.75 -49.75 9.51468
    endloop
  endfacet
  facet normal 0.183013 -0.707107 0.683013
    outer loop
      vertex 26.8779 -50 8.68569
      vertex 24.75 -49.5 9.7735
      vertex 24.75 -50 9.25587
    endloop
  endfacet
  facet normal 0.183013 -0.707107 0.683013
    outer loop
      vertex 27.6368 -49.5 9
      vertex 24.75 -49.5 9.7735
      vertex 26.8779 -50 8.68569
    endloop
  endfacet
  facet normal 0.612372 -0.707107 -0.353553
    outer loop
      vertex 24.75 -50 5
      vertex 24.75 -49.75 4.5
      vertex 24.75 -49.5 4
    endloop
  endfacet
  facet normal 0.612372 -0.707107 -0.353553
    outer loop
      vertex 26.8779 -50 8.68569
      vertex 24.75 -50 5
      vertex 27.6368 -49.5 9
    endloop
  endfacet
  facet normal 0.612372 -0.707107 -0.353553
    outer loop
      vertex 27.6368 -49.5 9
      vertex 24.75 -50 5
      vertex 24.75 -49.5 4
    endloop
  endfacet
  facet normal -1 0 0
    outer loop
      vertex 35.25 -49.5 9.7735
      vertex 35.25 -49.75 9.51468
      vertex 35.25 -50 9.7735
    endloop
  endfacet
  facet normal -1 0 0
    outer loop
      vertex 35.25 -50 9.7735
      vertex 35.25 -49.75 9.51468
      vertex 35.25 -50 9.25587
    endloop
  endfacet
  facet normal -0.258819 0 0.965926
    outer loop
      vertex 32.3632 49.5 9
      vertex 32.3632 -49.5 9
      vertex 35.25 -49.5 9.7735
    endloop
  endfacet
  facet normal -0.258819 0 0.965926
    outer loop
      vertex 35.25 49.5 9.7735
      vertex 32.3632 49.5 9
      vertex 35.25 -49.5 9.7735
    endloop
  endfacet
  facet normal -0.612372 -0.707107 -0.353553
    outer loop
      vertex 35.25 -49.5 4
      vertex 35.25 -49.75 4.5
      vertex 35.25 -50 5
    endloop
  endfacet
  facet normal -0.612372 -0.707107 -0.353553
    outer loop
      vertex 32.3632 -49.5 9
      vertex 35.25 -49.5 4
      vertex 33.1221 -50 8.68569
    endloop
  endfacet
  facet normal -0.612372 -0.707107 -0.353553
    outer loop
      vertex 33.1221 -50 8.68569
      vertex 35.25 -49.5 4
      vertex 35.25 -50 5
    endloop
  endfacet
  facet normal 0.866025 0 -0.5
    outer loop
      vertex 27.6368 49.5 9
      vertex 24.75 -49.5 4
      vertex 24.75 49.5 4
    endloop
  endfacet
  facet normal 0.866025 0 -0.5
    outer loop
      vertex 27.6368 -49.5 9
      vertex 24.75 -49.5 4
      vertex 27.6368 49.5 9
    endloop
  endfacet
  facet normal 0.612372 0.707107 -0.353553
    outer loop
      vertex 26.8779 50 8.68569
      vertex 27.6368 49.5 9
      vertex 24.75 50 5
    endloop
  endfacet
  facet normal 0.612372 0.707107 -0.353553
    outer loop
      vertex 24.75 50 5
      vertex 27.6368 49.5 9
      vertex 24.75 49.5 4
    endloop
  endfacet
  facet normal 0.612372 0.707107 -0.353553
    outer loop
      vertex 24.75 50 5
      vertex 24.75 49.5 4
      vertex 24.75 49.75 4.5
    endloop
  endfacet
  facet normal 0.183013 0.707107 0.683013
    outer loop
      vertex 24.75 49.5 9.7735
      vertex 27.6368 49.5 9
      vertex 26.8779 50 8.68569
    endloop
  endfacet
  facet normal 0.183013 0.707107 0.683013
    outer loop
      vertex 24.75 49.5 9.7735
      vertex 26.8779 50 8.68569
      vertex 24.75 50 9.25587
    endloop
  endfacet
  facet normal 0.183013 0.707107 0.683013
    outer loop
      vertex 24.75 49.5 9.7735
      vertex 24.75 50 9.25587
      vertex 24.75 49.75 9.51468
    endloop
  endfacet
  facet normal 0.258819 0 0.965926
    outer loop
      vertex 24.75 49.5 9.7735
      vertex 24.75 -49.5 9.7735
      vertex 27.6368 -49.5 9
    endloop
  endfacet
  facet normal 0.258819 0 0.965926
    outer loop
      vertex 27.6368 49.5 9
      vertex 24.75 49.5 9.7735
      vertex 27.6368 -49.5 9
    endloop
  endfacet
  facet normal -0.183013 -0.707107 0.683013
    outer loop
      vertex 33.1221 -50 8.68569
      vertex 35.25 -50 9.25587
      vertex 35.25 -49.75 9.51468
    endloop
  endfacet
  facet normal -0.183013 -0.707107 0.683013
    outer loop
      vertex 32.3632 -49.5 9
      vertex 33.1221 -50 8.68569
      vertex 35.25 -49.5 9.7735
    endloop
  endfacet
  facet normal -0.183013 -0.707107 0.683013
    outer loop
      vertex 35.25 -49.5 9.7735
      vertex 33.1221 -50 8.68569
      vertex 35.25 -49.75 9.51468
    endloop
  endfacet
  facet normal -0.866025 0 -0.5
    outer loop
      vertex 32.3632 -49.5 9
      vertex 32.3632 49.5 9
      vertex 35.25 49.5 4
    endloop
  endfacet
  facet normal -0.866025 0 -0.5
    outer loop
      vertex 32.3632 -49.5 9
      vertex 35.25 49.5 4
      vertex 35.25 -49.5 4
    endloop
  endfacet
endsolid OpenSCAD_Model
