solid OpenSCAD_Model
  facet normal -0.866025 1.07686e-16 -0.5
    outer loop
      vertex -15 -50 15
      vertex -15 50 15
      vertex -12.1132 50 10
    endloop
  endfacet
  facet normal -0.866025 1.07686e-16 -0.5
    outer loop
      vertex -12.1132 -50 10
      vertex -15 -50 15
      vertex -12.1132 50 10
    endloop
  endfacet
  facet normal -0.258819 3.26909e-17 0.965926
    outer loop
      vertex -15 -50 9.2265
      vertex -12.1132 -50 10
      vertex -12.1132 50 10
    endloop
  endfacet
  facet normal -0.258819 3.21828e-17 0.965926
    outer loop
      vertex -15 50 9.2265
      vertex -15 -50 9.2265
      vertex -12.1132 50 10
    endloop
  endfacet
  facet normal 0.866025 -1.07686e-16 -0.5
    outer loop
      vertex -7.88675 -50 10
      vertex -7.88675 50 10
      vertex -5 50 15
    endloop
  endfacet
  facet normal 0.866025 -1.07686e-16 -0.5
    outer loop
      vertex -5 -50 15
      vertex -7.88675 -50 10
      vertex -5 50 15
    endloop
  endfacet
  facet normal 0.258819 -3.26909e-17 0.965926
    outer loop
      vertex -7.88675 -50 10
      vertex -5 -50 9.2265
      vertex -5 50 9.2265
    endloop
  endfacet
  facet normal 0.258819 -3.21828e-17 0.965926
    outer loop
      vertex -7.88675 50 10
      vertex -7.88675 -50 10
      vertex -5 50 9.2265
    endloop
  endfacet
  facet normal -1 1.06581e-16 0
    outer loop
      vertex -15 -50 9.2265
      vertex -15 50 3
      vertex -15 -50 3
    endloop
  endfacet
  facet normal -1 1.24345e-16 2.8529e-16
    outer loop
      vertex -15 -50 9.2265
      vertex -15 50 9.2265
      vertex -15 50 3
    endloop
  endfacet
  facet normal 0 1 0
    outer loop
      vertex -15 50 9.2265
      vertex -15 50 6.12323e-16
      vertex -15 50 3
    endloop
  endfacet
  facet normal 0 1 0
    outer loop
      vertex -5 50 9.2265
      vertex -5 50 -6.12323e-16
      vertex -7.88675 50 10
    endloop
  endfacet
  facet normal -0 1 0
    outer loop
      vertex -15 50 9.2265
      vertex -12.1132 50 10
      vertex -15 50 6.12323e-16
    endloop
  endfacet
  facet normal 1.68116e-15 1 -9.70619e-16
    outer loop
      vertex -5 50 15
      vertex -7.88675 50 10
      vertex -12.1132 50 10
    endloop
  endfacet
  facet normal 7.10543e-16 1 4.10232e-16
    outer loop
      vertex -5 50 15
      vertex -12.1132 50 10
      vertex -15 50 15
    endloop
  endfacet
  facet normal 1.68116e-15 1 -4.8531e-16
    outer loop
      vertex -12.1132 50 10
      vertex -7.88675 50 10
      vertex -15 50 6.12323e-16
    endloop
  endfacet
  facet normal 7.10543e-16 1 2.05116e-16
    outer loop
      vertex -7.88675 50 10
      vertex -5 50 -6.12323e-16
      vertex -15 50 6.12323e-16
    endloop
  endfacet
  facet normal 1.77636e-16 -2.20881e-32 1
    outer loop
      vertex -5 50 15
      vertex -15 50 15
      vertex -15 -50 15
    endloop
  endfacet
  facet normal 1.77636e-16 -2.20881e-32 1
    outer loop
      vertex -5 -50 15
      vertex -5 50 15
      vertex -15 -50 15
    endloop
  endfacet
  facet normal 0 -1 0
    outer loop
      vertex -10 -50 0
      vertex -5 -50 -6.12323e-16
      vertex -10 -50 3
    endloop
  endfacet
  facet normal 0 -1 0
    outer loop
      vertex -5 -50 -6.12323e-16
      vertex -5 -50 9.2265
      vertex -10 -50 3
    endloop
  endfacet
  facet normal -0 -1 0
    outer loop
      vertex -5 -50 9.2265
      vertex -7.88675 -50 10
      vertex -10 -50 3
    endloop
  endfacet
  facet normal -1.68116e-15 -1 9.70619e-16
    outer loop
      vertex -12.1132 -50 10
      vertex -7.88675 -50 10
      vertex -5 -50 15
    endloop
  endfacet
  facet normal -7.10543e-16 -1 -4.10232e-16
    outer loop
      vertex -15 -50 15
      vertex -12.1132 -50 10
      vertex -5 -50 15
    endloop
  endfacet
  facet normal -1.42109e-15 -1 5.86046e-16
    outer loop
      vertex -15 -50 3
      vertex -10 -50 3
      vertex -12.1132 -50 10
    endloop
  endfacet
  facet normal -1.68116e-15 -1 5.07531e-16
    outer loop
      vertex -12.1132 -50 10
      vertex -10 -50 3
      vertex -7.88675 -50 10
    endloop
  endfacet
  facet normal 0 -1 0
    outer loop
      vertex -12.1132 -50 10
      vertex -15 -50 9.2265
      vertex -15 -50 3
    endloop
  endfacet
  facet normal 1.22465e-16 0 1
    outer loop
      vertex -15 50 6.12323e-16
      vertex -5 50 -6.12323e-16
      vertex -10 50 5.99904e-31
    endloop
  endfacet
  facet normal -1.22465e-16 1.49884e-32 -1
    outer loop
      vertex -10 10 0
      vertex -5 50 -6.12323e-16
      vertex -5 -50 -6.12323e-16
    endloop
  endfacet
  facet normal -1.22465e-16 1.45027e-32 -1
    outer loop
      vertex -10 -50 0
      vertex -10 10 0
      vertex -5 -50 -6.12323e-16
    endloop
  endfacet
  facet normal -1.22465e-16 1.49976e-32 -1
    outer loop
      vertex -10 10 0
      vertex -10 50 5.99904e-31
      vertex -5 50 -6.12323e-16
    endloop
  endfacet
  facet normal 1 -1.24345e-16 -9.62639e-17
    outer loop
      vertex -5 50 9.2265
      vertex -5 -50 9.2265
      vertex -5 -50 -6.12323e-16
    endloop
  endfacet
  facet normal 1 -1.24345e-16 -9.62639e-17
    outer loop
      vertex -5 50 -6.12323e-16
      vertex -5 50 9.2265
      vertex -5 -50 -6.12323e-16
    endloop
  endfacet
  facet normal 0.866025 0 -0.5
    outer loop
      vertex -25 -50 15
      vertex -27.8868 50 10
      vertex -25 50 15
    endloop
  endfacet
  facet normal 0.866025 0 -0.5
    outer loop
      vertex -25 -50 15
      vertex -27.8868 -50 10
      vertex -27.8868 50 10
    endloop
  endfacet
  facet normal 0.258819 0 0.965926
    outer loop
      vertex -27.8868 50 10
      vertex -25 -50 9.2265
      vertex -25 50 9.2265
    endloop
  endfacet
  facet normal 0.258819 0 0.965926
    outer loop
      vertex -27.8868 50 10
      vertex -27.8868 -50 10
      vertex -25 -50 9.2265
    endloop
  endfacet
  facet normal -0.866025 0 -0.5
    outer loop
      vertex -35 -50 15
      vertex -35 50 15
      vertex -32.1132 50 10
    endloop
  endfacet
  facet normal -0.866025 0 -0.5
    outer loop
      vertex -32.1132 -50 10
      vertex -35 -50 15
      vertex -32.1132 50 10
    endloop
  endfacet
  facet normal -0.258819 0 0.965926
    outer loop
      vertex -35 50 9.2265
      vertex -32.1132 -50 10
      vertex -32.1132 50 10
    endloop
  endfacet
  facet normal -0.258819 0 0.965926
    outer loop
      vertex -35 50 9.2265
      vertex -35 -50 9.2265
      vertex -32.1132 -50 10
    endloop
  endfacet
  facet normal 1 0 0
    outer loop
      vertex -25 50 3
      vertex -25 -50 9.2265
      vertex -25 -50 3
    endloop
  endfacet
  facet normal nan nan nan
    outer loop
      vertex -25 -50 6.12323e-16
      vertex -25 -50 3
      vertex -25 -50 9.2265
    endloop
  endfacet
  facet normal 1 0 -0
    outer loop
      vertex -25 50 3
      vertex -25 50 9.2265
      vertex -25 -50 9.2265
    endloop
  endfacet
  facet normal nan nan nan
    outer loop
      vertex -25 50 6.12323e-16
      vertex -25 50 9.2265
      vertex -25 50 3
    endloop
  endfacet
  facet normal 0 -1 0
    outer loop
      vertex -35 -50 9.2265
      vertex -35 -50 -6.12323e-16
      vertex -32.1132 -50 10
    endloop
  endfacet
  facet normal 0 -1 0
    outer loop
      vertex -35 -50 -6.12323e-16
      vertex -25 -50 6.12323e-16
      vertex -32.1132 -50 10
    endloop
  endfacet
  facet normal 0 -1 0
    outer loop
      vertex -25 -50 6.12323e-16
      vertex -27.8868 -50 10
      vertex -32.1132 -50 10
    endloop
  endfacet
  facet normal -0 -1 -0
    outer loop
      vertex -25 -50 9.2265
      vertex -27.8868 -50 10
      vertex -25 -50 6.12323e-16
    endloop
  endfacet
  facet normal 0 -1 0
    outer loop
      vertex -35 -50 15
      vertex -32.1132 -50 10
      vertex -27.8868 -50 10
    endloop
  endfacet
  facet normal 0 -1 0
    outer loop
      vertex -27.8868 -50 10
      vertex -25 -50 15
      vertex -35 -50 15
    endloop
  endfacet
  facet normal -1.77636e-16 0 1
    outer loop
      vertex -25 -50 15
      vertex -35 50 15
      vertex -35 -50 15
    endloop
  endfacet
  facet normal -1.77636e-16 0 1
    outer loop
      vertex -25 -50 15
      vertex -25 50 15
      vertex -35 50 15
    endloop
  endfacet
  facet normal 0 1 0
    outer loop
      vertex -25 50 15
      vertex -27.8868 50 10
      vertex -35 50 15
    endloop
  endfacet
  facet normal 0 1 0
    outer loop
      vertex -35 50 -6.12323e-16
      vertex -35 50 9.2265
      vertex -32.1132 50 10
    endloop
  endfacet
  facet normal 0 1 0
    outer loop
      vertex -25 50 6.12323e-16
      vertex -27.8868 50 10
      vertex -25 50 9.2265
    endloop
  endfacet
  facet normal 0 1 0
    outer loop
      vertex -25 50 6.12323e-16
      vertex -32.1132 50 10
      vertex -27.8868 50 10
    endloop
  endfacet
  facet normal 0 1 0
    outer loop
      vertex -35 50 -6.12323e-16
      vertex -32.1132 50 10
      vertex -25 50 6.12323e-16
    endloop
  endfacet
  facet normal 0 1 0
    outer loop
      vertex -27.8868 50 10
      vertex -32.1132 50 10
      vertex -35 50 15
    endloop
  endfacet
  facet normal 0 -1 0
    outer loop
      vertex -35 50 -6.12323e-16
      vertex -25 50 6.12323e-16
      vertex -30 50 0
    endloop
  endfacet
  facet normal 1.22465e-16 0 -1
    outer loop
      vertex -35 50 -6.12323e-16
      vertex -30 -50 0
      vertex -35 -50 -6.12323e-16
    endloop
  endfacet
  facet normal 1.22465e-16 0 -1
    outer loop
      vertex -30 50 0
      vertex -30 -50 0
      vertex -35 50 -6.12323e-16
    endloop
  endfacet
  facet normal -0 1 0
    outer loop
      vertex -30 -50 0
      vertex -25 -50 6.12323e-16
      vertex -35 -50 -6.12323e-16
    endloop
  endfacet
  facet normal -1 0 0
    outer loop
      vertex -35 50 -6.12323e-16
      vertex -35 -50 -6.12323e-16
      vertex -35 -50 9.2265
    endloop
  endfacet
  facet normal -1 -0 -0
    outer loop
      vertex -35 50 9.2265
      vertex -35 50 -6.12323e-16
      vertex -35 -50 9.2265
    endloop
  endfacet
  facet normal 0 -1 0
    outer loop
      vertex -10 -50 0
      vertex -25 -50 6.12323e-16
      vertex -30 -50 0
    endloop
  endfacet
  facet normal 0 -1 0
    outer loop
      vertex -10 -50 0
      vertex -10 -50 3
      vertex -25 -50 6.12323e-16
    endloop
  endfacet
  facet normal 0 -1 0
    outer loop
      vertex -25 -50 3
      vertex -25 -50 6.12323e-16
      vertex -10 -50 3
    endloop
  endfacet
  facet normal 0 0 -1
    outer loop
      vertex -30 50 0
      vertex -10 10 0
      vertex -30 -50 0
    endloop
  endfacet
  facet normal -0 -0 -1
    outer loop
      vertex -10 50 0
      vertex -10 10 0
      vertex -30 50 0
    endloop
  endfacet
  facet normal 0 0 -1
    outer loop
      vertex -10 10 0
      vertex -10 -50 0
      vertex -30 -50 0
    endloop
  endfacet
  facet normal 0 1 0
    outer loop
      vertex -25 50 6.12323e-16
      vertex -10 50 0
      vertex -30 50 0
    endloop
  endfacet
  facet normal -0 1 0
    outer loop
      vertex -25 50 3
      vertex -15 50 3
      vertex -15 50 6.12323e-16
    endloop
  endfacet
  facet normal 0 1 0
    outer loop
      vertex -25 50 3
      vertex -15 50 6.12323e-16
      vertex -25 50 6.12323e-16
    endloop
  endfacet
  facet normal -0 1 0
    outer loop
      vertex -25 50 6.12323e-16
      vertex -15 50 6.12323e-16
      vertex -10 50 0
    endloop
  endfacet
  facet normal 0 1 0
    outer loop
      vertex -15 50 6.12323e-16
      vertex -10 50 5.99904e-31
      vertex -10 50 0
    endloop
  endfacet
  facet normal 0 0 1
    outer loop
      vertex -15 50 3
      vertex -25 50 3
      vertex -15 -50 3
    endloop
  endfacet
  facet normal 0 0 1
    outer loop
      vertex -15 -50 3
      vertex -25 50 3
      vertex -25 -50 3
    endloop
  endfacet
  facet normal 0 0 1
    outer loop
      vertex -10 -50 3
      vertex -15 -50 3
      vertex -25 -50 3
    endloop
  endfacet
  facet normal 1 0 0
    outer loop
      vertex -10 50 5.99904e-31
      vertex -10 10 0
      vertex -10 50 0
    endloop
  endfacet
  facet normal -1 0 0
    outer loop
      vertex 21 -50 9.7735
      vertex 21 50 3
      vertex 21 -50 3
    endloop
  endfacet
  facet normal -1 0 0
    outer loop
      vertex 21 -50 9.7735
      vertex 21 50 9.7735
      vertex 21 50 3
    endloop
  endfacet
  facet normal -0 -1 0
    outer loop
      vertex 39 -50 9.7735
      vertex 35.25 -50 9.7735
      vertex 35.25 -50 9.25586
    endloop
  endfacet
  facet normal 0 -1 -0
    outer loop
      vertex 39 -50 9.7735
      vertex 35.25 -50 5
      vertex 39 -50 0
    endloop
  endfacet
  facet normal 0 -1 -0
    outer loop
      vertex 35.25 -50 9.25586
      vertex 33.1221 -50 8.68569
      vertex 35.25 -50 5
    endloop
  endfacet
  facet normal 0 -1 0
    outer loop
      vertex 35.25 -50 9.25586
      vertex 35.25 -50 5
      vertex 39 -50 9.7735
    endloop
  endfacet
  facet normal 0 -1 0
    outer loop
      vertex 21 -50 3
      vertex 24.75 -50 3.625
      vertex 24.75 -50 5
    endloop
  endfacet
  facet normal 0 -1 0
    outer loop
      vertex 39 -50 0
      vertex 35.25 -50 5
      vertex 35.25 -50 3.625
    endloop
  endfacet
  facet normal 0 -1 0
    outer loop
      vertex 39 -50 0
      vertex 21 -50 3
      vertex 10 -50 0
    endloop
  endfacet
  facet normal -0 -1 -0
    outer loop
      vertex 35.25 -50 3.625
      vertex 24.75 -50 3.625
      vertex 39 -50 0
    endloop
  endfacet
  facet normal 0 -1 0
    outer loop
      vertex 21 -50 9.7735
      vertex 21 -50 3
      vertex 24.75 -50 5
    endloop
  endfacet
  facet normal 0 -1 0
    outer loop
      vertex 24.75 -50 9.25586
      vertex 24.75 -50 5
      vertex 26.8779 -50 8.68569
    endloop
  endfacet
  facet normal 0 -1 0
    outer loop
      vertex 21 -50 9.7735
      vertex 24.75 -50 5
      vertex 24.75 -50 9.25586
    endloop
  endfacet
  facet normal -0 -1 -0
    outer loop
      vertex 24.75 -50 9.7735
      vertex 21 -50 9.7735
      vertex 24.75 -50 9.25586
    endloop
  endfacet
  facet normal 0 -1 -0
    outer loop
      vertex 24.75 -50 3.625
      vertex 21 -50 3
      vertex 39 -50 0
    endloop
  endfacet
  facet normal -0 -1 0
    outer loop
      vertex 21 -50 3
      vertex 10 -50 3
      vertex 10 -50 0
    endloop
  endfacet
  facet normal 0 0 -1
    outer loop
      vertex 10 -50 0
      vertex 1 -50 0
      vertex 1 50 0
    endloop
  endfacet
  facet normal 0 -0 -1
    outer loop
      vertex 19 50 0
      vertex 39 -50 0
      vertex 10 -50 0
    endloop
  endfacet
  facet normal -0 -0 -1
    outer loop
      vertex 39 50 0
      vertex 39 -50 0
      vertex 19 50 0
    endloop
  endfacet
  facet normal 0 0 -1
    outer loop
      vertex 19 50 0
      vertex 10 -50 0
      vertex 1 50 0
    endloop
  endfacet
  facet normal 0 1 0
    outer loop
      vertex 35.25 50 3.625
      vertex 39 50 0
      vertex 24.75 50 3.625
    endloop
  endfacet
  facet normal -0 1 0
    outer loop
      vertex 19 50 3
      vertex 21 50 3
      vertex 19 50 0
    endloop
  endfacet
  facet normal 0 1 -0
    outer loop
      vertex 24.75 50 5
      vertex 21 50 9.7735
      vertex 24.75 50 9.25586
    endloop
  endfacet
  facet normal 0 1 0
    outer loop
      vertex 21 50 9.7735
      vertex 24.75 50 5
      vertex 21 50 3
    endloop
  endfacet
  facet normal 0 1 0
    outer loop
      vertex 24.75 50 9.7735
      vertex 24.75 50 9.25586
      vertex 21 50 9.7735
    endloop
  endfacet
  facet normal 0 1 0
    outer loop
      vertex 26.8779 50 8.68569
      vertex 24.75 50 5
      vertex 24.75 50 9.25586
    endloop
  endfacet
  facet normal 0 1 0
    outer loop
      vertex 24.75 50 3.625
      vertex 19 50 0
      vertex 21 50 3
    endloop
  endfacet
  facet normal 0 1 0
    outer loop
      vertex 24.75 50 5
      vertex 24.75 50 3.625
      vertex 21 50 3
    endloop
  endfacet
  facet normal 0 1 0
    outer loop
      vertex 24.75 50 3.625
      vertex 39 50 0
      vertex 19 50 0
    endloop
  endfacet
  facet normal 0 1 0
    outer loop
      vertex 35.25 50 5
      vertex 39 50 0
      vertex 35.25 50 3.625
    endloop
  endfacet
  facet normal 0 1 0
    outer loop
      vertex 39 50 9.7735
      vertex 39 50 0
      vertex 35.25 50 5
    endloop
  endfacet
  facet normal 0 1 0
    outer loop
      vertex 35.25 50 9.25586
      vertex 35.25 50 5
      vertex 33.1221 50 8.68569
    endloop
  endfacet
  facet normal 0 1 0
    outer loop
      vertex 39 50 9.7735
      vertex 35.25 50 5
      vertex 35.25 50 9.25586
    endloop
  endfacet
  facet normal -0 1 0
    outer loop
      vertex 35.25 50 9.7735
      vertex 39 50 9.7735
      vertex 35.25 50 9.25586
    endloop
  endfacet
  facet normal 0 0 1
    outer loop
      vertex 24.75 -50 9.7735
      vertex 21 50 9.7735
      vertex 21 -50 9.7735
    endloop
  endfacet
  facet normal 0 -0 1
    outer loop
      vertex 24.75 -50 9.7735
      vertex 24.75 50 9.7735
      vertex 21 50 9.7735
    endloop
  endfacet
  facet normal 0 0 1
    outer loop
      vertex 39 -50 9.7735
      vertex 35.25 50 9.7735
      vertex 35.25 -50 9.7735
    endloop
  endfacet
  facet normal 0 -0 1
    outer loop
      vertex 39 -50 9.7735
      vertex 39 50 9.7735
      vertex 35.25 50 9.7735
    endloop
  endfacet
  facet normal 1 0 0
    outer loop
      vertex 39 50 0
      vertex 39 -50 9.7735
      vertex 39 -50 0
    endloop
  endfacet
  facet normal 1 0 -0
    outer loop
      vertex 39 50 0
      vertex 39 50 9.7735
      vertex 39 -50 9.7735
    endloop
  endfacet
  facet normal 1 -0 0
    outer loop
      vertex 24.75 49.8451 4.69022
      vertex 24.75 50 3.625
      vertex 24.75 50 5
    endloop
  endfacet
  facet normal 1 0 0
    outer loop
      vertex 24.75 49.8451 4.69022
      vertex 24.75 49.5 4
      vertex 24.75 50 3.625
    endloop
  endfacet
  facet normal 1 0 0
    outer loop
      vertex 24.75 49.5 4
      vertex 24.75 -49.5 4
      vertex 24.75 50 3.625
    endloop
  endfacet
  facet normal 1 0 0
    outer loop
      vertex 24.75 -50 3.625
      vertex 24.75 -49.5 4
      vertex 24.75 -49.8451 4.69022
    endloop
  endfacet
  facet normal 1 0 0
    outer loop
      vertex 24.75 -50 5
      vertex 24.75 -50 3.625
      vertex 24.75 -49.8451 4.69022
    endloop
  endfacet
  facet normal 1 0 0
    outer loop
      vertex 24.75 -50 3.625
      vertex 24.75 50 3.625
      vertex 24.75 -49.5 4
    endloop
  endfacet
  facet normal 1 0 -0
    outer loop
      vertex 24.75 49.5 9.7735
      vertex 24.75 50 9.7735
      vertex 24.75 -50 9.7735
    endloop
  endfacet
  facet normal 1 0 -0
    outer loop
      vertex 24.75 -49.5 9.7735
      vertex 24.75 49.5 9.7735
      vertex 24.75 -50 9.7735
    endloop
  endfacet
  facet normal 1 0 0
    outer loop
      vertex 24.75 50 9.7735
      vertex 24.75 49.5 9.7735
      vertex 24.75 49.6267 9.64234
    endloop
  endfacet
  facet normal 1 0 0
    outer loop
      vertex 24.75 50 9.7735
      vertex 24.75 49.6267 9.64234
      vertex 24.75 50 9.25586
    endloop
  endfacet
  facet normal 1 0 0
    outer loop
      vertex 24.75 -49.5 9.7735
      vertex 24.75 -50 9.7735
      vertex 24.75 -49.6267 9.64234
    endloop
  endfacet
  facet normal 1 0 0
    outer loop
      vertex 24.75 -50 9.7735
      vertex 24.75 -50 9.25586
      vertex 24.75 -49.6267 9.64234
    endloop
  endfacet
  facet normal -0 0 1
    outer loop
      vertex 24.75 50 3.625
      vertex 35.25 -50 3.625
      vertex 35.25 50 3.625
    endloop
  endfacet
  facet normal 0 0 1
    outer loop
      vertex 24.75 50 3.625
      vertex 24.75 -50 3.625
      vertex 35.25 -50 3.625
    endloop
  endfacet
  facet normal -1 -0 0
    outer loop
      vertex 35.25 -49.8451 4.69022
      vertex 35.25 -50 3.625
      vertex 35.25 -50 5
    endloop
  endfacet
  facet normal -1 0 0
    outer loop
      vertex 35.25 50 3.625
      vertex 35.25 49.5 4
      vertex 35.25 49.8451 4.69022
    endloop
  endfacet
  facet normal -1 0 -0
    outer loop
      vertex 35.25 50 5
      vertex 35.25 50 3.625
      vertex 35.25 49.8451 4.69022
    endloop
  endfacet
  facet normal -1 0 0
    outer loop
      vertex 35.25 -50 3.625
      vertex 35.25 -49.5 4
      vertex 35.25 49.5 4
    endloop
  endfacet
  facet normal -1 0 0
    outer loop
      vertex 35.25 50 3.625
      vertex 35.25 -50 3.625
      vertex 35.25 49.5 4
    endloop
  endfacet
  facet normal -1 0 0
    outer loop
      vertex 35.25 -50 3.625
      vertex 35.25 -49.8451 4.69022
      vertex 35.25 -49.5 4
    endloop
  endfacet
  facet normal -1 0 0
    outer loop
      vertex 35.25 50 9.25586
      vertex 35.25 49.6267 9.64234
      vertex 35.25 50 9.7735
    endloop
  endfacet
  facet normal -1 0 0
    outer loop
      vertex 35.25 -49.6267 9.64234
      vertex 35.25 -50 9.7735
      vertex 35.25 -49.5 9.7735
    endloop
  endfacet
  facet normal -1 0 0
    outer loop
      vertex 35.25 49.6267 9.64234
      vertex 35.25 49.5 9.7735
      vertex 35.25 50 9.7735
    endloop
  endfacet
  facet normal -1 0 0
    outer loop
      vertex 35.25 49.5 9.7735
      vertex 35.25 -50 9.7735
      vertex 35.25 50 9.7735
    endloop
  endfacet
  facet normal -1 0 0
    outer loop
      vertex 35.25 -49.5 9.7735
      vertex 35.25 -50 9.7735
      vertex 35.25 49.5 9.7735
    endloop
  endfacet
  facet normal -1 0 0
    outer loop
      vertex 35.25 -50 9.25586
      vertex 35.25 -50 9.7735
      vertex 35.25 -49.6267 9.64234
    endloop
  endfacet
  facet normal 0.866025 0 -0.5
    outer loop
      vertex 24.75 49.5 4
      vertex 27.6368 49.5 9
      vertex 24.75 -49.5 4
    endloop
  endfacet
  facet normal 0.866025 0 -0.5
    outer loop
      vertex 27.6368 49.5 9
      vertex 27.6368 -49.5 9
      vertex 24.75 -49.5 4
    endloop
  endfacet
  facet normal 0.258819 0 0.965926
    outer loop
      vertex 27.6368 49.5 9
      vertex 24.75 49.5 9.7735
      vertex 24.75 -49.5 9.7735
    endloop
  endfacet
  facet normal 0.258819 -0 0.965926
    outer loop
      vertex 27.6368 -49.5 9
      vertex 27.6368 49.5 9
      vertex 24.75 -49.5 9.7735
    endloop
  endfacet
  facet normal 0.612372 -0.707107 -0.353553
    outer loop
      vertex 27.4966 -49.5923 8.94195
      vertex 24.75 -50 5
      vertex 24.75 -49.8451 4.69022
    endloop
  endfacet
  facet normal 0.612372 -0.707107 -0.353553
    outer loop
      vertex 27.4966 -49.5923 8.94195
      vertex 27.2457 -49.7576 8.83804
      vertex 24.75 -50 5
    endloop
  endfacet
  facet normal 0.612372 -0.707107 -0.353553
    outer loop
      vertex 27.2457 -49.7576 8.83804
      vertex 26.8779 -50 8.68569
      vertex 24.75 -50 5
    endloop
  endfacet
  facet normal 0.612372 -0.707107 -0.353553
    outer loop
      vertex 27.4966 -49.5923 8.94195
      vertex 24.75 -49.8451 4.69022
      vertex 27.6368 -49.5 9
    endloop
  endfacet
  facet normal 0.612372 -0.707107 -0.353553
    outer loop
      vertex 24.75 -49.8451 4.69022
      vertex 24.75 -49.5 4
      vertex 27.6368 -49.5 9
    endloop
  endfacet
  facet normal 0.183013 -0.707107 0.683013
    outer loop
      vertex 24.75 -49.6267 9.64234
      vertex 26.8779 -50 8.68569
      vertex 27.2457 -49.7576 8.83804
    endloop
  endfacet
  facet normal 0.183013 -0.707107 0.683013
    outer loop
      vertex 24.75 -49.6267 9.64234
      vertex 24.75 -50 9.25586
      vertex 26.8779 -50 8.68569
    endloop
  endfacet
  facet normal 0.183013 -0.707107 0.683013
    outer loop
      vertex 27.2457 -49.7576 8.83804
      vertex 24.75 -49.5 9.7735
      vertex 24.75 -49.6267 9.64234
    endloop
  endfacet
  facet normal 0.183013 -0.707107 0.683013
    outer loop
      vertex 27.4966 -49.5923 8.94195
      vertex 24.75 -49.5 9.7735
      vertex 27.2457 -49.7576 8.83804
    endloop
  endfacet
  facet normal 0.183013 -0.707107 0.683013
    outer loop
      vertex 27.6368 -49.5 9
      vertex 24.75 -49.5 9.7735
      vertex 27.4966 -49.5923 8.94195
    endloop
  endfacet
  facet normal 0.612372 0.707107 -0.353553
    outer loop
      vertex 27.6368 49.5 9
      vertex 24.75 49.8451 4.69022
      vertex 27.4966 49.5923 8.94195
    endloop
  endfacet
  facet normal 0.612372 0.707107 -0.353553
    outer loop
      vertex 27.6368 49.5 9
      vertex 24.75 49.5 4
      vertex 24.75 49.8451 4.69022
    endloop
  endfacet
  facet normal 0.612372 0.707107 -0.353553
    outer loop
      vertex 27.2457 49.7576 8.83804
      vertex 24.75 50 5
      vertex 26.8779 50 8.68569
    endloop
  endfacet
  facet normal 0.612372 0.707107 -0.353553
    outer loop
      vertex 27.2457 49.7576 8.83804
      vertex 27.4966 49.5923 8.94195
      vertex 24.75 50 5
    endloop
  endfacet
  facet normal 0.612372 0.707107 -0.353553
    outer loop
      vertex 27.4966 49.5923 8.94195
      vertex 24.75 49.8451 4.69022
      vertex 24.75 50 5
    endloop
  endfacet
  facet normal 0.183013 0.707107 0.683013
    outer loop
      vertex 24.75 49.6267 9.64234
      vertex 27.2457 49.7576 8.83804
      vertex 26.8779 50 8.68569
    endloop
  endfacet
  facet normal 0.183013 0.707107 0.683013
    outer loop
      vertex 24.75 50 9.25586
      vertex 24.75 49.6267 9.64234
      vertex 26.8779 50 8.68569
    endloop
  endfacet
  facet normal 0.183013 0.707107 0.683013
    outer loop
      vertex 27.4966 49.5923 8.94195
      vertex 24.75 49.5 9.7735
      vertex 27.6368 49.5 9
    endloop
  endfacet
  facet normal 0.183013 0.707107 0.683013
    outer loop
      vertex 27.2457 49.7576 8.83804
      vertex 24.75 49.5 9.7735
      vertex 27.4966 49.5923 8.94195
    endloop
  endfacet
  facet normal 0.183013 0.707107 0.683013
    outer loop
      vertex 24.75 49.6267 9.64234
      vertex 24.75 49.5 9.7735
      vertex 27.2457 49.7576 8.83804
    endloop
  endfacet
  facet normal -0.866025 -0 -0.5
    outer loop
      vertex 32.3632 49.5 9
      vertex 34.7029 49.5 4.94759
      vertex 32.3632 -49.5 9
    endloop
  endfacet
  facet normal -0.866025 0 -0.5
    outer loop
      vertex 35.25 49.5 4
      vertex 34.7029 -49.5 4.94759
      vertex 34.7029 49.5 4.94759
    endloop
  endfacet
  facet normal -0.866025 0 -0.5
    outer loop
      vertex 35.25 -49.5 4
      vertex 34.7029 -49.5 4.94759
      vertex 35.25 49.5 4
    endloop
  endfacet
  facet normal -0.866025 0 -0.5
    outer loop
      vertex 34.7029 -49.5 4.94759
      vertex 32.3632 -49.5 9
      vertex 34.7029 49.5 4.94759
    endloop
  endfacet
  facet normal -0.258819 0 0.965926
    outer loop
      vertex 35.25 49.5 9.7735
      vertex 32.3632 49.5 9
      vertex 32.3632 -49.5 9
    endloop
  endfacet
  facet normal -0.258819 0 0.965926
    outer loop
      vertex 35.25 -49.5 9.7735
      vertex 35.25 49.5 9.7735
      vertex 32.3632 -49.5 9
    endloop
  endfacet
  facet normal -0.612372 -0.707107 -0.353553
    outer loop
      vertex 35.25 -49.5 4
      vertex 35.25 -49.8451 4.69022
      vertex 34.7029 -49.5 4.94759
    endloop
  endfacet
  facet normal -0.612372 -0.707107 -0.353553
    outer loop
      vertex 35.25 -49.8451 4.69022
      vertex 32.5034 -49.5923 8.94195
      vertex 34.7029 -49.5 4.94759
    endloop
  endfacet
  facet normal -0.612372 -0.707107 -0.353553
    outer loop
      vertex 32.5034 -49.5923 8.94195
      vertex 32.3632 -49.5 9
      vertex 34.7029 -49.5 4.94759
    endloop
  endfacet
  facet normal -0.612372 -0.707107 -0.353553
    outer loop
      vertex 32.5034 -49.5923 8.94195
      vertex 35.25 -49.8451 4.69022
      vertex 35.25 -50 5
    endloop
  endfacet
  facet normal -0.612372 -0.707107 -0.353553
    outer loop
      vertex 33.1221 -50 8.68569
      vertex 32.7543 -49.7576 8.83804
      vertex 35.25 -50 5
    endloop
  endfacet
  facet normal -0.612372 -0.707107 -0.353553
    outer loop
      vertex 32.7543 -49.7576 8.83804
      vertex 32.5034 -49.5923 8.94195
      vertex 35.25 -50 5
    endloop
  endfacet
  facet normal -0.183013 -0.707107 0.683013
    outer loop
      vertex 35.25 -49.6267 9.64234
      vertex 33.1221 -50 8.68569
      vertex 35.25 -50 9.25586
    endloop
  endfacet
  facet normal -0.183013 -0.707107 0.683013
    outer loop
      vertex 35.25 -49.6267 9.64234
      vertex 32.7543 -49.7576 8.83804
      vertex 33.1221 -50 8.68569
    endloop
  endfacet
  facet normal -0.183013 -0.707107 0.683013
    outer loop
      vertex 32.7543 -49.7576 8.83804
      vertex 35.25 -49.5 9.7735
      vertex 32.5034 -49.5923 8.94195
    endloop
  endfacet
  facet normal -0.183013 -0.707107 0.683013
    outer loop
      vertex 35.25 -49.5 9.7735
      vertex 32.7543 -49.7576 8.83804
      vertex 35.25 -49.6267 9.64234
    endloop
  endfacet
  facet normal -0.183013 -0.707107 0.683013
    outer loop
      vertex 32.3632 -49.5 9
      vertex 32.5034 -49.5923 8.94195
      vertex 35.25 -49.5 9.7735
    endloop
  endfacet
  facet normal -0.612372 0.707107 -0.353553
    outer loop
      vertex 35.25 50 5
      vertex 32.7543 49.7576 8.83804
      vertex 33.1221 50 8.68569
    endloop
  endfacet
  facet normal -0.612372 0.707107 -0.353553
    outer loop
      vertex 35.25 50 5
      vertex 32.5034 49.5923 8.94195
      vertex 32.7543 49.7576 8.83804
    endloop
  endfacet
  facet normal -0.612372 0.707107 -0.353553
    outer loop
      vertex 35.25 49.8451 4.69022
      vertex 32.5034 49.5923 8.94195
      vertex 35.25 50 5
    endloop
  endfacet
  facet normal -0.612372 0.707107 -0.353553
    outer loop
      vertex 34.7029 49.5 4.94759
      vertex 32.5034 49.5923 8.94195
      vertex 35.25 49.8451 4.69022
    endloop
  endfacet
  facet normal -0.612372 0.707107 -0.353553
    outer loop
      vertex 35.25 49.5 4
      vertex 34.7029 49.5 4.94759
      vertex 35.25 49.8451 4.69022
    endloop
  endfacet
  facet normal -0.612372 0.707107 -0.353553
    outer loop
      vertex 34.7029 49.5 4.94759
      vertex 32.3632 49.5 9
      vertex 32.5034 49.5923 8.94195
    endloop
  endfacet
  facet normal -0.183013 0.707107 0.683013
    outer loop
      vertex 33.1221 50 8.68569
      vertex 35.25 49.6267 9.64234
      vertex 35.25 50 9.25586
    endloop
  endfacet
  facet normal -0.183013 0.707107 0.683013
    outer loop
      vertex 32.7543 49.7576 8.83804
      vertex 35.25 49.6267 9.64234
      vertex 33.1221 50 8.68569
    endloop
  endfacet
  facet normal -0.183013 0.707107 0.683013
    outer loop
      vertex 35.25 49.5 9.7735
      vertex 32.5034 49.5923 8.94195
      vertex 32.3632 49.5 9
    endloop
  endfacet
  facet normal -0.183013 0.707107 0.683013
    outer loop
      vertex 35.25 49.6267 9.64234
      vertex 32.7543 49.7576 8.83804
      vertex 35.25 49.5 9.7735
    endloop
  endfacet
  facet normal -0.183013 0.707107 0.683013
    outer loop
      vertex 32.5034 49.5923 8.94195
      vertex 35.25 49.5 9.7735
      vertex 32.7543 49.7576 8.83804
    endloop
  endfacet
  facet normal 1 1.06581e-16 0
    outer loop
      vertex 19 -50 9.7735
      vertex 19 -50 3
      vertex 19 50 3
    endloop
  endfacet
  facet normal 1 1.06581e-16 0
    outer loop
      vertex 19 -50 9.7735
      vertex 19 50 3
      vertex 19 50 9.7735
    endloop
  endfacet
  facet normal nan nan nan
    outer loop
      vertex 19 50 9.7735
      vertex 19 50 3
      vertex 19 50 0
    endloop
  endfacet
  facet normal 0 1 -0
    outer loop
      vertex 4.75 50 5
      vertex 1 50 9.7735
      vertex 4.75 50 9.25586
    endloop
  endfacet
  facet normal 0 1 0
    outer loop
      vertex 1 50 9.7735
      vertex 4.75 50 5
      vertex 1 50 0
    endloop
  endfacet
  facet normal 0 1 0
    outer loop
      vertex 4.75 50 9.7735
      vertex 4.75 50 9.25586
      vertex 1 50 9.7735
    endloop
  endfacet
  facet normal 0 1 0
    outer loop
      vertex 6.87793 50 8.68569
      vertex 4.75 50 5
      vertex 4.75 50 9.25586
    endloop
  endfacet
  facet normal -6.76707e-16 1 7.00042e-16
    outer loop
      vertex 15.25 50 3.625
      vertex 1 50 0
      vertex 4.75 50 3.625
    endloop
  endfacet
  facet normal 0 1 0
    outer loop
      vertex 4.75 50 5
      vertex 4.75 50 3.625
      vertex 1 50 0
    endloop
  endfacet
  facet normal -3.94746e-16 1 -4.08358e-16
    outer loop
      vertex 15.25 50 3.625
      vertex 19 50 0
      vertex 1 50 0
    endloop
  endfacet
  facet normal 0 1 0
    outer loop
      vertex 15.25 50 5
      vertex 19 50 0
      vertex 15.25 50 3.625
    endloop
  endfacet
  facet normal 0 1 0
    outer loop
      vertex 19 50 9.7735
      vertex 19 50 0
      vertex 15.25 50 5
    endloop
  endfacet
  facet normal 0 1 0
    outer loop
      vertex 15.25 50 9.25586
      vertex 15.25 50 5
      vertex 13.1221 50 8.68569
    endloop
  endfacet
  facet normal 0 1 0
    outer loop
      vertex 19 50 9.7735
      vertex 15.25 50 5
      vertex 15.25 50 9.25586
    endloop
  endfacet
  facet normal -0 1 0
    outer loop
      vertex 15.25 50 9.7735
      vertex 19 50 9.7735
      vertex 15.25 50 9.25586
    endloop
  endfacet
  facet normal 0 -1 0
    outer loop
      vertex 10 -50 0
      vertex 4.75 -50 3.625
      vertex 1 -50 0
    endloop
  endfacet
  facet normal -0 -1 0
    outer loop
      vertex 19 -50 9.7735
      vertex 15.25 -50 9.7735
      vertex 15.25 -50 9.25586
    endloop
  endfacet
  facet normal 0 -1 -0
    outer loop
      vertex 19 -50 9.7735
      vertex 15.25 -50 5
      vertex 19 -50 3
    endloop
  endfacet
  facet normal 0 -1 -0
    outer loop
      vertex 15.25 -50 9.25586
      vertex 13.1221 -50 8.68569
      vertex 15.25 -50 5
    endloop
  endfacet
  facet normal 0 -1 0
    outer loop
      vertex 15.25 -50 9.25586
      vertex 15.25 -50 5
      vertex 19 -50 9.7735
    endloop
  endfacet
  facet normal 0 -1 0
    outer loop
      vertex 19 -50 3
      vertex 15.25 -50 5
      vertex 15.25 -50 3.625
    endloop
  endfacet
  facet normal -0 -1 -0
    outer loop
      vertex 10 -50 3
      vertex 4.75 -50 3.625
      vertex 10 -50 0
    endloop
  endfacet
  facet normal -0 -1 0
    outer loop
      vertex 4.75 -50 5
      vertex 1 -50 9.7735
      vertex 1 -50 0
    endloop
  endfacet
  facet normal 0 -1 -0
    outer loop
      vertex 4.75 -50 5
      vertex 1 -50 0
      vertex 4.75 -50 3.625
    endloop
  endfacet
  facet normal -0 -1 -0
    outer loop
      vertex 4.75 -50 9.25586
      vertex 1 -50 9.7735
      vertex 4.75 -50 5
    endloop
  endfacet
  facet normal 0 -1 0
    outer loop
      vertex 4.75 -50 9.25586
      vertex 4.75 -50 5
      vertex 6.87793 -50 8.68569
    endloop
  endfacet
  facet normal -0 -1 -0
    outer loop
      vertex 4.75 -50 9.7735
      vertex 1 -50 9.7735
      vertex 4.75 -50 9.25586
    endloop
  endfacet
  facet normal 7.89492e-16 -1 4.73695e-15
    outer loop
      vertex 15.25 -50 3.625
      vertex 10 -50 3
      vertex 19 -50 3
    endloop
  endfacet
  facet normal 6.76707e-16 -1 5.68434e-15
    outer loop
      vertex 10 -50 3
      vertex 15.25 -50 3.625
      vertex 4.75 -50 3.625
    endloop
  endfacet
  facet normal 0 0 1
    outer loop
      vertex 19 -50 9.7735
      vertex 19 50 9.7735
      vertex 15.25 50 9.7735
    endloop
  endfacet
  facet normal 0 -0 1
    outer loop
      vertex 15.25 -50 9.7735
      vertex 19 -50 9.7735
      vertex 15.25 50 9.7735
    endloop
  endfacet
  facet normal 0 0 1
    outer loop
      vertex 4.75 -50 9.7735
      vertex 4.75 50 9.7735
      vertex 1 50 9.7735
    endloop
  endfacet
  facet normal 0 -0 1
    outer loop
      vertex 1 -50 9.7735
      vertex 4.75 -50 9.7735
      vertex 1 50 9.7735
    endloop
  endfacet
  facet normal -1 -1.22125e-16 0
    outer loop
      vertex 1 -50 9.7735
      vertex 1 50 9.7735
      vertex 1 50 0
    endloop
  endfacet
  facet normal -1 -1.22125e-16 0
    outer loop
      vertex 1 -50 0
      vertex 1 -50 9.7735
      vertex 1 50 0
    endloop
  endfacet
  facet normal -1 -0 0
    outer loop
      vertex 15.25 -49.8451 4.69022
      vertex 15.25 -50 3.625
      vertex 15.25 -50 5
    endloop
  endfacet
  facet normal -1 0 -0
    outer loop
      vertex 15.25 -49.8451 4.69022
      vertex 15.25 -49.5 4
      vertex 15.25 -50 3.625
    endloop
  endfacet
  facet normal -1 -1.25601e-16 1.67468e-16
    outer loop
      vertex 15.25 -49.5 4
      vertex 15.25 49.5 4
      vertex 15.25 -50 3.625
    endloop
  endfacet
  facet normal -1 0 0
    outer loop
      vertex 15.25 50 3.625
      vertex 15.25 49.5 4
      vertex 15.25 49.8451 4.69022
    endloop
  endfacet
  facet normal -1 0 -0
    outer loop
      vertex 15.25 50 5
      vertex 15.25 50 3.625
      vertex 15.25 49.8451 4.69022
    endloop
  endfacet
  facet normal -1 -1.24345e-16 -1.65793e-16
    outer loop
      vertex 15.25 50 3.625
      vertex 15.25 -50 3.625
      vertex 15.25 49.5 4
    endloop
  endfacet
  facet normal -0.999388 -1.24269e-16 0.0349786
    outer loop
      vertex 15.25 49.5 9.7735
      vertex 15.25 -50 9.7735
      vertex 15.25 50 9.7735
    endloop
  endfacet
  facet normal -0.999376 -1.25523e-16 -0.0353315
    outer loop
      vertex 15.25 49.5 9.7735
      vertex 15.25 -49.5 9.7735
      vertex 15.25 -50 9.7735
    endloop
  endfacet
  facet normal -1 0 0
    outer loop
      vertex 15.25 -50 9.7735
      vertex 15.25 -49.5 9.7735
      vertex 15.25 -49.6267 9.64234
    endloop
  endfacet
  facet normal -1 0 0
    outer loop
      vertex 15.25 -50 9.7735
      vertex 15.25 -49.6267 9.64234
      vertex 15.25 -50 9.25586
    endloop
  endfacet
  facet normal -1 0 0
    outer loop
      vertex 15.25 49.5 9.7735
      vertex 15.25 50 9.7735
      vertex 15.25 49.6267 9.64234
    endloop
  endfacet
  facet normal -1 0 -0
    outer loop
      vertex 15.25 50 9.7735
      vertex 15.25 50 9.25586
      vertex 15.25 49.6267 9.64234
    endloop
  endfacet
  facet normal 0 0 1
    outer loop
      vertex 4.75 50 3.625
      vertex 4.75 -50 3.625
      vertex 15.25 -50 3.625
    endloop
  endfacet
  facet normal 0 0 1
    outer loop
      vertex 15.25 50 3.625
      vertex 4.75 50 3.625
      vertex 15.25 -50 3.625
    endloop
  endfacet
  facet normal 1 -0 0
    outer loop
      vertex 4.75 49.8451 4.69022
      vertex 4.75 50 3.625
      vertex 4.75 50 5
    endloop
  endfacet
  facet normal 1 0 0
    outer loop
      vertex 4.75 -50 3.625
      vertex 4.75 -49.5 4
      vertex 4.75 -49.8451 4.69022
    endloop
  endfacet
  facet normal 1 0 0
    outer loop
      vertex 4.75 -50 5
      vertex 4.75 -50 3.625
      vertex 4.75 -49.8451 4.69022
    endloop
  endfacet
  facet normal 1 1.16629e-16 1.55506e-16
    outer loop
      vertex 4.75 50 3.625
      vertex 4.75 49.5 4
      vertex 4.75 -49.5 4
    endloop
  endfacet
  facet normal 1 1.15463e-16 -1.53951e-16
    outer loop
      vertex 4.75 -50 3.625
      vertex 4.75 50 3.625
      vertex 4.75 -49.5 4
    endloop
  endfacet
  facet normal 1 0 0
    outer loop
      vertex 4.75 50 3.625
      vertex 4.75 49.8451 4.69022
      vertex 4.75 49.5 4
    endloop
  endfacet
  facet normal 1 0 0
    outer loop
      vertex 4.75 -50 9.25586
      vertex 4.75 -49.6267 9.64234
      vertex 4.75 -50 9.7735
    endloop
  endfacet
  facet normal 1 0 -0
    outer loop
      vertex 4.75 49.6267 9.64234
      vertex 4.75 50 9.7735
      vertex 4.75 49.5 9.7735
    endloop
  endfacet
  facet normal 1 0 -0
    outer loop
      vertex 4.75 -49.6267 9.64234
      vertex 4.75 -49.5 9.7735
      vertex 4.75 -50 9.7735
    endloop
  endfacet
  facet normal 0.999472 1.15402e-16 -0.0324828
    outer loop
      vertex 4.75 49.5 9.7735
      vertex 4.75 50 9.7735
      vertex 4.75 -50 9.7735
    endloop
  endfacet
  facet normal 0.999462 1.16567e-16 0.0328106
    outer loop
      vertex 4.75 49.5 9.7735
      vertex 4.75 -50 9.7735
      vertex 4.75 -49.5 9.7735
    endloop
  endfacet
  facet normal 1 0 -0
    outer loop
      vertex 4.75 50 9.25586
      vertex 4.75 50 9.7735
      vertex 4.75 49.6267 9.64234
    endloop
  endfacet
  facet normal -0.866025 -9.32346e-17 -0.5
    outer loop
      vertex 15.25 -49.5 4
      vertex 12.3632 -49.5 9
      vertex 12.3632 49.5 9
    endloop
  endfacet
  facet normal -0.866025 -1.08774e-16 -0.5
    outer loop
      vertex 15.25 49.5 4
      vertex 15.25 -49.5 4
      vertex 12.3632 49.5 9
    endloop
  endfacet
  facet normal -0.258819 -3.25079e-17 0.965926
    outer loop
      vertex 12.3632 -49.5 9
      vertex 15.25 49.5 9.7735
      vertex 12.3632 49.5 9
    endloop
  endfacet
  facet normal -0.258819 -3.30211e-17 0.965926
    outer loop
      vertex 12.3632 -49.5 9
      vertex 15.25 -49.5 9.7735
      vertex 15.25 49.5 9.7735
    endloop
  endfacet
  facet normal -0.612372 0.707107 -0.353553
    outer loop
      vertex 15.25 50 5
      vertex 12.7543 49.7576 8.83804
      vertex 13.1221 50 8.68569
    endloop
  endfacet
  facet normal -0.612372 0.707107 -0.353553
    outer loop
      vertex 15.25 50 5
      vertex 12.5034 49.5923 8.94195
      vertex 12.7543 49.7576 8.83804
    endloop
  endfacet
  facet normal -0.612372 0.707107 -0.353553
    outer loop
      vertex 15.25 49.8451 4.69022
      vertex 12.5034 49.5923 8.94195
      vertex 15.25 50 5
    endloop
  endfacet
  facet normal -0.612372 0.707107 -0.353553
    outer loop
      vertex 15.25 49.8451 4.69022
      vertex 12.3632 49.5 9
      vertex 12.5034 49.5923 8.94195
    endloop
  endfacet
  facet normal -0.612372 0.707107 -0.353553
    outer loop
      vertex 15.25 49.5 4
      vertex 12.3632 49.5 9
      vertex 15.25 49.8451 4.69022
    endloop
  endfacet
  facet normal -0.183013 0.707107 0.683013
    outer loop
      vertex 13.1221 50 8.68569
      vertex 15.25 49.6267 9.64234
      vertex 15.25 50 9.25586
    endloop
  endfacet
  facet normal -0.183013 0.707107 0.683013
    outer loop
      vertex 12.7543 49.7576 8.83804
      vertex 15.25 49.6267 9.64234
      vertex 13.1221 50 8.68569
    endloop
  endfacet
  facet normal -0.183013 0.707107 0.683013
    outer loop
      vertex 15.25 49.5 9.7735
      vertex 12.5034 49.5923 8.94195
      vertex 12.3632 49.5 9
    endloop
  endfacet
  facet normal -0.183013 0.707107 0.683013
    outer loop
      vertex 15.25 49.6267 9.64234
      vertex 12.7543 49.7576 8.83804
      vertex 15.25 49.5 9.7735
    endloop
  endfacet
  facet normal -0.183013 0.707107 0.683013
    outer loop
      vertex 12.5034 49.5923 8.94195
      vertex 15.25 49.5 9.7735
      vertex 12.7543 49.7576 8.83804
    endloop
  endfacet
  facet normal -0.612372 -0.707107 -0.353553
    outer loop
      vertex 12.3632 -49.5 9
      vertex 15.25 -49.5 4
      vertex 15.25 -49.8451 4.69022
    endloop
  endfacet
  facet normal -0.612372 -0.707107 -0.353553
    outer loop
      vertex 12.5034 -49.5923 8.94195
      vertex 12.3632 -49.5 9
      vertex 15.25 -49.8451 4.69022
    endloop
  endfacet
  facet normal -0.612372 -0.707107 -0.353553
    outer loop
      vertex 12.5034 -49.5923 8.94195
      vertex 15.25 -49.8451 4.69022
      vertex 15.25 -50 5
    endloop
  endfacet
  facet normal -0.612372 -0.707107 -0.353553
    outer loop
      vertex 13.1221 -50 8.68569
      vertex 12.7543 -49.7576 8.83804
      vertex 15.25 -50 5
    endloop
  endfacet
  facet normal -0.612372 -0.707107 -0.353553
    outer loop
      vertex 12.7543 -49.7576 8.83804
      vertex 12.5034 -49.5923 8.94195
      vertex 15.25 -50 5
    endloop
  endfacet
  facet normal -0.183013 -0.707107 0.683013
    outer loop
      vertex 15.25 -49.6267 9.64234
      vertex 13.1221 -50 8.68569
      vertex 15.25 -50 9.25586
    endloop
  endfacet
  facet normal -0.183013 -0.707107 0.683013
    outer loop
      vertex 15.25 -49.6267 9.64234
      vertex 12.7543 -49.7576 8.83804
      vertex 13.1221 -50 8.68569
    endloop
  endfacet
  facet normal -0.183013 -0.707107 0.683013
    outer loop
      vertex 15.25 -49.5 9.7735
      vertex 12.5034 -49.5923 8.94195
      vertex 12.7543 -49.7576 8.83804
    endloop
  endfacet
  facet normal -0.183013 -0.707107 0.683013
    outer loop
      vertex 15.25 -49.6267 9.64234
      vertex 15.25 -49.5 9.7735
      vertex 12.7543 -49.7576 8.83804
    endloop
  endfacet
  facet normal -0.183013 -0.707107 0.683013
    outer loop
      vertex 15.25 -49.5 9.7735
      vertex 12.3632 -49.5 9
      vertex 12.5034 -49.5923 8.94195
    endloop
  endfacet
  facet normal 0.866025 1.09665e-16 -0.5
    outer loop
      vertex 5.29709 -49.5 4.94759
      vertex 4.75 -49.5 4
      vertex 4.75 49.5 4
    endloop
  endfacet
  facet normal 0.866025 1.08774e-16 -0.5
    outer loop
      vertex 5.29709 49.5 4.94759
      vertex 7.63675 -49.5 9
      vertex 5.29709 -49.5 4.94759
    endloop
  endfacet
  facet normal 0.866025 1.08774e-16 -0.5
    outer loop
      vertex 7.63675 49.5 9
      vertex 7.63675 -49.5 9
      vertex 5.29709 49.5 4.94759
    endloop
  endfacet
  facet normal 0.866025 1.08774e-16 -0.5
    outer loop
      vertex 5.29709 49.5 4.94759
      vertex 5.29709 -49.5 4.94759
      vertex 4.75 49.5 4
    endloop
  endfacet
  facet normal 0.258819 3.01859e-17 0.965926
    outer loop
      vertex 4.75 -49.5 9.7735
      vertex 7.63675 49.5 9
      vertex 4.75 49.5 9.7735
    endloop
  endfacet
  facet normal 0.258819 3.00192e-17 0.965926
    outer loop
      vertex 4.75 -49.5 9.7735
      vertex 7.63675 -49.5 9
      vertex 7.63675 49.5 9
    endloop
  endfacet
  facet normal 0.612372 0.707107 -0.353553
    outer loop
      vertex 5.29709 49.5 4.94759
      vertex 7.49661 49.5923 8.94195
      vertex 7.63675 49.5 9
    endloop
  endfacet
  facet normal 0.612372 0.707107 -0.353553
    outer loop
      vertex 5.29709 49.5 4.94759
      vertex 4.75 49.8451 4.69022
      vertex 7.49661 49.5923 8.94195
    endloop
  endfacet
  facet normal 0.612372 0.707107 -0.353553
    outer loop
      vertex 4.75 49.5 4
      vertex 4.75 49.8451 4.69022
      vertex 5.29709 49.5 4.94759
    endloop
  endfacet
  facet normal 0.612372 0.707107 -0.353553
    outer loop
      vertex 7.49661 49.5923 8.94195
      vertex 4.75 50 5
      vertex 7.24575 49.7576 8.83804
    endloop
  endfacet
  facet normal 0.612372 0.707107 -0.353553
    outer loop
      vertex 4.75 50 5
      vertex 6.87793 50 8.68569
      vertex 7.24575 49.7576 8.83804
    endloop
  endfacet
  facet normal 0.612372 0.707107 -0.353553
    outer loop
      vertex 4.75 50 5
      vertex 7.49661 49.5923 8.94195
      vertex 4.75 49.8451 4.69022
    endloop
  endfacet
  facet normal 0.183013 0.707107 0.683013
    outer loop
      vertex 6.87793 50 8.68569
      vertex 4.75 49.6267 9.64234
      vertex 7.24575 49.7576 8.83804
    endloop
  endfacet
  facet normal 0.183013 0.707107 0.683013
    outer loop
      vertex 6.87793 50 8.68569
      vertex 4.75 50 9.25586
      vertex 4.75 49.6267 9.64234
    endloop
  endfacet
  facet normal 0.183013 0.707107 0.683013
    outer loop
      vertex 7.63675 49.5 9
      vertex 7.49661 49.5923 8.94195
      vertex 4.75 49.5 9.7735
    endloop
  endfacet
  facet normal 0.183013 0.707107 0.683013
    outer loop
      vertex 7.49661 49.5923 8.94195
      vertex 7.24575 49.7576 8.83804
      vertex 4.75 49.5 9.7735
    endloop
  endfacet
  facet normal 0.183013 0.707107 0.683013
    outer loop
      vertex 7.24575 49.7576 8.83804
      vertex 4.75 49.6267 9.64234
      vertex 4.75 49.5 9.7735
    endloop
  endfacet
  facet normal 0.612372 -0.707107 -0.353553
    outer loop
      vertex 7.49661 -49.5923 8.94195
      vertex 4.75 -50 5
      vertex 4.75 -49.8451 4.69022
    endloop
  endfacet
  facet normal 0.612372 -0.707107 -0.353553
    outer loop
      vertex 7.49661 -49.5923 8.94195
      vertex 7.24575 -49.7576 8.83804
      vertex 4.75 -50 5
    endloop
  endfacet
  facet normal 0.612372 -0.707107 -0.353553
    outer loop
      vertex 7.24575 -49.7576 8.83804
      vertex 6.87793 -50 8.68569
      vertex 4.75 -50 5
    endloop
  endfacet
  facet normal 0.612372 -0.707107 -0.353553
    outer loop
      vertex 7.63675 -49.5 9
      vertex 7.49661 -49.5923 8.94195
      vertex 5.29709 -49.5 4.94759
    endloop
  endfacet
  facet normal 0.612372 -0.707107 -0.353553
    outer loop
      vertex 7.49661 -49.5923 8.94195
      vertex 4.75 -49.8451 4.69022
      vertex 5.29709 -49.5 4.94759
    endloop
  endfacet
  facet normal 0.612372 -0.707107 -0.353553
    outer loop
      vertex 4.75 -49.8451 4.69022
      vertex 4.75 -49.5 4
      vertex 5.29709 -49.5 4.94759
    endloop
  endfacet
  facet normal 0.183013 -0.707107 0.683013
    outer loop
      vertex 4.75 -49.6267 9.64234
      vertex 6.87793 -50 8.68569
      vertex 7.24575 -49.7576 8.83804
    endloop
  endfacet
  facet normal 0.183013 -0.707107 0.683013
    outer loop
      vertex 4.75 -49.6267 9.64234
      vertex 4.75 -50 9.25586
      vertex 6.87793 -50 8.68569
    endloop
  endfacet
  facet normal 0.183013 -0.707107 0.683013
    outer loop
      vertex 7.24575 -49.7576 8.83804
      vertex 4.75 -49.5 9.7735
      vertex 4.75 -49.6267 9.64234
    endloop
  endfacet
  facet normal 0.183013 -0.707107 0.683013
    outer loop
      vertex 7.49661 -49.5923 8.94195
      vertex 4.75 -49.5 9.7735
      vertex 7.24575 -49.7576 8.83804
    endloop
  endfacet
  facet normal 0.183013 -0.707107 0.683013
    outer loop
      vertex 7.63675 -49.5 9
      vertex 4.75 -49.5 9.7735
      vertex 7.49661 -49.5923 8.94195
    endloop
  endfacet
  facet normal 0 0 1
    outer loop
      vertex 21 -50 3
      vertex 19 -50 3
      vertex 10 -50 3
    endloop
  endfacet
  facet normal 0 -0 1
    outer loop
      vertex 21 -50 3
      vertex 21 50 3
      vertex 19 -50 3
    endloop
  endfacet
  facet normal -0 0 1
    outer loop
      vertex 19 50 3
      vertex 19 -50 3
      vertex 21 50 3
    endloop
  endfacet
endsolid OpenSCAD_Model
