solid OpenSCAD_Model
  facet normal -1 0 -1.22465e-16
    outer loop
      vertex -35 -50 5
      vertex -35 50 5
      vertex -35 -50 -6.12323e-16
    endloop
  endfacet
  facet normal -1 0 -1.22465e-16
    outer loop
      vertex -35 -50 -6.12323e-16
      vertex -35 50 5
      vertex -35 50 -6.12323e-16
    endloop
  endfacet
  facet normal -0.866025 0 0.5
    outer loop
      vertex -32.1132 50 10
      vertex -35 50 5
      vertex -32.1132 -50 10
    endloop
  endfacet
  facet normal -0.866025 0 0.5
    outer loop
      vertex -32.1132 -50 10
      vertex -35 50 5
      vertex -35 -50 5
    endloop
  endfacet
  facet normal 0 -1 0
    outer loop
      vertex -32.1132 -50 10
      vertex -35 -50 5
      vertex -35 -50 -6.12323e-16
    endloop
  endfacet
  facet normal 0 -1 0
    outer loop
      vertex -25 -50 3
      vertex -32.1132 -50 10
      vertex -30 -50 0
    endloop
  endfacet
  facet normal 0 -1 0
    outer loop
      vertex -30 -50 0
      vertex -32.1132 -50 10
      vertex -35 -50 -6.12323e-16
    endloop
  endfacet
  facet normal 0 -1 0
    outer loop
      vertex -1 -50 14
      vertex -7.63675 -50 9
      vertex -1 -50 0
    endloop
  endfacet
  facet normal 0 -1 0
    outer loop
      vertex -19 -50 14
      vertex -12.3632 -50 9
      vertex -15.25 -50 14
    endloop
  endfacet
  facet normal 0 -1 0
    outer loop
      vertex -7.63675 -50 9
      vertex -4.75 -50 4.05
      vertex -1 -50 0
    endloop
  endfacet
  facet normal 0 -1 0
    outer loop
      vertex -7.63675 -50 9
      vertex -4.77887 -50 4.05
      vertex -4.75 -50 4.05
    endloop
  endfacet
  facet normal 0 -1 0
    outer loop
      vertex -1 -50 0
      vertex -15.25 -50 3.55
      vertex -30 -50 0
    endloop
  endfacet
  facet normal 0 -1 0
    outer loop
      vertex -25 -50 5
      vertex -27.8868 -50 10
      vertex -32.1132 -50 10
    endloop
  endfacet
  facet normal 0 -1 0
    outer loop
      vertex -19 -50 14
      vertex -15.2211 -50 4.05
      vertex -12.3632 -50 9
    endloop
  endfacet
  facet normal 0 -1 0
    outer loop
      vertex -15.25 -50 3.55
      vertex -19 -50 3
      vertex -30 -50 0
    endloop
  endfacet
  facet normal 0 -1 0
    outer loop
      vertex -19 -50 3
      vertex -25 -50 3
      vertex -30 -50 0
    endloop
  endfacet
  facet normal 0 -1 0
    outer loop
      vertex -25 -50 5
      vertex -32.1132 -50 10
      vertex -25 -50 3
    endloop
  endfacet
  facet normal 0 -1 0
    outer loop
      vertex -27.8868 -50 10
      vertex -25 -50 15
      vertex -32.1132 -50 10
    endloop
  endfacet
  facet normal 0 -1 0
    outer loop
      vertex -4.75 -50 4.05
      vertex -4.75 -50 3.55
      vertex -1 -50 0
    endloop
  endfacet
  facet normal 0 -1 0
    outer loop
      vertex -35 -50 15
      vertex -32.1132 -50 10
      vertex -25 -50 15
    endloop
  endfacet
  facet normal 0 -1 0
    outer loop
      vertex -4.75 -50 14
      vertex -7.63675 -50 9
      vertex -1 -50 14
    endloop
  endfacet
  facet normal 0 -1 0
    outer loop
      vertex -4.75 -50 3.55
      vertex -15.25 -50 3.55
      vertex -1 -50 0
    endloop
  endfacet
  facet normal 0 -1 0
    outer loop
      vertex -19 -50 14
      vertex -15.25 -50 4.05
      vertex -15.2211 -50 4.05
    endloop
  endfacet
  facet normal 0 -1 0
    outer loop
      vertex -19 -50 14
      vertex -15.25 -50 3.55
      vertex -15.25 -50 4.05
    endloop
  endfacet
  facet normal 0 -1 0
    outer loop
      vertex -19 -50 14
      vertex -19 -50 3
      vertex -15.25 -50 3.55
    endloop
  endfacet
  facet normal 1.22465e-16 0 -1
    outer loop
      vertex -35 -50 -6.12323e-16
      vertex -35 50 -6.12323e-16
      vertex -30 -50 0
    endloop
  endfacet
  facet normal 1.22465e-16 0 -1
    outer loop
      vertex -30 -50 0
      vertex -35 50 -6.12323e-16
      vertex -30 50 0
    endloop
  endfacet
  facet normal 0 1 0
    outer loop
      vertex -35 50 5
      vertex -32.1132 50 10
      vertex -35 50 -6.12323e-16
    endloop
  endfacet
  facet normal 0 1 0
    outer loop
      vertex -25 50 15
      vertex -32.1132 50 10
      vertex -35 50 15
    endloop
  endfacet
  facet normal 0 1 0
    outer loop
      vertex -35 50 -6.12323e-16
      vertex -32.1132 50 10
      vertex -25 50 15
    endloop
  endfacet
  facet normal 0 1 0
    outer loop
      vertex -35 50 -6.12323e-16
      vertex -25 50 15
      vertex -27.8868 50 10
    endloop
  endfacet
  facet normal 0 1 0
    outer loop
      vertex -35 50 -6.12323e-16
      vertex -27.8868 50 10
      vertex -25 50 5
    endloop
  endfacet
  facet normal 0 1 0
    outer loop
      vertex -25 50 5
      vertex -25 50 3
      vertex -35 50 -6.12323e-16
    endloop
  endfacet
  facet normal 0 1 0
    outer loop
      vertex -25 50 3
      vertex -19 50 3
      vertex -35 50 -6.12323e-16
    endloop
  endfacet
  facet normal 0 1 0
    outer loop
      vertex -19 50 3
      vertex -19 50 14
      vertex -15.25 50 14
    endloop
  endfacet
  facet normal 0 1 0
    outer loop
      vertex -19 50 3
      vertex -15.25 50 14
      vertex -12.3632 50 9
    endloop
  endfacet
  facet normal 0 1 0
    outer loop
      vertex -15.25 50 4.05
      vertex -12.3632 50 9
      vertex -15.2211 50 4.05
    endloop
  endfacet
  facet normal 0 1 0
    outer loop
      vertex -19 50 3
      vertex -12.3632 50 9
      vertex -15.25 50 4.05
    endloop
  endfacet
  facet normal 0 1 0
    outer loop
      vertex -7.63675 50 9
      vertex -4.75 50 4.05
      vertex -4.77887 50 4.05
    endloop
  endfacet
  facet normal 0 1 0
    outer loop
      vertex -19 50 3
      vertex -15.25 50 3.55
      vertex -35 50 -6.12323e-16
    endloop
  endfacet
  facet normal 0 1 0
    outer loop
      vertex -15.25 50 3.55
      vertex -4.75 50 3.55
      vertex -35 50 -6.12323e-16
    endloop
  endfacet
  facet normal 0 1 0
    outer loop
      vertex -4.75 50 4.05
      vertex -7.63675 50 9
      vertex -4.75 50 14
    endloop
  endfacet
  facet normal 0 1 0
    outer loop
      vertex -4.75 50 4.05
      vertex -1 50 14
      vertex -4.75 50 3.55
    endloop
  endfacet
  facet normal 0 1 0
    outer loop
      vertex -4.75 50 14
      vertex -1 50 14
      vertex -4.75 50 4.05
    endloop
  endfacet
  facet normal 0 1 0
    outer loop
      vertex -4.75 50 3.55
      vertex -1 50 14
      vertex -1 50 0
    endloop
  endfacet
  facet normal 0 1 0
    outer loop
      vertex -4.75 50 3.55
      vertex -1 50 0
      vertex -30 50 0
    endloop
  endfacet
  facet normal 0 1 0
    outer loop
      vertex -4.75 50 3.55
      vertex -30 50 0
      vertex -35 50 -6.12323e-16
    endloop
  endfacet
  facet normal 0 1 0
    outer loop
      vertex -15.25 50 3.55
      vertex -19 50 3
      vertex -15.25 50 4.05
    endloop
  endfacet
  facet normal -0.866025 0 -0.5
    outer loop
      vertex -32.1132 50 10
      vertex -32.1132 -50 10
      vertex -35 50 15
    endloop
  endfacet
  facet normal -0.866025 0 -0.5
    outer loop
      vertex -35 50 15
      vertex -32.1132 -50 10
      vertex -35 -50 15
    endloop
  endfacet
  facet normal -1.22465e-16 0 1
    outer loop
      vertex -35 50 15
      vertex -35 -50 15
      vertex -25 -50 15
    endloop
  endfacet
  facet normal -1.22465e-16 0 1
    outer loop
      vertex -25 50 15
      vertex -35 50 15
      vertex -25 -50 15
    endloop
  endfacet
  facet normal 0.866025 0 -0.5
    outer loop
      vertex -27.8868 50 10
      vertex -25 50 15
      vertex -25 -50 15
    endloop
  endfacet
  facet normal 0.866025 0 -0.5
    outer loop
      vertex -27.8868 -50 10
      vertex -27.8868 50 10
      vertex -25 -50 15
    endloop
  endfacet
  facet normal 0.866025 0 0.5
    outer loop
      vertex -25 -50 5
      vertex -25 50 5
      vertex -27.8868 50 10
    endloop
  endfacet
  facet normal 0.866025 0 0.5
    outer loop
      vertex -27.8868 -50 10
      vertex -25 -50 5
      vertex -27.8868 50 10
    endloop
  endfacet
  facet normal 1 0 1.22465e-16
    outer loop
      vertex -25 50 5
      vertex -25 -50 5
      vertex -25 -50 3
    endloop
  endfacet
  facet normal 1 0 1.22465e-16
    outer loop
      vertex -25 50 3
      vertex -25 50 5
      vertex -25 -50 3
    endloop
  endfacet
  facet normal 0 0 1
    outer loop
      vertex -25 50 3
      vertex -25 -50 3
      vertex -19 -50 3
    endloop
  endfacet
  facet normal 0 0 1
    outer loop
      vertex -19 50 3
      vertex -25 50 3
      vertex -19 -50 3
    endloop
  endfacet
  facet normal -1 0 0
    outer loop
      vertex -19 -50 3
      vertex -19 -50 14
      vertex -19 50 3
    endloop
  endfacet
  facet normal -1 0 0
    outer loop
      vertex -19 50 3
      vertex -19 -50 14
      vertex -19 50 14
    endloop
  endfacet
  facet normal 0 0 1
    outer loop
      vertex -19 50 14
      vertex -19 -50 14
      vertex -15.25 -50 14
    endloop
  endfacet
  facet normal 0 0 1
    outer loop
      vertex -15.25 50 14
      vertex -19 50 14
      vertex -15.25 -50 14
    endloop
  endfacet
  facet normal 0.866025 0 0.5
    outer loop
      vertex -15.25 50 14
      vertex -15.25 -50 14
      vertex -12.3632 -50 9
    endloop
  endfacet
  facet normal 0.866025 0 0.5
    outer loop
      vertex -12.3632 50 9
      vertex -15.25 50 14
      vertex -12.3632 -50 9
    endloop
  endfacet
  facet normal 0.866025 0 -0.5
    outer loop
      vertex -12.3632 -50 9
      vertex -15.2211 -50 4.05
      vertex -15.2211 50 4.05
    endloop
  endfacet
  facet normal 0.866025 0 -0.5
    outer loop
      vertex -12.3632 50 9
      vertex -12.3632 -50 9
      vertex -15.2211 50 4.05
    endloop
  endfacet
  facet normal 0 0 -1
    outer loop
      vertex -15.2211 50 4.05
      vertex -15.2211 -50 4.05
      vertex -15.25 50 4.05
    endloop
  endfacet
  facet normal 0 0 -1
    outer loop
      vertex -15.25 50 4.05
      vertex -15.2211 -50 4.05
      vertex -15.25 -50 4.05
    endloop
  endfacet
  facet normal 1 0 0
    outer loop
      vertex -15.25 50 3.55
      vertex -15.25 50 4.05
      vertex -15.25 -50 4.05
    endloop
  endfacet
  facet normal 1 0 0
    outer loop
      vertex -15.25 -50 3.55
      vertex -15.25 50 3.55
      vertex -15.25 -50 4.05
    endloop
  endfacet
  facet normal 0 0 1
    outer loop
      vertex -4.75 -50 3.55
      vertex -4.75 50 3.55
      vertex -15.25 50 3.55
    endloop
  endfacet
  facet normal 0 0 1
    outer loop
      vertex -15.25 -50 3.55
      vertex -4.75 -50 3.55
      vertex -15.25 50 3.55
    endloop
  endfacet
  facet normal -1 0 0
    outer loop
      vertex -4.75 50 4.05
      vertex -4.75 50 3.55
      vertex -4.75 -50 4.05
    endloop
  endfacet
  facet normal -1 0 0
    outer loop
      vertex -4.75 -50 4.05
      vertex -4.75 50 3.55
      vertex -4.75 -50 3.55
    endloop
  endfacet
  facet normal 0 0 -1
    outer loop
      vertex -4.75 50 4.05
      vertex -4.75 -50 4.05
      vertex -4.77887 50 4.05
    endloop
  endfacet
  facet normal 0 0 -1
    outer loop
      vertex -4.77887 50 4.05
      vertex -4.75 -50 4.05
      vertex -4.77887 -50 4.05
    endloop
  endfacet
  facet normal -0.866025 0 -0.5
    outer loop
      vertex -7.63675 -50 9
      vertex -7.63675 50 9
      vertex -4.77887 -50 4.05
    endloop
  endfacet
  facet normal -0.866025 0 -0.5
    outer loop
      vertex -4.77887 -50 4.05
      vertex -7.63675 50 9
      vertex -4.77887 50 4.05
    endloop
  endfacet
  facet normal -0.866025 0 0.5
    outer loop
      vertex -7.63675 -50 9
      vertex -4.75 -50 14
      vertex -7.63675 50 9
    endloop
  endfacet
  facet normal -0.866025 0 0.5
    outer loop
      vertex -7.63675 50 9
      vertex -4.75 -50 14
      vertex -4.75 50 14
    endloop
  endfacet
  facet normal 0 0 1
    outer loop
      vertex -4.75 50 14
      vertex -4.75 -50 14
      vertex -1 -50 14
    endloop
  endfacet
  facet normal 0 0 1
    outer loop
      vertex -1 50 14
      vertex -4.75 50 14
      vertex -1 -50 14
    endloop
  endfacet
  facet normal 1 0 0
    outer loop
      vertex -1 -50 14
      vertex -1 -50 0
      vertex -1 50 0
    endloop
  endfacet
  facet normal 1 0 0
    outer loop
      vertex -1 50 14
      vertex -1 -50 14
      vertex -1 50 0
    endloop
  endfacet
  facet normal 0 0 -1
    outer loop
      vertex -30 -50 0
      vertex -30 50 0
      vertex -1 -50 0
    endloop
  endfacet
  facet normal 0 0 -1
    outer loop
      vertex -1 -50 0
      vertex -30 50 0
      vertex -1 50 0
    endloop
  endfacet
  facet normal -1 0 -1.22465e-16
    outer loop
      vertex 5 -50 5
      vertex 5 50 5
      vertex 5 -50 -6.12323e-16
    endloop
  endfacet
  facet normal -1 0 -1.22465e-16
    outer loop
      vertex 5 -50 -6.12323e-16
      vertex 5 50 5
      vertex 5 50 -6.12323e-16
    endloop
  endfacet
  facet normal -0.866025 0 0.5
    outer loop
      vertex 7.88675 50 10
      vertex 5 50 5
      vertex 7.88675 -50 10
    endloop
  endfacet
  facet normal -0.866025 0 0.5
    outer loop
      vertex 7.88675 -50 10
      vertex 5 50 5
      vertex 5 -50 5
    endloop
  endfacet
  facet normal 0 -1 0
    outer loop
      vertex 7.88675 -50 10
      vertex 5 -50 5
      vertex 5 -50 -6.12323e-16
    endloop
  endfacet
  facet normal 0 -1 0
    outer loop
      vertex 15 -50 3
      vertex 7.88675 -50 10
      vertex 10 -50 0
    endloop
  endfacet
  facet normal 0 -1 0
    outer loop
      vertex 10 -50 0
      vertex 7.88675 -50 10
      vertex 5 -50 -6.12323e-16
    endloop
  endfacet
  facet normal 0 -1 0
    outer loop
      vertex 39 -50 14
      vertex 32.3632 -50 9
      vertex 39 -50 0
    endloop
  endfacet
  facet normal 0 -1 0
    outer loop
      vertex 21 -50 14
      vertex 27.6368 -50 9
      vertex 24.75 -50 14
    endloop
  endfacet
  facet normal 0 -1 0
    outer loop
      vertex 32.3632 -50 9
      vertex 35.25 -50 4.05
      vertex 39 -50 0
    endloop
  endfacet
  facet normal 0 -1 0
    outer loop
      vertex 32.3632 -50 9
      vertex 35.2211 -50 4.05
      vertex 35.25 -50 4.05
    endloop
  endfacet
  facet normal 0 -1 0
    outer loop
      vertex 39 -50 0
      vertex 24.75 -50 3.55
      vertex 10 -50 0
    endloop
  endfacet
  facet normal 0 -1 0
    outer loop
      vertex 15 -50 5
      vertex 12.1132 -50 10
      vertex 7.88675 -50 10
    endloop
  endfacet
  facet normal 0 -1 0
    outer loop
      vertex 21 -50 14
      vertex 24.7789 -50 4.05
      vertex 27.6368 -50 9
    endloop
  endfacet
  facet normal 0 -1 0
    outer loop
      vertex 24.75 -50 3.55
      vertex 21 -50 3
      vertex 10 -50 0
    endloop
  endfacet
  facet normal 0 -1 0
    outer loop
      vertex 21 -50 3
      vertex 15 -50 3
      vertex 10 -50 0
    endloop
  endfacet
  facet normal 0 -1 0
    outer loop
      vertex 15 -50 5
      vertex 7.88675 -50 10
      vertex 15 -50 3
    endloop
  endfacet
  facet normal 0 -1 0
    outer loop
      vertex 12.1132 -50 10
      vertex 15 -50 15
      vertex 7.88675 -50 10
    endloop
  endfacet
  facet normal 0 -1 0
    outer loop
      vertex 35.25 -50 4.05
      vertex 35.25 -50 3.55
      vertex 39 -50 0
    endloop
  endfacet
  facet normal 0 -1 0
    outer loop
      vertex 5 -50 15
      vertex 7.88675 -50 10
      vertex 15 -50 15
    endloop
  endfacet
  facet normal 0 -1 0
    outer loop
      vertex 35.25 -50 14
      vertex 32.3632 -50 9
      vertex 39 -50 14
    endloop
  endfacet
  facet normal 0 -1 0
    outer loop
      vertex 35.25 -50 3.55
      vertex 24.75 -50 3.55
      vertex 39 -50 0
    endloop
  endfacet
  facet normal 0 -1 0
    outer loop
      vertex 21 -50 14
      vertex 24.75 -50 4.05
      vertex 24.7789 -50 4.05
    endloop
  endfacet
  facet normal 0 -1 0
    outer loop
      vertex 21 -50 14
      vertex 24.75 -50 3.55
      vertex 24.75 -50 4.05
    endloop
  endfacet
  facet normal 0 -1 0
    outer loop
      vertex 21 -50 14
      vertex 21 -50 3
      vertex 24.75 -50 3.55
    endloop
  endfacet
  facet normal 1.22465e-16 0 -1
    outer loop
      vertex 5 -50 -6.12323e-16
      vertex 5 50 -6.12323e-16
      vertex 10 -50 0
    endloop
  endfacet
  facet normal 1.22465e-16 0 -1
    outer loop
      vertex 10 -50 0
      vertex 5 50 -6.12323e-16
      vertex 10 50 0
    endloop
  endfacet
  facet normal 0 1 0
    outer loop
      vertex 5 50 5
      vertex 7.88675 50 10
      vertex 5 50 -6.12323e-16
    endloop
  endfacet
  facet normal 0 1 0
    outer loop
      vertex 15 50 15
      vertex 7.88675 50 10
      vertex 5 50 15
    endloop
  endfacet
  facet normal 0 1 0
    outer loop
      vertex 5 50 -6.12323e-16
      vertex 7.88675 50 10
      vertex 15 50 15
    endloop
  endfacet
  facet normal 0 1 0
    outer loop
      vertex 5 50 -6.12323e-16
      vertex 15 50 15
      vertex 12.1132 50 10
    endloop
  endfacet
  facet normal 0 1 0
    outer loop
      vertex 5 50 -6.12323e-16
      vertex 12.1132 50 10
      vertex 15 50 5
    endloop
  endfacet
  facet normal 0 1 0
    outer loop
      vertex 15 50 5
      vertex 15 50 3
      vertex 5 50 -6.12323e-16
    endloop
  endfacet
  facet normal 0 1 0
    outer loop
      vertex 15 50 3
      vertex 21 50 3
      vertex 5 50 -6.12323e-16
    endloop
  endfacet
  facet normal 0 1 0
    outer loop
      vertex 21 50 3
      vertex 21 50 14
      vertex 24.75 50 14
    endloop
  endfacet
  facet normal 0 1 0
    outer loop
      vertex 21 50 3
      vertex 24.75 50 14
      vertex 27.6368 50 9
    endloop
  endfacet
  facet normal 0 1 0
    outer loop
      vertex 24.75 50 4.05
      vertex 27.6368 50 9
      vertex 24.7789 50 4.05
    endloop
  endfacet
  facet normal 0 1 0
    outer loop
      vertex 21 50 3
      vertex 27.6368 50 9
      vertex 24.75 50 4.05
    endloop
  endfacet
  facet normal 0 1 0
    outer loop
      vertex 32.3632 50 9
      vertex 35.25 50 4.05
      vertex 35.2211 50 4.05
    endloop
  endfacet
  facet normal 0 1 0
    outer loop
      vertex 21 50 3
      vertex 24.75 50 3.55
      vertex 5 50 -6.12323e-16
    endloop
  endfacet
  facet normal 0 1 0
    outer loop
      vertex 24.75 50 3.55
      vertex 35.25 50 3.55
      vertex 5 50 -6.12323e-16
    endloop
  endfacet
  facet normal 0 1 0
    outer loop
      vertex 35.25 50 4.05
      vertex 32.3632 50 9
      vertex 35.25 50 14
    endloop
  endfacet
  facet normal 0 1 0
    outer loop
      vertex 35.25 50 4.05
      vertex 39 50 14
      vertex 35.25 50 3.55
    endloop
  endfacet
  facet normal 0 1 0
    outer loop
      vertex 35.25 50 14
      vertex 39 50 14
      vertex 35.25 50 4.05
    endloop
  endfacet
  facet normal 0 1 0
    outer loop
      vertex 35.25 50 3.55
      vertex 39 50 14
      vertex 39 50 0
    endloop
  endfacet
  facet normal 0 1 0
    outer loop
      vertex 35.25 50 3.55
      vertex 39 50 0
      vertex 10 50 0
    endloop
  endfacet
  facet normal 0 1 0
    outer loop
      vertex 35.25 50 3.55
      vertex 10 50 0
      vertex 5 50 -6.12323e-16
    endloop
  endfacet
  facet normal 0 1 0
    outer loop
      vertex 24.75 50 3.55
      vertex 21 50 3
      vertex 24.75 50 4.05
    endloop
  endfacet
  facet normal -0.866025 0 -0.5
    outer loop
      vertex 7.88675 50 10
      vertex 7.88675 -50 10
      vertex 5 50 15
    endloop
  endfacet
  facet normal -0.866025 0 -0.5
    outer loop
      vertex 5 50 15
      vertex 7.88675 -50 10
      vertex 5 -50 15
    endloop
  endfacet
  facet normal -1.22465e-16 0 1
    outer loop
      vertex 5 50 15
      vertex 5 -50 15
      vertex 15 -50 15
    endloop
  endfacet
  facet normal -1.22465e-16 0 1
    outer loop
      vertex 15 50 15
      vertex 5 50 15
      vertex 15 -50 15
    endloop
  endfacet
  facet normal 0.866025 0 -0.5
    outer loop
      vertex 12.1132 50 10
      vertex 15 50 15
      vertex 15 -50 15
    endloop
  endfacet
  facet normal 0.866025 0 -0.5
    outer loop
      vertex 12.1132 -50 10
      vertex 12.1132 50 10
      vertex 15 -50 15
    endloop
  endfacet
  facet normal 0.866025 0 0.5
    outer loop
      vertex 15 -50 5
      vertex 15 50 5
      vertex 12.1132 50 10
    endloop
  endfacet
  facet normal 0.866025 0 0.5
    outer loop
      vertex 12.1132 -50 10
      vertex 15 -50 5
      vertex 12.1132 50 10
    endloop
  endfacet
  facet normal 1 0 1.22465e-16
    outer loop
      vertex 15 50 5
      vertex 15 -50 5
      vertex 15 -50 3
    endloop
  endfacet
  facet normal 1 0 1.22465e-16
    outer loop
      vertex 15 50 3
      vertex 15 50 5
      vertex 15 -50 3
    endloop
  endfacet
  facet normal 0 0 1
    outer loop
      vertex 15 50 3
      vertex 15 -50 3
      vertex 21 -50 3
    endloop
  endfacet
  facet normal 0 0 1
    outer loop
      vertex 21 50 3
      vertex 15 50 3
      vertex 21 -50 3
    endloop
  endfacet
  facet normal -1 0 0
    outer loop
      vertex 21 -50 3
      vertex 21 -50 14
      vertex 21 50 3
    endloop
  endfacet
  facet normal -1 0 0
    outer loop
      vertex 21 50 3
      vertex 21 -50 14
      vertex 21 50 14
    endloop
  endfacet
  facet normal 0 0 1
    outer loop
      vertex 21 50 14
      vertex 21 -50 14
      vertex 24.75 -50 14
    endloop
  endfacet
  facet normal 0 0 1
    outer loop
      vertex 24.75 50 14
      vertex 21 50 14
      vertex 24.75 -50 14
    endloop
  endfacet
  facet normal 0.866025 0 0.5
    outer loop
      vertex 24.75 50 14
      vertex 24.75 -50 14
      vertex 27.6368 -50 9
    endloop
  endfacet
  facet normal 0.866025 0 0.5
    outer loop
      vertex 27.6368 50 9
      vertex 24.75 50 14
      vertex 27.6368 -50 9
    endloop
  endfacet
  facet normal 0.866025 0 -0.5
    outer loop
      vertex 27.6368 -50 9
      vertex 24.7789 -50 4.05
      vertex 24.7789 50 4.05
    endloop
  endfacet
  facet normal 0.866025 0 -0.5
    outer loop
      vertex 27.6368 50 9
      vertex 27.6368 -50 9
      vertex 24.7789 50 4.05
    endloop
  endfacet
  facet normal 0 0 -1
    outer loop
      vertex 24.7789 50 4.05
      vertex 24.7789 -50 4.05
      vertex 24.75 50 4.05
    endloop
  endfacet
  facet normal 0 0 -1
    outer loop
      vertex 24.75 50 4.05
      vertex 24.7789 -50 4.05
      vertex 24.75 -50 4.05
    endloop
  endfacet
  facet normal 1 0 0
    outer loop
      vertex 24.75 50 3.55
      vertex 24.75 50 4.05
      vertex 24.75 -50 4.05
    endloop
  endfacet
  facet normal 1 0 0
    outer loop
      vertex 24.75 -50 3.55
      vertex 24.75 50 3.55
      vertex 24.75 -50 4.05
    endloop
  endfacet
  facet normal 0 0 1
    outer loop
      vertex 35.25 -50 3.55
      vertex 35.25 50 3.55
      vertex 24.75 50 3.55
    endloop
  endfacet
  facet normal 0 0 1
    outer loop
      vertex 24.75 -50 3.55
      vertex 35.25 -50 3.55
      vertex 24.75 50 3.55
    endloop
  endfacet
  facet normal -1 0 0
    outer loop
      vertex 35.25 50 4.05
      vertex 35.25 50 3.55
      vertex 35.25 -50 4.05
    endloop
  endfacet
  facet normal -1 0 0
    outer loop
      vertex 35.25 -50 4.05
      vertex 35.25 50 3.55
      vertex 35.25 -50 3.55
    endloop
  endfacet
  facet normal 0 0 -1
    outer loop
      vertex 35.25 50 4.05
      vertex 35.25 -50 4.05
      vertex 35.2211 50 4.05
    endloop
  endfacet
  facet normal 0 0 -1
    outer loop
      vertex 35.2211 50 4.05
      vertex 35.25 -50 4.05
      vertex 35.2211 -50 4.05
    endloop
  endfacet
  facet normal -0.866025 0 -0.5
    outer loop
      vertex 32.3632 -50 9
      vertex 32.3632 50 9
      vertex 35.2211 -50 4.05
    endloop
  endfacet
  facet normal -0.866025 0 -0.5
    outer loop
      vertex 35.2211 -50 4.05
      vertex 32.3632 50 9
      vertex 35.2211 50 4.05
    endloop
  endfacet
  facet normal -0.866025 0 0.5
    outer loop
      vertex 32.3632 -50 9
      vertex 35.25 -50 14
      vertex 32.3632 50 9
    endloop
  endfacet
  facet normal -0.866025 0 0.5
    outer loop
      vertex 32.3632 50 9
      vertex 35.25 -50 14
      vertex 35.25 50 14
    endloop
  endfacet
  facet normal 0 0 1
    outer loop
      vertex 35.25 50 14
      vertex 35.25 -50 14
      vertex 39 -50 14
    endloop
  endfacet
  facet normal 0 0 1
    outer loop
      vertex 39 50 14
      vertex 35.25 50 14
      vertex 39 -50 14
    endloop
  endfacet
  facet normal 1 0 0
    outer loop
      vertex 39 -50 14
      vertex 39 -50 0
      vertex 39 50 0
    endloop
  endfacet
  facet normal 1 0 0
    outer loop
      vertex 39 50 14
      vertex 39 -50 14
      vertex 39 50 0
    endloop
  endfacet
  facet normal 0 0 -1
    outer loop
      vertex 10 -50 0
      vertex 10 50 0
      vertex 39 -50 0
    endloop
  endfacet
  facet normal 0 0 -1
    outer loop
      vertex 39 -50 0
      vertex 10 50 0
      vertex 39 50 0
    endloop
  endfacet
endsolid OpenSCAD_Model
